M48
;Layer_Color=9474304
;FILE_FORMAT=2:3
INCH,LZ
;TYPE=PLATED
T1F00S00C0.013
T2F00S00C0.035
T3F00S00C0.038
T4F00S00C0.125
;TYPE=NON_PLATED
T5F00S00C0.050
T6F00S00C0.070
T7F00S00C0.100
%
T01
X00082Y00145
X0016Y00234
X00188Y00323
X00377Y00275
X00493Y00424
X00566
X00564Y00391
X00809Y0038
X00826Y00278
X00835Y0024
X01047Y0038
X01088Y00379
X01101Y00343
X0118Y00346
X01317Y0033
X01313Y00451
X01349Y00437
X01382Y00435
X01386Y0051
X01273Y00433
X01144Y0051
X01034Y00469
X01036Y0061
X0096Y0061
X00953Y00735
X00954Y00769
X00987
X01021
X0102Y00734
X01053
X01054Y00773
X00986Y00733
X01105Y00709
X01167Y00706
X01168Y0066
X01114Y00641
X0088Y00682
X00748
Y00731
X0071Y00775
X01437Y00565
X0147Y00567
X01507Y00568
X01506Y00476
X0154Y00472
X01451Y00431
X01701Y00311
Y00275
X01744Y00235
X01942Y00304
X01384Y00804
X0135Y00838
X01017Y0086
X00982Y00858
X00839Y00835
X00806Y00854
X00832Y00956
X00878Y00991
X01069Y00995
X01141Y00994
T02
X001Y00575
X002
X00325
X00425
X01575
X01675
X018
X019
Y00925
X018
X01675
X01575
X00425
X00325
X002
X001
T03
X0025Y00075
Y00175
X0035
Y00075
X0045
Y00175
X0055
Y00075
X0065Y00075
Y00175
X0075
Y00075
X0085
Y00175
X0095
Y00075
X0105
Y00175
X0115
Y00075
X0125Y00075
Y00175
X0135
Y00075
X0005Y0029
X0145Y00175
Y00075
X0155
Y00175
X0165
Y00075
X0175
Y00175
X0194Y002
Y0009
T04
X01725Y01385
X00275
T05
X00627Y00405
X01373Y01075
T06
X00567Y0074
X01433
T07
X01885Y0131
X00115
M30
