%FSLAX23Y23*%
%MOIN*%
G70*
G01*
G75*
G04 Layer_Physical_Order=1*
G04 Layer_Color=255*
%ADD10C,0.016*%
%ADD11C,0.010*%
%ADD12C,0.020*%
%ADD13C,0.018*%
%ADD14C,0.015*%
%ADD15C,0.100*%
%ADD16C,0.145*%
%ADD17C,0.050*%
%ADD18C,0.070*%
%ADD19C,0.060*%
%ADD20O,0.060X0.061*%
%ADD21C,0.059*%
%ADD22C,0.059*%
%ADD23R,0.059X0.059*%
%ADD24C,0.025*%
G36*
X1153Y721D02*
X1159Y725D01*
X1162Y726D01*
X1174Y713D01*
X1167Y706D01*
X1174Y699D01*
X1162Y686D01*
X1166Y685D01*
Y680D01*
X1163Y680D01*
X1175Y667D01*
X1188Y655D01*
X1187Y652D01*
X1184Y648D01*
X1189Y646D01*
X1191Y603D01*
X1191Y603D01*
Y603D01*
X1191Y603D01*
X1191Y603D01*
Y603D01*
X1191D01*
X1192Y598D01*
X1195Y594D01*
X1260Y529D01*
Y449D01*
X1258Y448D01*
X1254Y441D01*
X1252Y433D01*
X1254Y425D01*
X1258Y418D01*
X1265Y414D01*
X1273Y412D01*
X1281Y414D01*
X1288Y418D01*
X1292Y425D01*
X1294Y433D01*
X1293Y435D01*
X1296Y436D01*
X1300Y433D01*
Y391D01*
X1301Y386D01*
X1304Y382D01*
X1383Y303D01*
Y202D01*
X1378Y200D01*
X1377Y202D01*
X1369Y208D01*
X1363Y210D01*
Y296D01*
X1362Y301D01*
X1360Y306D01*
X1360Y306D01*
X1360D01*
Y306D01*
X1360Y306D01*
X1360Y306D01*
X1337Y328D01*
X1338Y330D01*
X1336Y338D01*
X1332Y344D01*
X1325Y349D01*
X1317Y350D01*
X1309Y349D01*
X1302Y344D01*
X1298Y338D01*
X1296Y330D01*
X1298Y322D01*
X1302Y315D01*
X1309Y311D01*
X1317Y309D01*
X1319Y309D01*
X1337Y291D01*
Y210D01*
X1331Y208D01*
X1324Y202D01*
X1320Y197D01*
X1315Y198D01*
Y224D01*
X1314Y229D01*
X1311Y234D01*
X1311Y234D01*
X1311D01*
Y234D01*
X1311Y234D01*
X1311Y234D01*
X1200Y345D01*
X1201Y346D01*
X1199Y354D01*
X1195Y361D01*
X1188Y366D01*
X1180Y367D01*
X1172Y366D01*
X1165Y361D01*
X1161Y354D01*
X1159Y346D01*
X1161Y339D01*
X1165Y332D01*
X1172Y327D01*
X1180Y326D01*
X1182Y326D01*
X1289Y219D01*
Y192D01*
X1284Y191D01*
X1283Y194D01*
X1277Y202D01*
X1269Y208D01*
X1260Y211D01*
X1250Y213D01*
X1241Y211D01*
X1239Y211D01*
X1195Y254D01*
X1191Y257D01*
X1186Y258D01*
X1145D01*
X1075Y328D01*
X1078Y332D01*
X1083Y331D01*
X1085D01*
X1086Y328D01*
X1093Y324D01*
X1101Y322D01*
X1109Y324D01*
X1116Y328D01*
X1120Y335D01*
X1122Y343D01*
X1120Y351D01*
X1116Y358D01*
X1109Y362D01*
X1103Y363D01*
X1103Y364D01*
X1102Y364D01*
X1101Y364D01*
X1093Y362D01*
X1092Y361D01*
X1081Y372D01*
X1068Y384D01*
X1069Y387D01*
X1070Y389D01*
X1065D01*
X1062Y395D01*
X1055Y399D01*
X1047Y401D01*
X1044Y400D01*
X1013Y431D01*
Y456D01*
X1018D01*
X1019Y454D01*
X1026Y450D01*
X1034Y448D01*
X1042Y450D01*
X1049Y454D01*
X1053Y461D01*
X1055Y469D01*
X1053Y477D01*
X1049Y484D01*
X1042Y488D01*
X1034Y490D01*
X1026Y488D01*
X1019Y484D01*
X1018Y482D01*
X1011D01*
Y514D01*
X1083Y586D01*
X1083Y586D01*
X1083Y586D01*
X1086Y590D01*
X1087Y595D01*
Y641D01*
X1086Y646D01*
X1087Y648D01*
X1092Y649D01*
X1095Y646D01*
X1093Y641D01*
X1095Y633D01*
X1100Y626D01*
X1101Y625D01*
Y539D01*
X1101Y539D01*
X1101D01*
X1102Y534D01*
X1105Y530D01*
X1123Y512D01*
X1123Y510D01*
X1125Y502D01*
X1129Y495D01*
X1136Y491D01*
X1144Y489D01*
X1152Y491D01*
X1158Y495D01*
X1163Y502D01*
X1164Y510D01*
X1163Y518D01*
X1158Y525D01*
X1152Y529D01*
X1144Y531D01*
X1142Y530D01*
X1127Y545D01*
Y625D01*
X1129Y626D01*
X1133Y633D01*
X1135Y641D01*
X1133Y649D01*
X1129Y655D01*
X1125Y658D01*
Y703D01*
X1126Y709D01*
X1125Y715D01*
Y725D01*
X1133D01*
X1138Y726D01*
X1138Y726D01*
X1152D01*
X1153Y721D01*
D02*
G37*
G36*
X1943Y962D02*
Y927D01*
X1938Y927D01*
X1937Y935D01*
X1933Y944D01*
X1927Y952D01*
X1919Y958D01*
X1910Y962D01*
X1900Y964D01*
X1890Y962D01*
X1881Y958D01*
X1873Y952D01*
X1867Y944D01*
X1863Y935D01*
X1862Y925D01*
Y925D01*
X1863Y915D01*
X1867Y906D01*
X1873Y898D01*
X1881Y892D01*
X1890Y888D01*
X1900Y886D01*
X1910Y888D01*
X1919Y892D01*
X1927Y898D01*
X1933Y906D01*
X1937Y915D01*
X1938Y923D01*
X1943Y923D01*
Y577D01*
X1938Y577D01*
X1937Y585D01*
X1933Y594D01*
X1927Y602D01*
X1919Y608D01*
X1910Y612D01*
X1900Y614D01*
X1890Y612D01*
X1881Y608D01*
X1873Y602D01*
X1867Y594D01*
X1863Y585D01*
X1862Y575D01*
Y575D01*
X1863Y565D01*
X1867Y556D01*
X1873Y548D01*
X1881Y542D01*
X1890Y538D01*
X1900Y536D01*
X1910Y538D01*
X1919Y542D01*
X1927Y548D01*
X1933Y556D01*
X1937Y565D01*
X1938Y573D01*
X1943Y573D01*
Y325D01*
X1942Y325D01*
X1936Y324D01*
X1934Y324D01*
X1717D01*
X1716Y326D01*
X1709Y330D01*
X1701Y332D01*
X1693Y330D01*
X1686Y326D01*
X1682Y319D01*
X1680Y311D01*
X1682Y303D01*
X1686Y296D01*
X1688Y296D01*
Y290D01*
X1686Y290D01*
X1682Y283D01*
X1680Y275D01*
X1681Y269D01*
X1677Y267D01*
X1613Y330D01*
Y478D01*
X1612Y483D01*
X1609Y487D01*
X1609Y487D01*
X1609D01*
Y487D01*
X1609Y487D01*
X1609Y487D01*
X1563Y533D01*
X1565Y538D01*
X1575Y537D01*
X1585Y538D01*
X1594Y542D01*
X1602Y548D01*
X1608Y556D01*
X1612Y565D01*
X1613Y575D01*
X1612Y585D01*
X1608Y594D01*
X1602Y602D01*
X1594Y608D01*
X1585Y612D01*
X1575Y613D01*
X1565Y612D01*
X1556Y608D01*
X1548Y602D01*
X1542Y594D01*
X1538Y585D01*
X1537Y575D01*
X1538Y565D01*
X1542Y556D01*
X1539Y553D01*
X1538Y553D01*
X1526D01*
X1524Y557D01*
X1526Y560D01*
X1528Y568D01*
X1526Y576D01*
X1522Y583D01*
X1515Y587D01*
X1507Y589D01*
X1505Y588D01*
X1361Y732D01*
Y793D01*
X1366Y795D01*
X1365Y796D01*
X1364Y799D01*
X1370Y804D01*
X1364Y809D01*
X1364Y809D01*
X1359Y808D01*
X1357Y811D01*
X1354Y814D01*
X1356Y818D01*
X1358Y819D01*
X1365Y823D01*
X1369Y830D01*
X1371Y838D01*
X1369Y846D01*
X1365Y853D01*
X1358Y857D01*
X1350Y859D01*
X1348Y858D01*
X1229Y977D01*
X1225Y980D01*
X1220Y981D01*
X1162D01*
X1160Y985D01*
X1160Y986D01*
X1162Y994D01*
X1160Y1002D01*
X1156Y1009D01*
X1149Y1013D01*
X1141Y1015D01*
X1133Y1013D01*
X1126Y1009D01*
X1122Y1002D01*
X1120Y994D01*
X1122Y986D01*
X1122Y985D01*
X1120Y981D01*
X1089D01*
X1087Y985D01*
X1088Y987D01*
X1090Y995D01*
X1088Y1003D01*
X1084Y1010D01*
X1077Y1014D01*
X1069Y1016D01*
X1061Y1014D01*
X1060Y1013D01*
X932D01*
X925Y1012D01*
X919Y1008D01*
X903Y992D01*
X898Y993D01*
X898Y996D01*
X885Y984D01*
X873Y971D01*
X876Y971D01*
X877Y966D01*
X853Y941D01*
X849Y945D01*
X851Y948D01*
X853Y956D01*
X851Y964D01*
X847Y971D01*
X840Y975D01*
X832Y977D01*
X824Y975D01*
X817Y971D01*
X813Y964D01*
X811Y956D01*
X813Y948D01*
X817Y941D01*
X824Y937D01*
X832Y935D01*
X840Y937D01*
X843Y939D01*
X847Y935D01*
X833Y922D01*
X784D01*
X777Y921D01*
X771Y917D01*
X697Y843D01*
X693Y837D01*
X692Y830D01*
Y784D01*
X691Y783D01*
X689Y775D01*
X691Y767D01*
X695Y760D01*
X702Y756D01*
X710Y754D01*
X718Y756D01*
X725Y760D01*
X729Y767D01*
X731Y775D01*
X729Y783D01*
X728Y784D01*
Y822D01*
X756Y850D01*
X761Y849D01*
Y752D01*
X756Y750D01*
X761Y747D01*
Y732D01*
Y715D01*
X756Y712D01*
X761Y710D01*
Y703D01*
X756Y701D01*
X756Y701D01*
X748Y703D01*
X740Y701D01*
X733Y697D01*
X729Y690D01*
X727Y682D01*
X729Y674D01*
X733Y667D01*
X735Y666D01*
Y593D01*
X735Y593D01*
X735D01*
X736Y588D01*
X739Y584D01*
X821Y501D01*
Y401D01*
X817Y399D01*
X821Y396D01*
Y382D01*
Y364D01*
X817Y361D01*
X821Y359D01*
Y315D01*
X821Y313D01*
Y298D01*
X818Y297D01*
X811Y293D01*
X807Y286D01*
X805Y278D01*
X807Y270D01*
X811Y263D01*
X818Y259D01*
X818Y259D01*
X820Y254D01*
X816Y248D01*
X814Y240D01*
X816Y232D01*
X820Y225D01*
X827Y221D01*
X835Y219D01*
X843Y221D01*
X850Y225D01*
X853Y230D01*
X858Y229D01*
Y215D01*
X854Y212D01*
X850Y213D01*
X840Y211D01*
X831Y208D01*
X823Y202D01*
X817Y194D01*
X814Y185D01*
X812Y175D01*
X814Y165D01*
X817Y156D01*
X823Y148D01*
X831Y142D01*
X840Y139D01*
X850Y137D01*
X860Y139D01*
X869Y142D01*
X877Y148D01*
X883Y156D01*
X885Y162D01*
X890Y161D01*
Y127D01*
X890Y127D01*
X890D01*
X891Y122D01*
X894Y118D01*
X917Y94D01*
X917Y94D01*
X914Y85D01*
X912Y75D01*
X914Y65D01*
X917Y56D01*
X923Y48D01*
X931Y42D01*
X932Y42D01*
X931Y37D01*
X869D01*
X868Y42D01*
X869Y42D01*
X850Y61D01*
X831Y42D01*
X832Y42D01*
X831Y37D01*
X769D01*
X768Y42D01*
X769Y42D01*
X750Y61D01*
X731Y42D01*
X732Y42D01*
X731Y37D01*
X669D01*
X668Y42D01*
X669Y42D01*
X677Y48D01*
X683Y56D01*
X686Y65D01*
X688Y75D01*
X686Y85D01*
X683Y94D01*
X677Y102D01*
X669Y108D01*
X660Y111D01*
X650Y113D01*
X640Y111D01*
X631Y108D01*
X623Y102D01*
X617Y94D01*
X614Y85D01*
X612Y75D01*
X614Y65D01*
X617Y56D01*
X623Y48D01*
X631Y42D01*
X632Y42D01*
X631Y37D01*
X569D01*
X568Y42D01*
X569Y42D01*
X576Y48D01*
X582Y56D01*
X586Y65D01*
X587Y75D01*
X586Y85D01*
X582Y94D01*
X576Y102D01*
X569Y108D01*
X559Y111D01*
X550Y113D01*
X540Y111D01*
X531Y108D01*
X523Y102D01*
X517Y94D01*
X513Y85D01*
X512Y75D01*
X513Y65D01*
X517Y56D01*
X523Y48D01*
X531Y42D01*
X532Y42D01*
X531Y37D01*
X469D01*
X468Y42D01*
X469Y42D01*
X476Y48D01*
X482Y56D01*
X486Y65D01*
X487Y75D01*
X486Y85D01*
X482Y94D01*
X476Y102D01*
X469Y108D01*
X459Y111D01*
X450Y113D01*
X440Y111D01*
X431Y108D01*
X423Y102D01*
X417Y94D01*
X413Y85D01*
X412Y75D01*
X413Y65D01*
X417Y56D01*
X423Y48D01*
X431Y42D01*
X432Y42D01*
X431Y37D01*
X406D01*
X384Y60D01*
X386Y65D01*
X387Y75D01*
X386Y85D01*
X382Y94D01*
X376Y102D01*
X369Y108D01*
X359Y111D01*
X350Y113D01*
X340Y111D01*
X331Y108D01*
X323Y102D01*
X317Y94D01*
X313Y85D01*
X312Y75D01*
X313Y65D01*
X317Y56D01*
X323Y48D01*
X331Y42D01*
X340Y39D01*
X350Y37D01*
X359Y39D01*
X365Y41D01*
X377Y30D01*
X375Y25D01*
X25D01*
Y256D01*
X29Y259D01*
X31Y257D01*
X40Y254D01*
X50Y252D01*
X60Y254D01*
X69Y257D01*
X77Y263D01*
X83Y271D01*
X86Y280D01*
X88Y290D01*
X86Y300D01*
X83Y309D01*
X77Y317D01*
X69Y323D01*
X60Y326D01*
X50Y328D01*
X40Y326D01*
X31Y323D01*
X29Y321D01*
X25Y324D01*
Y413D01*
X30Y415D01*
X169Y275D01*
X151Y257D01*
X148Y253D01*
X147Y250D01*
X145Y249D01*
X141Y242D01*
X139Y234D01*
X141Y226D01*
X145Y219D01*
X152Y215D01*
X160Y213D01*
X168Y215D01*
X175Y219D01*
X179Y226D01*
X181Y234D01*
X179Y242D01*
X176Y246D01*
X192Y262D01*
X361D01*
X362Y260D01*
X369Y256D01*
X377Y254D01*
X385Y256D01*
X392Y260D01*
X396Y267D01*
X398Y275D01*
X396Y283D01*
X392Y290D01*
X385Y294D01*
X377Y296D01*
X369Y294D01*
X362Y290D01*
X361Y288D01*
X193D01*
X183Y298D01*
X186Y303D01*
X188Y302D01*
X196Y304D01*
X203Y308D01*
X207Y315D01*
X209Y323D01*
X207Y331D01*
X203Y337D01*
X196Y342D01*
X188Y344D01*
X185Y343D01*
X54Y475D01*
Y974D01*
X518Y1438D01*
X1467D01*
X1943Y962D01*
D02*
G37*
%LPC*%
G36*
X1088Y400D02*
X1083Y399D01*
X1088Y393D01*
X1093Y399D01*
X1088Y400D01*
D02*
G37*
G36*
X550Y411D02*
X549Y406D01*
X553Y408D01*
X551Y409D01*
X550Y411D01*
D02*
G37*
G36*
X513Y429D02*
X507Y424D01*
X513Y419D01*
X514Y424D01*
X513Y429D01*
D02*
G37*
G36*
X473D02*
X472Y424D01*
X473Y419D01*
X479Y424D01*
X473Y429D01*
D02*
G37*
G36*
X566Y410D02*
X563Y407D01*
X564Y405D01*
X567Y408D01*
X566Y410D01*
D02*
G37*
G36*
X493D02*
X488Y404D01*
X493Y403D01*
X498Y404D01*
X493Y410D01*
D02*
G37*
G36*
X579Y408D02*
X577Y407D01*
X579Y406D01*
Y408D01*
D02*
G37*
G36*
X809Y401D02*
X804Y400D01*
X809Y394D01*
X814Y400D01*
X809Y401D01*
D02*
G37*
G36*
X425Y614D02*
X415Y612D01*
X406Y608D01*
X398Y602D01*
X392Y594D01*
X388Y585D01*
X387Y575D01*
Y575D01*
X388Y565D01*
X392Y556D01*
X398Y548D01*
X406Y542D01*
X415Y538D01*
X425Y536D01*
X435Y538D01*
X444Y542D01*
X452Y548D01*
X458Y556D01*
X462Y565D01*
X463Y575D01*
Y575D01*
X462Y585D01*
X458Y594D01*
X452Y602D01*
X444Y608D01*
X435Y612D01*
X425Y614D01*
D02*
G37*
G36*
X200D02*
X190Y612D01*
X181Y608D01*
X173Y602D01*
X167Y594D01*
X163Y585D01*
X162Y575D01*
Y575D01*
X163Y565D01*
X167Y556D01*
X173Y548D01*
X181Y542D01*
X190Y538D01*
X200Y536D01*
X210Y538D01*
X219Y542D01*
X227Y548D01*
X233Y556D01*
X237Y565D01*
X238Y575D01*
Y575D01*
X237Y585D01*
X233Y594D01*
X227Y602D01*
X219Y608D01*
X210Y612D01*
X200Y614D01*
D02*
G37*
G36*
X100Y613D02*
X90Y612D01*
X81Y608D01*
X73Y602D01*
X67Y594D01*
X63Y585D01*
X62Y575D01*
X63Y565D01*
X67Y556D01*
X73Y548D01*
X81Y542D01*
X90Y538D01*
X100Y537D01*
X110Y538D01*
X119Y542D01*
X127Y548D01*
X133Y556D01*
X137Y565D01*
X138Y575D01*
X137Y585D01*
X133Y594D01*
X127Y602D01*
X119Y608D01*
X110Y612D01*
X100Y613D01*
D02*
G37*
G36*
X1675Y614D02*
X1665Y612D01*
X1656Y608D01*
X1648Y602D01*
X1642Y594D01*
X1638Y585D01*
X1637Y575D01*
Y575D01*
X1638Y565D01*
X1642Y556D01*
X1648Y548D01*
X1656Y542D01*
X1665Y538D01*
X1675Y536D01*
X1685Y538D01*
X1694Y542D01*
X1702Y548D01*
X1708Y556D01*
X1712Y565D01*
X1713Y575D01*
Y575D01*
X1712Y585D01*
X1708Y594D01*
X1702Y602D01*
X1694Y608D01*
X1685Y612D01*
X1675Y614D01*
D02*
G37*
G36*
X586Y429D02*
X580Y424D01*
X586Y419D01*
X587Y424D01*
X586Y429D01*
D02*
G37*
G36*
X546D02*
X545Y424D01*
X546Y419D01*
X552Y424D01*
X546Y429D01*
D02*
G37*
G36*
X566Y445D02*
X561Y444D01*
X566Y438D01*
X571Y444D01*
X566Y445D01*
D02*
G37*
G36*
X493D02*
X488Y444D01*
X493Y438D01*
X498Y444D01*
X493Y445D01*
D02*
G37*
G36*
X584Y396D02*
X578Y391D01*
X584Y386D01*
X585Y391D01*
X584Y396D01*
D02*
G37*
G36*
X850Y113D02*
X840Y111D01*
X831Y108D01*
X850Y89D01*
X869Y108D01*
X860Y111D01*
X850Y113D01*
D02*
G37*
G36*
X750D02*
X740Y111D01*
X731Y108D01*
X750Y89D01*
X769Y108D01*
X760Y111D01*
X750Y113D01*
D02*
G37*
G36*
X650Y213D02*
X640Y211D01*
X631Y208D01*
X623Y202D01*
X617Y194D01*
X614Y185D01*
X612Y175D01*
X614Y165D01*
X617Y156D01*
X623Y148D01*
X631Y142D01*
X640Y139D01*
X650Y137D01*
X660Y139D01*
X669Y142D01*
X677Y148D01*
X683Y156D01*
X686Y165D01*
X688Y175D01*
X686Y185D01*
X683Y194D01*
X677Y202D01*
X669Y208D01*
X660Y211D01*
X650Y213D01*
D02*
G37*
G36*
X350Y213D02*
X340Y211D01*
X331Y208D01*
X323Y202D01*
X317Y194D01*
X313Y185D01*
X312Y175D01*
X313Y165D01*
X316Y160D01*
X293Y137D01*
X269D01*
X268Y142D01*
X269Y142D01*
X276Y148D01*
X282Y156D01*
X286Y165D01*
X287Y175D01*
X286Y185D01*
X282Y194D01*
X276Y202D01*
X269Y208D01*
X259Y211D01*
X250Y213D01*
X240Y211D01*
X231Y208D01*
X223Y202D01*
X217Y194D01*
X213Y185D01*
X212Y175D01*
X213Y165D01*
X217Y156D01*
X223Y148D01*
X231Y142D01*
X232Y142D01*
X231Y137D01*
X117D01*
X116Y137D01*
X116Y137D01*
X108D01*
X102Y143D01*
X103Y145D01*
X101Y153D01*
X97Y160D01*
X90Y164D01*
X82Y166D01*
X74Y164D01*
X67Y160D01*
X63Y153D01*
X61Y145D01*
X63Y137D01*
X67Y130D01*
X74Y126D01*
X82Y124D01*
X84Y125D01*
X94Y115D01*
D01*
X94D01*
X94Y115D01*
X94Y115D01*
X94D01*
D01*
X94D01*
X94Y115D01*
Y115D01*
X94Y115D01*
Y115D01*
X98Y112D01*
X103Y111D01*
X116D01*
X116Y111D01*
X117Y111D01*
X227D01*
X229Y106D01*
X223Y102D01*
X217Y94D01*
X213Y85D01*
X212Y75D01*
X213Y65D01*
X217Y56D01*
X223Y48D01*
X231Y42D01*
X240Y39D01*
X250Y37D01*
X259Y39D01*
X269Y42D01*
X276Y48D01*
X282Y56D01*
X286Y65D01*
X287Y75D01*
X286Y85D01*
X282Y94D01*
X276Y102D01*
X269Y108D01*
X269Y111D01*
X299D01*
X304Y112D01*
X308Y115D01*
Y115D01*
X308D01*
D01*
D01*
D01*
D01*
D01*
D01*
X308D01*
D01*
X308D01*
Y115D01*
D01*
D01*
D01*
D01*
Y115D01*
D01*
D01*
D01*
D01*
D01*
D01*
Y115D01*
D01*
D01*
X308D01*
D01*
D01*
D01*
X334Y141D01*
X340Y139D01*
X350Y137D01*
X359Y139D01*
X369Y142D01*
X376Y148D01*
X382Y156D01*
X386Y165D01*
X387Y175D01*
X386Y185D01*
X382Y194D01*
X376Y202D01*
X369Y208D01*
X359Y211D01*
X350Y213D01*
D02*
G37*
G36*
X783Y94D02*
X764Y75D01*
X783Y56D01*
X786Y65D01*
X788Y75D01*
X786Y85D01*
X783Y94D01*
D02*
G37*
G36*
X717D02*
X714Y85D01*
X712Y75D01*
X714Y65D01*
X717Y56D01*
X736Y75D01*
X717Y94D01*
D02*
G37*
G36*
X883D02*
X864Y75D01*
X883Y56D01*
X886Y65D01*
X888Y75D01*
X886Y85D01*
X883Y94D01*
D02*
G37*
G36*
X817D02*
X814Y85D01*
X812Y75D01*
X814Y65D01*
X817Y56D01*
X836Y75D01*
X817Y94D01*
D02*
G37*
G36*
X750Y213D02*
X740Y211D01*
X731Y208D01*
X723Y202D01*
X717Y194D01*
X714Y185D01*
X712Y175D01*
X714Y165D01*
X717Y156D01*
X723Y148D01*
X731Y142D01*
X740Y139D01*
X750Y137D01*
X760Y139D01*
X769Y142D01*
X777Y148D01*
X783Y156D01*
X786Y165D01*
X788Y175D01*
X786Y185D01*
X783Y194D01*
X777Y202D01*
X769Y208D01*
X760Y211D01*
X750Y213D01*
D02*
G37*
G36*
X1108Y384D02*
X1102Y379D01*
X1108Y374D01*
X1109Y379D01*
X1108Y384D01*
D02*
G37*
G36*
X627Y438D02*
X618Y437D01*
X610Y434D01*
X604Y428D01*
X598Y422D01*
X595Y414D01*
X594Y405D01*
X595Y396D01*
X598Y388D01*
X604Y382D01*
X610Y376D01*
X618Y373D01*
X627Y372D01*
X636Y373D01*
X644Y376D01*
X650Y382D01*
X656Y388D01*
X659Y396D01*
X660Y405D01*
X659Y414D01*
X656Y422D01*
X650Y428D01*
X644Y434D01*
X636Y437D01*
X627Y438D01*
D02*
G37*
G36*
X544Y396D02*
X543Y391D01*
X544Y386D01*
X550Y391D01*
X544Y396D01*
D02*
G37*
G36*
X789Y385D02*
X788Y380D01*
X789Y375D01*
X795Y380D01*
X789Y385D01*
D02*
G37*
G36*
X550Y213D02*
X540Y211D01*
X531Y208D01*
X523Y202D01*
X517Y194D01*
X513Y185D01*
X512Y175D01*
X513Y165D01*
X517Y156D01*
X523Y148D01*
X531Y142D01*
X540Y139D01*
X550Y137D01*
X559Y139D01*
X569Y142D01*
X576Y148D01*
X582Y156D01*
X586Y165D01*
X587Y175D01*
X586Y185D01*
X582Y194D01*
X576Y202D01*
X569Y208D01*
X559Y211D01*
X550Y213D01*
D02*
G37*
G36*
X450D02*
X440Y211D01*
X431Y208D01*
X423Y202D01*
X417Y194D01*
X413Y185D01*
X412Y175D01*
X413Y165D01*
X417Y156D01*
X423Y148D01*
X431Y142D01*
X440Y139D01*
X450Y137D01*
X459Y139D01*
X469Y142D01*
X476Y148D01*
X482Y156D01*
X486Y165D01*
X487Y175D01*
X486Y185D01*
X482Y194D01*
X476Y202D01*
X469Y208D01*
X459Y211D01*
X450Y213D01*
D02*
G37*
G36*
X564Y377D02*
X559Y371D01*
X564Y370D01*
X569Y371D01*
X564Y377D01*
D02*
G37*
G36*
X809Y366D02*
X804Y360D01*
X809Y359D01*
X814Y360D01*
X809Y366D01*
D02*
G37*
G36*
X358Y944D02*
X339Y925D01*
X358Y906D01*
X362Y915D01*
X363Y925D01*
X362Y935D01*
X358Y944D01*
D02*
G37*
G36*
X292D02*
X288Y935D01*
X287Y925D01*
X288Y915D01*
X292Y906D01*
X311Y925D01*
X292Y944D01*
D02*
G37*
G36*
X1608D02*
X1589Y925D01*
X1608Y906D01*
X1612Y915D01*
X1613Y925D01*
X1612Y935D01*
X1608Y944D01*
D02*
G37*
G36*
X1542D02*
X1538Y935D01*
X1537Y925D01*
X1538Y915D01*
X1542Y906D01*
X1561Y925D01*
X1542Y944D01*
D02*
G37*
G36*
X1800Y911D02*
X1781Y892D01*
X1790Y888D01*
X1800Y887D01*
X1810Y888D01*
X1819Y892D01*
X1800Y911D01*
D02*
G37*
G36*
X1575D02*
X1556Y892D01*
X1565Y888D01*
X1575Y887D01*
X1585Y888D01*
X1594Y892D01*
X1575Y911D01*
D02*
G37*
G36*
X133Y944D02*
X114Y925D01*
X133Y906D01*
X137Y915D01*
X138Y925D01*
X137Y935D01*
X133Y944D01*
D02*
G37*
G36*
X67D02*
X63Y935D01*
X62Y925D01*
X63Y915D01*
X67Y906D01*
X86Y925D01*
X67Y944D01*
D02*
G37*
G36*
X1767D02*
X1763Y935D01*
X1762Y925D01*
X1763Y915D01*
X1767Y906D01*
X1786Y925D01*
X1767Y944D01*
D02*
G37*
G36*
X858Y996D02*
X857Y991D01*
X858Y986D01*
X864Y991D01*
X858Y996D01*
D02*
G37*
G36*
X1800Y963D02*
X1790Y962D01*
X1781Y958D01*
X1800Y939D01*
X1819Y958D01*
X1810Y962D01*
X1800Y963D01*
D02*
G37*
G36*
X1373Y1108D02*
X1364Y1107D01*
X1356Y1104D01*
X1350Y1098D01*
X1344Y1092D01*
X1341Y1084D01*
X1340Y1075D01*
X1341Y1066D01*
X1344Y1058D01*
X1350Y1052D01*
X1356Y1046D01*
X1364Y1043D01*
X1373Y1042D01*
X1382Y1043D01*
X1390Y1046D01*
X1396Y1052D01*
X1402Y1058D01*
X1405Y1066D01*
X1406Y1075D01*
X1405Y1084D01*
X1402Y1092D01*
X1396Y1098D01*
X1390Y1104D01*
X1382Y1107D01*
X1373Y1108D01*
D02*
G37*
G36*
X878Y1012D02*
X873Y1011D01*
X878Y1005D01*
X883Y1011D01*
X878Y1012D01*
D02*
G37*
G36*
X100Y963D02*
X90Y962D01*
X81Y958D01*
X100Y939D01*
X119Y958D01*
X110Y962D01*
X100Y963D01*
D02*
G37*
G36*
X1833Y944D02*
X1814Y925D01*
X1833Y906D01*
X1837Y915D01*
X1838Y925D01*
X1837Y935D01*
X1833Y944D01*
D02*
G37*
G36*
X1575Y963D02*
X1565Y962D01*
X1556Y958D01*
X1575Y939D01*
X1594Y958D01*
X1585Y962D01*
X1575Y963D01*
D02*
G37*
G36*
X325D02*
X315Y962D01*
X306Y958D01*
X325Y939D01*
X344Y958D01*
X335Y962D01*
X325Y963D01*
D02*
G37*
G36*
Y911D02*
X306Y892D01*
X315Y888D01*
X325Y887D01*
X335Y888D01*
X344Y892D01*
X325Y911D01*
D02*
G37*
G36*
X1433Y783D02*
X1422Y782D01*
X1411Y777D01*
X1402Y771D01*
X1396Y762D01*
X1391Y751D01*
X1390Y740D01*
X1391Y729D01*
X1396Y718D01*
X1402Y709D01*
X1411Y703D01*
X1422Y698D01*
X1433Y697D01*
X1444Y698D01*
X1455Y703D01*
X1464Y709D01*
X1470Y718D01*
X1475Y729D01*
X1476Y740D01*
X1475Y751D01*
X1470Y762D01*
X1464Y771D01*
X1455Y777D01*
X1444Y782D01*
X1433Y783D01*
D02*
G37*
G36*
X567D02*
X556Y782D01*
X545Y777D01*
X536Y771D01*
X530Y762D01*
X525Y751D01*
X524Y740D01*
X525Y729D01*
X530Y718D01*
X536Y709D01*
X545Y703D01*
X556Y698D01*
X567Y697D01*
X578Y698D01*
X589Y703D01*
X598Y709D01*
X604Y718D01*
X609Y729D01*
X610Y740D01*
X609Y751D01*
X604Y762D01*
X598Y771D01*
X589Y777D01*
X578Y782D01*
X567Y783D01*
D02*
G37*
G36*
X748Y717D02*
X743Y711D01*
X748Y710D01*
X753Y711D01*
X748Y717D01*
D02*
G37*
G36*
X1147Y711D02*
X1146Y706D01*
X1147Y701D01*
X1153Y706D01*
X1147Y711D01*
D02*
G37*
G36*
X1800Y613D02*
X1790Y612D01*
X1781Y608D01*
X1773Y602D01*
X1767Y594D01*
X1763Y585D01*
X1762Y575D01*
X1763Y565D01*
X1767Y556D01*
X1773Y548D01*
X1781Y542D01*
X1790Y538D01*
X1800Y537D01*
X1810Y538D01*
X1819Y542D01*
X1827Y548D01*
X1833Y556D01*
X1837Y565D01*
X1838Y575D01*
X1837Y585D01*
X1833Y594D01*
X1827Y602D01*
X1819Y608D01*
X1810Y612D01*
X1800Y613D01*
D02*
G37*
G36*
X325D02*
X315Y612D01*
X306Y608D01*
X298Y602D01*
X292Y594D01*
X288Y585D01*
X287Y575D01*
X288Y565D01*
X292Y556D01*
X298Y548D01*
X306Y542D01*
X315Y538D01*
X325Y537D01*
X335Y538D01*
X344Y542D01*
X352Y548D01*
X358Y556D01*
X362Y565D01*
X363Y575D01*
X362Y585D01*
X358Y594D01*
X352Y602D01*
X344Y608D01*
X335Y612D01*
X325Y613D01*
D02*
G37*
G36*
X1148Y665D02*
X1147Y660D01*
X1148Y655D01*
X1154Y660D01*
X1148Y665D01*
D02*
G37*
G36*
X1168Y646D02*
X1163Y640D01*
X1168Y639D01*
X1173Y640D01*
X1168Y646D01*
D02*
G37*
G36*
X728Y736D02*
X727Y731D01*
X728Y726D01*
X734Y731D01*
X728Y736D01*
D02*
G37*
G36*
X425Y964D02*
X415Y962D01*
X406Y958D01*
X398Y952D01*
X392Y944D01*
X388Y935D01*
X387Y925D01*
Y925D01*
X388Y915D01*
X392Y906D01*
X398Y898D01*
X406Y892D01*
X415Y888D01*
X425Y886D01*
X435Y888D01*
X444Y892D01*
X452Y898D01*
X458Y906D01*
X462Y915D01*
X463Y925D01*
Y925D01*
X462Y935D01*
X458Y944D01*
X452Y952D01*
X444Y958D01*
X435Y962D01*
X425Y964D01*
D02*
G37*
G36*
X200D02*
X190Y962D01*
X181Y958D01*
X173Y952D01*
X167Y944D01*
X163Y935D01*
X162Y925D01*
Y925D01*
X163Y915D01*
X167Y906D01*
X173Y898D01*
X181Y892D01*
X190Y888D01*
X200Y886D01*
X210Y888D01*
X219Y892D01*
X227Y898D01*
X233Y906D01*
X237Y915D01*
X238Y925D01*
Y925D01*
X237Y935D01*
X233Y944D01*
X227Y952D01*
X219Y958D01*
X210Y962D01*
X200Y964D01*
D02*
G37*
G36*
X100Y911D02*
X81Y892D01*
X90Y888D01*
X100Y887D01*
X110Y888D01*
X119Y892D01*
X100Y911D01*
D02*
G37*
G36*
X1675Y964D02*
X1665Y962D01*
X1656Y958D01*
X1648Y952D01*
X1642Y944D01*
X1638Y935D01*
X1637Y925D01*
Y925D01*
X1638Y915D01*
X1642Y906D01*
X1648Y898D01*
X1656Y892D01*
X1665Y888D01*
X1675Y886D01*
X1685Y888D01*
X1694Y892D01*
X1702Y898D01*
X1708Y906D01*
X1712Y915D01*
X1713Y925D01*
Y925D01*
X1712Y935D01*
X1708Y944D01*
X1702Y952D01*
X1694Y958D01*
X1685Y962D01*
X1675Y964D01*
D02*
G37*
G36*
X1384Y790D02*
X1379Y784D01*
X1384Y783D01*
X1389Y784D01*
X1384Y790D01*
D02*
G37*
G36*
X748Y752D02*
X743Y751D01*
X748Y745D01*
X753Y751D01*
X748Y752D01*
D02*
G37*
G36*
X1384Y825D02*
X1379Y824D01*
X1384Y818D01*
X1389Y824D01*
X1384Y825D01*
D02*
G37*
G36*
X1404Y809D02*
X1398Y804D01*
X1404Y799D01*
X1405Y804D01*
X1404Y809D01*
D02*
G37*
%LPD*%
D10*
X925Y679D02*
D03*
X956D02*
D03*
X988D02*
D03*
X1019D02*
D03*
X1051D02*
D03*
X1082Y709D02*
D03*
X1051D02*
D03*
X988D02*
D03*
X956D02*
D03*
X925D02*
D03*
X1082Y738D02*
D03*
X925D02*
D03*
X1082Y768D02*
D03*
X925D02*
D03*
X1082Y797D02*
D03*
X1051D02*
D03*
X1019D02*
D03*
X988D02*
D03*
X956D02*
D03*
X925D02*
D03*
X1082Y827D02*
D03*
X1051D02*
D03*
X1019D02*
D03*
X988D02*
D03*
X956D02*
D03*
X925D02*
D03*
X1082Y679D02*
D03*
X1019Y709D02*
D03*
D11*
X41Y469D02*
Y980D01*
X512Y1451D01*
X1473D01*
X1956Y968D01*
Y318D02*
Y968D01*
X1942Y304D02*
X1956Y318D01*
X505Y1469D02*
X1480D01*
X1974Y975D01*
X852Y178D02*
X853Y177D01*
X871Y197D02*
Y358D01*
X870Y359D02*
X871Y358D01*
X870Y359D02*
Y528D01*
X998Y127D02*
Y285D01*
X908Y375D02*
X998Y285D01*
X908Y375D02*
Y545D01*
X926Y382D02*
Y553D01*
Y382D02*
X1101Y207D01*
X935Y599D02*
X962Y572D01*
X1220Y968D02*
X1350Y838D01*
X117Y124D02*
X299D01*
X350Y175D01*
X980Y405D02*
X1139Y245D01*
X980Y554D02*
X1036Y610D01*
X980Y405D02*
Y554D01*
X962Y397D02*
Y572D01*
X935Y599D02*
Y623D01*
X952Y640D01*
X944Y390D02*
Y562D01*
X917Y634D02*
X941Y658D01*
X998Y519D02*
X1074Y595D01*
X1317Y330D02*
X1350Y296D01*
Y175D02*
Y296D01*
X1180Y346D02*
X1302Y224D01*
Y125D02*
Y224D01*
Y125D02*
X1350Y77D01*
X1139Y245D02*
X1186D01*
X1251Y180D01*
Y175D02*
Y180D01*
X1175Y225D02*
X1201Y200D01*
X1201D01*
X1134Y225D02*
X1175D01*
X962Y397D02*
X1134Y225D01*
X944Y390D02*
X1002Y332D01*
X1114Y539D02*
X1144Y510D01*
X1114Y539D02*
Y641D01*
X982Y858D02*
X987Y853D01*
Y828D02*
Y853D01*
X1050Y709D02*
X1051Y711D01*
X1050Y709D02*
X1050Y709D01*
X1049Y712D02*
Y729D01*
Y772D02*
X1054Y773D01*
X953Y735D02*
X956Y734D01*
X1204Y603D02*
Y720D01*
Y603D02*
X1273Y534D01*
X1185Y739D02*
X1204Y720D01*
X1134Y739D02*
X1185D01*
X1273Y433D02*
Y534D01*
X1017Y860D02*
X1019Y862D01*
X903Y127D02*
X951Y79D01*
X903Y127D02*
Y353D01*
X998Y127D02*
X1050Y75D01*
X1101Y122D02*
Y207D01*
X1201Y124D02*
X1250Y75D01*
X1201Y124D02*
Y200D01*
X1312Y690D02*
Y787D01*
X1186Y913D02*
X1312Y787D01*
Y690D02*
X1437Y565D01*
X1258Y637D02*
Y764D01*
Y637D02*
X1385Y510D01*
X1196Y826D02*
X1258Y764D01*
X1396Y129D02*
X1450Y75D01*
X1193Y931D02*
X1330Y794D01*
Y708D02*
Y794D01*
X902Y877D02*
X956Y931D01*
X1240Y619D02*
Y751D01*
X1194Y797D02*
X1240Y751D01*
X1137Y797D02*
X1194D01*
X1503Y122D02*
X1550Y75D01*
X1201Y949D02*
X1348Y802D01*
X884Y884D02*
X949Y949D01*
X1348Y727D02*
Y802D01*
X1222Y611D02*
Y739D01*
Y611D02*
X1367Y466D01*
X1193Y768D02*
X1222Y739D01*
X1602Y130D02*
X1651Y81D01*
X1294Y672D02*
X1426Y540D01*
X1179Y894D02*
X1294Y779D01*
X1426Y540D02*
X1538D01*
X1294Y672D02*
Y779D01*
X1276Y664D02*
X1419Y521D01*
X1195Y852D02*
X1276Y772D01*
X1704Y121D02*
X1750Y75D01*
X1276Y664D02*
Y772D01*
X1419Y521D02*
X1529D01*
X1602Y130D02*
Y192D01*
X1547Y247D02*
X1602Y192D01*
X1565Y261D02*
X1650Y175D01*
X1565Y261D02*
Y448D01*
X1541Y472D02*
X1565Y448D01*
X1540Y472D02*
Y472D01*
X1704Y121D02*
Y189D01*
X1582Y311D02*
X1704Y189D01*
X1582Y311D02*
Y468D01*
X1529Y521D02*
X1582Y468D01*
X1600Y325D02*
X1750Y175D01*
X1600Y325D02*
Y478D01*
X1701Y275D02*
X1954D01*
X1974Y295D01*
Y975D01*
X1701Y311D02*
X1934D01*
X1941Y304D01*
X1538Y540D02*
X1600Y478D01*
X1526Y447D02*
X1547Y426D01*
Y247D02*
Y426D01*
X41Y469D02*
X188Y322D01*
X1814Y44D02*
Y197D01*
X1794Y24D02*
X1814Y44D01*
X1744Y235D02*
X1776D01*
X1814Y197D01*
X401Y24D02*
X1794D01*
X350Y75D02*
X401Y24D01*
X834Y314D02*
Y507D01*
X835Y240D02*
X852Y257D01*
Y275D01*
X852Y273D02*
Y516D01*
X826Y278D02*
X834Y286D01*
Y313D01*
X960Y610D02*
X972Y622D01*
X949Y949D02*
X1201D01*
X956Y931D02*
X1193D01*
X884Y795D02*
Y884D01*
Y795D02*
X911Y768D01*
X1348Y727D02*
X1506Y568D01*
X911Y768D02*
X925D01*
X902Y808D02*
Y877D01*
Y808D02*
X912Y798D01*
X924D01*
X925Y874D02*
X964Y913D01*
X925Y827D02*
Y874D01*
X964Y913D02*
X1186D01*
X956Y868D02*
X982Y894D01*
X956Y826D02*
Y868D01*
X982Y894D02*
X1179D01*
X1051Y840D02*
X1063Y852D01*
X1051Y827D02*
Y840D01*
X1063Y852D02*
X1195D01*
X1099Y827D02*
X1100Y826D01*
X1196D01*
X1085Y768D02*
X1193D01*
X1083Y738D02*
X1133D01*
X1134Y739D01*
X1050Y665D02*
X1074Y641D01*
Y595D02*
Y641D01*
X972Y622D02*
X982D01*
X1020Y660D01*
Y680D01*
X952Y640D02*
X965D01*
X988Y663D01*
Y679D01*
X941Y658D02*
X953D01*
X956Y661D01*
Y679D01*
X1002Y332D02*
X1155Y179D01*
X917Y588D02*
Y634D01*
X917Y589D02*
X944Y562D01*
X884Y679D02*
X924D01*
X881Y682D02*
X884Y679D01*
X748Y593D02*
Y681D01*
Y593D02*
X834Y507D01*
X774Y594D02*
X852Y516D01*
X774Y594D02*
Y858D01*
X792Y606D02*
X870Y528D01*
X810Y615D02*
X888Y537D01*
X828Y625D02*
X908Y545D01*
X828Y625D02*
Y699D01*
X867Y738D01*
X925D01*
X846Y633D02*
X926Y553D01*
X846Y686D02*
X869Y709D01*
X924D01*
X846Y633D02*
Y686D01*
X1101Y122D02*
X1150Y73D01*
X956Y709D02*
Y734D01*
X1053Y733D02*
X1053Y734D01*
X1049Y729D02*
X1054Y734D01*
X792Y840D02*
X806Y854D01*
X792Y606D02*
Y840D01*
X810Y615D02*
Y814D01*
X831Y835D01*
X839D01*
X774Y858D02*
X796Y880D01*
X853D01*
X941Y968D01*
X1049Y772D02*
Y797D01*
X940Y968D02*
X1220D01*
X888Y368D02*
X903Y353D01*
X988Y770D02*
Y797D01*
X888Y367D02*
Y537D01*
X849Y175D02*
X871Y197D01*
X1019Y826D02*
Y862D01*
X1020Y710D02*
Y734D01*
X1814Y197D02*
X1936D01*
X1939Y200D01*
X82Y145D02*
X82Y145D01*
X103Y124D02*
X116D01*
X82Y145D02*
X103Y124D01*
X1396Y129D02*
Y308D01*
X1313Y391D02*
X1396Y308D01*
X1313Y391D02*
Y451D01*
X1450Y175D02*
Y292D01*
X1348Y394D02*
X1450Y292D01*
X1348Y394D02*
Y436D01*
X1349Y437D01*
X1503Y122D02*
Y209D01*
X1474Y238D02*
X1503Y209D01*
X1549Y177D02*
Y216D01*
X1528Y237D02*
X1549Y216D01*
X1528Y237D02*
Y420D01*
X1082Y827D02*
X1099D01*
X1382Y436D02*
X1401D01*
X1382Y435D02*
Y436D01*
X1330Y708D02*
X1470Y568D01*
X1451Y429D02*
X1474Y406D01*
X1451Y429D02*
Y431D01*
X1474Y238D02*
Y406D01*
X1401Y436D02*
X1422Y457D01*
X1461D01*
X1489Y429D01*
X1414Y475D02*
X1469D01*
X1497Y447D01*
X1526D01*
X1489Y429D02*
X1519D01*
X1519Y429D02*
X1528Y420D01*
X1489Y493D02*
X1506Y476D01*
X1406Y493D02*
X1489D01*
X1405Y466D02*
X1414Y475D01*
X1367Y466D02*
X1405D01*
X1397Y484D02*
X1406Y493D01*
X1375Y484D02*
X1397D01*
X1082Y797D02*
X1136D01*
X1240Y619D02*
X1375Y484D01*
X23Y440D02*
Y987D01*
X505Y1469D01*
X1148Y679D02*
X1166Y661D01*
X1168Y562D02*
Y660D01*
Y562D02*
X1184Y546D01*
Y459D02*
Y546D01*
X1152Y427D02*
X1184Y459D01*
X1047Y380D02*
X1083Y344D01*
X1100D01*
X998Y471D02*
Y519D01*
X1000Y426D02*
X1046Y380D01*
X1000Y426D02*
Y469D01*
X998Y471D02*
X1000Y469D01*
X1034D01*
X1050Y665D02*
Y679D01*
X1105Y379D02*
X1152Y426D01*
X1088Y379D02*
X1105D01*
X160Y234D02*
Y248D01*
X188Y275D02*
X377D01*
X160Y248D02*
X188Y276D01*
X23Y440D02*
X188Y275D01*
D12*
X988Y709D02*
Y730D01*
X988Y710D02*
X988Y709D01*
Y709D02*
X988Y709D01*
X986Y733D02*
X988Y730D01*
X1019Y797D02*
X1019Y796D01*
X1019Y771D02*
X1021Y769D01*
X1019Y771D02*
Y796D01*
X954Y769D02*
X956Y771D01*
Y796D01*
X1082Y709D02*
X1105D01*
X784Y904D02*
X841D01*
X932Y995D01*
X1069D01*
X710Y775D02*
Y830D01*
X784Y904D01*
D13*
X1082Y679D02*
X1148D01*
D14*
X2308Y150D02*
Y50D01*
X2275Y150D02*
X2342D01*
X2377Y117D02*
X2368Y112D01*
X2358Y102D01*
X2354Y88D01*
Y79D01*
X2358Y64D01*
X2368Y55D01*
X2377Y50D01*
X2392D01*
X2401Y55D01*
X2411Y64D01*
X2415Y79D01*
Y88D01*
X2411Y102D01*
X2401Y112D01*
X2392Y117D01*
X2377D01*
X2437D02*
Y17D01*
Y102D02*
X2447Y112D01*
X2456Y117D01*
X2471D01*
X2480Y112D01*
X2490Y102D01*
X2494Y88D01*
Y79D01*
X2490Y64D01*
X2480Y55D01*
X2471Y50D01*
X2456D01*
X2447Y55D01*
X2437Y64D01*
X2594Y150D02*
Y50D01*
X2652D01*
X2720Y117D02*
Y50D01*
Y102D02*
X2710Y112D01*
X2701Y117D01*
X2686D01*
X2677Y112D01*
X2667Y102D01*
X2663Y88D01*
Y79D01*
X2667Y64D01*
X2677Y55D01*
X2686Y50D01*
X2701D01*
X2710Y55D01*
X2720Y64D01*
X2751Y117D02*
X2780Y50D01*
X2808Y117D02*
X2780Y50D01*
X2770Y31D01*
X2761Y21D01*
X2751Y17D01*
X2746D01*
X2825Y88D02*
X2882D01*
Y98D01*
X2877Y107D01*
X2872Y112D01*
X2863Y117D01*
X2849D01*
X2839Y112D01*
X2830Y102D01*
X2825Y88D01*
Y79D01*
X2830Y64D01*
X2839Y55D01*
X2849Y50D01*
X2863D01*
X2872Y55D01*
X2882Y64D01*
X2903Y117D02*
Y50D01*
Y88D02*
X2908Y102D01*
X2918Y112D01*
X2927Y117D01*
X2942D01*
D15*
X1885Y1310D02*
D03*
X115D02*
D03*
D16*
X1725Y1385D02*
D03*
X275D02*
D03*
D17*
X1373Y1075D02*
D03*
X627Y405D02*
D03*
D18*
X1433Y740D02*
D03*
X567D02*
D03*
D19*
X1800Y575D02*
D03*
Y925D02*
D03*
X100Y575D02*
D03*
X325D02*
D03*
X100Y925D02*
D03*
X325D02*
D03*
X1575D02*
D03*
Y575D02*
D03*
D20*
X1900D02*
D03*
X200Y925D02*
D03*
X425D02*
D03*
X1675D02*
D03*
X425Y575D02*
D03*
X200D02*
D03*
X1900Y925D02*
D03*
X1675Y575D02*
D03*
D21*
X250Y175D02*
D03*
X350D02*
D03*
Y75D02*
D03*
X650Y175D02*
D03*
X750Y75D02*
D03*
X850Y175D02*
D03*
X950D02*
D03*
Y75D02*
D03*
X1050Y175D02*
D03*
X1150D02*
D03*
Y75D02*
D03*
X1250Y175D02*
D03*
X1350D02*
D03*
Y75D02*
D03*
X1450Y175D02*
D03*
X1550D02*
D03*
Y75D02*
D03*
X1650Y175D02*
D03*
X450Y175D02*
D03*
X550D02*
D03*
Y75D02*
D03*
X750Y175D02*
D03*
X1750Y175D02*
D03*
X50Y290D02*
D03*
X1940Y90D02*
D03*
Y200D02*
D03*
D22*
X250Y75D02*
D03*
X650Y75D02*
D03*
X850D02*
D03*
X1050D02*
D03*
X1250Y75D02*
D03*
X1450D02*
D03*
X1650D02*
D03*
X450Y75D02*
D03*
D23*
X1750Y75D02*
D03*
D24*
X377Y275D02*
D03*
X1942Y304D02*
D03*
X809Y380D02*
D03*
X564Y391D02*
D03*
X566Y424D02*
D03*
X493D02*
D03*
X1350Y838D02*
D03*
X82Y145D02*
D03*
X1036Y610D02*
D03*
X1034Y469D02*
D03*
X960Y610D02*
D03*
X748Y682D02*
D03*
X880D02*
D03*
X1101Y343D02*
D03*
X188Y323D02*
D03*
X1317Y330D02*
D03*
X1180Y346D02*
D03*
X1144Y510D02*
D03*
X1114Y641D02*
D03*
X986Y733D02*
D03*
X1021Y769D02*
D03*
X954D02*
D03*
X982Y858D02*
D03*
X1105Y709D02*
D03*
X987Y769D02*
D03*
X1054Y773D02*
D03*
X1053Y734D02*
D03*
X953Y735D02*
D03*
X1273Y433D02*
D03*
X1017Y860D02*
D03*
X1437Y565D02*
D03*
X1386Y510D02*
D03*
X1470Y567D02*
D03*
X1540Y472D02*
D03*
X1507Y568D02*
D03*
X1701Y275D02*
D03*
Y311D02*
D03*
X1744Y235D02*
D03*
X835Y240D02*
D03*
X826Y278D02*
D03*
X806Y854D02*
D03*
X839Y835D02*
D03*
X1141Y994D02*
D03*
X1069Y995D02*
D03*
X832Y956D02*
D03*
X878Y991D02*
D03*
X748Y731D02*
D03*
X710Y775D02*
D03*
X1168Y660D02*
D03*
X1020Y734D02*
D03*
X1313Y451D02*
D03*
X1349Y437D02*
D03*
X1382Y435D02*
D03*
X1451Y431D02*
D03*
X1506Y476D02*
D03*
X1167Y706D02*
D03*
X1384Y804D02*
D03*
X1047Y380D02*
D03*
X1088Y379D02*
D03*
X160Y234D02*
D03*
M02*
