%FSLAX23Y23*%
%MOIN*%
G70*
G01*
G75*
G04 Layer_Color=65535*
%ADD10C,0.016*%
%ADD11C,0.010*%
%ADD12C,0.020*%
%ADD13C,0.018*%
%ADD14C,0.015*%
%ADD15C,0.100*%
%ADD16C,0.145*%
%ADD17C,0.050*%
%ADD18C,0.070*%
%ADD19C,0.060*%
%ADD20O,0.060X0.061*%
%ADD21C,0.059*%
%ADD22C,0.059*%
%ADD23R,0.059X0.059*%
%ADD24C,0.025*%
%ADD25R,0.051X0.059*%
%ADD26R,0.058X0.039*%
%ADD27R,0.022X0.057*%
%ADD28R,0.022X0.057*%
%ADD29R,0.039X0.058*%
%ADD30R,0.035X0.037*%
%ADD31R,0.035X0.037*%
%ADD32C,0.020*%
%ADD33C,0.025*%
%ADD34C,0.004*%
%ADD35C,0.006*%
%ADD36C,0.005*%
G36*
X1784Y1150D02*
Y1149D01*
Y1149D01*
Y1148D01*
Y1146D01*
Y1146D01*
Y1146D01*
Y1145D01*
Y1144D01*
Y1142D01*
Y1141D01*
Y1137D01*
Y1137D01*
Y1137D01*
Y1136D01*
Y1135D01*
Y1132D01*
Y1129D01*
Y1129D01*
Y1128D01*
Y1127D01*
Y1126D01*
Y1125D01*
Y1125D01*
X1682D01*
Y1126D01*
Y1126D01*
Y1127D01*
Y1128D01*
Y1129D01*
Y1129D01*
Y1130D01*
Y1130D01*
Y1131D01*
Y1133D01*
Y1134D01*
Y1137D01*
Y1138D01*
Y1138D01*
Y1139D01*
Y1140D01*
Y1143D01*
Y1146D01*
Y1146D01*
Y1147D01*
Y1148D01*
Y1150D01*
Y1150D01*
Y1150D01*
X1784D01*
Y1150D01*
D02*
G37*
G36*
X251Y1111D02*
X245D01*
Y1113D01*
X251D01*
Y1111D01*
D02*
G37*
G36*
X264Y1118D02*
X265Y1118D01*
X264Y1116D01*
X264Y1116D01*
X263Y1116D01*
X262D01*
X262Y1116D01*
X262Y1116D01*
X261Y1115D01*
Y1115D01*
X261Y1114D01*
X261Y1113D01*
Y1112D01*
Y1107D01*
X259D01*
Y1118D01*
X261D01*
Y1116D01*
X261Y1116D01*
X261Y1117D01*
X261Y1117D01*
X262Y1118D01*
X262D01*
X262Y1118D01*
X264D01*
X264Y1118D01*
D02*
G37*
G36*
X256Y1281D02*
X258Y1281D01*
X261Y1281D01*
X264Y1280D01*
X268Y1280D01*
X272Y1279D01*
X276Y1278D01*
X280Y1276D01*
X285Y1274D01*
X290Y1272D01*
X294Y1269D01*
X299Y1266D01*
X304Y1263D01*
X308Y1259D01*
X308Y1259D01*
X309Y1258D01*
X310Y1256D01*
X311Y1255D01*
X313Y1253D01*
X315Y1250D01*
X317Y1247D01*
X319Y1243D01*
X321Y1239D01*
X323Y1235D01*
X325Y1231D01*
X327Y1226D01*
X329Y1221D01*
X330Y1215D01*
X330Y1210D01*
X331Y1204D01*
Y1203D01*
Y1202D01*
X330Y1201D01*
X330Y1198D01*
X330Y1196D01*
X329Y1192D01*
X329Y1189D01*
X328Y1185D01*
X327Y1180D01*
X325Y1176D01*
X323Y1171D01*
X321Y1167D01*
X318Y1162D01*
X315Y1158D01*
X312Y1153D01*
X308Y1149D01*
X308Y1148D01*
X307Y1148D01*
X305Y1146D01*
X304Y1145D01*
X302Y1143D01*
X299Y1141D01*
X296Y1139D01*
X292Y1137D01*
X288Y1135D01*
X284Y1133D01*
X280Y1131D01*
X275Y1129D01*
X270Y1128D01*
X264Y1127D01*
X259Y1126D01*
X253Y1126D01*
X251D01*
X250Y1126D01*
X247Y1126D01*
X245Y1127D01*
X241Y1127D01*
X238Y1128D01*
X234Y1129D01*
X229Y1130D01*
X225Y1131D01*
X221Y1133D01*
X216Y1135D01*
X211Y1138D01*
X207Y1141D01*
X202Y1145D01*
X198Y1149D01*
X197Y1149D01*
X197Y1150D01*
X196Y1151D01*
X194Y1153D01*
X192Y1155D01*
X190Y1158D01*
X188Y1161D01*
X186Y1164D01*
X184Y1168D01*
X182Y1172D01*
X180Y1177D01*
X179Y1181D01*
X177Y1187D01*
X176Y1192D01*
X175Y1198D01*
X175Y1204D01*
Y1204D01*
Y1205D01*
X175Y1207D01*
X175Y1209D01*
X176Y1212D01*
X176Y1215D01*
X177Y1219D01*
X178Y1223D01*
X179Y1227D01*
X180Y1231D01*
X182Y1236D01*
X185Y1241D01*
X187Y1245D01*
X190Y1250D01*
X194Y1254D01*
X198Y1259D01*
X198Y1259D01*
X199Y1260D01*
X200Y1261D01*
X202Y1262D01*
X204Y1264D01*
X207Y1266D01*
X210Y1268D01*
X213Y1270D01*
X217Y1272D01*
X221Y1274D01*
X226Y1276D01*
X230Y1278D01*
X236Y1279D01*
X241Y1281D01*
X247Y1281D01*
X253Y1282D01*
X254D01*
X256Y1281D01*
D02*
G37*
G36*
X258Y1122D02*
X258Y1121D01*
X258D01*
X258Y1121D01*
X256D01*
X256Y1121D01*
X255Y1121D01*
Y1120D01*
X255Y1120D01*
X255Y1119D01*
Y1118D01*
X257D01*
Y1117D01*
X255D01*
Y1107D01*
X253D01*
Y1117D01*
X252D01*
Y1118D01*
X253D01*
Y1119D01*
Y1119D01*
Y1120D01*
Y1120D01*
X254Y1121D01*
Y1121D01*
X254Y1121D01*
X254Y1122D01*
X254Y1122D01*
X255D01*
X255Y1122D01*
X256Y1122D01*
X257D01*
X258Y1122D01*
D02*
G37*
G36*
X1792Y1292D02*
X1769Y1268D01*
X1772D01*
Y1256D01*
X1763D01*
X1761Y1236D01*
X1759Y1209D01*
X1789Y1178D01*
X1786Y1176D01*
X1758Y1205D01*
X1758Y1203D01*
X1760Y1203D01*
X1761Y1202D01*
X1762Y1200D01*
X1763Y1199D01*
X1764Y1198D01*
X1765Y1196D01*
X1765Y1195D01*
X1765Y1193D01*
X1765Y1191D01*
X1764Y1189D01*
X1763Y1187D01*
X1762Y1185D01*
X1761Y1184D01*
X1759Y1183D01*
X1757Y1182D01*
X1755Y1182D01*
X1753Y1181D01*
X1751Y1182D01*
X1749Y1183D01*
X1746Y1184D01*
X1745Y1186D01*
X1744Y1187D01*
X1743Y1189D01*
X1721D01*
Y1181D01*
X1714D01*
Y1189D01*
X1713D01*
X1711Y1209D01*
X1679Y1176D01*
X1677Y1178D01*
X1711Y1213D01*
X1709Y1229D01*
X1707Y1250D01*
X1706Y1259D01*
X1675Y1292D01*
X1677Y1294D01*
X1706Y1264D01*
X1705Y1271D01*
X1700D01*
Y1277D01*
X1705D01*
X1705Y1278D01*
X1705Y1279D01*
X1706Y1279D01*
X1706Y1280D01*
X1707Y1281D01*
X1708Y1282D01*
X1710Y1283D01*
X1711Y1283D01*
X1712Y1284D01*
Y1287D01*
X1720D01*
Y1286D01*
X1722Y1286D01*
X1724Y1287D01*
X1727Y1287D01*
X1728Y1287D01*
Y1289D01*
X1746D01*
Y1287D01*
X1748Y1286D01*
X1751Y1286D01*
X1754Y1285D01*
X1756Y1284D01*
X1759Y1283D01*
X1760Y1283D01*
X1762Y1282D01*
X1763Y1281D01*
X1763Y1281D01*
X1764Y1282D01*
X1765Y1283D01*
X1766Y1283D01*
X1768Y1283D01*
X1769Y1282D01*
X1770Y1281D01*
X1771Y1280D01*
X1771Y1279D01*
Y1278D01*
Y1277D01*
X1771Y1276D01*
X1771Y1276D01*
X1770Y1275D01*
X1769Y1274D01*
X1769Y1274D01*
X1768Y1273D01*
Y1272D01*
X1790Y1294D01*
X1792Y1292D01*
D02*
G37*
G36*
X272Y1118D02*
X273Y1118D01*
X274Y1117D01*
X275Y1116D01*
X275Y1116D01*
X276Y1114D01*
X276Y1112D01*
Y1112D01*
Y1112D01*
X268D01*
Y1112D01*
X268Y1111D01*
X268Y1110D01*
X269Y1109D01*
X269Y1109D01*
X269Y1109D01*
X270Y1108D01*
X271Y1108D01*
X271D01*
X272Y1108D01*
X273Y1109D01*
X273Y1109D01*
X273Y1109D01*
X273Y1110D01*
X274Y1110D01*
X276Y1110D01*
Y1110D01*
X275Y1109D01*
X275Y1108D01*
X274Y1107D01*
X274Y1107D01*
X273Y1107D01*
X272Y1107D01*
X271Y1106D01*
X271D01*
X270Y1107D01*
X268Y1107D01*
X267Y1108D01*
X267Y1108D01*
X266Y1109D01*
X266Y1111D01*
X265Y1112D01*
Y1112D01*
Y1113D01*
X266Y1114D01*
X266Y1115D01*
X267Y1117D01*
X267Y1117D01*
X268Y1117D01*
X269Y1118D01*
X271Y1118D01*
X271D01*
X272Y1118D01*
D02*
G37*
G36*
X284D02*
X285Y1118D01*
X287Y1117D01*
X287Y1116D01*
X287Y1116D01*
X288Y1114D01*
X288Y1112D01*
Y1112D01*
Y1112D01*
X279D01*
Y1112D01*
X280Y1111D01*
X280Y1110D01*
X281Y1109D01*
X281Y1109D01*
X281Y1109D01*
X282Y1108D01*
X283Y1108D01*
X284D01*
X284Y1108D01*
X285Y1109D01*
X285Y1109D01*
X285Y1109D01*
X286Y1110D01*
X286Y1110D01*
X288Y1110D01*
Y1110D01*
X287Y1109D01*
X287Y1108D01*
X286Y1107D01*
X286Y1107D01*
X285Y1107D01*
X284Y1107D01*
X283Y1106D01*
X283D01*
X282Y1107D01*
X280Y1107D01*
X279Y1108D01*
X279Y1108D01*
X278Y1109D01*
X278Y1110D01*
X278Y1112D01*
Y1112D01*
Y1113D01*
X278Y1114D01*
X278Y1115D01*
X279Y1117D01*
X279Y1117D01*
X280Y1117D01*
X281Y1118D01*
X283Y1118D01*
X283D01*
X284Y1118D01*
D02*
G37*
G36*
X227Y1122D02*
X228D01*
X229Y1122D01*
X229Y1121D01*
X229Y1121D01*
X230Y1121D01*
X231Y1120D01*
Y1120D01*
X231Y1119D01*
X231Y1119D01*
Y1118D01*
Y1117D01*
X231Y1117D01*
X231Y1116D01*
X230Y1114D01*
X230Y1114D01*
X229Y1114D01*
X227Y1113D01*
X225Y1113D01*
X221D01*
Y1107D01*
X219D01*
Y1122D01*
X226D01*
X227Y1122D01*
D02*
G37*
G36*
X235Y1117D02*
X236Y1117D01*
X236Y1118D01*
X237Y1118D01*
X238Y1118D01*
X239D01*
X240Y1118D01*
X241D01*
X241Y1118D01*
X242Y1117D01*
X242Y1116D01*
X242Y1116D01*
X243Y1115D01*
Y1115D01*
X243Y1114D01*
Y1113D01*
Y1112D01*
Y1112D01*
Y1112D01*
X243Y1111D01*
X243Y1109D01*
X242Y1108D01*
X242Y1108D01*
X241Y1107D01*
X240Y1107D01*
X238Y1106D01*
X238D01*
X237Y1107D01*
X236Y1107D01*
X235Y1108D01*
Y1107D01*
X233D01*
Y1122D01*
X235D01*
Y1117D01*
D02*
G37*
%LPC*%
G36*
X300Y1152D02*
X300Y1152D01*
X300Y1152D01*
X300Y1152D01*
D02*
G37*
G36*
X276Y1208D02*
X276D01*
X275Y1207D01*
X274Y1207D01*
X272Y1207D01*
X272Y1206D01*
X271Y1206D01*
X270Y1205D01*
X268Y1204D01*
Y1194D01*
X281Y1181D01*
X282Y1181D01*
X282Y1181D01*
X283Y1182D01*
X283Y1183D01*
X283Y1183D01*
X284Y1184D01*
X284Y1184D01*
X285Y1186D01*
X285Y1187D01*
X286Y1189D01*
X286Y1191D01*
X286Y1194D01*
Y1194D01*
Y1195D01*
X286Y1196D01*
X286Y1198D01*
X285Y1199D01*
X285Y1201D01*
X284Y1203D01*
X283Y1204D01*
X283Y1204D01*
X283Y1205D01*
X282Y1205D01*
X281Y1206D01*
X279Y1207D01*
X278Y1207D01*
X276Y1208D01*
D02*
G37*
G36*
X253Y1274D02*
X251D01*
X250Y1274D01*
X248Y1273D01*
X245Y1273D01*
X243Y1273D01*
X239Y1272D01*
X236Y1271D01*
X232Y1270D01*
X228Y1269D01*
X224Y1267D01*
X220Y1265D01*
X215Y1263D01*
X211Y1260D01*
X207Y1257D01*
X203Y1253D01*
X203Y1253D01*
X202Y1252D01*
X203Y1253D01*
X206Y1256D01*
X233Y1229D01*
X236D01*
X237Y1229D01*
X241Y1228D01*
X243Y1228D01*
X244Y1227D01*
X245D01*
X245Y1227D01*
X246Y1227D01*
X247Y1226D01*
X249Y1225D01*
X251Y1223D01*
X251Y1222D01*
X251Y1222D01*
X252Y1221D01*
X252Y1220D01*
X253Y1219D01*
X253Y1218D01*
X254Y1216D01*
X254Y1214D01*
Y1214D01*
Y1214D01*
Y1213D01*
X253Y1211D01*
X253Y1209D01*
X262Y1200D01*
Y1217D01*
Y1217D01*
Y1218D01*
Y1219D01*
Y1220D01*
Y1222D01*
X262Y1223D01*
Y1224D01*
Y1224D01*
X262Y1225D01*
X262Y1225D01*
X261Y1226D01*
Y1226D01*
X261Y1226D01*
X260Y1226D01*
X259D01*
X258Y1226D01*
X257Y1226D01*
X256Y1227D01*
X267Y1231D01*
X268D01*
Y1206D01*
X269Y1206D01*
X269Y1207D01*
X270Y1208D01*
X272Y1210D01*
X273Y1211D01*
X275Y1212D01*
X277Y1213D01*
X279Y1213D01*
X280D01*
X281Y1213D01*
X283Y1212D01*
X284Y1212D01*
X286Y1211D01*
X287Y1210D01*
X289Y1209D01*
X289Y1208D01*
X289Y1208D01*
X290Y1207D01*
X291Y1205D01*
X291Y1204D01*
X292Y1201D01*
X293Y1199D01*
X293Y1196D01*
Y1196D01*
Y1196D01*
Y1194D01*
X292Y1193D01*
X292Y1191D01*
X291Y1188D01*
X290Y1186D01*
X289Y1183D01*
X287Y1181D01*
X286Y1181D01*
X286Y1180D01*
X285Y1179D01*
X284Y1179D01*
X305Y1157D01*
X305Y1158D01*
X307Y1160D01*
X309Y1162D01*
X311Y1165D01*
X313Y1168D01*
X314Y1171D01*
X316Y1175D01*
X318Y1179D01*
X320Y1184D01*
X321Y1188D01*
X322Y1193D01*
X323Y1198D01*
X323Y1204D01*
Y1204D01*
Y1205D01*
X323Y1206D01*
X322Y1209D01*
X322Y1211D01*
X322Y1214D01*
X321Y1217D01*
X320Y1221D01*
X319Y1225D01*
X318Y1229D01*
X316Y1233D01*
X314Y1237D01*
X312Y1241D01*
X309Y1245D01*
X306Y1249D01*
X302Y1253D01*
X302Y1254D01*
X301Y1254D01*
X300Y1255D01*
X299Y1256D01*
X297Y1258D01*
X294Y1260D01*
X292Y1262D01*
X288Y1264D01*
X285Y1265D01*
X281Y1267D01*
X277Y1269D01*
X273Y1271D01*
X268Y1272D01*
X263Y1273D01*
X258Y1274D01*
X253Y1274D01*
D02*
G37*
G36*
X305Y1157D02*
X304Y1156D01*
X302Y1154D01*
X300Y1152D01*
X302Y1154D01*
X303Y1154D01*
X303Y1155D01*
X304Y1156D01*
X305Y1157D01*
X305Y1157D01*
D02*
G37*
G36*
X271Y1117D02*
X270D01*
X269Y1116D01*
X269Y1116D01*
X268Y1116D01*
X268Y1115D01*
X268Y1114D01*
X268Y1113D01*
X274D01*
Y1114D01*
X274Y1114D01*
X273Y1115D01*
X273Y1116D01*
X273Y1116D01*
X273Y1116D01*
X272Y1116D01*
X271Y1117D01*
D02*
G37*
G36*
X238D02*
X238D01*
X237Y1116D01*
X237Y1116D01*
X236Y1116D01*
X236Y1115D01*
X236Y1115D01*
X235Y1114D01*
X235Y1112D01*
Y1112D01*
Y1111D01*
X235Y1110D01*
X236Y1110D01*
X236Y1109D01*
X236Y1109D01*
X237Y1108D01*
X238Y1108D01*
X238D01*
X239Y1108D01*
X240Y1109D01*
X240Y1109D01*
X241Y1109D01*
X241Y1110D01*
X241Y1111D01*
X241Y1112D01*
Y1112D01*
Y1113D01*
Y1114D01*
X241Y1115D01*
X240Y1116D01*
X240Y1116D01*
X240Y1116D01*
X239Y1116D01*
X238Y1117D01*
D02*
G37*
G36*
X283D02*
X282D01*
X281Y1116D01*
X281Y1116D01*
X280Y1116D01*
X280Y1115D01*
X280Y1114D01*
X280Y1113D01*
X286D01*
Y1114D01*
X286Y1114D01*
X286Y1115D01*
X285Y1116D01*
X285Y1116D01*
X285Y1116D01*
X284Y1116D01*
X283Y1117D01*
D02*
G37*
G36*
X201Y1250D02*
X200Y1250D01*
X198Y1248D01*
X197Y1245D01*
X195Y1243D01*
X193Y1239D01*
X191Y1236D01*
X189Y1232D01*
X187Y1228D01*
X186Y1224D01*
X185Y1219D01*
X184Y1214D01*
X183Y1209D01*
X183Y1204D01*
Y1203D01*
Y1202D01*
X183Y1201D01*
X183Y1199D01*
X183Y1196D01*
X184Y1193D01*
X184Y1190D01*
X185Y1187D01*
X186Y1183D01*
X188Y1179D01*
X189Y1175D01*
X191Y1171D01*
X194Y1166D01*
X196Y1162D01*
X200Y1158D01*
X203Y1154D01*
X203Y1154D01*
X204Y1153D01*
X205Y1152D01*
X207Y1151D01*
X209Y1149D01*
X211Y1148D01*
X214Y1146D01*
X217Y1144D01*
X221Y1142D01*
X224Y1140D01*
X229Y1138D01*
X233Y1137D01*
X237Y1136D01*
X242Y1135D01*
X247Y1134D01*
X253Y1134D01*
X254D01*
X255Y1134D01*
X258Y1134D01*
X260Y1134D01*
X263Y1135D01*
X266Y1135D01*
X270Y1136D01*
X274Y1137D01*
X278Y1139D01*
X282Y1140D01*
X286Y1142D01*
X290Y1145D01*
X294Y1147D01*
X298Y1151D01*
X300Y1152D01*
X275Y1176D01*
X274D01*
X273Y1176D01*
X271Y1177D01*
X269Y1177D01*
X268D01*
X268Y1178D01*
X267Y1178D01*
X267Y1178D01*
X264Y1179D01*
X262Y1181D01*
Y1189D01*
X248Y1203D01*
X248Y1203D01*
X247Y1203D01*
X247Y1202D01*
X246Y1202D01*
X244Y1201D01*
X242Y1201D01*
X240Y1201D01*
X238Y1200D01*
X235D01*
X234Y1201D01*
X233D01*
X233Y1201D01*
X231Y1201D01*
X229Y1201D01*
Y1186D01*
Y1186D01*
Y1186D01*
Y1185D01*
X229Y1184D01*
X230Y1182D01*
X230Y1181D01*
X230Y1180D01*
X230Y1180D01*
X231Y1179D01*
X233Y1179D01*
X235Y1179D01*
X237D01*
Y1177D01*
X214D01*
Y1179D01*
X217D01*
X218Y1179D01*
X220Y1180D01*
X221Y1180D01*
X221Y1181D01*
X221Y1181D01*
Y1181D01*
X221Y1182D01*
X222Y1183D01*
Y1184D01*
X222Y1185D01*
Y1186D01*
Y1220D01*
Y1220D01*
Y1220D01*
Y1221D01*
X222Y1222D01*
X221Y1224D01*
X221Y1225D01*
X221Y1226D01*
X221Y1226D01*
X220Y1227D01*
X218Y1227D01*
X216Y1227D01*
X214D01*
Y1229D01*
X222D01*
X201Y1250D01*
D02*
G37*
G36*
X227Y1121D02*
X221D01*
Y1115D01*
X226D01*
X226Y1115D01*
X227Y1115D01*
X228Y1116D01*
X228Y1116D01*
X229Y1116D01*
X229Y1117D01*
X229Y1118D01*
Y1118D01*
Y1118D01*
X229Y1119D01*
Y1120D01*
X228Y1120D01*
X228Y1120D01*
X227Y1120D01*
X227D01*
X227Y1121D01*
D02*
G37*
G36*
X229Y1222D02*
Y1204D01*
X229D01*
X230Y1203D01*
X232Y1203D01*
X233Y1203D01*
X234D01*
X235Y1203D01*
X236D01*
X237Y1203D01*
X238Y1203D01*
X239Y1204D01*
X240Y1204D01*
X241Y1205D01*
X242Y1206D01*
X242Y1206D01*
X243Y1206D01*
X243Y1207D01*
X244Y1208D01*
X229Y1222D01*
D02*
G37*
G36*
X1769Y1265D02*
X1762D01*
Y1259D01*
X1769D01*
Y1265D01*
D02*
G37*
G36*
X1766Y1279D02*
X1766D01*
X1765Y1279D01*
X1765Y1279D01*
X1765Y1278D01*
Y1278D01*
X1765Y1277D01*
X1765Y1277D01*
X1766Y1276D01*
X1766D01*
X1767Y1277D01*
X1768Y1277D01*
X1768Y1278D01*
Y1278D01*
X1768Y1279D01*
X1767Y1279D01*
X1766Y1279D01*
D02*
G37*
G36*
X1761Y1271D02*
X1709D01*
X1710Y1260D01*
X1733Y1236D01*
X1744Y1247D01*
X1728D01*
Y1254D01*
X1751D01*
X1759Y1262D01*
Y1268D01*
X1761D01*
X1761Y1271D01*
D02*
G37*
G36*
X1748Y1251D02*
X1731D01*
Y1250D01*
X1748D01*
Y1251D01*
D02*
G37*
G36*
X1716Y1284D02*
X1715D01*
Y1280D01*
X1716D01*
Y1284D01*
D02*
G37*
G36*
X1743Y1286D02*
X1731D01*
X1732Y1284D01*
X1743D01*
Y1286D01*
D02*
G37*
G36*
X1712Y1280D02*
X1710Y1279D01*
X1709Y1278D01*
X1708Y1278D01*
X1708Y1277D01*
X1712D01*
Y1280D01*
D02*
G37*
G36*
X1728Y1283D02*
X1725Y1283D01*
X1722Y1283D01*
X1720Y1282D01*
Y1277D01*
X1761D01*
Y1278D01*
X1760Y1279D01*
X1758Y1280D01*
X1756Y1281D01*
X1753Y1282D01*
X1750Y1283D01*
X1746Y1283D01*
Y1281D01*
X1728D01*
Y1283D01*
D02*
G37*
G36*
X1710Y1255D02*
X1714Y1216D01*
X1731Y1233D01*
X1710Y1255D01*
D02*
G37*
G36*
X201Y1251D02*
X201Y1251D01*
X201Y1250D01*
X201Y1251D01*
D02*
G37*
G36*
X1754Y1199D02*
X1753D01*
X1752Y1198D01*
X1751Y1198D01*
X1750Y1197D01*
X1749Y1196D01*
X1748Y1195D01*
X1748Y1193D01*
Y1193D01*
Y1192D01*
X1748Y1191D01*
X1749Y1190D01*
X1749Y1189D01*
X1750Y1188D01*
X1752Y1187D01*
X1754Y1187D01*
X1754D01*
X1755Y1188D01*
X1756Y1188D01*
X1757Y1189D01*
X1758Y1190D01*
X1759Y1191D01*
X1759Y1193D01*
Y1193D01*
Y1194D01*
X1759Y1195D01*
X1758Y1196D01*
X1758Y1197D01*
X1757Y1198D01*
X1755Y1198D01*
X1754Y1199D01*
D02*
G37*
G36*
X1718Y1189D02*
X1717D01*
Y1184D01*
X1718D01*
Y1189D01*
D02*
G37*
G36*
X1759Y1258D02*
X1751Y1250D01*
Y1247D01*
X1749D01*
X1736Y1233D01*
X1756Y1212D01*
X1759Y1256D01*
X1759D01*
Y1258D01*
D02*
G37*
G36*
X1733Y1231D02*
X1714Y1212D01*
X1716Y1192D01*
X1742D01*
X1742Y1194D01*
X1743Y1196D01*
X1744Y1198D01*
X1745Y1200D01*
X1746Y1202D01*
X1748Y1203D01*
X1750Y1204D01*
X1752Y1204D01*
X1754Y1204D01*
X1755Y1204D01*
X1755Y1208D01*
X1733Y1231D01*
D02*
G37*
G36*
X237Y1225D02*
X245Y1218D01*
Y1218D01*
X245Y1218D01*
X244Y1219D01*
X244Y1220D01*
Y1220D01*
X244Y1220D01*
X243Y1221D01*
X241Y1223D01*
X240Y1224D01*
X240Y1224D01*
X239Y1225D01*
X238Y1225D01*
X237Y1225D01*
D02*
G37*
%LPD*%
G36*
X1755Y1196D02*
X1756Y1196D01*
X1757Y1195D01*
X1757Y1194D01*
X1757Y1193D01*
Y1193D01*
Y1192D01*
X1757Y1191D01*
X1756Y1190D01*
X1756Y1190D01*
X1755Y1189D01*
X1754Y1189D01*
X1753D01*
X1752Y1190D01*
X1751Y1190D01*
X1750Y1191D01*
X1750Y1192D01*
X1750Y1193D01*
Y1193D01*
Y1194D01*
X1750Y1195D01*
X1751Y1196D01*
X1751Y1196D01*
X1752Y1196D01*
X1754Y1197D01*
X1754D01*
X1755Y1196D01*
D02*
G37*
%LPC*%
G36*
X1754Y1194D02*
X1753D01*
X1753Y1193D01*
Y1193D01*
Y1193D01*
X1753Y1193D01*
X1754Y1192D01*
X1754D01*
X1754Y1193D01*
Y1193D01*
Y1193D01*
Y1193D01*
X1754Y1194D01*
D02*
G37*
%LPD*%
D11*
X567Y831D02*
G03*
X567Y649I0J-91D01*
G01*
X1433D02*
G03*
X1433Y831I0J91D01*
G01*
X100Y290D02*
G03*
X100Y290I-49J0D01*
G01*
X1990Y90D02*
G03*
X1990Y90I-49J0D01*
G01*
Y200D02*
G03*
X1990Y200I-49J0D01*
G01*
X1576Y1458D02*
X1696D01*
X1576Y1313D02*
X1696D01*
X305D02*
X425D01*
Y1135D02*
X1575D01*
X305Y1458D02*
X425D01*
Y1135D02*
Y1510D01*
X1575Y1135D02*
Y1510D01*
X567Y307D02*
X1433D01*
X567Y1173D02*
X1433D01*
X567Y307D02*
Y649D01*
Y831D02*
Y1173D01*
X1433Y307D02*
Y649D01*
Y831D02*
Y1173D01*
X906Y949D02*
Y899D01*
X916Y889D01*
X936D01*
X946Y899D01*
Y949D01*
X966Y889D02*
X986D01*
X976D01*
Y949D01*
X966Y939D01*
X76Y1077D02*
Y1017D01*
X106D01*
X116Y1027D01*
Y1067D01*
X106Y1077D01*
X76D01*
X136Y1067D02*
X146Y1077D01*
X166D01*
X176Y1067D01*
Y1057D01*
X166Y1047D01*
X176Y1037D01*
Y1027D01*
X166Y1017D01*
X146D01*
X136Y1027D01*
Y1037D01*
X146Y1047D01*
X136Y1057D01*
Y1067D01*
X146Y1047D02*
X166D01*
X1776Y727D02*
Y667D01*
X1806D01*
X1816Y677D01*
Y717D01*
X1806Y727D01*
X1776D01*
X1836D02*
X1876D01*
Y717D01*
X1836Y677D01*
Y667D01*
X76Y727D02*
Y667D01*
X106D01*
X116Y677D01*
Y717D01*
X106Y727D01*
X76D01*
X176D02*
X156Y717D01*
X136Y697D01*
Y677D01*
X146Y667D01*
X166D01*
X176Y677D01*
Y687D01*
X166Y697D01*
X136D01*
X1776Y1077D02*
Y1017D01*
X1806D01*
X1816Y1027D01*
Y1067D01*
X1806Y1077D01*
X1776D01*
X1876D02*
X1836D01*
Y1047D01*
X1856Y1057D01*
X1866D01*
X1876Y1047D01*
Y1027D01*
X1866Y1017D01*
X1846D01*
X1836Y1027D01*
X301Y1077D02*
Y1017D01*
X331D01*
X341Y1027D01*
Y1067D01*
X331Y1077D01*
X301D01*
X391Y1017D02*
Y1077D01*
X361Y1047D01*
X401D01*
X1551Y1077D02*
Y1017D01*
X1581D01*
X1591Y1027D01*
Y1067D01*
X1581Y1077D01*
X1551D01*
X1611Y1067D02*
X1621Y1077D01*
X1641D01*
X1651Y1067D01*
Y1057D01*
X1641Y1047D01*
X1631D01*
X1641D01*
X1651Y1037D01*
Y1027D01*
X1641Y1017D01*
X1621D01*
X1611Y1027D01*
X301Y727D02*
Y667D01*
X331D01*
X341Y677D01*
Y717D01*
X331Y727D01*
X301D01*
X401Y667D02*
X361D01*
X401Y707D01*
Y717D01*
X391Y727D01*
X371D01*
X361Y717D01*
X1625Y735D02*
Y675D01*
X1655D01*
X1665Y685D01*
Y725D01*
X1655Y735D01*
X1625D01*
X1685Y675D02*
X1705D01*
X1695D01*
Y735D01*
X1685Y725D01*
X1793Y19D02*
Y79D01*
X1813Y59D01*
X1833Y79D01*
Y19D01*
X1853Y69D02*
X1863Y79D01*
X1883D01*
X1893Y69D01*
Y59D01*
X1883Y49D01*
X1873D01*
X1883D01*
X1893Y39D01*
Y29D01*
X1883Y19D01*
X1863D01*
X1853Y29D01*
X1816Y253D02*
Y313D01*
X1836Y293D01*
X1856Y313D01*
Y253D01*
X1906D02*
Y313D01*
X1876Y283D01*
X1916D01*
X55Y354D02*
Y414D01*
X75Y394D01*
X95Y414D01*
Y354D01*
X155Y414D02*
X115D01*
Y384D01*
X135Y394D01*
X145D01*
X155Y384D01*
Y364D01*
X145Y354D01*
X125D01*
X115Y364D01*
X650Y1396D02*
X669D01*
X676Y1399D01*
X678Y1401D01*
X680Y1405D01*
Y1411D01*
X678Y1416D01*
X676Y1418D01*
X669Y1420D01*
X650D01*
Y1375D01*
X722Y1409D02*
X720Y1414D01*
X716Y1418D01*
X711Y1420D01*
X703D01*
X699Y1418D01*
X694Y1414D01*
X692Y1409D01*
X690Y1403D01*
Y1392D01*
X692Y1386D01*
X694Y1381D01*
X699Y1377D01*
X703Y1375D01*
X711D01*
X716Y1377D01*
X720Y1381D01*
X722Y1386D01*
X735Y1420D02*
Y1375D01*
Y1420D02*
X754D01*
X761Y1418D01*
X763Y1416D01*
X765Y1411D01*
Y1407D01*
X763Y1403D01*
X761Y1401D01*
X754Y1399D01*
X735D02*
X754D01*
X761Y1396D01*
X763Y1394D01*
X765Y1390D01*
Y1384D01*
X763Y1379D01*
X761Y1377D01*
X754Y1375D01*
X735D01*
X779Y1377D02*
X777Y1375D01*
X775Y1377D01*
X777Y1379D01*
X779Y1377D01*
Y1373D01*
X777Y1369D01*
X775Y1366D01*
X824Y1420D02*
Y1375D01*
X834Y1420D02*
Y1375D01*
Y1420D02*
X851Y1375D01*
X868Y1420D02*
X851Y1375D01*
X868Y1420D02*
Y1375D01*
X915D02*
X898Y1420D01*
X881Y1375D01*
X887Y1390D02*
X909D01*
X958Y1409D02*
X956Y1414D01*
X951Y1418D01*
X947Y1420D01*
X939D01*
X934Y1418D01*
X930Y1414D01*
X928Y1409D01*
X926Y1403D01*
Y1392D01*
X928Y1386D01*
X930Y1381D01*
X934Y1377D01*
X939Y1375D01*
X947D01*
X951Y1377D01*
X956Y1381D01*
X958Y1386D01*
Y1392D01*
X947D02*
X958D01*
X996Y1420D02*
X968D01*
Y1375D01*
X996D01*
X968Y1399D02*
X985D01*
X1003Y1420D02*
Y1375D01*
Y1420D02*
X1023D01*
X1029Y1418D01*
X1031Y1416D01*
X1033Y1411D01*
Y1407D01*
X1031Y1403D01*
X1029Y1401D01*
X1023Y1399D01*
X1003D01*
X1018D02*
X1033Y1375D01*
X1079Y1420D02*
Y1375D01*
Y1420D02*
X1098D01*
X1105Y1418D01*
X1107Y1416D01*
X1109Y1411D01*
Y1407D01*
X1107Y1403D01*
X1105Y1401D01*
X1098Y1399D01*
X1079D02*
X1098D01*
X1105Y1396D01*
X1107Y1394D01*
X1109Y1390D01*
Y1384D01*
X1107Y1379D01*
X1105Y1377D01*
X1098Y1375D01*
X1079D01*
X1132Y1420D02*
X1128Y1418D01*
X1123Y1414D01*
X1121Y1409D01*
X1119Y1403D01*
Y1392D01*
X1121Y1386D01*
X1123Y1381D01*
X1128Y1377D01*
X1132Y1375D01*
X1140D01*
X1145Y1377D01*
X1149Y1381D01*
X1151Y1386D01*
X1153Y1392D01*
Y1403D01*
X1151Y1409D01*
X1149Y1414D01*
X1145Y1418D01*
X1140Y1420D01*
X1132D01*
X1198Y1375D02*
X1181Y1420D01*
X1164Y1375D01*
X1170Y1390D02*
X1192D01*
X1209Y1420D02*
Y1375D01*
Y1420D02*
X1228D01*
X1234Y1418D01*
X1236Y1416D01*
X1239Y1411D01*
Y1407D01*
X1236Y1403D01*
X1234Y1401D01*
X1228Y1399D01*
X1209D01*
X1224D02*
X1239Y1375D01*
X1249Y1420D02*
Y1375D01*
Y1420D02*
X1264D01*
X1270Y1418D01*
X1274Y1414D01*
X1276Y1409D01*
X1279Y1403D01*
Y1392D01*
X1276Y1386D01*
X1274Y1381D01*
X1270Y1377D01*
X1264Y1375D01*
X1249D01*
X650Y1345D02*
Y1300D01*
Y1345D02*
X669D01*
X676Y1343D01*
X678Y1341D01*
X680Y1336D01*
Y1332D01*
X678Y1328D01*
X676Y1326D01*
X669Y1324D01*
X650D01*
X665D02*
X680Y1300D01*
X718Y1345D02*
X690D01*
Y1300D01*
X718D01*
X690Y1324D02*
X707D01*
X725Y1345D02*
X743Y1300D01*
X760Y1345D02*
X743Y1300D01*
X768Y1304D02*
X765Y1302D01*
X768Y1300D01*
X770Y1302D01*
X768Y1304D01*
X815Y1345D02*
Y1300D01*
Y1345D02*
X834D01*
X841Y1343D01*
X843Y1341D01*
X845Y1336D01*
Y1332D01*
X843Y1328D01*
X841Y1326D01*
X834Y1324D01*
X815D02*
X834D01*
X841Y1321D01*
X843Y1319D01*
X845Y1315D01*
Y1309D01*
X843Y1304D01*
X841Y1302D01*
X834Y1300D01*
X815D01*
X1744Y975D02*
X1784D01*
X1764Y995D02*
Y955D01*
X1735Y624D02*
X1775D01*
X1755Y644D02*
Y604D01*
X1512Y621D02*
X1552D01*
X1532Y641D02*
Y601D01*
X1517Y976D02*
X1557D01*
X1537Y996D02*
Y956D01*
X263Y974D02*
X303D01*
X283Y994D02*
Y954D01*
X42Y626D02*
X82D01*
X62Y646D02*
Y606D01*
X42Y977D02*
X82D01*
X62Y997D02*
Y957D01*
X265Y626D02*
X305D01*
X285Y646D02*
Y606D01*
D14*
X2308Y150D02*
Y50D01*
X2275Y150D02*
X2342D01*
X2377Y117D02*
X2368Y112D01*
X2358Y102D01*
X2354Y88D01*
Y79D01*
X2358Y64D01*
X2368Y55D01*
X2377Y50D01*
X2392D01*
X2401Y55D01*
X2411Y64D01*
X2415Y79D01*
Y88D01*
X2411Y102D01*
X2401Y112D01*
X2392Y117D01*
X2377D01*
X2437D02*
Y17D01*
Y102D02*
X2447Y112D01*
X2456Y117D01*
X2471D01*
X2480Y112D01*
X2490Y102D01*
X2494Y88D01*
Y79D01*
X2490Y64D01*
X2480Y55D01*
X2471Y50D01*
X2456D01*
X2447Y55D01*
X2437Y64D01*
X2623Y150D02*
X2613Y145D01*
X2604Y136D01*
X2599Y126D01*
X2594Y112D01*
Y88D01*
X2599Y74D01*
X2604Y64D01*
X2613Y55D01*
X2623Y50D01*
X2642D01*
X2652Y55D01*
X2661Y64D01*
X2666Y74D01*
X2671Y88D01*
Y112D01*
X2666Y126D01*
X2661Y136D01*
X2652Y145D01*
X2642Y150D01*
X2623D01*
X2694Y117D02*
X2723Y50D01*
X2751Y117D02*
X2723Y50D01*
X2767Y88D02*
X2824D01*
Y98D01*
X2820Y107D01*
X2815Y112D01*
X2805Y117D01*
X2791D01*
X2782Y112D01*
X2772Y102D01*
X2767Y88D01*
Y79D01*
X2772Y64D01*
X2782Y55D01*
X2791Y50D01*
X2805D01*
X2815Y55D01*
X2824Y64D01*
X2846Y117D02*
Y50D01*
Y88D02*
X2851Y102D01*
X2860Y112D01*
X2870Y117D01*
X2884D01*
X2893Y150D02*
Y50D01*
X2971Y117D02*
Y50D01*
Y102D02*
X2962Y112D01*
X2952Y117D01*
X2938D01*
X2928Y112D01*
X2919Y102D01*
X2914Y88D01*
Y79D01*
X2919Y64D01*
X2928Y55D01*
X2938Y50D01*
X2952D01*
X2962Y55D01*
X2971Y64D01*
X3002Y117D02*
X3031Y50D01*
X3060Y117D02*
X3031Y50D01*
X3022Y31D01*
X3012Y21D01*
X3002Y17D01*
X2998D01*
D34*
X1002Y740D02*
G03*
X1002Y740I-2J0D01*
G01*
X1005Y753D02*
G03*
X1005Y753I-2J0D01*
G01*
D35*
X188Y970D02*
G03*
X188Y880I-38J-45D01*
G01*
X1888Y620D02*
G03*
X1888Y530I-38J-45D01*
G01*
X188Y620D02*
G03*
X188Y530I-38J-45D01*
G01*
X1888Y970D02*
G03*
X1888Y880I-38J-45D01*
G01*
X413Y970D02*
G03*
X413Y880I-38J-45D01*
G01*
X1663Y970D02*
G03*
X1663Y880I-38J-45D01*
G01*
X413Y620D02*
G03*
X413Y530I-38J-45D01*
G01*
X1663Y620D02*
G03*
X1663Y530I-38J-45D01*
G01*
X188Y880D02*
Y970D01*
X1888Y530D02*
Y620D01*
X188Y530D02*
Y620D01*
X1888Y880D02*
Y970D01*
X413Y880D02*
Y970D01*
X1663Y880D02*
Y970D01*
X413Y530D02*
Y620D01*
X1663Y530D02*
Y620D01*
D36*
X898Y857D02*
X1109D01*
X898Y649D02*
Y857D01*
Y649D02*
X1084D01*
X1109Y674D02*
Y857D01*
X1084Y649D02*
X1109Y674D01*
M02*
