%FSLAX23Y23*%
%MOIN*%
G70*
G01*
G75*
G04 Layer_Color=8421504*
%ADD10C,0.016*%
%ADD11C,0.010*%
%ADD12C,0.020*%
%ADD13C,0.018*%
%ADD14C,0.015*%
%ADD15C,0.100*%
%ADD16C,0.145*%
%ADD17C,0.050*%
%ADD18C,0.070*%
%ADD19C,0.060*%
%ADD20O,0.060X0.061*%
%ADD21C,0.059*%
%ADD22C,0.059*%
%ADD23R,0.059X0.059*%
%ADD24C,0.025*%
%ADD25R,0.051X0.059*%
%ADD26R,0.058X0.039*%
%ADD27R,0.022X0.057*%
%ADD28R,0.022X0.057*%
%ADD29R,0.039X0.058*%
%ADD30R,0.035X0.037*%
%ADD31R,0.035X0.037*%
%ADD32C,0.020*%
%ADD33C,0.025*%
%ADD34C,0.004*%
%ADD35C,0.006*%
%ADD36C,0.005*%
%ADD37C,0.004*%
%ADD38C,0.010*%
%ADD39C,0.008*%
%ADD40C,0.008*%
%ADD41R,0.420X0.140*%
%ADD42R,0.250X0.130*%
%ADD43R,0.170X0.050*%
%ADD44R,0.080X0.080*%
%ADD45R,0.021X0.068*%
D10*
X925Y679D02*
D03*
X956D02*
D03*
X988D02*
D03*
X1019D02*
D03*
X1051D02*
D03*
X1082Y709D02*
D03*
X1051D02*
D03*
X988D02*
D03*
X956D02*
D03*
X925D02*
D03*
X1082Y738D02*
D03*
X925D02*
D03*
X1082Y768D02*
D03*
X925D02*
D03*
X1082Y797D02*
D03*
X1051D02*
D03*
X1019D02*
D03*
X988D02*
D03*
X956D02*
D03*
X925D02*
D03*
X1082Y827D02*
D03*
X1051D02*
D03*
X1019D02*
D03*
X988D02*
D03*
X956D02*
D03*
X925D02*
D03*
X1082Y679D02*
D03*
X1019Y709D02*
D03*
D35*
X2308Y150D02*
Y50D01*
X2275Y150D02*
X2342D01*
X2377Y117D02*
X2368Y112D01*
X2358Y102D01*
X2354Y88D01*
Y79D01*
X2358Y64D01*
X2368Y55D01*
X2377Y50D01*
X2392D01*
X2401Y55D01*
X2411Y64D01*
X2415Y79D01*
Y88D01*
X2411Y102D01*
X2401Y112D01*
X2392Y117D01*
X2377D01*
X2437D02*
Y17D01*
Y102D02*
X2447Y112D01*
X2456Y117D01*
X2471D01*
X2480Y112D01*
X2490Y102D01*
X2494Y88D01*
Y79D01*
X2490Y64D01*
X2480Y55D01*
X2471Y50D01*
X2456D01*
X2447Y55D01*
X2437Y64D01*
X2594Y98D02*
X2637D01*
X2652Y102D01*
X2656Y107D01*
X2661Y117D01*
Y131D01*
X2656Y140D01*
X2652Y145D01*
X2637Y150D01*
X2594D01*
Y50D01*
X2741Y117D02*
Y50D01*
Y102D02*
X2731Y112D01*
X2722Y117D01*
X2707D01*
X2698Y112D01*
X2688Y102D01*
X2683Y88D01*
Y79D01*
X2688Y64D01*
X2698Y55D01*
X2707Y50D01*
X2722D01*
X2731Y55D01*
X2741Y64D01*
X2820Y102D02*
X2815Y112D01*
X2801Y117D01*
X2786D01*
X2772Y112D01*
X2767Y102D01*
X2772Y93D01*
X2782Y88D01*
X2805Y83D01*
X2815Y79D01*
X2820Y69D01*
Y64D01*
X2815Y55D01*
X2801Y50D01*
X2786D01*
X2772Y55D01*
X2767Y64D01*
X2855Y150D02*
Y69D01*
X2860Y55D01*
X2869Y50D01*
X2879D01*
X2841Y117D02*
X2874D01*
X2893Y88D02*
X2950D01*
Y98D01*
X2945Y107D01*
X2941Y112D01*
X2931Y117D01*
X2917D01*
X2907Y112D01*
X2898Y102D01*
X2893Y88D01*
Y79D01*
X2898Y64D01*
X2907Y55D01*
X2917Y50D01*
X2931D01*
X2941Y55D01*
X2950Y64D01*
M02*
