%FSLAX23Y23*%
%MOIN*%
G70*
G01*
G75*
G04 Layer_Color=128*
%ADD10C,0.016*%
%ADD11C,0.010*%
%ADD12C,0.020*%
%ADD13C,0.018*%
%ADD14C,0.015*%
%ADD15C,0.100*%
%ADD16C,0.145*%
%ADD17C,0.050*%
%ADD18C,0.070*%
%ADD19C,0.060*%
%ADD20O,0.060X0.061*%
%ADD21C,0.059*%
%ADD22C,0.059*%
%ADD23R,0.059X0.059*%
%ADD24C,0.025*%
%ADD25R,0.051X0.059*%
%ADD26R,0.058X0.039*%
%ADD27R,0.022X0.057*%
%ADD28R,0.022X0.057*%
%ADD29R,0.039X0.058*%
%ADD30R,0.035X0.037*%
%ADD31R,0.035X0.037*%
%ADD32C,0.020*%
%ADD33C,0.025*%
%ADD34C,0.004*%
%ADD35C,0.006*%
%ADD36C,0.005*%
%ADD37C,0.004*%
%ADD38C,0.010*%
%ADD39C,0.008*%
%ADD40C,0.008*%
%ADD41R,0.420X0.140*%
%ADD42R,0.250X0.130*%
%ADD43R,0.170X0.050*%
%ADD44R,0.080X0.080*%
%ADD45R,0.021X0.068*%
D25*
X1823Y460D02*
D03*
X1443Y290D02*
D03*
X1897Y460D02*
D03*
X1517Y290D02*
D03*
X1100Y560D02*
D03*
X1175D02*
D03*
X1273Y380D02*
D03*
X1007D02*
D03*
X933D02*
D03*
X567Y340D02*
D03*
X492D02*
D03*
X1347Y290D02*
D03*
X1273D02*
D03*
X1177D02*
D03*
X1103D02*
D03*
X1010Y560D02*
D03*
X935D02*
D03*
X1347Y380D02*
D03*
X1285Y660D02*
D03*
X880Y780D02*
D03*
X805D02*
D03*
X907Y910D02*
D03*
X832D02*
D03*
X1285Y750D02*
D03*
X157Y190D02*
D03*
X83D02*
D03*
X187Y460D02*
D03*
X113D02*
D03*
X407D02*
D03*
X333D02*
D03*
X1283Y560D02*
D03*
X1357D02*
D03*
X1667Y460D02*
D03*
X1593D02*
D03*
X1067Y910D02*
D03*
X1142D02*
D03*
X1210Y750D02*
D03*
Y660D02*
D03*
X1517Y380D02*
D03*
X1443D02*
D03*
X157Y100D02*
D03*
X83D02*
D03*
D26*
X710Y610D02*
D03*
Y485D02*
D03*
D27*
X566Y472D02*
D03*
D28*
X528Y472D02*
D03*
X491D02*
D03*
Y556D02*
D03*
X566D02*
D03*
D29*
X1100Y470D02*
D03*
X1225D02*
D03*
X1010D02*
D03*
X885D02*
D03*
D30*
X112Y274D02*
D03*
X332D02*
D03*
X1822Y264D02*
D03*
X1592Y274D02*
D03*
D31*
X187Y274D02*
D03*
X150Y366D02*
D03*
X370D02*
D03*
X407Y274D02*
D03*
X1860Y356D02*
D03*
X1897Y264D02*
D03*
X1667Y274D02*
D03*
X1630Y366D02*
D03*
D35*
X2275Y150D02*
Y50D01*
Y150D02*
X2318D01*
X2332Y145D01*
X2337Y140D01*
X2342Y131D01*
Y121D01*
X2337Y112D01*
X2332Y107D01*
X2318Y102D01*
X2275D02*
X2318D01*
X2332Y98D01*
X2337Y93D01*
X2342Y83D01*
Y69D01*
X2337Y60D01*
X2332Y55D01*
X2318Y50D01*
X2275D01*
X2388Y117D02*
X2378Y112D01*
X2369Y102D01*
X2364Y88D01*
Y79D01*
X2369Y64D01*
X2378Y55D01*
X2388Y50D01*
X2402D01*
X2412Y55D01*
X2421Y64D01*
X2426Y79D01*
Y88D01*
X2421Y102D01*
X2412Y112D01*
X2402Y117D01*
X2388D01*
X2462Y150D02*
Y69D01*
X2467Y55D01*
X2476Y50D01*
X2486D01*
X2448Y117D02*
X2481D01*
X2514Y150D02*
Y69D01*
X2519Y55D01*
X2529Y50D01*
X2538D01*
X2500Y117D02*
X2534D01*
X2576D02*
X2567Y112D01*
X2557Y102D01*
X2553Y88D01*
Y79D01*
X2557Y64D01*
X2567Y55D01*
X2576Y50D01*
X2591D01*
X2600Y55D01*
X2610Y64D01*
X2614Y79D01*
Y88D01*
X2610Y102D01*
X2600Y112D01*
X2591Y117D01*
X2576D01*
X2636D02*
Y50D01*
Y98D02*
X2651Y112D01*
X2660Y117D01*
X2674D01*
X2684Y112D01*
X2689Y98D01*
Y50D01*
Y98D02*
X2703Y112D01*
X2713Y117D01*
X2727D01*
X2736Y112D01*
X2741Y98D01*
Y50D01*
X2851Y98D02*
X2894D01*
X2908Y102D01*
X2913Y107D01*
X2918Y117D01*
Y131D01*
X2913Y140D01*
X2908Y145D01*
X2894Y150D01*
X2851D01*
Y50D01*
X2997Y117D02*
Y50D01*
Y102D02*
X2988Y112D01*
X2978Y117D01*
X2964D01*
X2954Y112D01*
X2945Y102D01*
X2940Y88D01*
Y79D01*
X2945Y64D01*
X2954Y55D01*
X2964Y50D01*
X2978D01*
X2988Y55D01*
X2997Y64D01*
X3076Y102D02*
X3071Y112D01*
X3057Y117D01*
X3043D01*
X3029Y112D01*
X3024Y102D01*
X3029Y93D01*
X3038Y88D01*
X3062Y83D01*
X3071Y79D01*
X3076Y69D01*
Y64D01*
X3071Y55D01*
X3057Y50D01*
X3043D01*
X3029Y55D01*
X3024Y64D01*
X3111Y150D02*
Y69D01*
X3116Y55D01*
X3126Y50D01*
X3135D01*
X3097Y117D02*
X3131D01*
X3150Y88D02*
X3207D01*
Y98D01*
X3202Y107D01*
X3197Y112D01*
X3188Y117D01*
X3173D01*
X3164Y112D01*
X3154Y102D01*
X3150Y88D01*
Y79D01*
X3154Y64D01*
X3164Y55D01*
X3173Y50D01*
X3188D01*
X3197Y55D01*
X3207Y64D01*
M02*
