%FSLAX23Y23*%
%MOIN*%
G70*
G01*
G75*
G04 Layer_Color=8388736*
%ADD10C,0.016*%
%ADD11C,0.010*%
%ADD12C,0.020*%
%ADD13C,0.018*%
%ADD14C,0.015*%
%ADD15C,0.100*%
%ADD16C,0.145*%
%ADD17C,0.050*%
%ADD18C,0.070*%
%ADD19C,0.060*%
%ADD20O,0.060X0.061*%
%ADD21C,0.059*%
%ADD22C,0.059*%
%ADD23R,0.059X0.059*%
%ADD24C,0.025*%
%ADD25R,0.051X0.059*%
%ADD26R,0.058X0.039*%
%ADD27R,0.022X0.057*%
%ADD28R,0.022X0.057*%
%ADD29R,0.039X0.058*%
%ADD30R,0.035X0.037*%
%ADD31R,0.035X0.037*%
%ADD32C,0.020*%
%ADD33C,0.025*%
%ADD34C,0.004*%
%ADD35C,0.006*%
%ADD36C,0.005*%
%ADD37C,0.004*%
%ADD38C,0.010*%
%ADD39C,0.008*%
%ADD40C,0.008*%
%ADD41R,0.420X0.140*%
%ADD42R,0.250X0.130*%
%ADD43R,0.170X0.050*%
%ADD44R,0.080X0.080*%
%ADD45R,0.021X0.068*%
%ADD46C,0.024*%
%ADD47C,0.108*%
%ADD48C,0.153*%
%ADD49C,0.058*%
%ADD50C,0.078*%
%ADD51C,0.068*%
%ADD52O,0.068X0.069*%
%ADD53C,0.067*%
%ADD54C,0.067*%
%ADD55R,0.067X0.067*%
%ADD56C,0.033*%
D35*
X2308Y150D02*
Y50D01*
X2275Y150D02*
X2342D01*
X2377Y117D02*
X2368Y112D01*
X2358Y102D01*
X2354Y88D01*
Y79D01*
X2358Y64D01*
X2368Y55D01*
X2377Y50D01*
X2392D01*
X2401Y55D01*
X2411Y64D01*
X2415Y79D01*
Y88D01*
X2411Y102D01*
X2401Y112D01*
X2392Y117D01*
X2377D01*
X2437D02*
Y17D01*
Y102D02*
X2447Y112D01*
X2456Y117D01*
X2471D01*
X2480Y112D01*
X2490Y102D01*
X2494Y88D01*
Y79D01*
X2490Y64D01*
X2480Y55D01*
X2471Y50D01*
X2456D01*
X2447Y55D01*
X2437Y64D01*
X2661Y136D02*
X2652Y145D01*
X2637Y150D01*
X2618D01*
X2604Y145D01*
X2594Y136D01*
Y126D01*
X2599Y117D01*
X2604Y112D01*
X2613Y107D01*
X2642Y98D01*
X2652Y93D01*
X2656Y88D01*
X2661Y79D01*
Y64D01*
X2652Y55D01*
X2637Y50D01*
X2618D01*
X2604Y55D01*
X2594Y64D01*
X2707Y117D02*
X2698Y112D01*
X2688Y102D01*
X2683Y88D01*
Y79D01*
X2688Y64D01*
X2698Y55D01*
X2707Y50D01*
X2722D01*
X2731Y55D01*
X2741Y64D01*
X2745Y79D01*
Y88D01*
X2741Y102D01*
X2731Y112D01*
X2722Y117D01*
X2707D01*
X2767Y150D02*
Y50D01*
X2845Y150D02*
Y50D01*
Y102D02*
X2836Y112D01*
X2826Y117D01*
X2812D01*
X2803Y112D01*
X2793Y102D01*
X2788Y88D01*
Y79D01*
X2793Y64D01*
X2803Y55D01*
X2812Y50D01*
X2826D01*
X2836Y55D01*
X2845Y64D01*
X2872Y88D02*
X2929D01*
Y98D01*
X2924Y107D01*
X2920Y112D01*
X2910Y117D01*
X2896D01*
X2886Y112D01*
X2877Y102D01*
X2872Y88D01*
Y79D01*
X2877Y64D01*
X2886Y55D01*
X2896Y50D01*
X2910D01*
X2920Y55D01*
X2929Y64D01*
X2951Y117D02*
Y50D01*
Y88D02*
X2955Y102D01*
X2965Y112D01*
X2974Y117D01*
X2989D01*
D46*
X925Y679D02*
D03*
X956D02*
D03*
X988D02*
D03*
X1019D02*
D03*
X1051D02*
D03*
X1082Y709D02*
D03*
X1051D02*
D03*
X988D02*
D03*
X956D02*
D03*
X925D02*
D03*
X1082Y738D02*
D03*
X925D02*
D03*
X1082Y768D02*
D03*
X925D02*
D03*
X1082Y797D02*
D03*
X1051D02*
D03*
X1019D02*
D03*
X988D02*
D03*
X956D02*
D03*
X925D02*
D03*
X1082Y827D02*
D03*
X1051D02*
D03*
X1019D02*
D03*
X988D02*
D03*
X956D02*
D03*
X925D02*
D03*
X1082Y679D02*
D03*
X1019Y709D02*
D03*
D47*
X1885Y1310D02*
D03*
X115D02*
D03*
D48*
X1725Y1385D02*
D03*
X275D02*
D03*
D49*
X1373Y1075D02*
D03*
X627Y405D02*
D03*
D50*
X1433Y740D02*
D03*
X567D02*
D03*
D51*
X1800Y575D02*
D03*
Y925D02*
D03*
X100Y575D02*
D03*
X325D02*
D03*
X100Y925D02*
D03*
X325D02*
D03*
X1575D02*
D03*
Y575D02*
D03*
D52*
X1900D02*
D03*
X200Y925D02*
D03*
X425D02*
D03*
X1675D02*
D03*
X425Y575D02*
D03*
X200D02*
D03*
X1900Y925D02*
D03*
X1675Y575D02*
D03*
D53*
X250Y175D02*
D03*
X350D02*
D03*
Y75D02*
D03*
X650Y175D02*
D03*
X750Y75D02*
D03*
X850Y175D02*
D03*
X950D02*
D03*
Y75D02*
D03*
X1050Y175D02*
D03*
X1150D02*
D03*
Y75D02*
D03*
X1250Y175D02*
D03*
X1350D02*
D03*
Y75D02*
D03*
X1450Y175D02*
D03*
X1550D02*
D03*
Y75D02*
D03*
X1650Y175D02*
D03*
X450Y175D02*
D03*
X550D02*
D03*
Y75D02*
D03*
X750Y175D02*
D03*
X1750Y175D02*
D03*
X50Y290D02*
D03*
X1940Y90D02*
D03*
Y200D02*
D03*
D54*
X250Y75D02*
D03*
X650Y75D02*
D03*
X850D02*
D03*
X1050D02*
D03*
X1250Y75D02*
D03*
X1450D02*
D03*
X1650D02*
D03*
X450Y75D02*
D03*
D55*
X1750Y75D02*
D03*
D56*
X377Y275D02*
D03*
X1942Y304D02*
D03*
X809Y380D02*
D03*
X564Y391D02*
D03*
X566Y424D02*
D03*
X493D02*
D03*
X1350Y838D02*
D03*
X82Y145D02*
D03*
X1036Y610D02*
D03*
X1034Y469D02*
D03*
X960Y610D02*
D03*
X748Y682D02*
D03*
X880D02*
D03*
X1101Y343D02*
D03*
X188Y323D02*
D03*
X1317Y330D02*
D03*
X1180Y346D02*
D03*
X1144Y510D02*
D03*
X1114Y641D02*
D03*
X986Y733D02*
D03*
X1021Y769D02*
D03*
X954D02*
D03*
X982Y858D02*
D03*
X1105Y709D02*
D03*
X987Y769D02*
D03*
X1054Y773D02*
D03*
X1053Y734D02*
D03*
X953Y735D02*
D03*
X1273Y433D02*
D03*
X1017Y860D02*
D03*
X1437Y565D02*
D03*
X1386Y510D02*
D03*
X1470Y567D02*
D03*
X1540Y472D02*
D03*
X1507Y568D02*
D03*
X1701Y275D02*
D03*
Y311D02*
D03*
X1744Y235D02*
D03*
X835Y240D02*
D03*
X826Y278D02*
D03*
X806Y854D02*
D03*
X839Y835D02*
D03*
X1141Y994D02*
D03*
X1069Y995D02*
D03*
X832Y956D02*
D03*
X878Y991D02*
D03*
X748Y731D02*
D03*
X710Y775D02*
D03*
X1168Y660D02*
D03*
X1020Y734D02*
D03*
X1313Y451D02*
D03*
X1349Y437D02*
D03*
X1382Y435D02*
D03*
X1451Y431D02*
D03*
X1506Y476D02*
D03*
X1167Y706D02*
D03*
X1384Y804D02*
D03*
X1047Y380D02*
D03*
X1088Y379D02*
D03*
X160Y234D02*
D03*
M02*
