%FSLAX23Y23*%
%MOIN*%
G70*
G01*
G75*
G04 Layer_Color=16711935*
%ADD10C,0.016*%
%ADD11C,0.010*%
%ADD12C,0.020*%
%ADD13C,0.018*%
%ADD14C,0.015*%
%ADD15C,0.100*%
%ADD16C,0.145*%
%ADD17C,0.050*%
%ADD18C,0.070*%
%ADD19C,0.060*%
%ADD20O,0.060X0.061*%
%ADD21C,0.059*%
%ADD22C,0.059*%
%ADD23R,0.059X0.059*%
%ADD24C,0.025*%
%ADD25R,0.051X0.059*%
%ADD26R,0.058X0.039*%
%ADD27R,0.022X0.057*%
%ADD28R,0.022X0.057*%
%ADD29R,0.039X0.058*%
%ADD30R,0.035X0.037*%
%ADD31R,0.035X0.037*%
%ADD32C,0.020*%
%ADD33C,0.025*%
%ADD34C,0.004*%
%ADD35C,0.006*%
%ADD36C,0.005*%
%ADD37C,0.004*%
%ADD38C,0.010*%
%ADD39C,0.008*%
%ADD40C,0.008*%
%ADD41R,0.420X0.140*%
%ADD42R,0.250X0.130*%
%ADD43R,0.170X0.050*%
%ADD44R,0.080X0.080*%
%ADD45R,0.021X0.068*%
%ADD46C,0.024*%
%ADD47C,0.108*%
%ADD48C,0.153*%
%ADD49C,0.058*%
%ADD50C,0.078*%
%ADD51C,0.068*%
%ADD52O,0.068X0.069*%
%ADD53C,0.067*%
%ADD54C,0.067*%
%ADD55R,0.067X0.067*%
%ADD56C,0.033*%
%ADD57R,0.059X0.067*%
%ADD58R,0.066X0.047*%
%ADD59R,0.030X0.065*%
%ADD60R,0.030X0.065*%
%ADD61R,0.047X0.066*%
%ADD62R,0.043X0.045*%
%ADD63R,0.043X0.045*%
%ADD64C,0.002*%
%ADD65C,0.001*%
%ADD66C,0.008*%
D11*
X8422Y4593D02*
Y4393D01*
X8536D01*
X8711D02*
X8635Y4593D01*
X8558Y4393D01*
X8587Y4460D02*
X8682D01*
X8757Y4593D02*
X8834Y4498D01*
Y4393D01*
X8910Y4593D02*
X8834Y4498D01*
X9059Y4593D02*
X8935D01*
Y4393D01*
X9059D01*
X8935Y4498D02*
X9012D01*
X9093Y4593D02*
Y4393D01*
Y4593D02*
X9178D01*
X9207Y4583D01*
X9216Y4574D01*
X9226Y4555D01*
Y4536D01*
X9216Y4517D01*
X9207Y4507D01*
X9178Y4498D01*
X9093D01*
X9159D02*
X9226Y4393D01*
X9428Y4593D02*
Y4393D01*
X9470Y4593D02*
Y4393D01*
Y4593D02*
X9536D01*
X9565Y4583D01*
X9584Y4564D01*
X9593Y4545D01*
X9603Y4517D01*
Y4469D01*
X9593Y4441D01*
X9584Y4422D01*
X9565Y4403D01*
X9536Y4393D01*
X9470D01*
X9771Y4593D02*
X9648D01*
Y4393D01*
X9771D01*
X9648Y4498D02*
X9724D01*
X9805Y4593D02*
Y4393D01*
Y4593D02*
X9938Y4393D01*
Y4593D02*
Y4393D01*
X10060Y4593D02*
Y4393D01*
X9993Y4593D02*
X10127D01*
X10150D02*
Y4393D01*
X10192Y4593D02*
Y4393D01*
Y4593D02*
X10316D01*
X10192Y4498D02*
X10268D01*
X10339Y4593D02*
Y4393D01*
X10524Y4545D02*
X10514Y4564D01*
X10495Y4583D01*
X10476Y4593D01*
X10438D01*
X10419Y4583D01*
X10400Y4564D01*
X10390Y4545D01*
X10381Y4517D01*
Y4469D01*
X10390Y4441D01*
X10400Y4422D01*
X10419Y4403D01*
X10438Y4393D01*
X10476D01*
X10495Y4403D01*
X10514Y4422D01*
X10524Y4441D01*
X10732Y4393D02*
X10656Y4593D01*
X10580Y4393D01*
X10608Y4460D02*
X10704D01*
X10845Y4593D02*
Y4393D01*
X10779Y4593D02*
X10912D01*
X10936D02*
Y4393D01*
X11035Y4593D02*
X11016Y4583D01*
X10997Y4564D01*
X10987Y4545D01*
X10978Y4517D01*
Y4469D01*
X10987Y4441D01*
X10997Y4422D01*
X11016Y4403D01*
X11035Y4393D01*
X11073D01*
X11092Y4403D01*
X11111Y4422D01*
X11121Y4441D01*
X11130Y4469D01*
Y4517D01*
X11121Y4545D01*
X11111Y4564D01*
X11092Y4583D01*
X11073Y4593D01*
X11035D01*
X11177D02*
Y4393D01*
Y4593D02*
X11310Y4393D01*
Y4593D02*
Y4393D01*
X11522Y4593D02*
Y4393D01*
Y4593D02*
X11589D01*
X11618Y4583D01*
X11637Y4564D01*
X11646Y4545D01*
X11656Y4517D01*
Y4469D01*
X11646Y4441D01*
X11637Y4422D01*
X11618Y4403D01*
X11589Y4393D01*
X11522D01*
X11824Y4593D02*
X11701D01*
Y4393D01*
X11824D01*
X11701Y4498D02*
X11777D01*
X11924Y4593D02*
Y4393D01*
X11858Y4593D02*
X11991D01*
X12167Y4393D02*
X12091Y4593D01*
X12015Y4393D01*
X12043Y4460D02*
X12139D01*
X12214Y4593D02*
Y4393D01*
X12256Y4593D02*
Y4393D01*
X12370D01*
D33*
X163Y9955D02*
Y9705D01*
Y9955D02*
X329Y9705D01*
Y9955D02*
Y9705D01*
X470Y9955D02*
X446Y9943D01*
X422Y9919D01*
X410Y9895D01*
X398Y9860D01*
Y9800D01*
X410Y9765D01*
X422Y9741D01*
X446Y9717D01*
X470Y9705D01*
X517D01*
X541Y9717D01*
X565Y9741D01*
X577Y9765D01*
X589Y9800D01*
Y9860D01*
X577Y9895D01*
X565Y9919D01*
X541Y9943D01*
X517Y9955D01*
X470D01*
X730D02*
Y9705D01*
X647Y9955D02*
X814D01*
X998D02*
X843D01*
Y9705D01*
X998D01*
X843Y9836D02*
X939D01*
X1206Y9919D02*
X1183Y9943D01*
X1147Y9955D01*
X1099D01*
X1064Y9943D01*
X1040Y9919D01*
Y9895D01*
X1052Y9872D01*
X1064Y9860D01*
X1087Y9848D01*
X1159Y9824D01*
X1183Y9812D01*
X1195Y9800D01*
X1206Y9776D01*
Y9741D01*
X1183Y9717D01*
X1147Y9705D01*
X1099D01*
X1064Y9717D01*
X1040Y9741D01*
X1274Y9872D02*
X1262Y9860D01*
X1274Y9848D01*
X1286Y9860D01*
X1274Y9872D01*
Y9729D02*
X1262Y9717D01*
X1274Y9705D01*
X1286Y9717D01*
X1274Y9729D01*
D40*
X60Y6986D02*
X360D01*
X210Y7236D02*
X360Y6986D01*
X60D02*
X210Y7236D01*
X55Y8591D02*
X355D01*
X205Y8841D02*
X355Y8591D01*
X55D02*
X205Y8841D01*
X15234Y6274D02*
X15384Y6524D01*
X15534Y6274D01*
X15234D02*
X15534D01*
X15544D02*
X15694Y6524D01*
X15844Y6274D01*
X15544D02*
X15844D01*
X9385Y5856D02*
X9410Y5881D01*
X9385Y5856D02*
X9410Y5831D01*
X9385Y5906D02*
X9410Y5881D01*
X9385Y5906D02*
X9410Y5931D01*
X11410Y5831D02*
Y5931D01*
X9410D02*
X11410D01*
X9410Y5831D02*
X11410D01*
X8430Y4301D02*
X12380D01*
X15603Y7161D02*
X15753Y7411D01*
X15903Y7161D01*
X15603D02*
X15903D01*
X15913D02*
X16063Y7411D01*
X16213Y7161D01*
X15913D02*
X16213D01*
X9368Y6256D02*
X9393Y6281D01*
X9368Y6306D02*
X9393Y6281D01*
X9368Y6306D02*
X9393Y6331D01*
X9368Y6356D02*
X9393Y6331D01*
X9368Y6356D02*
X9393Y6381D01*
X9368Y6256D02*
X9393Y6231D01*
X9368Y6731D02*
X9393Y6756D01*
X9368Y6731D02*
X9393Y6706D01*
X9368Y6781D02*
X9393Y6756D01*
X9368Y6781D02*
X9393Y6806D01*
X11393Y6706D02*
Y6806D01*
X9393D02*
X11393D01*
X9393Y6706D02*
X11393D01*
X9393Y6231D02*
X11493D01*
Y6381D01*
X9393D02*
X11493D01*
X563Y8346D02*
X592Y8222D01*
X622Y8346D02*
X592Y8222D01*
X622Y8346D02*
X652Y8222D01*
X682Y8346D02*
X652Y8222D01*
X707Y8346D02*
Y8222D01*
X774Y8346D02*
Y8222D01*
X733Y8346D02*
X816D01*
X831D02*
Y8222D01*
X914Y8346D02*
Y8222D01*
X831Y8287D02*
X914D01*
X1142Y8222D02*
X1095Y8346D01*
X1047Y8222D01*
X1065Y8263D02*
X1124D01*
X1311Y8346D02*
Y8222D01*
X1270Y8346D02*
X1353D01*
X1439Y8305D02*
Y8210D01*
X1433Y8192D01*
X1427Y8186D01*
X1415Y8180D01*
X1398D01*
X1386Y8186D01*
X1439Y8287D02*
X1427Y8299D01*
X1415Y8305D01*
X1398D01*
X1386Y8299D01*
X1374Y8287D01*
X1368Y8269D01*
Y8257D01*
X1374Y8239D01*
X1386Y8227D01*
X1398Y8222D01*
X1415D01*
X1427Y8227D01*
X1439Y8239D01*
X1571Y8346D02*
X1618Y8222D01*
X1666Y8346D02*
X1618Y8222D01*
X1777D02*
X1730Y8346D01*
X1682Y8222D01*
X1700Y8263D02*
X1759D01*
X1806Y8346D02*
Y8222D01*
X1878D01*
X1891Y8346D02*
Y8257D01*
X1897Y8239D01*
X1909Y8227D01*
X1927Y8222D01*
X1939D01*
X1957Y8227D01*
X1969Y8239D01*
X1975Y8257D01*
Y8346D01*
X2087D02*
X2009D01*
Y8222D01*
X2087D01*
X2009Y8287D02*
X2057D01*
X2295Y8317D02*
X2289Y8329D01*
X2277Y8341D01*
X2265Y8346D01*
X2241D01*
X2230Y8341D01*
X2218Y8329D01*
X2212Y8317D01*
X2206Y8299D01*
Y8269D01*
X2212Y8251D01*
X2218Y8239D01*
X2230Y8227D01*
X2241Y8222D01*
X2265D01*
X2277Y8227D01*
X2289Y8239D01*
X2295Y8251D01*
Y8269D01*
X2265D02*
X2295D01*
X2324Y8346D02*
Y8222D01*
Y8346D02*
X2377D01*
X2395Y8341D01*
X2401Y8335D01*
X2407Y8323D01*
Y8311D01*
X2401Y8299D01*
X2395Y8293D01*
X2377Y8287D01*
X2324D01*
X2365D02*
X2407Y8222D01*
X2512Y8346D02*
X2435D01*
Y8222D01*
X2512D01*
X2435Y8287D02*
X2482D01*
X2628Y8222D02*
X2581Y8346D01*
X2533Y8222D01*
X2551Y8263D02*
X2610D01*
X2699Y8346D02*
Y8222D01*
X2657Y8346D02*
X2741D01*
X2833D02*
X2756D01*
Y8222D01*
X2833D01*
X2756Y8287D02*
X2803D01*
X2854Y8346D02*
Y8222D01*
Y8346D02*
X2907D01*
X2925Y8341D01*
X2931Y8335D01*
X2937Y8323D01*
Y8311D01*
X2931Y8299D01*
X2925Y8293D01*
X2907Y8287D01*
X2854D01*
X2895D02*
X2937Y8222D01*
X3105Y8346D02*
Y8222D01*
X3063Y8346D02*
X3147D01*
X3161D02*
Y8222D01*
X3245Y8346D02*
Y8222D01*
X3161Y8287D02*
X3245D01*
X3374Y8222D02*
X3327Y8346D01*
X3279Y8222D01*
X3297Y8263D02*
X3357D01*
X3404Y8346D02*
Y8222D01*
Y8346D02*
X3487Y8222D01*
Y8346D02*
Y8222D01*
X3620Y8323D02*
X3632Y8329D01*
X3649Y8346D01*
Y8222D01*
X3795Y8346D02*
X3735Y8222D01*
X3711Y8346D02*
X3795D01*
X3858D02*
X3840Y8341D01*
X3829Y8323D01*
X3823Y8293D01*
Y8275D01*
X3829Y8245D01*
X3840Y8227D01*
X3858Y8222D01*
X3870D01*
X3888Y8227D01*
X3900Y8245D01*
X3906Y8275D01*
Y8293D01*
X3900Y8323D01*
X3888Y8341D01*
X3870Y8346D01*
X3858D01*
X4115Y8317D02*
X4109Y8329D01*
X4097Y8341D01*
X4085Y8346D01*
X4061D01*
X4049Y8341D01*
X4037Y8329D01*
X4031Y8317D01*
X4026Y8299D01*
Y8269D01*
X4031Y8251D01*
X4037Y8239D01*
X4049Y8227D01*
X4061Y8222D01*
X4085D01*
X4097Y8227D01*
X4109Y8239D01*
X4115Y8251D01*
X4156Y8233D02*
X4150Y8227D01*
X4156Y8222D01*
X4162Y8227D01*
X4156Y8233D01*
X4386Y8346D02*
Y8222D01*
Y8346D02*
X4463D01*
X4386Y8287D02*
X4433D01*
X4513Y8346D02*
X4501Y8341D01*
X4489Y8329D01*
X4483Y8317D01*
X4477Y8299D01*
Y8269D01*
X4483Y8251D01*
X4489Y8239D01*
X4501Y8227D01*
X4513Y8222D01*
X4537D01*
X4549Y8227D01*
X4561Y8239D01*
X4567Y8251D01*
X4572Y8269D01*
Y8299D01*
X4567Y8317D01*
X4561Y8329D01*
X4549Y8341D01*
X4537Y8346D01*
X4513D01*
X4602D02*
Y8222D01*
Y8346D02*
X4655D01*
X4673Y8341D01*
X4679Y8335D01*
X4685Y8323D01*
Y8311D01*
X4679Y8299D01*
X4673Y8293D01*
X4655Y8287D01*
X4602D01*
X4643D02*
X4685Y8222D01*
X4811Y8281D02*
X4865D01*
X4883Y8287D01*
X4888Y8293D01*
X4894Y8305D01*
Y8323D01*
X4888Y8335D01*
X4883Y8341D01*
X4865Y8346D01*
X4811D01*
Y8222D01*
X5012Y8317D02*
X5006Y8329D01*
X4994Y8341D01*
X4982Y8346D01*
X4958D01*
X4946Y8341D01*
X4934Y8329D01*
X4928Y8317D01*
X4922Y8299D01*
Y8269D01*
X4928Y8251D01*
X4934Y8239D01*
X4946Y8227D01*
X4958Y8222D01*
X4982D01*
X4994Y8227D01*
X5006Y8239D01*
X5012Y8251D01*
X5047Y8346D02*
Y8222D01*
Y8346D02*
X5100D01*
X5118Y8341D01*
X5124Y8335D01*
X5130Y8323D01*
Y8311D01*
X5124Y8299D01*
X5118Y8293D01*
X5100Y8287D01*
X5047D02*
X5100D01*
X5118Y8281D01*
X5124Y8275D01*
X5130Y8263D01*
Y8245D01*
X5124Y8233D01*
X5118Y8227D01*
X5100Y8222D01*
X5047D01*
X5298Y8346D02*
Y8222D01*
X5256Y8346D02*
X5340D01*
X5354D02*
Y8222D01*
X5438Y8346D02*
Y8222D01*
X5354Y8287D02*
X5438D01*
X5472Y8346D02*
Y8222D01*
X5588Y8317D02*
X5582Y8329D01*
X5570Y8341D01*
X5558Y8346D01*
X5534D01*
X5522Y8341D01*
X5510Y8329D01*
X5504Y8317D01*
X5498Y8299D01*
Y8269D01*
X5504Y8251D01*
X5510Y8239D01*
X5522Y8227D01*
X5534Y8222D01*
X5558D01*
X5570Y8227D01*
X5582Y8239D01*
X5588Y8251D01*
X5623Y8346D02*
Y8222D01*
X5706Y8346D02*
X5623Y8263D01*
X5653Y8293D02*
X5706Y8222D01*
X5734Y8346D02*
Y8222D01*
Y8346D02*
X5817Y8222D01*
Y8346D02*
Y8222D01*
X5929Y8346D02*
X5852D01*
Y8222D01*
X5929D01*
X5852Y8287D02*
X5900D01*
X6033Y8329D02*
X6022Y8341D01*
X6004Y8346D01*
X5980D01*
X5962Y8341D01*
X5950Y8329D01*
Y8317D01*
X5956Y8305D01*
X5962Y8299D01*
X5974Y8293D01*
X6010Y8281D01*
X6022Y8275D01*
X6028Y8269D01*
X6033Y8257D01*
Y8239D01*
X6022Y8227D01*
X6004Y8222D01*
X5980D01*
X5962Y8227D01*
X5950Y8239D01*
X6145Y8329D02*
X6133Y8341D01*
X6115Y8346D01*
X6091D01*
X6073Y8341D01*
X6061Y8329D01*
Y8317D01*
X6067Y8305D01*
X6073Y8299D01*
X6085Y8293D01*
X6121Y8281D01*
X6133Y8275D01*
X6139Y8269D01*
X6145Y8257D01*
Y8239D01*
X6133Y8227D01*
X6115Y8222D01*
X6091D01*
X6073Y8227D01*
X6061Y8239D01*
X6185Y8227D02*
X6179Y8222D01*
X6173Y8227D01*
X6179Y8233D01*
X6185Y8227D01*
Y8216D01*
X6179Y8204D01*
X6173Y8198D01*
X652Y4217D02*
X646Y4229D01*
X634Y4241D01*
X622Y4246D01*
X598D01*
X586Y4241D01*
X575Y4229D01*
X569Y4217D01*
X563Y4199D01*
Y4169D01*
X569Y4151D01*
X575Y4139D01*
X586Y4127D01*
X598Y4122D01*
X622D01*
X634Y4127D01*
X646Y4139D01*
X652Y4151D01*
X723Y4246D02*
X711Y4241D01*
X699Y4229D01*
X693Y4217D01*
X687Y4199D01*
Y4169D01*
X693Y4151D01*
X699Y4139D01*
X711Y4127D01*
X723Y4122D01*
X746D01*
X758Y4127D01*
X770Y4139D01*
X776Y4151D01*
X782Y4169D01*
Y4199D01*
X776Y4217D01*
X770Y4229D01*
X758Y4241D01*
X746Y4246D01*
X723D01*
X811D02*
Y4122D01*
Y4246D02*
X895Y4122D01*
Y4246D02*
Y4122D01*
X971Y4246D02*
Y4122D01*
X929Y4246D02*
X1013D01*
X1027D02*
Y4122D01*
X1054Y4246D02*
Y4122D01*
Y4246D02*
X1137Y4122D01*
Y4246D02*
Y4122D01*
X1171Y4246D02*
Y4157D01*
X1177Y4139D01*
X1189Y4127D01*
X1207Y4122D01*
X1219D01*
X1237Y4127D01*
X1249Y4139D01*
X1255Y4157D01*
Y4246D01*
X1289D02*
Y4122D01*
X1357Y4246D02*
Y4122D01*
X1315Y4246D02*
X1399D01*
X1414D02*
X1461Y4187D01*
Y4122D01*
X1509Y4246D02*
X1461Y4187D01*
X1623Y4246D02*
Y4122D01*
Y4246D02*
X1677D01*
X1694Y4241D01*
X1700Y4235D01*
X1706Y4223D01*
Y4211D01*
X1700Y4199D01*
X1694Y4193D01*
X1677Y4187D01*
X1623D01*
X1665D02*
X1706Y4122D01*
X1812Y4246D02*
X1734D01*
Y4122D01*
X1812D01*
X1734Y4187D02*
X1782D01*
X1916Y4229D02*
X1904Y4241D01*
X1886Y4246D01*
X1862D01*
X1844Y4241D01*
X1833Y4229D01*
Y4217D01*
X1839Y4205D01*
X1844Y4199D01*
X1856Y4193D01*
X1892Y4181D01*
X1904Y4175D01*
X1910Y4169D01*
X1916Y4157D01*
Y4139D01*
X1904Y4127D01*
X1886Y4122D01*
X1862D01*
X1844Y4127D01*
X1833Y4139D01*
X1944Y4246D02*
Y4122D01*
X2053Y4229D02*
X2041Y4241D01*
X2024Y4246D01*
X2000D01*
X1982Y4241D01*
X1970Y4229D01*
Y4217D01*
X1976Y4205D01*
X1982Y4199D01*
X1994Y4193D01*
X2030Y4181D01*
X2041Y4175D01*
X2047Y4169D01*
X2053Y4157D01*
Y4139D01*
X2041Y4127D01*
X2024Y4122D01*
X2000D01*
X1982Y4127D01*
X1970Y4139D01*
X2123Y4246D02*
Y4122D01*
X2081Y4246D02*
X2165D01*
X2275Y4122D02*
X2227Y4246D01*
X2180Y4122D01*
X2197Y4163D02*
X2257D01*
X2304Y4246D02*
Y4122D01*
Y4246D02*
X2387Y4122D01*
Y4246D02*
Y4122D01*
X2511Y4217D02*
X2505Y4229D01*
X2493Y4241D01*
X2481Y4246D01*
X2457D01*
X2446Y4241D01*
X2434Y4229D01*
X2428Y4217D01*
X2422Y4199D01*
Y4169D01*
X2428Y4151D01*
X2434Y4139D01*
X2446Y4127D01*
X2457Y4122D01*
X2481D01*
X2493Y4127D01*
X2505Y4139D01*
X2511Y4151D01*
X2623Y4246D02*
X2546D01*
Y4122D01*
X2623D01*
X2546Y4187D02*
X2594D01*
X2838Y4122D02*
X2790Y4246D01*
X2742Y4122D01*
X2760Y4163D02*
X2820D01*
X2867Y4246D02*
Y4122D01*
Y4246D02*
X2950Y4122D01*
Y4246D02*
Y4122D01*
X2985Y4246D02*
Y4122D01*
Y4246D02*
X3026D01*
X3044Y4241D01*
X3056Y4229D01*
X3062Y4217D01*
X3068Y4199D01*
Y4169D01*
X3062Y4151D01*
X3056Y4139D01*
X3044Y4127D01*
X3026Y4122D01*
X2985D01*
X3194Y4223D02*
X3206Y4229D01*
X3224Y4246D01*
Y4122D01*
X3384Y4246D02*
Y4122D01*
Y4246D02*
X3432Y4122D01*
X3479Y4246D02*
X3432Y4122D01*
X3479Y4246D02*
Y4122D01*
X3592Y4246D02*
X3515D01*
Y4122D01*
X3592D01*
X3515Y4187D02*
X3563D01*
X3702Y4217D02*
X3696Y4229D01*
X3685Y4241D01*
X3673Y4246D01*
X3649D01*
X3637Y4241D01*
X3625Y4229D01*
X3619Y4217D01*
X3613Y4199D01*
Y4169D01*
X3619Y4151D01*
X3625Y4139D01*
X3637Y4127D01*
X3649Y4122D01*
X3673D01*
X3685Y4127D01*
X3696Y4139D01*
X3702Y4151D01*
Y4169D01*
X3673D02*
X3702D01*
X3826Y4122D02*
X3779Y4246D01*
X3731Y4122D01*
X3749Y4163D02*
X3808D01*
X3891Y4246D02*
X3879Y4241D01*
X3867Y4229D01*
X3861Y4217D01*
X3855Y4199D01*
Y4169D01*
X3861Y4151D01*
X3867Y4139D01*
X3879Y4127D01*
X3891Y4122D01*
X3915D01*
X3927Y4127D01*
X3939Y4139D01*
X3945Y4151D01*
X3951Y4169D01*
Y4199D01*
X3945Y4217D01*
X3939Y4229D01*
X3927Y4241D01*
X3915Y4246D01*
X3891D01*
X3980D02*
Y4122D01*
X4063Y4246D02*
Y4122D01*
X3980Y4187D02*
X4063D01*
X4098Y4246D02*
Y4122D01*
Y4246D02*
X4145Y4122D01*
X4193Y4246D02*
X4145Y4122D01*
X4193Y4246D02*
Y4122D01*
X4327Y4246D02*
Y4122D01*
Y4246D02*
X4374Y4122D01*
X4422Y4246D02*
X4374Y4122D01*
X4422Y4246D02*
Y4122D01*
X4458Y4246D02*
Y4122D01*
X4484Y4246D02*
Y4122D01*
Y4246D02*
X4567Y4122D01*
Y4246D02*
Y4122D01*
X4602Y4246D02*
Y4122D01*
X4628Y4246D02*
Y4122D01*
Y4246D02*
X4675Y4122D01*
X4723Y4246D02*
X4675Y4122D01*
X4723Y4246D02*
Y4122D01*
X4759Y4246D02*
Y4157D01*
X4765Y4139D01*
X4777Y4127D01*
X4794Y4122D01*
X4806D01*
X4824Y4127D01*
X4836Y4139D01*
X4842Y4157D01*
Y4246D01*
X4877D02*
Y4122D01*
Y4246D02*
X4924Y4122D01*
X4972Y4246D02*
X4924Y4122D01*
X4972Y4246D02*
Y4122D01*
X5106Y4246D02*
Y4122D01*
X5215Y4229D02*
X5203Y4241D01*
X5185Y4246D01*
X5162D01*
X5144Y4241D01*
X5132Y4229D01*
Y4217D01*
X5138Y4205D01*
X5144Y4199D01*
X5156Y4193D01*
X5191Y4181D01*
X5203Y4175D01*
X5209Y4169D01*
X5215Y4157D01*
Y4139D01*
X5203Y4127D01*
X5185Y4122D01*
X5162D01*
X5144Y4127D01*
X5132Y4139D01*
X5279Y4246D02*
X5267Y4241D01*
X5255Y4229D01*
X5249Y4217D01*
X5243Y4199D01*
Y4169D01*
X5249Y4151D01*
X5255Y4139D01*
X5267Y4127D01*
X5279Y4122D01*
X5303D01*
X5315Y4127D01*
X5326Y4139D01*
X5332Y4151D01*
X5338Y4169D01*
Y4199D01*
X5332Y4217D01*
X5326Y4229D01*
X5315Y4241D01*
X5303Y4246D01*
X5279D01*
X5368D02*
Y4122D01*
X5439D01*
X5548D02*
X5500Y4246D01*
X5453Y4122D01*
X5470Y4163D02*
X5530D01*
X5619Y4246D02*
Y4122D01*
X5577Y4246D02*
X5660D01*
X5675D02*
Y4122D01*
X5737Y4246D02*
X5725Y4241D01*
X5713Y4229D01*
X5707Y4217D01*
X5701Y4199D01*
Y4169D01*
X5707Y4151D01*
X5713Y4139D01*
X5725Y4127D01*
X5737Y4122D01*
X5761D01*
X5773Y4127D01*
X5785Y4139D01*
X5791Y4151D01*
X5797Y4169D01*
Y4199D01*
X5791Y4217D01*
X5785Y4229D01*
X5773Y4241D01*
X5761Y4246D01*
X5737D01*
X5826D02*
Y4122D01*
Y4246D02*
X5909Y4122D01*
Y4246D02*
Y4122D01*
X563Y4423D02*
X575Y4429D01*
X592Y4446D01*
Y4322D01*
X690Y4446D02*
X672Y4441D01*
X660Y4423D01*
X654Y4393D01*
Y4375D01*
X660Y4345D01*
X672Y4327D01*
X690Y4322D01*
X702D01*
X720Y4327D01*
X732Y4345D01*
X738Y4375D01*
Y4393D01*
X732Y4423D01*
X720Y4441D01*
X702Y4446D01*
X690D01*
X801D02*
X783Y4441D01*
X771Y4423D01*
X766Y4393D01*
Y4375D01*
X771Y4345D01*
X783Y4327D01*
X801Y4322D01*
X813D01*
X831Y4327D01*
X843Y4345D01*
X849Y4375D01*
Y4393D01*
X843Y4423D01*
X831Y4441D01*
X813Y4446D01*
X801D01*
X984D02*
X877Y4322D01*
X907Y4446D02*
X918Y4435D01*
Y4423D01*
X913Y4411D01*
X901Y4405D01*
X889D01*
X877Y4417D01*
Y4429D01*
X883Y4441D01*
X895Y4446D01*
X907D01*
X918Y4441D01*
X936Y4435D01*
X954D01*
X972Y4441D01*
X984Y4446D01*
X960Y4363D02*
X948Y4357D01*
X942Y4345D01*
Y4333D01*
X954Y4322D01*
X966D01*
X978Y4327D01*
X984Y4339D01*
Y4351D01*
X972Y4363D01*
X960D01*
X1154Y4446D02*
Y4322D01*
X1112Y4446D02*
X1196D01*
X1288D02*
X1211D01*
Y4322D01*
X1288D01*
X1211Y4387D02*
X1258D01*
X1392Y4429D02*
X1380Y4441D01*
X1362Y4446D01*
X1339D01*
X1321Y4441D01*
X1309Y4429D01*
Y4417D01*
X1315Y4405D01*
X1321Y4399D01*
X1333Y4393D01*
X1368Y4381D01*
X1380Y4375D01*
X1386Y4369D01*
X1392Y4357D01*
Y4339D01*
X1380Y4327D01*
X1362Y4322D01*
X1339D01*
X1321Y4327D01*
X1309Y4339D01*
X1462Y4446D02*
Y4322D01*
X1420Y4446D02*
X1503D01*
X1617Y4381D02*
X1670D01*
X1688Y4387D01*
X1694Y4393D01*
X1700Y4405D01*
Y4423D01*
X1694Y4435D01*
X1688Y4441D01*
X1670Y4446D01*
X1617D01*
Y4322D01*
X1728Y4446D02*
Y4322D01*
Y4446D02*
X1781D01*
X1799Y4441D01*
X1805Y4435D01*
X1811Y4423D01*
Y4411D01*
X1805Y4399D01*
X1799Y4393D01*
X1781Y4387D01*
X1728D01*
X1769D02*
X1811Y4322D01*
X1839Y4446D02*
Y4322D01*
X1865Y4446D02*
Y4322D01*
Y4446D02*
X1949Y4322D01*
Y4446D02*
Y4322D01*
X2025Y4446D02*
Y4322D01*
X1983Y4446D02*
X2066D01*
X2159D02*
X2081D01*
Y4322D01*
X2159D01*
X2081Y4387D02*
X2129D01*
X2180Y4446D02*
Y4322D01*
Y4446D02*
X2221D01*
X2239Y4441D01*
X2251Y4429D01*
X2257Y4417D01*
X2263Y4399D01*
Y4369D01*
X2257Y4351D01*
X2251Y4339D01*
X2239Y4327D01*
X2221Y4322D01*
X2180D01*
X2478Y4417D02*
X2472Y4429D01*
X2460Y4441D01*
X2449Y4446D01*
X2425D01*
X2413Y4441D01*
X2401Y4429D01*
X2395Y4417D01*
X2389Y4399D01*
Y4369D01*
X2395Y4351D01*
X2401Y4339D01*
X2413Y4327D01*
X2425Y4322D01*
X2449D01*
X2460Y4327D01*
X2472Y4339D01*
X2478Y4351D01*
X2513Y4446D02*
Y4322D01*
X2540Y4446D02*
Y4322D01*
Y4446D02*
X2593D01*
X2611Y4441D01*
X2617Y4435D01*
X2623Y4423D01*
Y4411D01*
X2617Y4399D01*
X2611Y4393D01*
X2593Y4387D01*
X2540D01*
X2581D02*
X2623Y4322D01*
X2740Y4417D02*
X2734Y4429D01*
X2722Y4441D01*
X2710Y4446D01*
X2687D01*
X2675Y4441D01*
X2663Y4429D01*
X2657Y4417D01*
X2651Y4399D01*
Y4369D01*
X2657Y4351D01*
X2663Y4339D01*
X2675Y4327D01*
X2687Y4322D01*
X2710D01*
X2722Y4327D01*
X2734Y4339D01*
X2740Y4351D01*
X2775Y4446D02*
Y4357D01*
X2781Y4339D01*
X2793Y4327D01*
X2811Y4322D01*
X2823D01*
X2841Y4327D01*
X2853Y4339D01*
X2859Y4357D01*
Y4446D01*
X2893D02*
Y4322D01*
X2961Y4446D02*
Y4322D01*
X2919Y4446D02*
X3003D01*
X3116D02*
Y4322D01*
Y4446D02*
X3169D01*
X3187Y4441D01*
X3193Y4435D01*
X3199Y4423D01*
Y4411D01*
X3193Y4399D01*
X3187Y4393D01*
X3169Y4387D01*
X3116D02*
X3169D01*
X3187Y4381D01*
X3193Y4375D01*
X3199Y4363D01*
Y4345D01*
X3193Y4333D01*
X3187Y4327D01*
X3169Y4322D01*
X3116D01*
X3263Y4446D02*
X3251Y4441D01*
X3239Y4429D01*
X3233Y4417D01*
X3227Y4399D01*
Y4369D01*
X3233Y4351D01*
X3239Y4339D01*
X3251Y4327D01*
X3263Y4322D01*
X3286D01*
X3298Y4327D01*
X3310Y4339D01*
X3316Y4351D01*
X3322Y4369D01*
Y4399D01*
X3316Y4417D01*
X3310Y4429D01*
X3298Y4441D01*
X3286Y4446D01*
X3263D01*
X3447Y4322D02*
X3399Y4446D01*
X3351Y4322D01*
X3369Y4363D02*
X3429D01*
X3476Y4446D02*
Y4322D01*
Y4446D02*
X3529D01*
X3547Y4441D01*
X3553Y4435D01*
X3559Y4423D01*
Y4411D01*
X3553Y4399D01*
X3547Y4393D01*
X3529Y4387D01*
X3476D01*
X3517D02*
X3559Y4322D01*
X3587Y4446D02*
Y4322D01*
Y4446D02*
X3629D01*
X3646Y4441D01*
X3658Y4429D01*
X3664Y4417D01*
X3670Y4399D01*
Y4369D01*
X3664Y4351D01*
X3658Y4339D01*
X3646Y4327D01*
X3629Y4322D01*
X3587D01*
X3782Y4429D02*
X3770Y4441D01*
X3752Y4446D01*
X3728D01*
X3710Y4441D01*
X3698Y4429D01*
Y4417D01*
X3704Y4405D01*
X3710Y4399D01*
X3722Y4393D01*
X3758Y4381D01*
X3770Y4375D01*
X3776Y4369D01*
X3782Y4357D01*
Y4339D01*
X3770Y4327D01*
X3752Y4322D01*
X3728D01*
X3710Y4327D01*
X3698Y4339D01*
X3949Y4446D02*
Y4322D01*
X3908Y4446D02*
X3991D01*
X4042D02*
X4030Y4441D01*
X4018Y4429D01*
X4012Y4417D01*
X4006Y4399D01*
Y4369D01*
X4012Y4351D01*
X4018Y4339D01*
X4030Y4327D01*
X4042Y4322D01*
X4065D01*
X4077Y4327D01*
X4089Y4339D01*
X4095Y4351D01*
X4101Y4369D01*
Y4399D01*
X4095Y4417D01*
X4089Y4429D01*
X4077Y4441D01*
X4065Y4446D01*
X4042D01*
X4300D02*
X4240D01*
X4234Y4393D01*
X4240Y4399D01*
X4258Y4405D01*
X4276D01*
X4294Y4399D01*
X4306Y4387D01*
X4312Y4369D01*
Y4357D01*
X4306Y4339D01*
X4294Y4327D01*
X4276Y4322D01*
X4258D01*
X4240Y4327D01*
X4234Y4333D01*
X4228Y4345D01*
X4340Y4375D02*
X4447D01*
X4519Y4446D02*
X4508Y4441D01*
X4496Y4429D01*
X4490Y4417D01*
X4484Y4399D01*
Y4369D01*
X4490Y4351D01*
X4496Y4339D01*
X4508Y4327D01*
X4519Y4322D01*
X4543D01*
X4555Y4327D01*
X4567Y4339D01*
X4573Y4351D01*
X4579Y4369D01*
Y4399D01*
X4573Y4417D01*
X4567Y4429D01*
X4555Y4441D01*
X4543Y4446D01*
X4519D01*
X4608D02*
Y4322D01*
X4691Y4446D02*
Y4322D01*
X4608Y4387D02*
X4691D01*
X4726Y4446D02*
Y4322D01*
Y4446D02*
X4774Y4322D01*
X4821Y4446D02*
X4774Y4322D01*
X4821Y4446D02*
Y4322D01*
X4940Y4429D02*
X4928Y4441D01*
X4910Y4446D01*
X4887D01*
X4869Y4441D01*
X4857Y4429D01*
Y4417D01*
X4863Y4405D01*
X4869Y4399D01*
X4881Y4393D01*
X4916Y4381D01*
X4928Y4375D01*
X4934Y4369D01*
X4940Y4357D01*
Y4339D01*
X4928Y4327D01*
X4910Y4322D01*
X4887D01*
X4869Y4327D01*
X4857Y4339D01*
X5066Y4446D02*
Y4322D01*
Y4446D02*
X5114Y4322D01*
X5162Y4446D02*
X5114Y4322D01*
X5162Y4446D02*
Y4322D01*
X5293D02*
X5245Y4446D01*
X5197Y4322D01*
X5215Y4363D02*
X5275D01*
X5322Y4446D02*
X5405Y4322D01*
Y4446D02*
X5322Y4322D01*
X5433Y4446D02*
Y4322D01*
X5459Y4446D02*
Y4322D01*
Y4446D02*
X5507Y4322D01*
X5554Y4446D02*
X5507Y4322D01*
X5554Y4446D02*
Y4322D01*
X5590Y4446D02*
Y4357D01*
X5596Y4339D01*
X5608Y4327D01*
X5626Y4322D01*
X5638D01*
X5656Y4327D01*
X5667Y4339D01*
X5673Y4357D01*
Y4446D01*
X5708D02*
Y4322D01*
Y4446D02*
X5756Y4322D01*
X5803Y4446D02*
X5756Y4322D01*
X5803Y4446D02*
Y4322D01*
X598Y4746D02*
X586Y4741D01*
X575Y4729D01*
X569Y4717D01*
X563Y4699D01*
Y4669D01*
X569Y4651D01*
X575Y4639D01*
X586Y4627D01*
X598Y4622D01*
X622D01*
X634Y4627D01*
X646Y4639D01*
X652Y4651D01*
X658Y4669D01*
Y4699D01*
X652Y4717D01*
X646Y4729D01*
X634Y4741D01*
X622Y4746D01*
X598D01*
X687D02*
Y4622D01*
Y4746D02*
X770Y4622D01*
Y4746D02*
Y4622D01*
X903Y4681D02*
X957D01*
X974Y4687D01*
X980Y4693D01*
X986Y4705D01*
Y4723D01*
X980Y4735D01*
X974Y4741D01*
X957Y4746D01*
X903D01*
Y4622D01*
X1104Y4717D02*
X1098Y4729D01*
X1086Y4741D01*
X1074Y4746D01*
X1050D01*
X1038Y4741D01*
X1026Y4729D01*
X1020Y4717D01*
X1014Y4699D01*
Y4669D01*
X1020Y4651D01*
X1026Y4639D01*
X1038Y4627D01*
X1050Y4622D01*
X1074D01*
X1086Y4627D01*
X1098Y4639D01*
X1104Y4651D01*
X1237Y4746D02*
Y4622D01*
Y4746D02*
X1290D01*
X1308Y4741D01*
X1314Y4735D01*
X1320Y4723D01*
Y4711D01*
X1314Y4699D01*
X1308Y4693D01*
X1290Y4687D01*
X1237D02*
X1290D01*
X1308Y4681D01*
X1314Y4675D01*
X1320Y4663D01*
Y4645D01*
X1314Y4633D01*
X1308Y4627D01*
X1290Y4622D01*
X1237D01*
X1384Y4746D02*
X1372Y4741D01*
X1360Y4729D01*
X1354Y4717D01*
X1348Y4699D01*
Y4669D01*
X1354Y4651D01*
X1360Y4639D01*
X1372Y4627D01*
X1384Y4622D01*
X1408D01*
X1420Y4627D01*
X1431Y4639D01*
X1437Y4651D01*
X1443Y4669D01*
Y4699D01*
X1437Y4717D01*
X1431Y4729D01*
X1420Y4741D01*
X1408Y4746D01*
X1384D01*
X1568Y4622D02*
X1520Y4746D01*
X1473Y4622D01*
X1490Y4663D02*
X1550D01*
X1597Y4746D02*
Y4622D01*
Y4746D02*
X1650D01*
X1668Y4741D01*
X1674Y4735D01*
X1680Y4723D01*
Y4711D01*
X1674Y4699D01*
X1668Y4693D01*
X1650Y4687D01*
X1597D01*
X1639D02*
X1680Y4622D01*
X1708Y4746D02*
Y4622D01*
Y4746D02*
X1750D01*
X1768Y4741D01*
X1780Y4729D01*
X1786Y4717D01*
X1792Y4699D01*
Y4669D01*
X1786Y4651D01*
X1780Y4639D01*
X1768Y4627D01*
X1750Y4622D01*
X1708D01*
X1825Y4633D02*
X1819Y4627D01*
X1825Y4622D01*
X1831Y4627D01*
X1825Y4633D01*
X563Y4946D02*
X610Y4822D01*
X658Y4946D02*
X610Y4822D01*
X751Y4946D02*
X674D01*
Y4822D01*
X751D01*
X674Y4887D02*
X721D01*
X772Y4946D02*
Y4822D01*
Y4946D02*
X855Y4822D01*
Y4946D02*
Y4822D01*
X890Y4946D02*
Y4822D01*
Y4946D02*
X932D01*
X949Y4941D01*
X961Y4929D01*
X967Y4917D01*
X973Y4899D01*
Y4869D01*
X967Y4851D01*
X961Y4839D01*
X949Y4827D01*
X932Y4822D01*
X890D01*
X1037Y4946D02*
X1025Y4941D01*
X1013Y4929D01*
X1007Y4917D01*
X1001Y4899D01*
Y4869D01*
X1007Y4851D01*
X1013Y4839D01*
X1025Y4827D01*
X1037Y4822D01*
X1061D01*
X1073Y4827D01*
X1085Y4839D01*
X1090Y4851D01*
X1096Y4869D01*
Y4899D01*
X1090Y4917D01*
X1085Y4929D01*
X1073Y4941D01*
X1061Y4946D01*
X1037D01*
X1126D02*
Y4822D01*
Y4946D02*
X1179D01*
X1197Y4941D01*
X1203Y4935D01*
X1209Y4923D01*
Y4911D01*
X1203Y4899D01*
X1197Y4893D01*
X1179Y4887D01*
X1126D01*
X1167D02*
X1209Y4822D01*
X1335Y4946D02*
Y4822D01*
X1406D01*
X1456Y4946D02*
X1444Y4941D01*
X1432Y4929D01*
X1426Y4917D01*
X1420Y4899D01*
Y4869D01*
X1426Y4851D01*
X1432Y4839D01*
X1444Y4827D01*
X1456Y4822D01*
X1480D01*
X1492Y4827D01*
X1503Y4839D01*
X1509Y4851D01*
X1515Y4869D01*
Y4899D01*
X1509Y4917D01*
X1503Y4929D01*
X1492Y4941D01*
X1480Y4946D01*
X1456D01*
X1634Y4917D02*
X1628Y4929D01*
X1616Y4941D01*
X1604Y4946D01*
X1580D01*
X1568Y4941D01*
X1556Y4929D01*
X1550Y4917D01*
X1545Y4899D01*
Y4869D01*
X1550Y4851D01*
X1556Y4839D01*
X1568Y4827D01*
X1580Y4822D01*
X1604D01*
X1616Y4827D01*
X1628Y4839D01*
X1634Y4851D01*
Y4869D01*
X1604D02*
X1634D01*
X1698Y4946D02*
X1686Y4941D01*
X1674Y4929D01*
X1668Y4917D01*
X1662Y4899D01*
Y4869D01*
X1668Y4851D01*
X1674Y4839D01*
X1686Y4827D01*
X1698Y4822D01*
X1722D01*
X1734Y4827D01*
X1746Y4839D01*
X1752Y4851D01*
X1758Y4869D01*
Y4899D01*
X1752Y4917D01*
X1746Y4929D01*
X1734Y4941D01*
X1722Y4946D01*
X1698D01*
X1980Y4822D02*
X1933Y4946D01*
X1885Y4822D01*
X1903Y4863D02*
X1962D01*
X2009Y4946D02*
Y4822D01*
Y4946D02*
X2093Y4822D01*
Y4946D02*
Y4822D01*
X2127Y4946D02*
Y4822D01*
Y4946D02*
X2169D01*
X2187Y4941D01*
X2199Y4929D01*
X2205Y4917D01*
X2210Y4899D01*
Y4869D01*
X2205Y4851D01*
X2199Y4839D01*
X2187Y4827D01*
X2169Y4822D01*
X2127D01*
X2337Y4946D02*
Y4822D01*
Y4946D02*
X2384Y4822D01*
X2432Y4946D02*
X2384Y4822D01*
X2432Y4946D02*
Y4822D01*
X2563D02*
X2515Y4946D01*
X2468Y4822D01*
X2485Y4863D02*
X2545D01*
X2592Y4946D02*
Y4822D01*
Y4946D02*
X2675Y4822D01*
Y4946D02*
Y4822D01*
X2710Y4946D02*
Y4857D01*
X2716Y4839D01*
X2728Y4827D01*
X2745Y4822D01*
X2757D01*
X2775Y4827D01*
X2787Y4839D01*
X2793Y4857D01*
Y4946D01*
X2828D02*
Y4822D01*
Y4946D02*
X2905D01*
X2828Y4887D02*
X2875D01*
X3014Y4822D02*
X2967Y4946D01*
X2919Y4822D01*
X2937Y4863D02*
X2997D01*
X3133Y4917D02*
X3127Y4929D01*
X3115Y4941D01*
X3103Y4946D01*
X3079D01*
X3067Y4941D01*
X3056Y4929D01*
X3050Y4917D01*
X3044Y4899D01*
Y4869D01*
X3050Y4851D01*
X3056Y4839D01*
X3067Y4827D01*
X3079Y4822D01*
X3103D01*
X3115Y4827D01*
X3127Y4839D01*
X3133Y4851D01*
X3210Y4946D02*
Y4822D01*
X3168Y4946D02*
X3251D01*
X3266D02*
Y4857D01*
X3272Y4839D01*
X3284Y4827D01*
X3302Y4822D01*
X3314D01*
X3332Y4827D01*
X3344Y4839D01*
X3350Y4857D01*
Y4946D01*
X3384D02*
Y4822D01*
Y4946D02*
X3438D01*
X3455Y4941D01*
X3461Y4935D01*
X3467Y4923D01*
Y4911D01*
X3461Y4899D01*
X3455Y4893D01*
X3438Y4887D01*
X3384D01*
X3426D02*
X3467Y4822D01*
X3573Y4946D02*
X3495D01*
Y4822D01*
X3573D01*
X3495Y4887D02*
X3543D01*
X3692Y4946D02*
Y4822D01*
Y4946D02*
X3733D01*
X3751Y4941D01*
X3763Y4929D01*
X3769Y4917D01*
X3775Y4899D01*
Y4869D01*
X3769Y4851D01*
X3763Y4839D01*
X3751Y4827D01*
X3733Y4822D01*
X3692D01*
X3898D02*
X3851Y4946D01*
X3803Y4822D01*
X3821Y4863D02*
X3880D01*
X3969Y4946D02*
Y4822D01*
X3927Y4946D02*
X4011D01*
X4103D02*
X4026D01*
Y4822D01*
X4103D01*
X4026Y4887D02*
X4073D01*
X4311Y4917D02*
X4305Y4929D01*
X4293Y4941D01*
X4281Y4946D01*
X4258D01*
X4246Y4941D01*
X4234Y4929D01*
X4228Y4917D01*
X4222Y4899D01*
Y4869D01*
X4228Y4851D01*
X4234Y4839D01*
X4246Y4827D01*
X4258Y4822D01*
X4281D01*
X4293Y4827D01*
X4305Y4839D01*
X4311Y4851D01*
X4382Y4946D02*
X4370Y4941D01*
X4358Y4929D01*
X4352Y4917D01*
X4346Y4899D01*
Y4869D01*
X4352Y4851D01*
X4358Y4839D01*
X4370Y4827D01*
X4382Y4822D01*
X4406D01*
X4418Y4827D01*
X4430Y4839D01*
X4436Y4851D01*
X4442Y4869D01*
Y4899D01*
X4436Y4917D01*
X4430Y4929D01*
X4418Y4941D01*
X4406Y4946D01*
X4382D01*
X4471D02*
Y4822D01*
Y4946D02*
X4512D01*
X4530Y4941D01*
X4542Y4929D01*
X4548Y4917D01*
X4554Y4899D01*
Y4869D01*
X4548Y4851D01*
X4542Y4839D01*
X4530Y4827D01*
X4512Y4822D01*
X4471D01*
X4659Y4946D02*
X4582D01*
Y4822D01*
X4659D01*
X4582Y4887D02*
X4630D01*
X4820Y4970D02*
X4808Y4958D01*
X4796Y4941D01*
X4784Y4917D01*
X4778Y4887D01*
Y4863D01*
X4784Y4833D01*
X4796Y4810D01*
X4808Y4792D01*
X4820Y4780D01*
X4808Y4958D02*
X4796Y4935D01*
X4790Y4917D01*
X4784Y4887D01*
Y4863D01*
X4790Y4833D01*
X4796Y4816D01*
X4808Y4792D01*
X4844Y4946D02*
Y4822D01*
Y4946D02*
X4891Y4822D01*
X4939Y4946D02*
X4891Y4822D01*
X4939Y4946D02*
Y4822D01*
X5010Y4946D02*
X4999Y4941D01*
X4987Y4929D01*
X4981Y4917D01*
X4975Y4899D01*
Y4869D01*
X4981Y4851D01*
X4987Y4839D01*
X4999Y4827D01*
X5010Y4822D01*
X5034D01*
X5046Y4827D01*
X5058Y4839D01*
X5064Y4851D01*
X5070Y4869D01*
Y4899D01*
X5064Y4917D01*
X5058Y4929D01*
X5046Y4941D01*
X5034Y4946D01*
X5010D01*
X5099D02*
Y4822D01*
Y4946D02*
X5182Y4822D01*
Y4946D02*
Y4822D01*
X5259Y4946D02*
Y4822D01*
X5217Y4946D02*
X5300D01*
X5315D02*
Y4822D01*
X5398Y4946D02*
Y4822D01*
X5315Y4887D02*
X5398D01*
X5433Y4804D02*
X5516Y4946D01*
X5525D02*
X5572Y4887D01*
Y4822D01*
X5620Y4946D02*
X5572Y4887D01*
X5713Y4946D02*
X5636D01*
Y4822D01*
X5713D01*
X5636Y4887D02*
X5684D01*
X5829Y4822D02*
X5782Y4946D01*
X5734Y4822D01*
X5752Y4863D02*
X5811D01*
X5858Y4946D02*
Y4822D01*
Y4946D02*
X5912D01*
X5930Y4941D01*
X5936Y4935D01*
X5942Y4923D01*
Y4911D01*
X5936Y4899D01*
X5930Y4893D01*
X5912Y4887D01*
X5858D01*
X5900D02*
X5942Y4822D01*
X5970Y4970D02*
X5982Y4958D01*
X5994Y4941D01*
X6005Y4917D01*
X6011Y4887D01*
Y4863D01*
X6005Y4833D01*
X5994Y4810D01*
X5982Y4792D01*
X5970Y4780D01*
X5982Y4958D02*
X5994Y4935D01*
X6000Y4917D01*
X6005Y4887D01*
Y4863D01*
X6000Y4833D01*
X5994Y4816D01*
X5982Y4792D01*
X6223Y4929D02*
X6211Y4941D01*
X6194Y4946D01*
X6170D01*
X6152Y4941D01*
X6140Y4929D01*
Y4917D01*
X6146Y4905D01*
X6152Y4899D01*
X6164Y4893D01*
X6199Y4881D01*
X6211Y4875D01*
X6217Y4869D01*
X6223Y4857D01*
Y4839D01*
X6211Y4827D01*
X6194Y4822D01*
X6170D01*
X6152Y4827D01*
X6140Y4839D01*
X6251Y4946D02*
Y4822D01*
X6335Y4946D02*
Y4822D01*
X6251Y4887D02*
X6335D01*
X6464Y4822D02*
X6417Y4946D01*
X6369Y4822D01*
X6387Y4863D02*
X6446D01*
X6493Y4946D02*
Y4822D01*
X6565D01*
X6579Y4946D02*
Y4822D01*
X6650D01*
X6762Y4946D02*
Y4822D01*
Y4946D02*
X6815D01*
X6833Y4941D01*
X6839Y4935D01*
X6845Y4923D01*
Y4911D01*
X6839Y4899D01*
X6833Y4893D01*
X6815Y4887D01*
X6762D02*
X6815D01*
X6833Y4881D01*
X6839Y4875D01*
X6845Y4863D01*
Y4845D01*
X6839Y4833D01*
X6833Y4827D01*
X6815Y4822D01*
X6762D01*
X6951Y4946D02*
X6873D01*
Y4822D01*
X6951D01*
X6873Y4887D02*
X6921D01*
X563Y5246D02*
Y5157D01*
X569Y5139D01*
X580Y5127D01*
X598Y5122D01*
X610D01*
X628Y5127D01*
X640Y5139D01*
X646Y5157D01*
Y5246D01*
X764Y5229D02*
X752Y5241D01*
X734Y5246D01*
X710D01*
X692Y5241D01*
X680Y5229D01*
Y5217D01*
X686Y5205D01*
X692Y5199D01*
X704Y5193D01*
X740Y5181D01*
X752Y5175D01*
X758Y5169D01*
X764Y5157D01*
Y5139D01*
X752Y5127D01*
X734Y5122D01*
X710D01*
X692Y5127D01*
X680Y5139D01*
X792Y5246D02*
Y5122D01*
X818Y5246D02*
Y5122D01*
Y5246D02*
X901Y5122D01*
Y5246D02*
Y5122D01*
X1025Y5217D02*
X1019Y5229D01*
X1007Y5241D01*
X995Y5246D01*
X971D01*
X960Y5241D01*
X948Y5229D01*
X942Y5217D01*
X936Y5199D01*
Y5169D01*
X942Y5151D01*
X948Y5139D01*
X960Y5127D01*
X971Y5122D01*
X995D01*
X1007Y5127D01*
X1019Y5139D01*
X1025Y5151D01*
Y5169D01*
X995D02*
X1025D01*
X1241Y5217D02*
X1235Y5229D01*
X1223Y5241D01*
X1211Y5246D01*
X1187D01*
X1176Y5241D01*
X1164Y5229D01*
X1158Y5217D01*
X1152Y5199D01*
Y5169D01*
X1158Y5151D01*
X1164Y5139D01*
X1176Y5127D01*
X1187Y5122D01*
X1211D01*
X1223Y5127D01*
X1235Y5139D01*
X1241Y5151D01*
Y5169D01*
X1211D02*
X1241D01*
X1347Y5246D02*
X1270D01*
Y5122D01*
X1347D01*
X1270Y5187D02*
X1317D01*
X1368Y5246D02*
Y5122D01*
Y5246D02*
X1421D01*
X1439Y5241D01*
X1445Y5235D01*
X1451Y5223D01*
Y5211D01*
X1445Y5199D01*
X1439Y5193D01*
X1421Y5187D01*
X1368D01*
X1409D02*
X1451Y5122D01*
X1479Y5246D02*
Y5122D01*
Y5246D02*
X1533D01*
X1550Y5241D01*
X1556Y5235D01*
X1562Y5223D01*
Y5211D01*
X1556Y5199D01*
X1550Y5193D01*
X1533Y5187D01*
X1479D02*
X1533D01*
X1550Y5181D01*
X1556Y5175D01*
X1562Y5163D01*
Y5145D01*
X1556Y5133D01*
X1550Y5127D01*
X1533Y5122D01*
X1479D01*
X1668Y5246D02*
X1590D01*
Y5122D01*
X1668D01*
X1590Y5187D02*
X1638D01*
X1689Y5246D02*
Y5122D01*
Y5246D02*
X1742D01*
X1760Y5241D01*
X1766Y5235D01*
X1772Y5223D01*
Y5211D01*
X1766Y5199D01*
X1760Y5193D01*
X1742Y5187D01*
X1689D01*
X1730D02*
X1772Y5122D01*
X1898Y5246D02*
Y5122D01*
Y5246D02*
X1975D01*
X1898Y5187D02*
X1946D01*
X1990Y5246D02*
Y5122D01*
X2016Y5246D02*
Y5122D01*
X2087D01*
X2178Y5246D02*
X2101D01*
Y5122D01*
X2178D01*
X2101Y5187D02*
X2149D01*
X2297Y5181D02*
X2351D01*
X2369Y5187D01*
X2375Y5193D01*
X2381Y5205D01*
Y5223D01*
X2375Y5235D01*
X2369Y5241D01*
X2351Y5246D01*
X2297D01*
Y5122D01*
X2486Y5246D02*
X2409D01*
Y5122D01*
X2486D01*
X2409Y5187D02*
X2456D01*
X2507Y5246D02*
Y5122D01*
Y5246D02*
X2560D01*
X2578Y5241D01*
X2584Y5235D01*
X2590Y5223D01*
Y5211D01*
X2584Y5199D01*
X2578Y5193D01*
X2560Y5187D01*
X2507D01*
X2548D02*
X2590Y5122D01*
X2716Y5246D02*
Y5122D01*
X2742Y5181D02*
X2796D01*
X2814Y5187D01*
X2820Y5193D01*
X2826Y5205D01*
Y5223D01*
X2820Y5235D01*
X2814Y5241D01*
X2796Y5246D01*
X2742D01*
Y5122D01*
X2943Y5217D02*
X2937Y5229D01*
X2925Y5241D01*
X2913Y5246D01*
X2889D01*
X2878Y5241D01*
X2866Y5229D01*
X2860Y5217D01*
X2854Y5199D01*
Y5169D01*
X2860Y5151D01*
X2866Y5139D01*
X2878Y5127D01*
X2889Y5122D01*
X2913D01*
X2925Y5127D01*
X2937Y5139D01*
X2943Y5151D01*
X2978Y5175D02*
X3085D01*
X3205Y5229D02*
X3194Y5241D01*
X3176Y5246D01*
X3152D01*
X3134Y5241D01*
X3122Y5229D01*
Y5217D01*
X3128Y5205D01*
X3134Y5199D01*
X3146Y5193D01*
X3182Y5181D01*
X3194Y5175D01*
X3200Y5169D01*
X3205Y5157D01*
Y5139D01*
X3194Y5127D01*
X3176Y5122D01*
X3152D01*
X3134Y5127D01*
X3122Y5139D01*
X3233Y5246D02*
Y5122D01*
Y5246D02*
X3281Y5122D01*
X3329Y5246D02*
X3281Y5122D01*
X3329Y5246D02*
Y5122D01*
X3364Y5175D02*
X3471D01*
X3538Y5246D02*
X3520Y5241D01*
X3514Y5229D01*
Y5217D01*
X3520Y5205D01*
X3532Y5199D01*
X3556Y5193D01*
X3574Y5187D01*
X3586Y5175D01*
X3592Y5163D01*
Y5145D01*
X3586Y5133D01*
X3580Y5127D01*
X3562Y5122D01*
X3538D01*
X3520Y5127D01*
X3514Y5133D01*
X3508Y5145D01*
Y5163D01*
X3514Y5175D01*
X3526Y5187D01*
X3544Y5193D01*
X3568Y5199D01*
X3580Y5205D01*
X3586Y5217D01*
Y5229D01*
X3580Y5241D01*
X3562Y5246D01*
X3538D01*
X3679D02*
X3620Y5163D01*
X3709D01*
X3679Y5246D02*
Y5122D01*
X3767Y5246D02*
X3749Y5241D01*
X3737Y5223D01*
X3731Y5193D01*
Y5175D01*
X3737Y5145D01*
X3749Y5127D01*
X3767Y5122D01*
X3779D01*
X3796Y5127D01*
X3808Y5145D01*
X3814Y5175D01*
Y5193D01*
X3808Y5223D01*
X3796Y5241D01*
X3779Y5246D01*
X3767D01*
X3932Y5217D02*
X3926Y5229D01*
X3914Y5241D01*
X3902Y5246D01*
X3878D01*
X3866Y5241D01*
X3854Y5229D01*
X3848Y5217D01*
X3842Y5199D01*
Y5169D01*
X3848Y5151D01*
X3854Y5139D01*
X3866Y5127D01*
X3878Y5122D01*
X3902D01*
X3914Y5127D01*
X3926Y5139D01*
X3932Y5151D01*
X3979Y5127D02*
X3973Y5122D01*
X3967Y5127D01*
X3973Y5133D01*
X3979Y5127D01*
Y5116D01*
X3973Y5104D01*
X3967Y5098D01*
X4146Y5246D02*
Y5122D01*
X4104Y5246D02*
X4187D01*
X4202D02*
X4250Y5187D01*
Y5122D01*
X4298Y5246D02*
X4250Y5187D01*
X4314Y5181D02*
X4367D01*
X4385Y5187D01*
X4391Y5193D01*
X4397Y5205D01*
Y5223D01*
X4391Y5235D01*
X4385Y5241D01*
X4367Y5246D01*
X4314D01*
Y5122D01*
X4502Y5246D02*
X4425D01*
Y5122D01*
X4502D01*
X4425Y5187D02*
X4472D01*
X4621Y5246D02*
Y5122D01*
Y5246D02*
X4675D01*
X4693Y5241D01*
X4699Y5235D01*
X4705Y5223D01*
Y5211D01*
X4699Y5199D01*
X4693Y5193D01*
X4675Y5187D01*
X4621D02*
X4675D01*
X4693Y5181D01*
X4699Y5175D01*
X4705Y5163D01*
Y5145D01*
X4699Y5133D01*
X4693Y5127D01*
X4675Y5122D01*
X4621D01*
X4738Y5217D02*
Y5223D01*
X4744Y5235D01*
X4750Y5241D01*
X4762Y5246D01*
X4786D01*
X4798Y5241D01*
X4804Y5235D01*
X4810Y5223D01*
Y5211D01*
X4804Y5199D01*
X4792Y5181D01*
X4733Y5122D01*
X4816D01*
X4856Y5127D02*
X4850Y5122D01*
X4844Y5127D01*
X4850Y5133D01*
X4856Y5127D01*
Y5116D01*
X4850Y5104D01*
X4844Y5098D01*
X5077Y5122D02*
X5029Y5246D01*
X4981Y5122D01*
X4999Y5163D02*
X5059D01*
X5106Y5246D02*
Y5122D01*
Y5246D02*
X5189Y5122D01*
Y5246D02*
Y5122D01*
X5224Y5246D02*
Y5122D01*
Y5246D02*
X5265D01*
X5283Y5241D01*
X5295Y5229D01*
X5301Y5217D01*
X5307Y5199D01*
Y5169D01*
X5301Y5151D01*
X5295Y5139D01*
X5283Y5127D01*
X5265Y5122D01*
X5224D01*
X5522Y5217D02*
X5516Y5229D01*
X5504Y5241D01*
X5492Y5246D01*
X5469D01*
X5457Y5241D01*
X5445Y5229D01*
X5439Y5217D01*
X5433Y5199D01*
Y5169D01*
X5439Y5151D01*
X5445Y5139D01*
X5457Y5127D01*
X5469Y5122D01*
X5492D01*
X5504Y5127D01*
X5516Y5139D01*
X5522Y5151D01*
X5557Y5246D02*
Y5122D01*
X5629D01*
X5738D02*
X5690Y5246D01*
X5642Y5122D01*
X5660Y5163D02*
X5720D01*
X5850Y5229D02*
X5838Y5241D01*
X5820Y5246D01*
X5797D01*
X5779Y5241D01*
X5767Y5229D01*
Y5217D01*
X5773Y5205D01*
X5779Y5199D01*
X5791Y5193D01*
X5826Y5181D01*
X5838Y5175D01*
X5844Y5169D01*
X5850Y5157D01*
Y5139D01*
X5838Y5127D01*
X5820Y5122D01*
X5797D01*
X5779Y5127D01*
X5767Y5139D01*
X5961Y5229D02*
X5950Y5241D01*
X5932Y5246D01*
X5908D01*
X5890Y5241D01*
X5878Y5229D01*
Y5217D01*
X5884Y5205D01*
X5890Y5199D01*
X5902Y5193D01*
X5938Y5181D01*
X5950Y5175D01*
X5955Y5169D01*
X5961Y5157D01*
Y5139D01*
X5950Y5127D01*
X5932Y5122D01*
X5908D01*
X5890Y5127D01*
X5878Y5139D01*
X6094Y5217D02*
Y5223D01*
X6100Y5235D01*
X6105Y5241D01*
X6117Y5246D01*
X6141D01*
X6153Y5241D01*
X6159Y5235D01*
X6165Y5223D01*
Y5211D01*
X6159Y5199D01*
X6147Y5181D01*
X6088Y5122D01*
X6171D01*
X6211Y5127D02*
X6205Y5122D01*
X6199Y5127D01*
X6205Y5133D01*
X6211Y5127D01*
Y5116D01*
X6205Y5104D01*
X6199Y5098D01*
X6336Y5246D02*
Y5122D01*
Y5246D02*
X6390D01*
X6408Y5241D01*
X6414Y5235D01*
X6420Y5223D01*
Y5211D01*
X6414Y5199D01*
X6408Y5193D01*
X6390Y5187D01*
X6336D02*
X6390D01*
X6408Y5181D01*
X6414Y5175D01*
X6420Y5163D01*
Y5145D01*
X6414Y5133D01*
X6408Y5127D01*
X6390Y5122D01*
X6336D01*
X6448Y5246D02*
Y5122D01*
X6519D01*
X6628D02*
X6580Y5246D01*
X6533Y5122D01*
X6551Y5163D02*
X6610D01*
X6746Y5217D02*
X6740Y5229D01*
X6729Y5241D01*
X6717Y5246D01*
X6693D01*
X6681Y5241D01*
X6669Y5229D01*
X6663Y5217D01*
X6657Y5199D01*
Y5169D01*
X6663Y5151D01*
X6669Y5139D01*
X6681Y5127D01*
X6693Y5122D01*
X6717D01*
X6729Y5127D01*
X6740Y5139D01*
X6746Y5151D01*
X6782Y5246D02*
Y5122D01*
X6865Y5246D02*
X6782Y5163D01*
X6811Y5193D02*
X6865Y5122D01*
X6899Y5133D02*
X6893Y5127D01*
X6899Y5122D01*
X6905Y5127D01*
X6899Y5133D01*
X658Y5322D02*
X610Y5446D01*
X563Y5322D01*
X580Y5363D02*
X640D01*
X687Y5381D02*
X741D01*
X758Y5387D01*
X764Y5393D01*
X770Y5405D01*
Y5423D01*
X764Y5435D01*
X758Y5441D01*
X741Y5446D01*
X687D01*
Y5322D01*
X798Y5381D02*
X852D01*
X870Y5387D01*
X876Y5393D01*
X882Y5405D01*
Y5423D01*
X876Y5435D01*
X870Y5441D01*
X852Y5446D01*
X798D01*
Y5322D01*
X910Y5446D02*
Y5322D01*
X981D01*
X995Y5446D02*
X1042Y5387D01*
Y5322D01*
X1090Y5446D02*
X1042Y5387D01*
X1204Y5446D02*
Y5322D01*
Y5446D02*
X1258D01*
X1276Y5441D01*
X1281Y5435D01*
X1287Y5423D01*
Y5411D01*
X1281Y5399D01*
X1276Y5393D01*
X1258Y5387D01*
X1204D02*
X1258D01*
X1276Y5381D01*
X1281Y5375D01*
X1287Y5363D01*
Y5345D01*
X1281Y5333D01*
X1276Y5327D01*
X1258Y5322D01*
X1204D01*
X1315Y5446D02*
Y5322D01*
X1387D01*
X1496D02*
X1448Y5446D01*
X1401Y5322D01*
X1418Y5363D02*
X1478D01*
X1614Y5417D02*
X1608Y5429D01*
X1596Y5441D01*
X1584Y5446D01*
X1561D01*
X1549Y5441D01*
X1537Y5429D01*
X1531Y5417D01*
X1525Y5399D01*
Y5369D01*
X1531Y5351D01*
X1537Y5339D01*
X1549Y5327D01*
X1561Y5322D01*
X1584D01*
X1596Y5327D01*
X1608Y5339D01*
X1614Y5351D01*
X1649Y5446D02*
Y5322D01*
X1733Y5446D02*
X1649Y5363D01*
X1679Y5393D02*
X1733Y5322D01*
X1942Y5429D02*
X1930Y5441D01*
X1912Y5446D01*
X1889D01*
X1871Y5441D01*
X1859Y5429D01*
Y5417D01*
X1865Y5405D01*
X1871Y5399D01*
X1883Y5393D01*
X1918Y5381D01*
X1930Y5375D01*
X1936Y5369D01*
X1942Y5357D01*
Y5339D01*
X1930Y5327D01*
X1912Y5322D01*
X1889D01*
X1871Y5327D01*
X1859Y5339D01*
X2006Y5446D02*
X1994Y5441D01*
X1982Y5429D01*
X1976Y5417D01*
X1970Y5399D01*
Y5369D01*
X1976Y5351D01*
X1982Y5339D01*
X1994Y5327D01*
X2006Y5322D01*
X2030D01*
X2041Y5327D01*
X2053Y5339D01*
X2059Y5351D01*
X2065Y5369D01*
Y5399D01*
X2059Y5417D01*
X2053Y5429D01*
X2041Y5441D01*
X2030Y5446D01*
X2006D01*
X2094D02*
Y5322D01*
X2166D01*
X2180Y5446D02*
Y5322D01*
Y5446D02*
X2221D01*
X2239Y5441D01*
X2251Y5429D01*
X2257Y5417D01*
X2263Y5399D01*
Y5369D01*
X2257Y5351D01*
X2251Y5339D01*
X2239Y5327D01*
X2221Y5322D01*
X2180D01*
X2368Y5446D02*
X2291D01*
Y5322D01*
X2368D01*
X2291Y5387D02*
X2338D01*
X2389Y5446D02*
Y5322D01*
Y5446D02*
X2443D01*
X2460Y5441D01*
X2466Y5435D01*
X2472Y5423D01*
Y5411D01*
X2466Y5399D01*
X2460Y5393D01*
X2443Y5387D01*
X2389D01*
X2431D02*
X2472Y5322D01*
X2500Y5446D02*
Y5322D01*
Y5446D02*
X2548Y5322D01*
X2595Y5446D02*
X2548Y5322D01*
X2595Y5446D02*
Y5322D01*
X2726D02*
X2679Y5446D01*
X2631Y5322D01*
X2649Y5363D02*
X2709D01*
X2839Y5429D02*
X2827Y5441D01*
X2809Y5446D01*
X2785D01*
X2767Y5441D01*
X2756Y5429D01*
Y5417D01*
X2762Y5405D01*
X2767Y5399D01*
X2779Y5393D01*
X2815Y5381D01*
X2827Y5375D01*
X2833Y5369D01*
X2839Y5357D01*
Y5339D01*
X2827Y5327D01*
X2809Y5322D01*
X2785D01*
X2767Y5327D01*
X2756Y5339D01*
X2867Y5446D02*
Y5322D01*
X2950Y5446D02*
X2867Y5363D01*
X2897Y5393D02*
X2950Y5322D01*
X3118Y5446D02*
Y5322D01*
X3076Y5446D02*
X3160D01*
X3210D02*
X3198Y5441D01*
X3186Y5429D01*
X3180Y5417D01*
X3175Y5399D01*
Y5369D01*
X3180Y5351D01*
X3186Y5339D01*
X3198Y5327D01*
X3210Y5322D01*
X3234D01*
X3246Y5327D01*
X3258Y5339D01*
X3264Y5351D01*
X3270Y5369D01*
Y5399D01*
X3264Y5417D01*
X3258Y5429D01*
X3246Y5441D01*
X3234Y5446D01*
X3210D01*
X3486Y5417D02*
X3480Y5429D01*
X3469Y5441D01*
X3457Y5446D01*
X3433D01*
X3421Y5441D01*
X3409Y5429D01*
X3403Y5417D01*
X3397Y5399D01*
Y5369D01*
X3403Y5351D01*
X3409Y5339D01*
X3421Y5327D01*
X3433Y5322D01*
X3457D01*
X3469Y5327D01*
X3480Y5339D01*
X3486Y5351D01*
X3557Y5446D02*
X3545Y5441D01*
X3533Y5429D01*
X3527Y5417D01*
X3521Y5399D01*
Y5369D01*
X3527Y5351D01*
X3533Y5339D01*
X3545Y5327D01*
X3557Y5322D01*
X3581D01*
X3593Y5327D01*
X3605Y5339D01*
X3611Y5351D01*
X3617Y5369D01*
Y5399D01*
X3611Y5417D01*
X3605Y5429D01*
X3593Y5441D01*
X3581Y5446D01*
X3557D01*
X3646D02*
Y5322D01*
Y5446D02*
X3693Y5322D01*
X3741Y5446D02*
X3693Y5322D01*
X3741Y5446D02*
Y5322D01*
X3777Y5381D02*
X3830D01*
X3848Y5387D01*
X3854Y5393D01*
X3860Y5405D01*
Y5423D01*
X3854Y5435D01*
X3848Y5441D01*
X3830Y5446D01*
X3777D01*
Y5322D01*
X3924Y5446D02*
X3912Y5441D01*
X3900Y5429D01*
X3894Y5417D01*
X3888Y5399D01*
Y5369D01*
X3894Y5351D01*
X3900Y5339D01*
X3912Y5327D01*
X3924Y5322D01*
X3948D01*
X3959Y5327D01*
X3971Y5339D01*
X3977Y5351D01*
X3983Y5369D01*
Y5399D01*
X3977Y5417D01*
X3971Y5429D01*
X3959Y5441D01*
X3948Y5446D01*
X3924D01*
X4012D02*
Y5322D01*
Y5446D02*
X4096Y5322D01*
Y5446D02*
Y5322D01*
X4208Y5446D02*
X4130D01*
Y5322D01*
X4208D01*
X4130Y5387D02*
X4178D01*
X4228Y5446D02*
Y5322D01*
Y5446D02*
X4312Y5322D01*
Y5446D02*
Y5322D01*
X4388Y5446D02*
Y5322D01*
X4346Y5446D02*
X4430D01*
X4638Y5322D02*
X4590Y5446D01*
X4543Y5322D01*
X4561Y5363D02*
X4620D01*
X4667Y5446D02*
Y5322D01*
Y5446D02*
X4750Y5322D01*
Y5446D02*
Y5322D01*
X4785Y5446D02*
Y5322D01*
Y5446D02*
X4827D01*
X4844Y5441D01*
X4856Y5429D01*
X4862Y5417D01*
X4868Y5399D01*
Y5369D01*
X4862Y5351D01*
X4856Y5339D01*
X4844Y5327D01*
X4827Y5322D01*
X4785D01*
X5084Y5417D02*
X5078Y5429D01*
X5066Y5441D01*
X5054Y5446D01*
X5030D01*
X5018Y5441D01*
X5006Y5429D01*
X5000Y5417D01*
X4994Y5399D01*
Y5369D01*
X5000Y5351D01*
X5006Y5339D01*
X5018Y5327D01*
X5030Y5322D01*
X5054D01*
X5066Y5327D01*
X5078Y5339D01*
X5084Y5351D01*
X5119Y5446D02*
Y5322D01*
X5145Y5446D02*
Y5322D01*
Y5446D02*
X5199D01*
X5216Y5441D01*
X5222Y5435D01*
X5228Y5423D01*
Y5411D01*
X5222Y5399D01*
X5216Y5393D01*
X5199Y5387D01*
X5145D01*
X5187D02*
X5228Y5322D01*
X5346Y5417D02*
X5340Y5429D01*
X5328Y5441D01*
X5316Y5446D01*
X5292D01*
X5280Y5441D01*
X5268Y5429D01*
X5262Y5417D01*
X5256Y5399D01*
Y5369D01*
X5262Y5351D01*
X5268Y5339D01*
X5280Y5327D01*
X5292Y5322D01*
X5316D01*
X5328Y5327D01*
X5340Y5339D01*
X5346Y5351D01*
X5381Y5446D02*
Y5357D01*
X5387Y5339D01*
X5398Y5327D01*
X5416Y5322D01*
X5428D01*
X5446Y5327D01*
X5458Y5339D01*
X5464Y5357D01*
Y5446D01*
X5498D02*
Y5322D01*
X5566Y5446D02*
Y5322D01*
X5525Y5446D02*
X5608D01*
X5804Y5429D02*
X5792Y5441D01*
X5775Y5446D01*
X5751D01*
X5733Y5441D01*
X5721Y5429D01*
Y5417D01*
X5727Y5405D01*
X5733Y5399D01*
X5745Y5393D01*
X5781Y5381D01*
X5792Y5375D01*
X5798Y5369D01*
X5804Y5357D01*
Y5339D01*
X5792Y5327D01*
X5775Y5322D01*
X5751D01*
X5733Y5327D01*
X5721Y5339D01*
X5832Y5446D02*
Y5322D01*
X5858Y5446D02*
Y5322D01*
Y5446D02*
X5900D01*
X5918Y5441D01*
X5930Y5429D01*
X5936Y5417D01*
X5942Y5399D01*
Y5369D01*
X5936Y5351D01*
X5930Y5339D01*
X5918Y5327D01*
X5900Y5322D01*
X5858D01*
X6047Y5446D02*
X5970D01*
Y5322D01*
X6047D01*
X5970Y5387D02*
X6017D01*
X6202Y5446D02*
X6190Y5441D01*
X6178Y5429D01*
X6172Y5417D01*
X6166Y5399D01*
Y5369D01*
X6172Y5351D01*
X6178Y5339D01*
X6190Y5327D01*
X6202Y5322D01*
X6226D01*
X6238Y5327D01*
X6249Y5339D01*
X6255Y5351D01*
X6261Y5369D01*
Y5399D01*
X6255Y5417D01*
X6249Y5429D01*
X6238Y5441D01*
X6226Y5446D01*
X6202D01*
X6291D02*
Y5322D01*
Y5446D02*
X6368D01*
X6291Y5387D02*
X6338D01*
X6480Y5381D02*
X6534D01*
X6552Y5387D01*
X6558Y5393D01*
X6564Y5405D01*
Y5423D01*
X6558Y5435D01*
X6552Y5441D01*
X6534Y5446D01*
X6480D01*
Y5322D01*
X6681Y5417D02*
X6675Y5429D01*
X6663Y5441D01*
X6651Y5446D01*
X6627D01*
X6615Y5441D01*
X6604Y5429D01*
X6598Y5417D01*
X6592Y5399D01*
Y5369D01*
X6598Y5351D01*
X6604Y5339D01*
X6615Y5327D01*
X6627Y5322D01*
X6651D01*
X6663Y5327D01*
X6675Y5339D01*
X6681Y5351D01*
X6814Y5446D02*
Y5322D01*
Y5446D02*
X6868D01*
X6886Y5441D01*
X6892Y5435D01*
X6898Y5423D01*
Y5411D01*
X6892Y5399D01*
X6886Y5393D01*
X6868Y5387D01*
X6814D02*
X6868D01*
X6886Y5381D01*
X6892Y5375D01*
X6898Y5363D01*
Y5345D01*
X6892Y5333D01*
X6886Y5327D01*
X6868Y5322D01*
X6814D01*
X6961Y5446D02*
X6949Y5441D01*
X6937Y5429D01*
X6931Y5417D01*
X6926Y5399D01*
Y5369D01*
X6931Y5351D01*
X6937Y5339D01*
X6949Y5327D01*
X6961Y5322D01*
X6985D01*
X6997Y5327D01*
X7009Y5339D01*
X7015Y5351D01*
X7021Y5369D01*
Y5399D01*
X7015Y5417D01*
X7009Y5429D01*
X6997Y5441D01*
X6985Y5446D01*
X6961D01*
X7145Y5322D02*
X7098Y5446D01*
X7050Y5322D01*
X7068Y5363D02*
X7127D01*
X7174Y5446D02*
Y5322D01*
Y5446D02*
X7228D01*
X7246Y5441D01*
X7252Y5435D01*
X7258Y5423D01*
Y5411D01*
X7252Y5399D01*
X7246Y5393D01*
X7228Y5387D01*
X7174D01*
X7216D02*
X7258Y5322D01*
X7286Y5446D02*
Y5322D01*
Y5446D02*
X7327D01*
X7345Y5441D01*
X7357Y5429D01*
X7363Y5417D01*
X7369Y5399D01*
Y5369D01*
X7363Y5351D01*
X7357Y5339D01*
X7345Y5327D01*
X7327Y5322D01*
X7286D01*
X652Y5717D02*
X646Y5729D01*
X634Y5741D01*
X622Y5746D01*
X598D01*
X586Y5741D01*
X575Y5729D01*
X569Y5717D01*
X563Y5699D01*
Y5669D01*
X569Y5651D01*
X575Y5639D01*
X586Y5627D01*
X598Y5622D01*
X622D01*
X634Y5627D01*
X646Y5639D01*
X652Y5651D01*
X687Y5746D02*
Y5622D01*
X713Y5746D02*
Y5622D01*
Y5746D02*
X767D01*
X785Y5741D01*
X791Y5735D01*
X796Y5723D01*
Y5711D01*
X791Y5699D01*
X785Y5693D01*
X767Y5687D01*
X713D01*
X755D02*
X796Y5622D01*
X914Y5717D02*
X908Y5729D01*
X896Y5741D01*
X884Y5746D01*
X860D01*
X848Y5741D01*
X836Y5729D01*
X830Y5717D01*
X824Y5699D01*
Y5669D01*
X830Y5651D01*
X836Y5639D01*
X848Y5627D01*
X860Y5622D01*
X884D01*
X896Y5627D01*
X908Y5639D01*
X914Y5651D01*
X949Y5746D02*
Y5657D01*
X955Y5639D01*
X967Y5627D01*
X985Y5622D01*
X996D01*
X1014Y5627D01*
X1026Y5639D01*
X1032Y5657D01*
Y5746D01*
X1067D02*
Y5622D01*
X1135Y5746D02*
Y5622D01*
X1093Y5746D02*
X1176D01*
X1373Y5729D02*
X1361Y5741D01*
X1343Y5746D01*
X1319D01*
X1301Y5741D01*
X1289Y5729D01*
Y5717D01*
X1295Y5705D01*
X1301Y5699D01*
X1313Y5693D01*
X1349Y5681D01*
X1361Y5675D01*
X1367Y5669D01*
X1373Y5657D01*
Y5639D01*
X1361Y5627D01*
X1343Y5622D01*
X1319D01*
X1301Y5627D01*
X1289Y5639D01*
X1401Y5746D02*
Y5622D01*
X1427Y5746D02*
Y5622D01*
Y5746D02*
X1468D01*
X1486Y5741D01*
X1498Y5729D01*
X1504Y5717D01*
X1510Y5699D01*
Y5669D01*
X1504Y5651D01*
X1498Y5639D01*
X1486Y5627D01*
X1468Y5622D01*
X1427D01*
X1615Y5746D02*
X1538D01*
Y5622D01*
X1615D01*
X1538Y5687D02*
X1586D01*
X1734Y5746D02*
Y5657D01*
X1740Y5639D01*
X1752Y5627D01*
X1770Y5622D01*
X1782D01*
X1800Y5627D01*
X1812Y5639D01*
X1818Y5657D01*
Y5746D01*
X1936Y5729D02*
X1924Y5741D01*
X1906Y5746D01*
X1882D01*
X1864Y5741D01*
X1852Y5729D01*
Y5717D01*
X1858Y5705D01*
X1864Y5699D01*
X1876Y5693D01*
X1912Y5681D01*
X1924Y5675D01*
X1930Y5669D01*
X1936Y5657D01*
Y5639D01*
X1924Y5627D01*
X1906Y5622D01*
X1882D01*
X1864Y5627D01*
X1852Y5639D01*
X1963Y5746D02*
Y5622D01*
X1990Y5746D02*
Y5622D01*
Y5746D02*
X2073Y5622D01*
Y5746D02*
Y5622D01*
X2197Y5717D02*
X2191Y5729D01*
X2179Y5741D01*
X2167Y5746D01*
X2143D01*
X2131Y5741D01*
X2119Y5729D01*
X2113Y5717D01*
X2108Y5699D01*
Y5669D01*
X2113Y5651D01*
X2119Y5639D01*
X2131Y5627D01*
X2143Y5622D01*
X2167D01*
X2179Y5627D01*
X2191Y5639D01*
X2197Y5651D01*
Y5669D01*
X2167D02*
X2197D01*
X2413Y5717D02*
X2407Y5729D01*
X2395Y5741D01*
X2383Y5746D01*
X2359D01*
X2347Y5741D01*
X2335Y5729D01*
X2329Y5717D01*
X2324Y5699D01*
Y5669D01*
X2329Y5651D01*
X2335Y5639D01*
X2347Y5627D01*
X2359Y5622D01*
X2383D01*
X2395Y5627D01*
X2407Y5639D01*
X2413Y5651D01*
Y5669D01*
X2383D02*
X2413D01*
X2519Y5746D02*
X2441D01*
Y5622D01*
X2519D01*
X2441Y5687D02*
X2489D01*
X2540Y5746D02*
Y5622D01*
Y5746D02*
X2593D01*
X2611Y5741D01*
X2617Y5735D01*
X2623Y5723D01*
Y5711D01*
X2617Y5699D01*
X2611Y5693D01*
X2593Y5687D01*
X2540D01*
X2581D02*
X2623Y5622D01*
X2651Y5746D02*
Y5622D01*
Y5746D02*
X2704D01*
X2722Y5741D01*
X2728Y5735D01*
X2734Y5723D01*
Y5711D01*
X2728Y5699D01*
X2722Y5693D01*
X2704Y5687D01*
X2651D02*
X2704D01*
X2722Y5681D01*
X2728Y5675D01*
X2734Y5663D01*
Y5645D01*
X2728Y5633D01*
X2722Y5627D01*
X2704Y5622D01*
X2651D01*
X2839Y5746D02*
X2762D01*
Y5622D01*
X2839D01*
X2762Y5687D02*
X2810D01*
X2860Y5746D02*
Y5622D01*
Y5746D02*
X2914D01*
X2932Y5741D01*
X2938Y5735D01*
X2944Y5723D01*
Y5711D01*
X2938Y5699D01*
X2932Y5693D01*
X2914Y5687D01*
X2860D01*
X2902D02*
X2944Y5622D01*
X3070Y5746D02*
Y5622D01*
Y5746D02*
X3147D01*
X3070Y5687D02*
X3117D01*
X3161Y5746D02*
Y5622D01*
X3188Y5746D02*
Y5622D01*
X3259D01*
X3350Y5746D02*
X3273D01*
Y5622D01*
X3350D01*
X3273Y5687D02*
X3320D01*
X3564Y5622D02*
X3517Y5746D01*
X3469Y5622D01*
X3487Y5663D02*
X3546D01*
X3593Y5746D02*
Y5622D01*
Y5746D02*
X3677Y5622D01*
Y5746D02*
Y5622D01*
X3711Y5746D02*
Y5622D01*
Y5746D02*
X3753D01*
X3771Y5741D01*
X3783Y5729D01*
X3789Y5717D01*
X3795Y5699D01*
Y5669D01*
X3789Y5651D01*
X3783Y5639D01*
X3771Y5627D01*
X3753Y5622D01*
X3711D01*
X3921Y5746D02*
X3951Y5622D01*
X3980Y5746D02*
X3951Y5622D01*
X3980Y5746D02*
X4010Y5622D01*
X4040Y5746D02*
X4010Y5622D01*
X4065Y5746D02*
Y5622D01*
X4148Y5746D02*
Y5622D01*
X4065Y5687D02*
X4148D01*
X4183Y5746D02*
Y5622D01*
X4251Y5746D02*
Y5622D01*
X4209Y5746D02*
X4292D01*
X4384D02*
X4307D01*
Y5622D01*
X4384D01*
X4307Y5687D02*
X4355D01*
X4417Y5627D02*
X4411Y5622D01*
X4405Y5627D01*
X4411Y5633D01*
X4417Y5627D01*
Y5616D01*
X4411Y5604D01*
X4405Y5598D01*
X4543Y5746D02*
Y5622D01*
Y5746D02*
X4626Y5622D01*
Y5746D02*
Y5622D01*
X4696Y5746D02*
X4684Y5741D01*
X4672Y5729D01*
X4666Y5717D01*
X4661Y5699D01*
Y5669D01*
X4666Y5651D01*
X4672Y5639D01*
X4684Y5627D01*
X4696Y5622D01*
X4720D01*
X4732Y5627D01*
X4744Y5639D01*
X4750Y5651D01*
X4756Y5669D01*
Y5699D01*
X4750Y5717D01*
X4744Y5729D01*
X4732Y5741D01*
X4720Y5746D01*
X4696D01*
X4785D02*
Y5622D01*
Y5746D02*
X4868Y5622D01*
Y5746D02*
Y5622D01*
X4903Y5675D02*
X5010D01*
X5136Y5717D02*
X5130Y5729D01*
X5118Y5741D01*
X5106Y5746D01*
X5082D01*
X5071Y5741D01*
X5059Y5729D01*
X5053Y5717D01*
X5047Y5699D01*
Y5669D01*
X5053Y5651D01*
X5059Y5639D01*
X5071Y5627D01*
X5082Y5622D01*
X5106D01*
X5118Y5627D01*
X5130Y5639D01*
X5136Y5651D01*
X5207Y5746D02*
X5195Y5741D01*
X5183Y5729D01*
X5177Y5717D01*
X5171Y5699D01*
Y5669D01*
X5177Y5651D01*
X5183Y5639D01*
X5195Y5627D01*
X5207Y5622D01*
X5231D01*
X5243Y5627D01*
X5254Y5639D01*
X5260Y5651D01*
X5266Y5669D01*
Y5699D01*
X5260Y5717D01*
X5254Y5729D01*
X5243Y5741D01*
X5231Y5746D01*
X5207D01*
X5296D02*
Y5622D01*
Y5746D02*
X5379Y5622D01*
Y5746D02*
Y5622D01*
X5413Y5746D02*
Y5622D01*
Y5746D02*
X5455D01*
X5473Y5741D01*
X5485Y5729D01*
X5491Y5717D01*
X5497Y5699D01*
Y5669D01*
X5491Y5651D01*
X5485Y5639D01*
X5473Y5627D01*
X5455Y5622D01*
X5413D01*
X5525Y5746D02*
Y5657D01*
X5531Y5639D01*
X5542Y5627D01*
X5560Y5622D01*
X5572D01*
X5590Y5627D01*
X5602Y5639D01*
X5608Y5657D01*
Y5746D01*
X5732Y5717D02*
X5726Y5729D01*
X5714Y5741D01*
X5702Y5746D01*
X5678D01*
X5666Y5741D01*
X5654Y5729D01*
X5648Y5717D01*
X5642Y5699D01*
Y5669D01*
X5648Y5651D01*
X5654Y5639D01*
X5666Y5627D01*
X5678Y5622D01*
X5702D01*
X5714Y5627D01*
X5726Y5639D01*
X5732Y5651D01*
X5808Y5746D02*
Y5622D01*
X5767Y5746D02*
X5850D01*
X5865D02*
Y5622D01*
X5891Y5746D02*
X5939Y5622D01*
X5986Y5746D02*
X5939Y5622D01*
X6080Y5746D02*
X6003D01*
Y5622D01*
X6080D01*
X6003Y5687D02*
X6050D01*
X6276Y5746D02*
X6199D01*
Y5622D01*
X6276D01*
X6199Y5687D02*
X6247D01*
X6297Y5681D02*
X6351D01*
X6368Y5687D01*
X6374Y5693D01*
X6380Y5705D01*
Y5723D01*
X6374Y5735D01*
X6368Y5741D01*
X6351Y5746D01*
X6297D01*
Y5622D01*
X6444Y5746D02*
X6432Y5741D01*
X6420Y5729D01*
X6414Y5717D01*
X6408Y5699D01*
Y5669D01*
X6414Y5651D01*
X6420Y5639D01*
X6432Y5627D01*
X6444Y5622D01*
X6468D01*
X6480Y5627D01*
X6492Y5639D01*
X6498Y5651D01*
X6504Y5669D01*
Y5699D01*
X6498Y5717D01*
X6492Y5729D01*
X6480Y5741D01*
X6468Y5746D01*
X6444D01*
X6533D02*
X6616Y5622D01*
Y5746D02*
X6533Y5622D01*
X6644Y5746D02*
X6692Y5687D01*
Y5622D01*
X6739Y5746D02*
X6692Y5687D01*
X6854Y5746D02*
Y5622D01*
X6880Y5746D02*
Y5622D01*
Y5746D02*
X6963Y5622D01*
Y5746D02*
Y5622D01*
X6998Y5746D02*
Y5622D01*
X7081Y5746D02*
X6998Y5663D01*
X7027Y5693D02*
X7081Y5622D01*
X7115Y5633D02*
X7109Y5627D01*
X7115Y5622D01*
X7121Y5627D01*
X7115Y5633D01*
X658Y5822D02*
X610Y5946D01*
X563Y5822D01*
X580Y5863D02*
X640D01*
X687Y5881D02*
X741D01*
X758Y5887D01*
X764Y5893D01*
X770Y5905D01*
Y5923D01*
X764Y5935D01*
X758Y5941D01*
X741Y5946D01*
X687D01*
Y5822D01*
X798Y5881D02*
X852D01*
X870Y5887D01*
X876Y5893D01*
X882Y5905D01*
Y5923D01*
X876Y5935D01*
X870Y5941D01*
X852Y5946D01*
X798D01*
Y5822D01*
X910Y5946D02*
Y5822D01*
X981D01*
X995Y5946D02*
X1042Y5887D01*
Y5822D01*
X1090Y5946D02*
X1042Y5887D01*
X1204Y5946D02*
Y5822D01*
Y5946D02*
X1258D01*
X1276Y5941D01*
X1281Y5935D01*
X1287Y5923D01*
Y5911D01*
X1281Y5899D01*
X1276Y5893D01*
X1258Y5887D01*
X1204D01*
X1246D02*
X1287Y5822D01*
X1393Y5946D02*
X1315D01*
Y5822D01*
X1393D01*
X1315Y5887D02*
X1363D01*
X1414Y5946D02*
Y5822D01*
Y5946D02*
X1491D01*
X1414Y5887D02*
X1461D01*
X1583Y5946D02*
X1505D01*
Y5822D01*
X1583D01*
X1505Y5887D02*
X1553D01*
X1603Y5946D02*
Y5822D01*
Y5946D02*
X1657D01*
X1675Y5941D01*
X1681Y5935D01*
X1687Y5923D01*
Y5911D01*
X1681Y5899D01*
X1675Y5893D01*
X1657Y5887D01*
X1603D01*
X1645D02*
X1687Y5822D01*
X1792Y5946D02*
X1715D01*
Y5822D01*
X1792D01*
X1715Y5887D02*
X1762D01*
X1813Y5946D02*
Y5822D01*
Y5946D02*
X1896Y5822D01*
Y5946D02*
Y5822D01*
X2020Y5917D02*
X2014Y5929D01*
X2002Y5941D01*
X1990Y5946D01*
X1966D01*
X1955Y5941D01*
X1943Y5929D01*
X1937Y5917D01*
X1931Y5899D01*
Y5869D01*
X1937Y5851D01*
X1943Y5839D01*
X1955Y5827D01*
X1966Y5822D01*
X1990D01*
X2002Y5827D01*
X2014Y5839D01*
X2020Y5851D01*
X2133Y5946D02*
X2055D01*
Y5822D01*
X2133D01*
X2055Y5887D02*
X2103D01*
X2252Y5946D02*
Y5822D01*
Y5946D02*
X2293D01*
X2311Y5941D01*
X2323Y5929D01*
X2329Y5917D01*
X2335Y5899D01*
Y5869D01*
X2329Y5851D01*
X2323Y5839D01*
X2311Y5827D01*
X2293Y5822D01*
X2252D01*
X2440Y5946D02*
X2363D01*
Y5822D01*
X2440D01*
X2363Y5887D02*
X2410D01*
X2544Y5929D02*
X2532Y5941D01*
X2515Y5946D01*
X2491D01*
X2473Y5941D01*
X2461Y5929D01*
Y5917D01*
X2467Y5905D01*
X2473Y5899D01*
X2485Y5893D01*
X2521Y5881D01*
X2532Y5875D01*
X2538Y5869D01*
X2544Y5857D01*
Y5839D01*
X2532Y5827D01*
X2515Y5822D01*
X2491D01*
X2473Y5827D01*
X2461Y5839D01*
X2572Y5946D02*
Y5822D01*
X2688Y5917D02*
X2682Y5929D01*
X2670Y5941D01*
X2658Y5946D01*
X2634D01*
X2622Y5941D01*
X2610Y5929D01*
X2604Y5917D01*
X2598Y5899D01*
Y5869D01*
X2604Y5851D01*
X2610Y5839D01*
X2622Y5827D01*
X2634Y5822D01*
X2658D01*
X2670Y5827D01*
X2682Y5839D01*
X2688Y5851D01*
Y5869D01*
X2658D02*
X2688D01*
X2716Y5946D02*
Y5822D01*
Y5946D02*
X2800Y5822D01*
Y5946D02*
Y5822D01*
X2929D02*
X2882Y5946D01*
X2834Y5822D01*
X2852Y5863D02*
X2912D01*
X3000Y5946D02*
Y5822D01*
X2959Y5946D02*
X3042D01*
X3057D02*
Y5822D01*
X3119Y5946D02*
X3107Y5941D01*
X3095Y5929D01*
X3089Y5917D01*
X3083Y5899D01*
Y5869D01*
X3089Y5851D01*
X3095Y5839D01*
X3107Y5827D01*
X3119Y5822D01*
X3142D01*
X3154Y5827D01*
X3166Y5839D01*
X3172Y5851D01*
X3178Y5869D01*
Y5899D01*
X3172Y5917D01*
X3166Y5929D01*
X3154Y5941D01*
X3142Y5946D01*
X3119D01*
X3207D02*
Y5822D01*
Y5946D02*
X3291Y5822D01*
Y5946D02*
Y5822D01*
X3423Y5946D02*
Y5822D01*
Y5946D02*
X3471Y5822D01*
X3519Y5946D02*
X3471Y5822D01*
X3519Y5946D02*
Y5822D01*
X3649D02*
X3602Y5946D01*
X3554Y5822D01*
X3572Y5863D02*
X3632D01*
X3679Y5946D02*
Y5822D01*
Y5946D02*
X3732D01*
X3750Y5941D01*
X3756Y5935D01*
X3762Y5923D01*
Y5911D01*
X3756Y5899D01*
X3750Y5893D01*
X3732Y5887D01*
X3679D01*
X3720D02*
X3762Y5822D01*
X3790Y5946D02*
Y5822D01*
X3873Y5946D02*
X3790Y5863D01*
X3820Y5893D02*
X3873Y5822D01*
X3901Y5946D02*
Y5822D01*
X3927Y5946D02*
Y5822D01*
Y5946D02*
X4011Y5822D01*
Y5946D02*
Y5822D01*
X4134Y5917D02*
X4129Y5929D01*
X4117Y5941D01*
X4105Y5946D01*
X4081D01*
X4069Y5941D01*
X4057Y5929D01*
X4051Y5917D01*
X4045Y5899D01*
Y5869D01*
X4051Y5851D01*
X4057Y5839D01*
X4069Y5827D01*
X4081Y5822D01*
X4105D01*
X4117Y5827D01*
X4129Y5839D01*
X4134Y5851D01*
Y5869D01*
X4105D02*
X4134D01*
X4246Y5929D02*
X4234Y5941D01*
X4217Y5946D01*
X4193D01*
X4175Y5941D01*
X4163Y5929D01*
Y5917D01*
X4169Y5905D01*
X4175Y5899D01*
X4187Y5893D01*
X4223Y5881D01*
X4234Y5875D01*
X4240Y5869D01*
X4246Y5857D01*
Y5839D01*
X4234Y5827D01*
X4217Y5822D01*
X4193D01*
X4175Y5827D01*
X4163Y5839D01*
X4414Y5946D02*
Y5822D01*
X4372Y5946D02*
X4456D01*
X4506D02*
X4494Y5941D01*
X4483Y5929D01*
X4477Y5917D01*
X4471Y5899D01*
Y5869D01*
X4477Y5851D01*
X4483Y5839D01*
X4494Y5827D01*
X4506Y5822D01*
X4530D01*
X4542Y5827D01*
X4554Y5839D01*
X4560Y5851D01*
X4566Y5869D01*
Y5899D01*
X4560Y5917D01*
X4554Y5929D01*
X4542Y5941D01*
X4530Y5946D01*
X4506D01*
X4783Y5917D02*
X4777Y5929D01*
X4765Y5941D01*
X4753Y5946D01*
X4729D01*
X4717Y5941D01*
X4705Y5929D01*
X4699Y5917D01*
X4693Y5899D01*
Y5869D01*
X4699Y5851D01*
X4705Y5839D01*
X4717Y5827D01*
X4729Y5822D01*
X4753D01*
X4765Y5827D01*
X4777Y5839D01*
X4783Y5851D01*
X4853Y5946D02*
X4841Y5941D01*
X4830Y5929D01*
X4824Y5917D01*
X4818Y5899D01*
Y5869D01*
X4824Y5851D01*
X4830Y5839D01*
X4841Y5827D01*
X4853Y5822D01*
X4877D01*
X4889Y5827D01*
X4901Y5839D01*
X4907Y5851D01*
X4913Y5869D01*
Y5899D01*
X4907Y5917D01*
X4901Y5929D01*
X4889Y5941D01*
X4877Y5946D01*
X4853D01*
X4942D02*
Y5822D01*
Y5946D02*
X4990Y5822D01*
X5037Y5946D02*
X4990Y5822D01*
X5037Y5946D02*
Y5822D01*
X5073Y5881D02*
X5127D01*
X5144Y5887D01*
X5150Y5893D01*
X5156Y5905D01*
Y5923D01*
X5150Y5935D01*
X5144Y5941D01*
X5127Y5946D01*
X5073D01*
Y5822D01*
X5220Y5946D02*
X5208Y5941D01*
X5196Y5929D01*
X5190Y5917D01*
X5184Y5899D01*
Y5869D01*
X5190Y5851D01*
X5196Y5839D01*
X5208Y5827D01*
X5220Y5822D01*
X5244D01*
X5256Y5827D01*
X5268Y5839D01*
X5273Y5851D01*
X5279Y5869D01*
Y5899D01*
X5273Y5917D01*
X5268Y5929D01*
X5256Y5941D01*
X5244Y5946D01*
X5220D01*
X5309D02*
Y5822D01*
Y5946D02*
X5392Y5822D01*
Y5946D02*
Y5822D01*
X5504Y5946D02*
X5426D01*
Y5822D01*
X5504D01*
X5426Y5887D02*
X5474D01*
X5525Y5946D02*
Y5822D01*
Y5946D02*
X5608Y5822D01*
Y5946D02*
Y5822D01*
X5684Y5946D02*
Y5822D01*
X5642Y5946D02*
X5726D01*
X5934Y5822D02*
X5886Y5946D01*
X5839Y5822D01*
X5857Y5863D02*
X5916D01*
X5963Y5946D02*
Y5822D01*
Y5946D02*
X6047Y5822D01*
Y5946D02*
Y5822D01*
X6081Y5946D02*
Y5822D01*
Y5946D02*
X6123D01*
X6141Y5941D01*
X6152Y5929D01*
X6158Y5917D01*
X6164Y5899D01*
Y5869D01*
X6158Y5851D01*
X6152Y5839D01*
X6141Y5827D01*
X6123Y5822D01*
X6081D01*
X658Y6122D02*
X610Y6246D01*
X563Y6122D01*
X580Y6163D02*
X640D01*
X687Y6246D02*
Y6122D01*
X758D01*
X772Y6246D02*
Y6122D01*
X843D01*
X955Y6246D02*
Y6122D01*
X982Y6246D02*
Y6122D01*
Y6246D02*
X1065Y6122D01*
Y6246D02*
Y6122D01*
X1141Y6246D02*
Y6122D01*
X1099Y6246D02*
X1183D01*
X1275D02*
X1198D01*
Y6122D01*
X1275D01*
X1198Y6187D02*
X1245D01*
X1296Y6246D02*
Y6122D01*
Y6246D02*
X1349D01*
X1367Y6241D01*
X1373Y6235D01*
X1379Y6223D01*
Y6211D01*
X1373Y6199D01*
X1367Y6193D01*
X1349Y6187D01*
X1296D01*
X1337D02*
X1379Y6122D01*
X1407Y6246D02*
Y6122D01*
Y6246D02*
X1490Y6122D01*
Y6246D02*
Y6122D01*
X1620D02*
X1573Y6246D01*
X1525Y6122D01*
X1543Y6163D02*
X1602D01*
X1649Y6246D02*
Y6122D01*
X1721D01*
X1833Y6246D02*
Y6122D01*
Y6246D02*
X1886D01*
X1904Y6241D01*
X1910Y6235D01*
X1916Y6223D01*
Y6211D01*
X1910Y6199D01*
X1904Y6193D01*
X1886Y6187D01*
X1833D01*
X1874D02*
X1916Y6122D01*
X2039D02*
X1991Y6246D01*
X1944Y6122D01*
X1962Y6163D02*
X2021D01*
X2068Y6246D02*
Y6122D01*
Y6246D02*
X2110D01*
X2128Y6241D01*
X2140Y6229D01*
X2146Y6217D01*
X2152Y6199D01*
Y6169D01*
X2146Y6151D01*
X2140Y6139D01*
X2128Y6127D01*
X2110Y6122D01*
X2068D01*
X2180Y6246D02*
Y6122D01*
X2206Y6246D02*
Y6122D01*
X2330Y6246D02*
X2360Y6122D01*
X2390Y6246D02*
X2360Y6122D01*
X2390Y6246D02*
X2419Y6122D01*
X2449Y6246D02*
X2419Y6122D01*
X2474Y6246D02*
Y6122D01*
X2500Y6246D02*
Y6122D01*
X2572D01*
X2585Y6246D02*
Y6122D01*
X2657D01*
X2769Y6246D02*
Y6122D01*
Y6246D02*
X2822D01*
X2840Y6241D01*
X2846Y6235D01*
X2852Y6223D01*
Y6211D01*
X2846Y6199D01*
X2840Y6193D01*
X2822Y6187D01*
X2769D02*
X2822D01*
X2840Y6181D01*
X2846Y6175D01*
X2852Y6163D01*
Y6145D01*
X2846Y6133D01*
X2840Y6127D01*
X2822Y6122D01*
X2769D01*
X2957Y6246D02*
X2880D01*
Y6122D01*
X2957D01*
X2880Y6187D02*
X2928D01*
X3082Y6217D02*
Y6223D01*
X3088Y6235D01*
X3094Y6241D01*
X3106Y6246D01*
X3130D01*
X3142Y6241D01*
X3148Y6235D01*
X3154Y6223D01*
Y6211D01*
X3148Y6199D01*
X3136Y6181D01*
X3076Y6122D01*
X3160D01*
X3286Y6246D02*
Y6122D01*
Y6246D02*
X3333Y6122D01*
X3381Y6246D02*
X3333Y6122D01*
X3381Y6246D02*
Y6122D01*
X3417Y6246D02*
Y6122D01*
Y6246D02*
X3464Y6122D01*
X3512Y6246D02*
X3464Y6122D01*
X3512Y6246D02*
Y6122D01*
X3646Y6246D02*
Y6122D01*
Y6246D02*
X3693Y6122D01*
X3741Y6246D02*
X3693Y6122D01*
X3741Y6246D02*
Y6122D01*
X3872D02*
X3824Y6246D01*
X3777Y6122D01*
X3795Y6163D02*
X3854D01*
X3901Y6246D02*
X3984Y6122D01*
Y6246D02*
X3901Y6122D01*
X4012Y6246D02*
Y6122D01*
X4039Y6246D02*
Y6122D01*
Y6246D02*
X4086Y6122D01*
X4134Y6246D02*
X4086Y6122D01*
X4134Y6246D02*
Y6122D01*
X4170Y6246D02*
Y6157D01*
X4176Y6139D01*
X4187Y6127D01*
X4205Y6122D01*
X4217D01*
X4235Y6127D01*
X4247Y6139D01*
X4253Y6157D01*
Y6246D01*
X4287D02*
Y6122D01*
Y6246D02*
X4335Y6122D01*
X4383Y6246D02*
X4335Y6122D01*
X4383Y6246D02*
Y6122D01*
X4424Y6133D02*
X4418Y6127D01*
X4424Y6122D01*
X4430Y6127D01*
X4424Y6133D01*
X563Y6481D02*
X616D01*
X634Y6487D01*
X640Y6493D01*
X646Y6505D01*
Y6523D01*
X640Y6535D01*
X634Y6541D01*
X616Y6546D01*
X563D01*
Y6422D01*
X763Y6517D02*
X757Y6529D01*
X745Y6541D01*
X733Y6546D01*
X710D01*
X698Y6541D01*
X686Y6529D01*
X680Y6517D01*
X674Y6499D01*
Y6469D01*
X680Y6451D01*
X686Y6439D01*
X698Y6427D01*
X710Y6422D01*
X733D01*
X745Y6427D01*
X757Y6439D01*
X763Y6451D01*
X896Y6546D02*
Y6422D01*
Y6546D02*
X950D01*
X968Y6541D01*
X974Y6535D01*
X980Y6523D01*
Y6511D01*
X974Y6499D01*
X968Y6493D01*
X950Y6487D01*
X896D02*
X950D01*
X968Y6481D01*
X974Y6475D01*
X980Y6463D01*
Y6445D01*
X974Y6433D01*
X968Y6427D01*
X950Y6422D01*
X896D01*
X1043Y6546D02*
X1032Y6541D01*
X1020Y6529D01*
X1014Y6517D01*
X1008Y6499D01*
Y6469D01*
X1014Y6451D01*
X1020Y6439D01*
X1032Y6427D01*
X1043Y6422D01*
X1067D01*
X1079Y6427D01*
X1091Y6439D01*
X1097Y6451D01*
X1103Y6469D01*
Y6499D01*
X1097Y6517D01*
X1091Y6529D01*
X1079Y6541D01*
X1067Y6546D01*
X1043D01*
X1227Y6422D02*
X1180Y6546D01*
X1132Y6422D01*
X1150Y6463D02*
X1209D01*
X1256Y6546D02*
Y6422D01*
Y6546D02*
X1310D01*
X1328Y6541D01*
X1334Y6535D01*
X1340Y6523D01*
Y6511D01*
X1334Y6499D01*
X1328Y6493D01*
X1310Y6487D01*
X1256D01*
X1298D02*
X1340Y6422D01*
X1368Y6546D02*
Y6422D01*
Y6546D02*
X1409D01*
X1427Y6541D01*
X1439Y6529D01*
X1445Y6517D01*
X1451Y6499D01*
Y6469D01*
X1445Y6451D01*
X1439Y6439D01*
X1427Y6427D01*
X1409Y6422D01*
X1368D01*
X1655Y6546D02*
X1577D01*
Y6422D01*
X1655D01*
X1577Y6487D02*
X1625D01*
X1675Y6546D02*
Y6422D01*
Y6546D02*
X1717D01*
X1735Y6541D01*
X1747Y6529D01*
X1753Y6517D01*
X1759Y6499D01*
Y6469D01*
X1753Y6451D01*
X1747Y6439D01*
X1735Y6427D01*
X1717Y6422D01*
X1675D01*
X1876Y6517D02*
X1870Y6529D01*
X1858Y6541D01*
X1846Y6546D01*
X1822D01*
X1811Y6541D01*
X1799Y6529D01*
X1793Y6517D01*
X1787Y6499D01*
Y6469D01*
X1793Y6451D01*
X1799Y6439D01*
X1811Y6427D01*
X1822Y6422D01*
X1846D01*
X1858Y6427D01*
X1870Y6439D01*
X1876Y6451D01*
Y6469D01*
X1846D02*
X1876D01*
X1982Y6546D02*
X1905D01*
Y6422D01*
X1982D01*
X1905Y6487D02*
X1952D01*
X2086Y6529D02*
X2074Y6541D01*
X2056Y6546D01*
X2033D01*
X2015Y6541D01*
X2003Y6529D01*
Y6517D01*
X2009Y6505D01*
X2015Y6499D01*
X2027Y6493D01*
X2062Y6481D01*
X2074Y6475D01*
X2080Y6469D01*
X2086Y6457D01*
Y6439D01*
X2074Y6427D01*
X2056Y6422D01*
X2033D01*
X2015Y6427D01*
X2003Y6439D01*
X2296Y6529D02*
X2284Y6541D01*
X2266Y6546D01*
X2242D01*
X2224Y6541D01*
X2212Y6529D01*
Y6517D01*
X2218Y6505D01*
X2224Y6499D01*
X2236Y6493D01*
X2272Y6481D01*
X2284Y6475D01*
X2290Y6469D01*
X2296Y6457D01*
Y6439D01*
X2284Y6427D01*
X2266Y6422D01*
X2242D01*
X2224Y6427D01*
X2212Y6439D01*
X2324Y6546D02*
Y6422D01*
X2407Y6546D02*
Y6422D01*
X2324Y6487D02*
X2407D01*
X2537Y6422D02*
X2489Y6546D01*
X2441Y6422D01*
X2459Y6463D02*
X2519D01*
X2566Y6546D02*
Y6422D01*
X2637D01*
X2651Y6546D02*
Y6422D01*
X2722D01*
X2834Y6546D02*
Y6422D01*
Y6546D02*
X2888D01*
X2906Y6541D01*
X2912Y6535D01*
X2917Y6523D01*
Y6511D01*
X2912Y6499D01*
X2906Y6493D01*
X2888Y6487D01*
X2834D02*
X2888D01*
X2906Y6481D01*
X2912Y6475D01*
X2917Y6463D01*
Y6445D01*
X2912Y6433D01*
X2906Y6427D01*
X2888Y6422D01*
X2834D01*
X3023Y6546D02*
X2945D01*
Y6422D01*
X3023D01*
X2945Y6487D02*
X2993D01*
X3225Y6529D02*
X3213Y6541D01*
X3195Y6546D01*
X3172D01*
X3154Y6541D01*
X3142Y6529D01*
Y6517D01*
X3148Y6505D01*
X3154Y6499D01*
X3166Y6493D01*
X3201Y6481D01*
X3213Y6475D01*
X3219Y6469D01*
X3225Y6457D01*
Y6439D01*
X3213Y6427D01*
X3195Y6422D01*
X3172D01*
X3154Y6427D01*
X3142Y6439D01*
X3253Y6546D02*
Y6422D01*
Y6546D02*
X3301Y6422D01*
X3348Y6546D02*
X3301Y6422D01*
X3348Y6546D02*
Y6422D01*
X3420Y6546D02*
X3408Y6541D01*
X3396Y6529D01*
X3390Y6517D01*
X3384Y6499D01*
Y6469D01*
X3390Y6451D01*
X3396Y6439D01*
X3408Y6427D01*
X3420Y6422D01*
X3444D01*
X3455Y6427D01*
X3467Y6439D01*
X3473Y6451D01*
X3479Y6469D01*
Y6499D01*
X3473Y6517D01*
X3467Y6529D01*
X3455Y6541D01*
X3444Y6546D01*
X3420D01*
X3544D02*
X3532Y6541D01*
X3520Y6529D01*
X3514Y6517D01*
X3508Y6499D01*
Y6469D01*
X3514Y6451D01*
X3520Y6439D01*
X3532Y6427D01*
X3544Y6422D01*
X3568D01*
X3580Y6427D01*
X3592Y6439D01*
X3598Y6451D01*
X3604Y6469D01*
Y6499D01*
X3598Y6517D01*
X3592Y6529D01*
X3580Y6541D01*
X3568Y6546D01*
X3544D01*
X3674D02*
Y6422D01*
X3633Y6546D02*
X3716D01*
X3731D02*
Y6422D01*
X3814Y6546D02*
Y6422D01*
X3731Y6487D02*
X3814D01*
X3861Y6427D02*
X3855Y6422D01*
X3849Y6427D01*
X3855Y6433D01*
X3861Y6427D01*
Y6416D01*
X3855Y6404D01*
X3849Y6398D01*
X4076Y6517D02*
X4070Y6529D01*
X4058Y6541D01*
X4046Y6546D01*
X4022D01*
X4010Y6541D01*
X3998Y6529D01*
X3992Y6517D01*
X3986Y6499D01*
Y6469D01*
X3992Y6451D01*
X3998Y6439D01*
X4010Y6427D01*
X4022Y6422D01*
X4046D01*
X4058Y6427D01*
X4070Y6439D01*
X4076Y6451D01*
X4111Y6546D02*
Y6422D01*
X4182D01*
X4273Y6546D02*
X4196D01*
Y6422D01*
X4273D01*
X4196Y6487D02*
X4243D01*
X4389Y6422D02*
X4342Y6546D01*
X4294Y6422D01*
X4312Y6463D02*
X4371D01*
X4418Y6546D02*
Y6422D01*
Y6546D02*
X4502Y6422D01*
Y6546D02*
Y6422D01*
X4730D02*
X4682Y6546D01*
X4634Y6422D01*
X4652Y6463D02*
X4712D01*
X4759Y6546D02*
Y6422D01*
Y6546D02*
X4842Y6422D01*
Y6546D02*
Y6422D01*
X4877Y6546D02*
Y6422D01*
Y6546D02*
X4918D01*
X4936Y6541D01*
X4948Y6529D01*
X4954Y6517D01*
X4960Y6499D01*
Y6469D01*
X4954Y6451D01*
X4948Y6439D01*
X4936Y6427D01*
X4918Y6422D01*
X4877D01*
X5086Y6546D02*
Y6422D01*
Y6546D02*
X5163D01*
X5086Y6487D02*
X5134D01*
X5178Y6546D02*
Y6422D01*
Y6546D02*
X5231D01*
X5249Y6541D01*
X5255Y6535D01*
X5261Y6523D01*
Y6511D01*
X5255Y6499D01*
X5249Y6493D01*
X5231Y6487D01*
X5178D01*
X5219D02*
X5261Y6422D01*
X5366Y6546D02*
X5289D01*
Y6422D01*
X5366D01*
X5289Y6487D02*
X5337D01*
X5465Y6546D02*
X5387D01*
Y6422D01*
X5465D01*
X5387Y6487D02*
X5435D01*
X5584Y6546D02*
Y6422D01*
Y6546D02*
X5661D01*
X5584Y6487D02*
X5631D01*
X5675Y6546D02*
Y6422D01*
Y6546D02*
X5729D01*
X5747Y6541D01*
X5753Y6535D01*
X5759Y6523D01*
Y6511D01*
X5753Y6499D01*
X5747Y6493D01*
X5729Y6487D01*
X5675D01*
X5717D02*
X5759Y6422D01*
X5822Y6546D02*
X5810Y6541D01*
X5798Y6529D01*
X5792Y6517D01*
X5786Y6499D01*
Y6469D01*
X5792Y6451D01*
X5798Y6439D01*
X5810Y6427D01*
X5822Y6422D01*
X5846D01*
X5858Y6427D01*
X5870Y6439D01*
X5876Y6451D01*
X5882Y6469D01*
Y6499D01*
X5876Y6517D01*
X5870Y6529D01*
X5858Y6541D01*
X5846Y6546D01*
X5822D01*
X5911D02*
Y6422D01*
Y6546D02*
X5958Y6422D01*
X6006Y6546D02*
X5958Y6422D01*
X6006Y6546D02*
Y6422D01*
X6140Y6546D02*
Y6422D01*
Y6546D02*
X6182D01*
X6199Y6541D01*
X6211Y6529D01*
X6217Y6517D01*
X6223Y6499D01*
Y6469D01*
X6217Y6451D01*
X6211Y6439D01*
X6199Y6427D01*
X6182Y6422D01*
X6140D01*
X6329Y6546D02*
X6251D01*
Y6422D01*
X6329D01*
X6251Y6487D02*
X6299D01*
X6349Y6546D02*
Y6422D01*
Y6546D02*
X6403D01*
X6421Y6541D01*
X6427Y6535D01*
X6433Y6523D01*
Y6511D01*
X6427Y6499D01*
X6421Y6493D01*
X6403Y6487D01*
X6349D02*
X6403D01*
X6421Y6481D01*
X6427Y6475D01*
X6433Y6463D01*
Y6445D01*
X6427Y6433D01*
X6421Y6427D01*
X6403Y6422D01*
X6349D01*
X6461Y6546D02*
Y6422D01*
Y6546D02*
X6514D01*
X6532Y6541D01*
X6538Y6535D01*
X6544Y6523D01*
Y6511D01*
X6538Y6499D01*
X6532Y6493D01*
X6514Y6487D01*
X6461D01*
X6502D02*
X6544Y6422D01*
X6572Y6546D02*
Y6422D01*
X6682Y6529D02*
X6670Y6541D01*
X6652Y6546D01*
X6628D01*
X6610Y6541D01*
X6598Y6529D01*
Y6517D01*
X6604Y6505D01*
X6610Y6499D01*
X6622Y6493D01*
X6658Y6481D01*
X6670Y6475D01*
X6676Y6469D01*
X6682Y6457D01*
Y6439D01*
X6670Y6427D01*
X6652Y6422D01*
X6628D01*
X6610Y6427D01*
X6598Y6439D01*
X6715Y6433D02*
X6709Y6427D01*
X6715Y6422D01*
X6721Y6427D01*
X6715Y6433D01*
X652Y6917D02*
X646Y6929D01*
X634Y6941D01*
X622Y6946D01*
X598D01*
X586Y6941D01*
X575Y6929D01*
X569Y6917D01*
X563Y6899D01*
Y6869D01*
X569Y6851D01*
X575Y6839D01*
X586Y6827D01*
X598Y6822D01*
X622D01*
X634Y6827D01*
X646Y6839D01*
X652Y6851D01*
X723Y6946D02*
X711Y6941D01*
X699Y6929D01*
X693Y6917D01*
X687Y6899D01*
Y6869D01*
X693Y6851D01*
X699Y6839D01*
X711Y6827D01*
X723Y6822D01*
X746D01*
X758Y6827D01*
X770Y6839D01*
X776Y6851D01*
X782Y6869D01*
Y6899D01*
X776Y6917D01*
X770Y6929D01*
X758Y6941D01*
X746Y6946D01*
X723D01*
X811D02*
Y6822D01*
Y6946D02*
X859Y6822D01*
X907Y6946D02*
X859Y6822D01*
X907Y6946D02*
Y6822D01*
X942Y6881D02*
X996D01*
X1014Y6887D01*
X1020Y6893D01*
X1026Y6905D01*
Y6923D01*
X1020Y6935D01*
X1014Y6941D01*
X996Y6946D01*
X942D01*
Y6822D01*
X1089Y6946D02*
X1077Y6941D01*
X1065Y6929D01*
X1060Y6917D01*
X1054Y6899D01*
Y6869D01*
X1060Y6851D01*
X1065Y6839D01*
X1077Y6827D01*
X1089Y6822D01*
X1113D01*
X1125Y6827D01*
X1137Y6839D01*
X1143Y6851D01*
X1149Y6869D01*
Y6899D01*
X1143Y6917D01*
X1137Y6929D01*
X1125Y6941D01*
X1113Y6946D01*
X1089D01*
X1261Y6929D02*
X1249Y6941D01*
X1232Y6946D01*
X1208D01*
X1190Y6941D01*
X1178Y6929D01*
Y6917D01*
X1184Y6905D01*
X1190Y6899D01*
X1202Y6893D01*
X1237Y6881D01*
X1249Y6875D01*
X1255Y6869D01*
X1261Y6857D01*
Y6839D01*
X1249Y6827D01*
X1232Y6822D01*
X1208D01*
X1190Y6827D01*
X1178Y6839D01*
X1289Y6946D02*
Y6822D01*
X1357Y6946D02*
Y6822D01*
X1315Y6946D02*
X1399D01*
X1414D02*
Y6822D01*
X1475Y6946D02*
X1464Y6941D01*
X1452Y6929D01*
X1446Y6917D01*
X1440Y6899D01*
Y6869D01*
X1446Y6851D01*
X1452Y6839D01*
X1464Y6827D01*
X1475Y6822D01*
X1499D01*
X1511Y6827D01*
X1523Y6839D01*
X1529Y6851D01*
X1535Y6869D01*
Y6899D01*
X1529Y6917D01*
X1523Y6929D01*
X1511Y6941D01*
X1499Y6946D01*
X1475D01*
X1564D02*
Y6822D01*
Y6946D02*
X1647Y6822D01*
Y6946D02*
Y6822D01*
X1780Y6881D02*
X1834D01*
X1852Y6887D01*
X1858Y6893D01*
X1864Y6905D01*
Y6923D01*
X1858Y6935D01*
X1852Y6941D01*
X1834Y6946D01*
X1780D01*
Y6822D01*
X1969Y6946D02*
X1891D01*
Y6822D01*
X1969D01*
X1891Y6887D02*
X1939D01*
X1990Y6946D02*
Y6822D01*
Y6946D02*
X2043D01*
X2061Y6941D01*
X2067Y6935D01*
X2073Y6923D01*
Y6911D01*
X2067Y6899D01*
X2061Y6893D01*
X2043Y6887D01*
X1990D01*
X2031D02*
X2073Y6822D01*
X2259Y6946D02*
Y6851D01*
X2253Y6833D01*
X2247Y6827D01*
X2235Y6822D01*
X2223D01*
X2211Y6827D01*
X2205Y6833D01*
X2199Y6851D01*
Y6863D01*
X2291Y6875D02*
X2398D01*
X2518Y6929D02*
X2506Y6941D01*
X2488Y6946D01*
X2465D01*
X2447Y6941D01*
X2435Y6929D01*
Y6917D01*
X2441Y6905D01*
X2447Y6899D01*
X2459Y6893D01*
X2494Y6881D01*
X2506Y6875D01*
X2512Y6869D01*
X2518Y6857D01*
Y6839D01*
X2506Y6827D01*
X2488Y6822D01*
X2465D01*
X2447Y6827D01*
X2435Y6839D01*
X2588Y6946D02*
Y6822D01*
X2546Y6946D02*
X2629D01*
X2644D02*
Y6822D01*
Y6946D02*
X2686D01*
X2704Y6941D01*
X2716Y6929D01*
X2722Y6917D01*
X2728Y6899D01*
Y6869D01*
X2722Y6851D01*
X2716Y6839D01*
X2704Y6827D01*
X2686Y6822D01*
X2644D01*
X2756Y6875D02*
X2863D01*
X2935Y6946D02*
X2917Y6941D01*
X2906Y6923D01*
X2900Y6893D01*
Y6875D01*
X2906Y6845D01*
X2917Y6827D01*
X2935Y6822D01*
X2947D01*
X2965Y6827D01*
X2977Y6845D01*
X2983Y6875D01*
Y6893D01*
X2977Y6923D01*
X2965Y6941D01*
X2947Y6946D01*
X2935D01*
X3047D02*
X3029Y6941D01*
X3017Y6923D01*
X3011Y6893D01*
Y6875D01*
X3017Y6845D01*
X3029Y6827D01*
X3047Y6822D01*
X3058D01*
X3076Y6827D01*
X3088Y6845D01*
X3094Y6875D01*
Y6893D01*
X3088Y6923D01*
X3076Y6941D01*
X3058Y6946D01*
X3047D01*
X3182D02*
X3122Y6863D01*
X3211D01*
X3182Y6946D02*
Y6822D01*
X3329D02*
X3281Y6946D01*
X3233Y6822D01*
X3251Y6863D02*
X3311D01*
X3364Y6833D02*
X3358Y6827D01*
X3364Y6822D01*
X3370Y6827D01*
X3364Y6833D01*
X3593Y6946D02*
Y6822D01*
X3677Y6946D02*
Y6822D01*
X3593Y6887D02*
X3677D01*
X3747Y6946D02*
X3735Y6941D01*
X3723Y6929D01*
X3717Y6917D01*
X3711Y6899D01*
Y6869D01*
X3717Y6851D01*
X3723Y6839D01*
X3735Y6827D01*
X3747Y6822D01*
X3771D01*
X3783Y6827D01*
X3795Y6839D01*
X3801Y6851D01*
X3807Y6869D01*
Y6899D01*
X3801Y6917D01*
X3795Y6929D01*
X3783Y6941D01*
X3771Y6946D01*
X3747D01*
X3836D02*
Y6822D01*
X3907D01*
X3998Y6946D02*
X3921D01*
Y6822D01*
X3998D01*
X3921Y6887D02*
X3968D01*
X4102Y6929D02*
X4090Y6941D01*
X4073Y6946D01*
X4049D01*
X4031Y6941D01*
X4019Y6929D01*
Y6917D01*
X4025Y6905D01*
X4031Y6899D01*
X4043Y6893D01*
X4079Y6881D01*
X4090Y6875D01*
X4096Y6869D01*
X4102Y6857D01*
Y6839D01*
X4090Y6827D01*
X4073Y6822D01*
X4049D01*
X4031Y6827D01*
X4019Y6839D01*
X4324Y6822D02*
X4276Y6946D01*
X4228Y6822D01*
X4246Y6863D02*
X4306D01*
X4353Y6946D02*
Y6822D01*
Y6946D02*
X4436Y6822D01*
Y6946D02*
Y6822D01*
X4471Y6946D02*
Y6822D01*
Y6946D02*
X4512D01*
X4530Y6941D01*
X4542Y6929D01*
X4548Y6917D01*
X4554Y6899D01*
Y6869D01*
X4548Y6851D01*
X4542Y6839D01*
X4530Y6827D01*
X4512Y6822D01*
X4471D01*
X4680Y6881D02*
X4734D01*
X4752Y6887D01*
X4758Y6893D01*
X4763Y6905D01*
Y6923D01*
X4758Y6935D01*
X4752Y6941D01*
X4734Y6946D01*
X4680D01*
Y6822D01*
X4887D02*
X4839Y6946D01*
X4791Y6822D01*
X4809Y6863D02*
X4869D01*
X4916Y6946D02*
Y6822D01*
Y6946D02*
X4957D01*
X4975Y6941D01*
X4987Y6929D01*
X4993Y6917D01*
X4999Y6899D01*
Y6869D01*
X4993Y6851D01*
X4987Y6839D01*
X4975Y6827D01*
X4957Y6822D01*
X4916D01*
X5110Y6929D02*
X5099Y6941D01*
X5081Y6946D01*
X5057D01*
X5039Y6941D01*
X5027Y6929D01*
Y6917D01*
X5033Y6905D01*
X5039Y6899D01*
X5051Y6893D01*
X5087Y6881D01*
X5099Y6875D01*
X5104Y6869D01*
X5110Y6857D01*
Y6839D01*
X5099Y6827D01*
X5081Y6822D01*
X5057D01*
X5039Y6827D01*
X5027Y6839D01*
X5278Y6946D02*
Y6822D01*
X5237Y6946D02*
X5320D01*
X5370D02*
X5359Y6941D01*
X5347Y6929D01*
X5341Y6917D01*
X5335Y6899D01*
Y6869D01*
X5341Y6851D01*
X5347Y6839D01*
X5359Y6827D01*
X5370Y6822D01*
X5394D01*
X5406Y6827D01*
X5418Y6839D01*
X5424Y6851D01*
X5430Y6869D01*
Y6899D01*
X5424Y6917D01*
X5418Y6929D01*
X5406Y6941D01*
X5394Y6946D01*
X5370D01*
X5557D02*
Y6822D01*
Y6946D02*
X5611D01*
X5629Y6941D01*
X5635Y6935D01*
X5641Y6923D01*
Y6911D01*
X5635Y6899D01*
X5629Y6893D01*
X5611Y6887D01*
X5557D02*
X5611D01*
X5629Y6881D01*
X5635Y6875D01*
X5641Y6863D01*
Y6845D01*
X5635Y6833D01*
X5629Y6827D01*
X5611Y6822D01*
X5557D01*
X5746Y6946D02*
X5669D01*
Y6822D01*
X5746D01*
X5669Y6887D02*
X5716D01*
X5948Y6929D02*
X5936Y6941D01*
X5919Y6946D01*
X5895D01*
X5877Y6941D01*
X5865Y6929D01*
Y6917D01*
X5871Y6905D01*
X5877Y6899D01*
X5889Y6893D01*
X5925Y6881D01*
X5936Y6875D01*
X5942Y6869D01*
X5948Y6857D01*
Y6839D01*
X5936Y6827D01*
X5919Y6822D01*
X5895D01*
X5877Y6827D01*
X5865Y6839D01*
X6072Y6822D02*
X6024Y6946D01*
X5976Y6822D01*
X5994Y6863D02*
X6054D01*
X6190Y6917D02*
X6184Y6929D01*
X6172Y6941D01*
X6160Y6946D01*
X6136D01*
X6125Y6941D01*
X6113Y6929D01*
X6107Y6917D01*
X6101Y6899D01*
Y6869D01*
X6107Y6851D01*
X6113Y6839D01*
X6125Y6827D01*
X6136Y6822D01*
X6160D01*
X6172Y6827D01*
X6184Y6839D01*
X6190Y6851D01*
X6335Y6946D02*
X6401D01*
X6365Y6899D01*
X6383D01*
X6395Y6893D01*
X6401Y6887D01*
X6407Y6869D01*
Y6857D01*
X6401Y6839D01*
X6389Y6827D01*
X6371Y6822D01*
X6353D01*
X6335Y6827D01*
X6329Y6833D01*
X6323Y6845D01*
X6470Y6946D02*
X6452Y6941D01*
X6441Y6923D01*
X6435Y6893D01*
Y6875D01*
X6441Y6845D01*
X6452Y6827D01*
X6470Y6822D01*
X6482D01*
X6500Y6827D01*
X6512Y6845D01*
X6518Y6875D01*
Y6893D01*
X6512Y6923D01*
X6500Y6941D01*
X6482Y6946D01*
X6470D01*
X6617D02*
X6558D01*
X6552Y6893D01*
X6558Y6899D01*
X6576Y6905D01*
X6593D01*
X6611Y6899D01*
X6623Y6887D01*
X6629Y6869D01*
Y6857D01*
X6623Y6839D01*
X6611Y6827D01*
X6593Y6822D01*
X6576D01*
X6558Y6827D01*
X6552Y6833D01*
X6546Y6845D01*
X6669Y6827D02*
X6663Y6822D01*
X6657Y6827D01*
X6663Y6833D01*
X6669Y6827D01*
Y6816D01*
X6663Y6804D01*
X6657Y6798D01*
X563Y7146D02*
Y7022D01*
Y7146D02*
X616D01*
X634Y7141D01*
X640Y7135D01*
X646Y7123D01*
Y7111D01*
X640Y7099D01*
X634Y7093D01*
X616Y7087D01*
X563D02*
X616D01*
X634Y7081D01*
X640Y7075D01*
X646Y7063D01*
Y7045D01*
X640Y7033D01*
X634Y7027D01*
X616Y7022D01*
X563D01*
X710Y7146D02*
X698Y7141D01*
X686Y7129D01*
X680Y7117D01*
X674Y7099D01*
Y7069D01*
X680Y7051D01*
X686Y7039D01*
X698Y7027D01*
X710Y7022D01*
X733D01*
X745Y7027D01*
X757Y7039D01*
X763Y7051D01*
X769Y7069D01*
Y7099D01*
X763Y7117D01*
X757Y7129D01*
X745Y7141D01*
X733Y7146D01*
X710D01*
X893Y7022D02*
X846Y7146D01*
X798Y7022D01*
X816Y7063D02*
X876D01*
X923Y7146D02*
Y7022D01*
Y7146D02*
X976D01*
X994Y7141D01*
X1000Y7135D01*
X1006Y7123D01*
Y7111D01*
X1000Y7099D01*
X994Y7093D01*
X976Y7087D01*
X923D01*
X964D02*
X1006Y7022D01*
X1034Y7146D02*
Y7022D01*
Y7146D02*
X1076D01*
X1093Y7141D01*
X1105Y7129D01*
X1111Y7117D01*
X1117Y7099D01*
Y7069D01*
X1111Y7051D01*
X1105Y7039D01*
X1093Y7027D01*
X1076Y7022D01*
X1034D01*
X1285Y7146D02*
Y7022D01*
X1243Y7146D02*
X1327D01*
X1377D02*
X1365Y7141D01*
X1354Y7129D01*
X1348Y7117D01*
X1342Y7099D01*
Y7069D01*
X1348Y7051D01*
X1354Y7039D01*
X1365Y7027D01*
X1377Y7022D01*
X1401D01*
X1413Y7027D01*
X1425Y7039D01*
X1431Y7051D01*
X1437Y7069D01*
Y7099D01*
X1431Y7117D01*
X1425Y7129D01*
X1413Y7141D01*
X1401Y7146D01*
X1377D01*
X1564D02*
Y7022D01*
Y7146D02*
X1618D01*
X1636Y7141D01*
X1642Y7135D01*
X1647Y7123D01*
Y7111D01*
X1642Y7099D01*
X1636Y7093D01*
X1618Y7087D01*
X1564D02*
X1618D01*
X1636Y7081D01*
X1642Y7075D01*
X1647Y7063D01*
Y7045D01*
X1642Y7033D01*
X1636Y7027D01*
X1618Y7022D01*
X1564D01*
X1753Y7146D02*
X1675D01*
Y7022D01*
X1753D01*
X1675Y7087D02*
X1723D01*
X1872Y7146D02*
Y7022D01*
Y7146D02*
X1949D01*
X1872Y7087D02*
X1919D01*
X2059Y7022D02*
X2011Y7146D01*
X1963Y7022D01*
X1981Y7063D02*
X2041D01*
X2088Y7146D02*
Y7022D01*
Y7146D02*
X2141D01*
X2159Y7141D01*
X2165Y7135D01*
X2171Y7123D01*
Y7111D01*
X2165Y7099D01*
X2159Y7093D01*
X2141Y7087D01*
X2088D02*
X2141D01*
X2159Y7081D01*
X2165Y7075D01*
X2171Y7063D01*
Y7045D01*
X2165Y7033D01*
X2159Y7027D01*
X2141Y7022D01*
X2088D01*
X2199Y7146D02*
Y7022D01*
Y7146D02*
X2253D01*
X2271Y7141D01*
X2277Y7135D01*
X2282Y7123D01*
Y7111D01*
X2277Y7099D01*
X2271Y7093D01*
X2253Y7087D01*
X2199D01*
X2241D02*
X2282Y7022D01*
X2310Y7146D02*
Y7022D01*
X2426Y7117D02*
X2420Y7129D01*
X2408Y7141D01*
X2396Y7146D01*
X2372D01*
X2360Y7141D01*
X2349Y7129D01*
X2343Y7117D01*
X2337Y7099D01*
Y7069D01*
X2343Y7051D01*
X2349Y7039D01*
X2360Y7027D01*
X2372Y7022D01*
X2396D01*
X2408Y7027D01*
X2420Y7039D01*
X2426Y7051D01*
X2556Y7022D02*
X2509Y7146D01*
X2461Y7022D01*
X2479Y7063D02*
X2538D01*
X2627Y7146D02*
Y7022D01*
X2585Y7146D02*
X2669D01*
X2761D02*
X2684D01*
Y7022D01*
X2761D01*
X2684Y7087D02*
X2731D01*
X2782Y7146D02*
Y7022D01*
Y7146D02*
X2823D01*
X2841Y7141D01*
X2853Y7129D01*
X2859Y7117D01*
X2865Y7099D01*
Y7069D01*
X2859Y7051D01*
X2853Y7039D01*
X2841Y7027D01*
X2823Y7022D01*
X2782D01*
X3086D02*
X3039Y7146D01*
X2991Y7022D01*
X3009Y7063D02*
X3069D01*
X3199Y7129D02*
X3187Y7141D01*
X3169Y7146D01*
X3145D01*
X3128Y7141D01*
X3116Y7129D01*
Y7117D01*
X3122Y7105D01*
X3128Y7099D01*
X3139Y7093D01*
X3175Y7081D01*
X3187Y7075D01*
X3193Y7069D01*
X3199Y7057D01*
Y7039D01*
X3187Y7027D01*
X3169Y7022D01*
X3145D01*
X3128Y7027D01*
X3116Y7039D01*
X3325Y7146D02*
Y7022D01*
Y7146D02*
X3379D01*
X3397Y7141D01*
X3402Y7135D01*
X3408Y7123D01*
Y7111D01*
X3402Y7099D01*
X3397Y7093D01*
X3379Y7087D01*
X3325D02*
X3379D01*
X3397Y7081D01*
X3402Y7075D01*
X3408Y7063D01*
Y7045D01*
X3402Y7033D01*
X3397Y7027D01*
X3379Y7022D01*
X3325D01*
X3436Y7146D02*
Y7022D01*
X3508D01*
X3617D02*
X3569Y7146D01*
X3521Y7022D01*
X3539Y7063D02*
X3599D01*
X3735Y7117D02*
X3729Y7129D01*
X3717Y7141D01*
X3705Y7146D01*
X3682D01*
X3670Y7141D01*
X3658Y7129D01*
X3652Y7117D01*
X3646Y7099D01*
Y7069D01*
X3652Y7051D01*
X3658Y7039D01*
X3670Y7027D01*
X3682Y7022D01*
X3705D01*
X3717Y7027D01*
X3729Y7039D01*
X3735Y7051D01*
X3770Y7146D02*
Y7022D01*
X3854Y7146D02*
X3770Y7063D01*
X3800Y7093D02*
X3854Y7022D01*
X4063Y7129D02*
X4051Y7141D01*
X4033Y7146D01*
X4009D01*
X3992Y7141D01*
X3980Y7129D01*
Y7117D01*
X3986Y7105D01*
X3992Y7099D01*
X4004Y7093D01*
X4039Y7081D01*
X4051Y7075D01*
X4057Y7069D01*
X4063Y7057D01*
Y7039D01*
X4051Y7027D01*
X4033Y7022D01*
X4009D01*
X3992Y7027D01*
X3980Y7039D01*
X4127Y7146D02*
X4115Y7141D01*
X4103Y7129D01*
X4097Y7117D01*
X4091Y7099D01*
Y7069D01*
X4097Y7051D01*
X4103Y7039D01*
X4115Y7027D01*
X4127Y7022D01*
X4151D01*
X4162Y7027D01*
X4174Y7039D01*
X4180Y7051D01*
X4186Y7069D01*
Y7099D01*
X4180Y7117D01*
X4174Y7129D01*
X4162Y7141D01*
X4151Y7146D01*
X4127D01*
X4215D02*
Y7022D01*
X4287D01*
X4300Y7146D02*
Y7022D01*
Y7146D02*
X4342D01*
X4360Y7141D01*
X4372Y7129D01*
X4378Y7117D01*
X4384Y7099D01*
Y7069D01*
X4378Y7051D01*
X4372Y7039D01*
X4360Y7027D01*
X4342Y7022D01*
X4300D01*
X4489Y7146D02*
X4412D01*
Y7022D01*
X4489D01*
X4412Y7087D02*
X4459D01*
X4510Y7146D02*
Y7022D01*
Y7146D02*
X4564D01*
X4581Y7141D01*
X4587Y7135D01*
X4593Y7123D01*
Y7111D01*
X4587Y7099D01*
X4581Y7093D01*
X4564Y7087D01*
X4510D01*
X4552D02*
X4593Y7022D01*
X4621Y7146D02*
Y7022D01*
Y7146D02*
X4669Y7022D01*
X4716Y7146D02*
X4669Y7022D01*
X4716Y7146D02*
Y7022D01*
X4847D02*
X4800Y7146D01*
X4752Y7022D01*
X4770Y7063D02*
X4830D01*
X4960Y7129D02*
X4948Y7141D01*
X4930Y7146D01*
X4906D01*
X4888Y7141D01*
X4877Y7129D01*
Y7117D01*
X4883Y7105D01*
X4888Y7099D01*
X4900Y7093D01*
X4936Y7081D01*
X4948Y7075D01*
X4954Y7069D01*
X4960Y7057D01*
Y7039D01*
X4948Y7027D01*
X4930Y7022D01*
X4906D01*
X4888Y7027D01*
X4877Y7039D01*
X4988Y7146D02*
Y7022D01*
X5071Y7146D02*
X4988Y7063D01*
X5018Y7093D02*
X5071Y7022D01*
X5233Y7146D02*
X5221Y7141D01*
X5209Y7129D01*
X5203Y7117D01*
X5197Y7099D01*
Y7069D01*
X5203Y7051D01*
X5209Y7039D01*
X5221Y7027D01*
X5233Y7022D01*
X5257D01*
X5269Y7027D01*
X5281Y7039D01*
X5287Y7051D01*
X5293Y7069D01*
Y7099D01*
X5287Y7117D01*
X5281Y7129D01*
X5269Y7141D01*
X5257Y7146D01*
X5233D01*
X5322D02*
X5369Y7022D01*
X5417Y7146D02*
X5369Y7022D01*
X5510Y7146D02*
X5433D01*
Y7022D01*
X5510D01*
X5433Y7087D02*
X5481D01*
X5531Y7146D02*
Y7022D01*
Y7146D02*
X5585D01*
X5603Y7141D01*
X5609Y7135D01*
X5614Y7123D01*
Y7111D01*
X5609Y7099D01*
X5603Y7093D01*
X5585Y7087D01*
X5531D01*
X5573D02*
X5614Y7022D01*
X5741Y7146D02*
Y7022D01*
Y7146D02*
X5794D01*
X5812Y7141D01*
X5818Y7135D01*
X5824Y7123D01*
Y7111D01*
X5818Y7099D01*
X5812Y7093D01*
X5794Y7087D01*
X5741D02*
X5794D01*
X5812Y7081D01*
X5818Y7075D01*
X5824Y7063D01*
Y7045D01*
X5818Y7033D01*
X5812Y7027D01*
X5794Y7022D01*
X5741D01*
X5947D02*
X5900Y7146D01*
X5852Y7022D01*
X5870Y7063D02*
X5929D01*
X5976Y7146D02*
Y7022D01*
Y7146D02*
X6030D01*
X6048Y7141D01*
X6054Y7135D01*
X6060Y7123D01*
Y7111D01*
X6054Y7099D01*
X6048Y7093D01*
X6030Y7087D01*
X5976D01*
X6018D02*
X6060Y7022D01*
X6165Y7146D02*
X6088D01*
Y7022D01*
X6165D01*
X6088Y7087D02*
X6135D01*
X6373Y7117D02*
X6367Y7129D01*
X6355Y7141D01*
X6344Y7146D01*
X6320D01*
X6308Y7141D01*
X6296Y7129D01*
X6290Y7117D01*
X6284Y7099D01*
Y7069D01*
X6290Y7051D01*
X6296Y7039D01*
X6308Y7027D01*
X6320Y7022D01*
X6344D01*
X6355Y7027D01*
X6367Y7039D01*
X6373Y7051D01*
X6444Y7146D02*
X6432Y7141D01*
X6420Y7129D01*
X6414Y7117D01*
X6408Y7099D01*
Y7069D01*
X6414Y7051D01*
X6420Y7039D01*
X6432Y7027D01*
X6444Y7022D01*
X6468D01*
X6480Y7027D01*
X6492Y7039D01*
X6498Y7051D01*
X6504Y7069D01*
Y7099D01*
X6498Y7117D01*
X6492Y7129D01*
X6480Y7141D01*
X6468Y7146D01*
X6444D01*
X6533Y7081D02*
X6586D01*
X6604Y7087D01*
X6610Y7093D01*
X6616Y7105D01*
Y7123D01*
X6610Y7135D01*
X6604Y7141D01*
X6586Y7146D01*
X6533D01*
Y7022D01*
X6644Y7081D02*
X6698D01*
X6715Y7087D01*
X6721Y7093D01*
X6727Y7105D01*
Y7123D01*
X6721Y7135D01*
X6715Y7141D01*
X6698Y7146D01*
X6644D01*
Y7022D01*
X6833Y7146D02*
X6755D01*
Y7022D01*
X6833D01*
X6755Y7087D02*
X6803D01*
X6854Y7146D02*
Y7022D01*
Y7146D02*
X6907D01*
X6925Y7141D01*
X6931Y7135D01*
X6937Y7123D01*
Y7111D01*
X6931Y7099D01*
X6925Y7093D01*
X6907Y7087D01*
X6854D01*
X6895D02*
X6937Y7022D01*
X6977Y7027D02*
X6971Y7022D01*
X6965Y7027D01*
X6971Y7033D01*
X6977Y7027D01*
Y7016D01*
X6971Y7004D01*
X6965Y6998D01*
X604Y7446D02*
Y7322D01*
X563Y7446D02*
X646D01*
X661D02*
Y7322D01*
X744Y7446D02*
Y7322D01*
X661Y7387D02*
X744D01*
X779Y7446D02*
Y7322D01*
X894Y7417D02*
X888Y7429D01*
X876Y7441D01*
X864Y7446D01*
X841D01*
X829Y7441D01*
X817Y7429D01*
X811Y7417D01*
X805Y7399D01*
Y7369D01*
X811Y7351D01*
X817Y7339D01*
X829Y7327D01*
X841Y7322D01*
X864D01*
X876Y7327D01*
X888Y7339D01*
X894Y7351D01*
X929Y7446D02*
Y7322D01*
X1013Y7446D02*
X929Y7363D01*
X959Y7393D02*
X1013Y7322D01*
X1234D02*
X1186Y7446D01*
X1139Y7322D01*
X1157Y7363D02*
X1216D01*
X1263Y7446D02*
Y7322D01*
Y7446D02*
X1346Y7322D01*
Y7446D02*
Y7322D01*
X1381Y7446D02*
Y7322D01*
Y7446D02*
X1423D01*
X1440Y7441D01*
X1452Y7429D01*
X1458Y7417D01*
X1464Y7399D01*
Y7369D01*
X1458Y7351D01*
X1452Y7339D01*
X1440Y7327D01*
X1423Y7322D01*
X1381D01*
X1686D02*
X1638Y7446D01*
X1590Y7322D01*
X1608Y7363D02*
X1668D01*
X1813Y7446D02*
Y7322D01*
Y7446D02*
X1861Y7322D01*
X1908Y7446D02*
X1861Y7322D01*
X1908Y7446D02*
Y7322D01*
X2039D02*
X1991Y7446D01*
X1944Y7322D01*
X1962Y7363D02*
X2021D01*
X2068Y7446D02*
X2152Y7322D01*
Y7446D02*
X2068Y7322D01*
X2180Y7446D02*
Y7322D01*
X2206Y7446D02*
Y7322D01*
Y7446D02*
X2253Y7322D01*
X2301Y7446D02*
X2253Y7322D01*
X2301Y7446D02*
Y7322D01*
X2337Y7446D02*
Y7357D01*
X2343Y7339D01*
X2354Y7327D01*
X2372Y7322D01*
X2384D01*
X2402Y7327D01*
X2414Y7339D01*
X2420Y7357D01*
Y7446D01*
X2454D02*
Y7322D01*
Y7446D02*
X2502Y7322D01*
X2550Y7446D02*
X2502Y7322D01*
X2550Y7446D02*
Y7322D01*
X2719Y7446D02*
X2707Y7441D01*
X2695Y7429D01*
X2690Y7417D01*
X2684Y7399D01*
Y7369D01*
X2690Y7351D01*
X2695Y7339D01*
X2707Y7327D01*
X2719Y7322D01*
X2743D01*
X2755Y7327D01*
X2767Y7339D01*
X2773Y7351D01*
X2779Y7369D01*
Y7399D01*
X2773Y7417D01*
X2767Y7429D01*
X2755Y7441D01*
X2743Y7446D01*
X2719D01*
X2808D02*
Y7322D01*
Y7446D02*
X2885D01*
X2808Y7387D02*
X2856D01*
X3004Y7333D02*
X2998Y7327D01*
X3004Y7322D01*
X3010Y7327D01*
X3004Y7333D01*
X3073Y7446D02*
X3055Y7441D01*
X3043Y7423D01*
X3037Y7393D01*
Y7375D01*
X3043Y7345D01*
X3055Y7327D01*
X3073Y7322D01*
X3085D01*
X3103Y7327D01*
X3114Y7345D01*
X3120Y7375D01*
Y7393D01*
X3114Y7423D01*
X3103Y7441D01*
X3085Y7446D01*
X3073D01*
X3184D02*
X3166Y7441D01*
X3154Y7423D01*
X3148Y7393D01*
Y7375D01*
X3154Y7345D01*
X3166Y7327D01*
X3184Y7322D01*
X3196D01*
X3214Y7327D01*
X3226Y7345D01*
X3232Y7375D01*
Y7393D01*
X3226Y7423D01*
X3214Y7441D01*
X3196Y7446D01*
X3184D01*
X3260Y7423D02*
X3272Y7429D01*
X3289Y7446D01*
Y7322D01*
X3423Y7446D02*
X3363D01*
X3357Y7393D01*
X3363Y7399D01*
X3381Y7405D01*
X3399D01*
X3417Y7399D01*
X3429Y7387D01*
X3435Y7369D01*
Y7357D01*
X3429Y7339D01*
X3417Y7327D01*
X3399Y7322D01*
X3381D01*
X3363Y7327D01*
X3357Y7333D01*
X3351Y7345D01*
X3602Y7446D02*
Y7322D01*
X3561Y7446D02*
X3644D01*
X3659D02*
Y7322D01*
X3742Y7446D02*
Y7322D01*
X3659Y7387D02*
X3742D01*
X3777Y7446D02*
Y7322D01*
X3892Y7417D02*
X3886Y7429D01*
X3874Y7441D01*
X3862Y7446D01*
X3839D01*
X3827Y7441D01*
X3815Y7429D01*
X3809Y7417D01*
X3803Y7399D01*
Y7369D01*
X3809Y7351D01*
X3815Y7339D01*
X3827Y7327D01*
X3839Y7322D01*
X3862D01*
X3874Y7327D01*
X3886Y7339D01*
X3892Y7351D01*
X3927Y7446D02*
Y7322D01*
X4011Y7446D02*
X3927Y7363D01*
X3957Y7393D02*
X4011Y7322D01*
X4137Y7381D02*
X4190D01*
X4208Y7387D01*
X4214Y7393D01*
X4220Y7405D01*
Y7423D01*
X4214Y7435D01*
X4208Y7441D01*
X4190Y7446D01*
X4137D01*
Y7322D01*
X4325Y7446D02*
X4248D01*
Y7322D01*
X4325D01*
X4248Y7387D02*
X4296D01*
X4346Y7446D02*
Y7322D01*
Y7446D02*
X4400D01*
X4418Y7441D01*
X4424Y7435D01*
X4430Y7423D01*
Y7411D01*
X4424Y7399D01*
X4418Y7393D01*
X4400Y7387D01*
X4346D01*
X4388D02*
X4430Y7322D01*
X4556Y7446D02*
Y7322D01*
X4582Y7381D02*
X4636D01*
X4653Y7387D01*
X4659Y7393D01*
X4665Y7405D01*
Y7423D01*
X4659Y7435D01*
X4653Y7441D01*
X4636Y7446D01*
X4582D01*
Y7322D01*
X4783Y7417D02*
X4777Y7429D01*
X4765Y7441D01*
X4753Y7446D01*
X4729D01*
X4717Y7441D01*
X4705Y7429D01*
X4699Y7417D01*
X4693Y7399D01*
Y7369D01*
X4699Y7351D01*
X4705Y7339D01*
X4717Y7327D01*
X4729Y7322D01*
X4753D01*
X4765Y7327D01*
X4777Y7339D01*
X4783Y7351D01*
X4818Y7375D02*
X4925D01*
X5033Y7429D02*
X5027Y7441D01*
X5009Y7446D01*
X4997D01*
X4980Y7441D01*
X4968Y7423D01*
X4962Y7393D01*
Y7363D01*
X4968Y7339D01*
X4980Y7327D01*
X4997Y7322D01*
X5003D01*
X5021Y7327D01*
X5033Y7339D01*
X5039Y7357D01*
Y7363D01*
X5033Y7381D01*
X5021Y7393D01*
X5003Y7399D01*
X4997D01*
X4980Y7393D01*
X4968Y7381D01*
X4962Y7363D01*
X5102Y7446D02*
X5084Y7441D01*
X5072Y7423D01*
X5066Y7393D01*
Y7375D01*
X5072Y7345D01*
X5084Y7327D01*
X5102Y7322D01*
X5114D01*
X5132Y7327D01*
X5144Y7345D01*
X5150Y7375D01*
Y7393D01*
X5144Y7423D01*
X5132Y7441D01*
X5114Y7446D01*
X5102D01*
X5178Y7423D02*
X5190Y7429D01*
X5207Y7446D01*
Y7322D01*
X5275Y7417D02*
Y7423D01*
X5281Y7435D01*
X5287Y7441D01*
X5299Y7446D01*
X5323D01*
X5335Y7441D01*
X5341Y7435D01*
X5347Y7423D01*
Y7411D01*
X5341Y7399D01*
X5329Y7381D01*
X5269Y7322D01*
X5353D01*
X5381Y7446D02*
Y7322D01*
Y7446D02*
X5434D01*
X5452Y7441D01*
X5458Y7435D01*
X5464Y7423D01*
Y7411D01*
X5458Y7399D01*
X5452Y7393D01*
X5434Y7387D01*
X5381D02*
X5434D01*
X5452Y7381D01*
X5458Y7375D01*
X5464Y7363D01*
Y7345D01*
X5458Y7333D01*
X5452Y7327D01*
X5434Y7322D01*
X5381D01*
X5498Y7333D02*
X5492Y7327D01*
X5498Y7322D01*
X5504Y7327D01*
X5498Y7333D01*
X652Y7617D02*
X646Y7629D01*
X634Y7641D01*
X622Y7646D01*
X598D01*
X586Y7641D01*
X575Y7629D01*
X569Y7617D01*
X563Y7599D01*
Y7569D01*
X569Y7551D01*
X575Y7539D01*
X586Y7527D01*
X598Y7522D01*
X622D01*
X634Y7527D01*
X646Y7539D01*
X652Y7551D01*
X723Y7646D02*
X711Y7641D01*
X699Y7629D01*
X693Y7617D01*
X687Y7599D01*
Y7569D01*
X693Y7551D01*
X699Y7539D01*
X711Y7527D01*
X723Y7522D01*
X746D01*
X758Y7527D01*
X770Y7539D01*
X776Y7551D01*
X782Y7569D01*
Y7599D01*
X776Y7617D01*
X770Y7629D01*
X758Y7641D01*
X746Y7646D01*
X723D01*
X811Y7581D02*
X865D01*
X883Y7587D01*
X889Y7593D01*
X895Y7605D01*
Y7623D01*
X889Y7635D01*
X883Y7641D01*
X865Y7646D01*
X811D01*
Y7522D01*
X923Y7581D02*
X976D01*
X994Y7587D01*
X1000Y7593D01*
X1006Y7605D01*
Y7623D01*
X1000Y7635D01*
X994Y7641D01*
X976Y7646D01*
X923D01*
Y7522D01*
X1111Y7646D02*
X1034D01*
Y7522D01*
X1111D01*
X1034Y7587D02*
X1082D01*
X1132Y7646D02*
Y7522D01*
Y7646D02*
X1186D01*
X1204Y7641D01*
X1209Y7635D01*
X1215Y7623D01*
Y7611D01*
X1209Y7599D01*
X1204Y7593D01*
X1186Y7587D01*
X1132D01*
X1174D02*
X1215Y7522D01*
X1342Y7581D02*
X1395D01*
X1413Y7587D01*
X1419Y7593D01*
X1425Y7605D01*
Y7623D01*
X1419Y7635D01*
X1413Y7641D01*
X1395Y7646D01*
X1342D01*
Y7522D01*
X1453Y7646D02*
Y7522D01*
X1524D01*
X1633D02*
X1586Y7646D01*
X1538Y7522D01*
X1556Y7563D02*
X1615D01*
X1704Y7646D02*
Y7522D01*
X1662Y7646D02*
X1746D01*
X1838D02*
X1761D01*
Y7522D01*
X1838D01*
X1761Y7587D02*
X1808D01*
X1957Y7646D02*
Y7522D01*
Y7646D02*
X2034D01*
X1957Y7587D02*
X2005D01*
X2084Y7646D02*
X2072Y7641D01*
X2060Y7629D01*
X2055Y7617D01*
X2049Y7599D01*
Y7569D01*
X2055Y7551D01*
X2060Y7539D01*
X2072Y7527D01*
X2084Y7522D01*
X2108D01*
X2120Y7527D01*
X2132Y7539D01*
X2138Y7551D01*
X2144Y7569D01*
Y7599D01*
X2138Y7617D01*
X2132Y7629D01*
X2120Y7641D01*
X2108Y7646D01*
X2084D01*
X2173D02*
Y7522D01*
Y7646D02*
X2227D01*
X2244Y7641D01*
X2250Y7635D01*
X2256Y7623D01*
Y7611D01*
X2250Y7599D01*
X2244Y7593D01*
X2227Y7587D01*
X2173D01*
X2215D02*
X2256Y7522D01*
X2424Y7646D02*
Y7522D01*
X2382Y7646D02*
X2466D01*
X2481D02*
Y7522D01*
X2564Y7646D02*
Y7522D01*
X2481Y7587D02*
X2564D01*
X2598Y7646D02*
Y7522D01*
Y7646D02*
X2652D01*
X2670Y7641D01*
X2676Y7635D01*
X2682Y7623D01*
Y7611D01*
X2676Y7599D01*
X2670Y7593D01*
X2652Y7587D01*
X2598D01*
X2640D02*
X2682Y7522D01*
X2710Y7646D02*
Y7557D01*
X2716Y7539D01*
X2728Y7527D01*
X2745Y7522D01*
X2757D01*
X2775Y7527D01*
X2787Y7539D01*
X2793Y7557D01*
Y7646D01*
X2828Y7575D02*
X2935D01*
X2972Y7646D02*
Y7522D01*
X3055Y7646D02*
Y7522D01*
X2972Y7587D02*
X3055D01*
X3125Y7646D02*
X3113Y7641D01*
X3101Y7629D01*
X3095Y7617D01*
X3089Y7599D01*
Y7569D01*
X3095Y7551D01*
X3101Y7539D01*
X3113Y7527D01*
X3125Y7522D01*
X3149D01*
X3161Y7527D01*
X3173Y7539D01*
X3179Y7551D01*
X3185Y7569D01*
Y7599D01*
X3179Y7617D01*
X3173Y7629D01*
X3161Y7641D01*
X3149Y7646D01*
X3125D01*
X3214D02*
Y7522D01*
X3285D01*
X3376Y7646D02*
X3299D01*
Y7522D01*
X3376D01*
X3299Y7587D02*
X3347D01*
X3480Y7629D02*
X3469Y7641D01*
X3451Y7646D01*
X3427D01*
X3409Y7641D01*
X3397Y7629D01*
Y7617D01*
X3403Y7605D01*
X3409Y7599D01*
X3421Y7593D01*
X3457Y7581D01*
X3469Y7575D01*
X3474Y7569D01*
X3480Y7557D01*
Y7539D01*
X3469Y7527D01*
X3451Y7522D01*
X3427D01*
X3409Y7527D01*
X3397Y7539D01*
X3690Y7629D02*
X3678Y7641D01*
X3660Y7646D01*
X3636D01*
X3618Y7641D01*
X3607Y7629D01*
Y7617D01*
X3613Y7605D01*
X3618Y7599D01*
X3630Y7593D01*
X3666Y7581D01*
X3678Y7575D01*
X3684Y7569D01*
X3690Y7557D01*
Y7539D01*
X3678Y7527D01*
X3660Y7522D01*
X3636D01*
X3618Y7527D01*
X3607Y7539D01*
X3718Y7646D02*
Y7522D01*
X3801Y7646D02*
Y7522D01*
X3718Y7587D02*
X3801D01*
X3931Y7522D02*
X3883Y7646D01*
X3836Y7522D01*
X3854Y7563D02*
X3913D01*
X3960Y7646D02*
Y7522D01*
X4031D01*
X4045Y7646D02*
Y7522D01*
X4117D01*
X4228Y7646D02*
Y7522D01*
Y7646D02*
X4282D01*
X4300Y7641D01*
X4306Y7635D01*
X4312Y7623D01*
Y7611D01*
X4306Y7599D01*
X4300Y7593D01*
X4282Y7587D01*
X4228D02*
X4282D01*
X4300Y7581D01*
X4306Y7575D01*
X4312Y7563D01*
Y7545D01*
X4306Y7533D01*
X4300Y7527D01*
X4282Y7522D01*
X4228D01*
X4417Y7646D02*
X4340D01*
Y7522D01*
X4417D01*
X4340Y7587D02*
X4387D01*
X4631Y7522D02*
X4584Y7646D01*
X4536Y7522D01*
X4554Y7563D02*
X4614D01*
X4759Y7646D02*
Y7522D01*
Y7646D02*
X4806Y7522D01*
X4854Y7646D02*
X4806Y7522D01*
X4854Y7646D02*
Y7522D01*
X4890Y7646D02*
Y7522D01*
X4916Y7646D02*
Y7522D01*
Y7646D02*
X4999Y7522D01*
Y7646D02*
Y7522D01*
X5034Y7646D02*
Y7522D01*
X5060Y7646D02*
Y7522D01*
Y7646D02*
X5107Y7522D01*
X5155Y7646D02*
X5107Y7522D01*
X5155Y7646D02*
Y7522D01*
X5191Y7646D02*
Y7557D01*
X5197Y7539D01*
X5209Y7527D01*
X5226Y7522D01*
X5238D01*
X5256Y7527D01*
X5268Y7539D01*
X5274Y7557D01*
Y7646D01*
X5309D02*
Y7522D01*
Y7646D02*
X5356Y7522D01*
X5404Y7646D02*
X5356Y7522D01*
X5404Y7646D02*
Y7522D01*
X5573Y7646D02*
X5562Y7641D01*
X5550Y7629D01*
X5544Y7617D01*
X5538Y7599D01*
Y7569D01*
X5544Y7551D01*
X5550Y7539D01*
X5562Y7527D01*
X5573Y7522D01*
X5597D01*
X5609Y7527D01*
X5621Y7539D01*
X5627Y7551D01*
X5633Y7569D01*
Y7599D01*
X5627Y7617D01*
X5621Y7629D01*
X5609Y7641D01*
X5597Y7646D01*
X5573D01*
X5662D02*
Y7522D01*
Y7646D02*
X5739D01*
X5662Y7587D02*
X5710D01*
X5858Y7533D02*
X5852Y7527D01*
X5858Y7522D01*
X5864Y7527D01*
X5858Y7533D01*
X5927Y7646D02*
X5909Y7641D01*
X5897Y7623D01*
X5891Y7593D01*
Y7575D01*
X5897Y7545D01*
X5909Y7527D01*
X5927Y7522D01*
X5939D01*
X5957Y7527D01*
X5969Y7545D01*
X5975Y7575D01*
Y7593D01*
X5969Y7623D01*
X5957Y7641D01*
X5939Y7646D01*
X5927D01*
X6038D02*
X6020Y7641D01*
X6008Y7623D01*
X6003Y7593D01*
Y7575D01*
X6008Y7545D01*
X6020Y7527D01*
X6038Y7522D01*
X6050D01*
X6068Y7527D01*
X6080Y7545D01*
X6086Y7575D01*
Y7593D01*
X6080Y7623D01*
X6068Y7641D01*
X6050Y7646D01*
X6038D01*
X6114Y7623D02*
X6126Y7629D01*
X6144Y7646D01*
Y7522D01*
X6241Y7646D02*
X6223Y7641D01*
X6211Y7623D01*
X6205Y7593D01*
Y7575D01*
X6211Y7545D01*
X6223Y7527D01*
X6241Y7522D01*
X6253D01*
X6271Y7527D01*
X6283Y7545D01*
X6289Y7575D01*
Y7593D01*
X6283Y7623D01*
X6271Y7641D01*
X6253Y7646D01*
X6241D01*
X563Y7946D02*
Y7822D01*
X589Y7946D02*
Y7822D01*
Y7946D02*
X630D01*
X648Y7941D01*
X660Y7929D01*
X666Y7917D01*
X672Y7899D01*
Y7869D01*
X666Y7851D01*
X660Y7839D01*
X648Y7827D01*
X630Y7822D01*
X589D01*
X777Y7946D02*
X700D01*
Y7822D01*
X777D01*
X700Y7887D02*
X748D01*
X798Y7946D02*
Y7822D01*
Y7946D02*
X882Y7822D01*
Y7946D02*
Y7822D01*
X958Y7946D02*
Y7822D01*
X916Y7946D02*
X999D01*
X1014D02*
Y7822D01*
X1040Y7946D02*
Y7822D01*
Y7946D02*
X1118D01*
X1040Y7887D02*
X1088D01*
X1132Y7946D02*
Y7822D01*
X1248Y7917D02*
X1242Y7929D01*
X1230Y7941D01*
X1218Y7946D01*
X1194D01*
X1182Y7941D01*
X1170Y7929D01*
X1164Y7917D01*
X1158Y7899D01*
Y7869D01*
X1164Y7851D01*
X1170Y7839D01*
X1182Y7827D01*
X1194Y7822D01*
X1218D01*
X1230Y7827D01*
X1242Y7839D01*
X1248Y7851D01*
X1378Y7822D02*
X1330Y7946D01*
X1283Y7822D01*
X1301Y7863D02*
X1360D01*
X1449Y7946D02*
Y7822D01*
X1407Y7946D02*
X1490D01*
X1505D02*
Y7822D01*
X1567Y7946D02*
X1555Y7941D01*
X1543Y7929D01*
X1537Y7917D01*
X1531Y7899D01*
Y7869D01*
X1537Y7851D01*
X1543Y7839D01*
X1555Y7827D01*
X1567Y7822D01*
X1591D01*
X1603Y7827D01*
X1615Y7839D01*
X1621Y7851D01*
X1627Y7869D01*
Y7899D01*
X1621Y7917D01*
X1615Y7929D01*
X1603Y7941D01*
X1591Y7946D01*
X1567D01*
X1656D02*
Y7822D01*
Y7946D02*
X1739Y7822D01*
Y7946D02*
Y7822D01*
X1872Y7946D02*
Y7822D01*
Y7946D02*
X1914D01*
X1931Y7941D01*
X1943Y7929D01*
X1949Y7917D01*
X1955Y7899D01*
Y7869D01*
X1949Y7851D01*
X1943Y7839D01*
X1931Y7827D01*
X1914Y7822D01*
X1872D01*
X2060Y7946D02*
X1983D01*
Y7822D01*
X2060D01*
X1983Y7887D02*
X2031D01*
X2123Y7946D02*
Y7822D01*
X2081Y7946D02*
X2165D01*
X2275Y7822D02*
X2227Y7946D01*
X2180Y7822D01*
X2197Y7863D02*
X2257D01*
X2304Y7946D02*
Y7822D01*
X2330Y7946D02*
Y7822D01*
X2401D01*
X2421Y7833D02*
X2415Y7827D01*
X2421Y7822D01*
X2427Y7827D01*
X2421Y7833D01*
X563Y8146D02*
Y8022D01*
X634D01*
X743D02*
X695Y8146D01*
X648Y8022D01*
X666Y8063D02*
X725D01*
X772Y8146D02*
X820Y8087D01*
Y8022D01*
X867Y8146D02*
X820Y8087D01*
X961Y8146D02*
X883D01*
Y8022D01*
X961D01*
X883Y8087D02*
X931D01*
X982Y8146D02*
Y8022D01*
Y8146D02*
X1035D01*
X1053Y8141D01*
X1059Y8135D01*
X1065Y8123D01*
Y8111D01*
X1059Y8099D01*
X1053Y8093D01*
X1035Y8087D01*
X982D01*
X1023D02*
X1065Y8022D01*
X1227Y8146D02*
X1215Y8141D01*
X1203Y8129D01*
X1197Y8117D01*
X1191Y8099D01*
Y8069D01*
X1197Y8051D01*
X1203Y8039D01*
X1215Y8027D01*
X1227Y8022D01*
X1251D01*
X1262Y8027D01*
X1274Y8039D01*
X1280Y8051D01*
X1286Y8069D01*
Y8099D01*
X1280Y8117D01*
X1274Y8129D01*
X1262Y8141D01*
X1251Y8146D01*
X1227D01*
X1315D02*
Y8022D01*
Y8146D02*
X1369D01*
X1387Y8141D01*
X1393Y8135D01*
X1399Y8123D01*
Y8111D01*
X1393Y8099D01*
X1387Y8093D01*
X1369Y8087D01*
X1315D01*
X1357D02*
X1399Y8022D01*
X1427Y8146D02*
Y8022D01*
X1530Y8146D02*
X1453D01*
Y8022D01*
X1530D01*
X1453Y8087D02*
X1500D01*
X1551Y8146D02*
Y8022D01*
Y8146D02*
X1634Y8022D01*
Y8146D02*
Y8022D01*
X1711Y8146D02*
Y8022D01*
X1669Y8146D02*
X1752D01*
X1862Y8022D02*
X1815Y8146D01*
X1767Y8022D01*
X1785Y8063D02*
X1844D01*
X1933Y8146D02*
Y8022D01*
X1891Y8146D02*
X1975D01*
X1990D02*
Y8022D01*
X2052Y8146D02*
X2040Y8141D01*
X2028Y8129D01*
X2022Y8117D01*
X2016Y8099D01*
Y8069D01*
X2022Y8051D01*
X2028Y8039D01*
X2040Y8027D01*
X2052Y8022D01*
X2075D01*
X2087Y8027D01*
X2099Y8039D01*
X2105Y8051D01*
X2111Y8069D01*
Y8099D01*
X2105Y8117D01*
X2099Y8129D01*
X2087Y8141D01*
X2075Y8146D01*
X2052D01*
X2140D02*
Y8022D01*
Y8146D02*
X2224Y8022D01*
Y8146D02*
Y8022D01*
X2270Y8027D02*
X2264Y8022D01*
X2258Y8027D01*
X2264Y8033D01*
X2270Y8027D01*
Y8016D01*
X2264Y8004D01*
X2258Y7998D01*
X2491Y8022D02*
X2443Y8146D01*
X2396Y8022D01*
X2413Y8063D02*
X2473D01*
X2520Y8146D02*
Y8022D01*
Y8146D02*
X2603Y8022D01*
Y8146D02*
Y8022D01*
X2638Y8146D02*
Y8022D01*
Y8146D02*
X2679D01*
X2697Y8141D01*
X2709Y8129D01*
X2715Y8117D01*
X2721Y8099D01*
Y8069D01*
X2715Y8051D01*
X2709Y8039D01*
X2697Y8027D01*
X2679Y8022D01*
X2638D01*
X2936Y8117D02*
X2931Y8129D01*
X2919Y8141D01*
X2907Y8146D01*
X2883D01*
X2871Y8141D01*
X2859Y8129D01*
X2853Y8117D01*
X2847Y8099D01*
Y8069D01*
X2853Y8051D01*
X2859Y8039D01*
X2871Y8027D01*
X2883Y8022D01*
X2907D01*
X2919Y8027D01*
X2931Y8039D01*
X2936Y8051D01*
X3007Y8146D02*
X2995Y8141D01*
X2984Y8129D01*
X2978Y8117D01*
X2972Y8099D01*
Y8069D01*
X2978Y8051D01*
X2984Y8039D01*
X2995Y8027D01*
X3007Y8022D01*
X3031D01*
X3043Y8027D01*
X3055Y8039D01*
X3061Y8051D01*
X3067Y8069D01*
Y8099D01*
X3061Y8117D01*
X3055Y8129D01*
X3043Y8141D01*
X3031Y8146D01*
X3007D01*
X3096Y8081D02*
X3150D01*
X3167Y8087D01*
X3173Y8093D01*
X3179Y8105D01*
Y8123D01*
X3173Y8135D01*
X3167Y8141D01*
X3150Y8146D01*
X3096D01*
Y8022D01*
X3207Y8081D02*
X3261D01*
X3279Y8087D01*
X3285Y8093D01*
X3291Y8105D01*
Y8123D01*
X3285Y8135D01*
X3279Y8141D01*
X3261Y8146D01*
X3207D01*
Y8022D01*
X3396Y8146D02*
X3319D01*
Y8022D01*
X3396D01*
X3319Y8087D02*
X3366D01*
X3417Y8146D02*
Y8022D01*
Y8146D02*
X3470D01*
X3488Y8141D01*
X3494Y8135D01*
X3500Y8123D01*
Y8111D01*
X3494Y8099D01*
X3488Y8093D01*
X3470Y8087D01*
X3417D01*
X3458D02*
X3500Y8022D01*
X3668Y8146D02*
Y8022D01*
X3626Y8146D02*
X3710D01*
X3724D02*
Y8022D01*
X3808Y8146D02*
Y8022D01*
X3724Y8087D02*
X3808D01*
X3842Y8146D02*
Y8022D01*
X3958Y8117D02*
X3952Y8129D01*
X3940Y8141D01*
X3928Y8146D01*
X3904D01*
X3892Y8141D01*
X3880Y8129D01*
X3874Y8117D01*
X3868Y8099D01*
Y8069D01*
X3874Y8051D01*
X3880Y8039D01*
X3892Y8027D01*
X3904Y8022D01*
X3928D01*
X3940Y8027D01*
X3952Y8039D01*
X3958Y8051D01*
X3993Y8146D02*
Y8022D01*
X4076Y8146D02*
X3993Y8063D01*
X4023Y8093D02*
X4076Y8022D01*
X4104Y8146D02*
Y8022D01*
Y8146D02*
X4187Y8022D01*
Y8146D02*
Y8022D01*
X4299Y8146D02*
X4222D01*
Y8022D01*
X4299D01*
X4222Y8087D02*
X4270D01*
X4403Y8129D02*
X4392Y8141D01*
X4374Y8146D01*
X4350D01*
X4332Y8141D01*
X4320Y8129D01*
Y8117D01*
X4326Y8105D01*
X4332Y8099D01*
X4344Y8093D01*
X4380Y8081D01*
X4392Y8075D01*
X4397Y8069D01*
X4403Y8057D01*
Y8039D01*
X4392Y8027D01*
X4374Y8022D01*
X4350D01*
X4332Y8027D01*
X4320Y8039D01*
X4515Y8129D02*
X4503Y8141D01*
X4485Y8146D01*
X4461D01*
X4443Y8141D01*
X4431Y8129D01*
Y8117D01*
X4437Y8105D01*
X4443Y8099D01*
X4455Y8093D01*
X4491Y8081D01*
X4503Y8075D01*
X4509Y8069D01*
X4515Y8057D01*
Y8039D01*
X4503Y8027D01*
X4485Y8022D01*
X4461D01*
X4443Y8027D01*
X4431Y8039D01*
X4724Y8129D02*
X4712Y8141D01*
X4694Y8146D01*
X4671D01*
X4653Y8141D01*
X4641Y8129D01*
Y8117D01*
X4647Y8105D01*
X4653Y8099D01*
X4665Y8093D01*
X4700Y8081D01*
X4712Y8075D01*
X4718Y8069D01*
X4724Y8057D01*
Y8039D01*
X4712Y8027D01*
X4694Y8022D01*
X4671D01*
X4653Y8027D01*
X4641Y8039D01*
X4830Y8146D02*
X4752D01*
Y8022D01*
X4830D01*
X4752Y8087D02*
X4800D01*
X4928Y8146D02*
X4850D01*
Y8022D01*
X4928D01*
X4850Y8087D02*
X4898D01*
X5047Y8146D02*
Y8022D01*
X5118D01*
X5227D02*
X5179Y8146D01*
X5132Y8022D01*
X5150Y8063D02*
X5209D01*
X5256Y8146D02*
X5304Y8087D01*
Y8022D01*
X5351Y8146D02*
X5304Y8087D01*
X5445Y8146D02*
X5368D01*
Y8022D01*
X5445D01*
X5368Y8087D02*
X5415D01*
X5466Y8146D02*
Y8022D01*
Y8146D02*
X5519D01*
X5537Y8141D01*
X5543Y8135D01*
X5549Y8123D01*
Y8111D01*
X5543Y8099D01*
X5537Y8093D01*
X5519Y8087D01*
X5466D01*
X5507D02*
X5549Y8022D01*
X563Y8546D02*
Y8422D01*
Y8546D02*
X610Y8422D01*
X658Y8546D02*
X610Y8422D01*
X658Y8546D02*
Y8422D01*
X789D02*
X741Y8546D01*
X694Y8422D01*
X711Y8463D02*
X771D01*
X860Y8546D02*
Y8422D01*
X818Y8546D02*
X901D01*
X993D02*
X916D01*
Y8422D01*
X993D01*
X916Y8487D02*
X964D01*
X1014Y8546D02*
Y8422D01*
Y8546D02*
X1068D01*
X1086Y8541D01*
X1092Y8535D01*
X1098Y8523D01*
Y8511D01*
X1092Y8499D01*
X1086Y8493D01*
X1068Y8487D01*
X1014D01*
X1056D02*
X1098Y8422D01*
X1126Y8546D02*
Y8422D01*
X1247D02*
X1199Y8546D01*
X1152Y8422D01*
X1170Y8463D02*
X1229D01*
X1276Y8546D02*
Y8422D01*
X1348D01*
X1459Y8546D02*
Y8422D01*
Y8546D02*
X1507Y8422D01*
X1555Y8546D02*
X1507Y8422D01*
X1555Y8546D02*
Y8422D01*
X1590Y8546D02*
Y8457D01*
X1596Y8439D01*
X1608Y8427D01*
X1626Y8422D01*
X1638D01*
X1656Y8427D01*
X1668Y8439D01*
X1674Y8457D01*
Y8546D01*
X1792Y8529D02*
X1780Y8541D01*
X1762Y8546D01*
X1738D01*
X1720Y8541D01*
X1708Y8529D01*
Y8517D01*
X1714Y8505D01*
X1720Y8499D01*
X1732Y8493D01*
X1768Y8481D01*
X1780Y8475D01*
X1786Y8469D01*
X1792Y8457D01*
Y8439D01*
X1780Y8427D01*
X1762Y8422D01*
X1738D01*
X1720Y8427D01*
X1708Y8439D01*
X1861Y8546D02*
Y8422D01*
X1819Y8546D02*
X1903D01*
X2016D02*
Y8422D01*
Y8546D02*
X2069D01*
X2087Y8541D01*
X2093Y8535D01*
X2099Y8523D01*
Y8511D01*
X2093Y8499D01*
X2087Y8493D01*
X2069Y8487D01*
X2016D02*
X2069D01*
X2087Y8481D01*
X2093Y8475D01*
X2099Y8463D01*
Y8445D01*
X2093Y8433D01*
X2087Y8427D01*
X2069Y8422D01*
X2016D01*
X2205Y8546D02*
X2127D01*
Y8422D01*
X2205D01*
X2127Y8487D02*
X2175D01*
X2419Y8422D02*
X2371Y8546D01*
X2324Y8422D01*
X2341Y8463D02*
X2401D01*
X2546Y8546D02*
Y8422D01*
X2618D01*
X2667Y8546D02*
X2655Y8541D01*
X2643Y8529D01*
X2637Y8517D01*
X2631Y8499D01*
Y8469D01*
X2637Y8451D01*
X2643Y8439D01*
X2655Y8427D01*
X2667Y8422D01*
X2691D01*
X2703Y8427D01*
X2715Y8439D01*
X2720Y8451D01*
X2726Y8469D01*
Y8499D01*
X2720Y8517D01*
X2715Y8529D01*
X2703Y8541D01*
X2691Y8546D01*
X2667D01*
X2756D02*
X2785Y8422D01*
X2815Y8546D02*
X2785Y8422D01*
X2815Y8546D02*
X2845Y8422D01*
X2875Y8546D02*
X2845Y8422D01*
X3087Y8517D02*
X3081Y8529D01*
X3069Y8541D01*
X3057Y8546D01*
X3033D01*
X3022Y8541D01*
X3010Y8529D01*
X3004Y8517D01*
X2998Y8499D01*
Y8469D01*
X3004Y8451D01*
X3010Y8439D01*
X3022Y8427D01*
X3033Y8422D01*
X3057D01*
X3069Y8427D01*
X3081Y8439D01*
X3087Y8451D01*
X3164Y8546D02*
Y8422D01*
X3122Y8546D02*
X3205D01*
X3298D02*
X3220D01*
Y8422D01*
X3298D01*
X3220Y8487D02*
X3268D01*
X3417Y8546D02*
Y8422D01*
X3488D01*
X3579Y8546D02*
X3502D01*
Y8422D01*
X3579D01*
X3502Y8487D02*
X3549D01*
X3695Y8422D02*
X3648Y8546D01*
X3600Y8422D01*
X3618Y8463D02*
X3677D01*
X3724Y8546D02*
Y8422D01*
Y8546D02*
X3766D01*
X3784Y8541D01*
X3796Y8529D01*
X3802Y8517D01*
X3808Y8499D01*
Y8469D01*
X3802Y8451D01*
X3796Y8439D01*
X3784Y8427D01*
X3766Y8422D01*
X3724D01*
X3836Y8475D02*
X3943D01*
X3980Y8546D02*
Y8422D01*
Y8546D02*
X4057D01*
X3980Y8487D02*
X4027D01*
X4071Y8546D02*
Y8422D01*
Y8546D02*
X4125D01*
X4143Y8541D01*
X4149Y8535D01*
X4155Y8523D01*
Y8511D01*
X4149Y8499D01*
X4143Y8493D01*
X4125Y8487D01*
X4071D01*
X4113D02*
X4155Y8422D01*
X4260Y8546D02*
X4183D01*
Y8422D01*
X4260D01*
X4183Y8487D02*
X4230D01*
X4358Y8546D02*
X4281D01*
Y8422D01*
X4358D01*
X4281Y8487D02*
X4328D01*
X4567Y8517D02*
X4561Y8529D01*
X4549Y8541D01*
X4537Y8546D01*
X4513D01*
X4501Y8541D01*
X4489Y8529D01*
X4483Y8517D01*
X4477Y8499D01*
Y8469D01*
X4483Y8451D01*
X4489Y8439D01*
X4501Y8427D01*
X4513Y8422D01*
X4537D01*
X4549Y8427D01*
X4561Y8439D01*
X4567Y8451D01*
X4637Y8546D02*
X4625Y8541D01*
X4614Y8529D01*
X4608Y8517D01*
X4602Y8499D01*
Y8469D01*
X4608Y8451D01*
X4614Y8439D01*
X4625Y8427D01*
X4637Y8422D01*
X4661D01*
X4673Y8427D01*
X4685Y8439D01*
X4691Y8451D01*
X4697Y8469D01*
Y8499D01*
X4691Y8517D01*
X4685Y8529D01*
X4673Y8541D01*
X4661Y8546D01*
X4637D01*
X4726D02*
Y8422D01*
Y8546D02*
X4774Y8422D01*
X4821Y8546D02*
X4774Y8422D01*
X4821Y8546D02*
Y8422D01*
X4857Y8481D02*
X4910D01*
X4928Y8487D01*
X4934Y8493D01*
X4940Y8505D01*
Y8523D01*
X4934Y8535D01*
X4928Y8541D01*
X4910Y8546D01*
X4857D01*
Y8422D01*
X4968Y8546D02*
Y8422D01*
X5040D01*
X5053Y8546D02*
Y8422D01*
X5175D02*
X5127Y8546D01*
X5079Y8422D01*
X5097Y8463D02*
X5157D01*
X5204Y8546D02*
Y8422D01*
Y8546D02*
X5287Y8422D01*
Y8546D02*
Y8422D01*
X5363Y8546D02*
Y8422D01*
X5322Y8546D02*
X5405D01*
X5518D02*
Y8422D01*
Y8546D02*
X5566Y8422D01*
X5613Y8546D02*
X5566Y8422D01*
X5613Y8546D02*
Y8422D01*
X5744D02*
X5697Y8546D01*
X5649Y8422D01*
X5667Y8463D02*
X5726D01*
X5815Y8546D02*
Y8422D01*
X5773Y8546D02*
X5857D01*
X5949D02*
X5872D01*
Y8422D01*
X5949D01*
X5872Y8487D02*
X5919D01*
X5970Y8546D02*
Y8422D01*
Y8546D02*
X6023D01*
X6041Y8541D01*
X6047Y8535D01*
X6053Y8523D01*
Y8511D01*
X6047Y8499D01*
X6041Y8493D01*
X6023Y8487D01*
X5970D01*
X6011D02*
X6053Y8422D01*
X6081Y8546D02*
Y8422D01*
X6202D02*
X6155Y8546D01*
X6107Y8422D01*
X6125Y8463D02*
X6185D01*
X6232Y8546D02*
Y8422D01*
X6303D01*
X563Y8746D02*
Y8622D01*
Y8746D02*
X610Y8622D01*
X658Y8746D02*
X610Y8622D01*
X658Y8746D02*
Y8622D01*
X789D02*
X741Y8746D01*
X694Y8622D01*
X711Y8663D02*
X771D01*
X860Y8746D02*
Y8622D01*
X818Y8746D02*
X901D01*
X993D02*
X916D01*
Y8622D01*
X993D01*
X916Y8687D02*
X964D01*
X1014Y8746D02*
Y8622D01*
Y8746D02*
X1068D01*
X1086Y8741D01*
X1092Y8735D01*
X1098Y8723D01*
Y8711D01*
X1092Y8699D01*
X1086Y8693D01*
X1068Y8687D01*
X1014D01*
X1056D02*
X1098Y8622D01*
X1126Y8746D02*
Y8622D01*
X1247D02*
X1199Y8746D01*
X1152Y8622D01*
X1170Y8663D02*
X1229D01*
X1276Y8746D02*
Y8622D01*
X1348D01*
X1367Y8705D02*
X1361Y8699D01*
X1367Y8693D01*
X1373Y8699D01*
X1367Y8705D01*
Y8633D02*
X1361Y8627D01*
X1367Y8622D01*
X1373Y8627D01*
X1367Y8633D01*
X1597Y8746D02*
X1627Y8622D01*
X1656Y8746D02*
X1627Y8622D01*
X1656Y8746D02*
X1686Y8622D01*
X1716Y8746D02*
X1686Y8622D01*
X1777Y8746D02*
X1765Y8741D01*
X1753Y8729D01*
X1747Y8717D01*
X1741Y8699D01*
Y8669D01*
X1747Y8651D01*
X1753Y8639D01*
X1765Y8627D01*
X1777Y8622D01*
X1800D01*
X1812Y8627D01*
X1824Y8639D01*
X1830Y8651D01*
X1836Y8669D01*
Y8699D01*
X1830Y8717D01*
X1824Y8729D01*
X1812Y8741D01*
X1800Y8746D01*
X1777D01*
X1865D02*
X1913Y8622D01*
X1961Y8746D02*
X1913Y8622D01*
X2054Y8746D02*
X1977D01*
Y8622D01*
X2054D01*
X1977Y8687D02*
X2024D01*
X2075Y8746D02*
Y8622D01*
Y8746D02*
X2158Y8622D01*
Y8746D02*
Y8622D01*
X2368Y8746D02*
X2291D01*
Y8622D01*
X2368D01*
X2291Y8687D02*
X2338D01*
X2389Y8681D02*
X2443D01*
X2460Y8687D01*
X2466Y8693D01*
X2472Y8705D01*
Y8723D01*
X2466Y8735D01*
X2460Y8741D01*
X2443Y8746D01*
X2389D01*
Y8622D01*
X2536Y8746D02*
X2524Y8741D01*
X2512Y8729D01*
X2506Y8717D01*
X2500Y8699D01*
Y8669D01*
X2506Y8651D01*
X2512Y8639D01*
X2524Y8627D01*
X2536Y8622D01*
X2560D01*
X2572Y8627D01*
X2584Y8639D01*
X2590Y8651D01*
X2595Y8669D01*
Y8699D01*
X2590Y8717D01*
X2584Y8729D01*
X2572Y8741D01*
X2560Y8746D01*
X2536D01*
X2625D02*
X2708Y8622D01*
Y8746D02*
X2625Y8622D01*
X2736Y8746D02*
X2784Y8687D01*
Y8622D01*
X2831Y8746D02*
X2784Y8687D01*
X3035Y8717D02*
X3029Y8729D01*
X3017Y8741D01*
X3005Y8746D01*
X2981D01*
X2969Y8741D01*
X2957Y8729D01*
X2951Y8717D01*
X2945Y8699D01*
Y8669D01*
X2951Y8651D01*
X2957Y8639D01*
X2969Y8627D01*
X2981Y8622D01*
X3005D01*
X3017Y8627D01*
X3029Y8639D01*
X3035Y8651D01*
Y8669D01*
X3005D02*
X3035D01*
X3063Y8746D02*
Y8622D01*
X3135D01*
X3244D02*
X3196Y8746D01*
X3148Y8622D01*
X3166Y8663D02*
X3226D01*
X3356Y8729D02*
X3344Y8741D01*
X3326Y8746D01*
X3302D01*
X3285Y8741D01*
X3273Y8729D01*
Y8717D01*
X3279Y8705D01*
X3285Y8699D01*
X3297Y8693D01*
X3332Y8681D01*
X3344Y8675D01*
X3350Y8669D01*
X3356Y8657D01*
Y8639D01*
X3344Y8627D01*
X3326Y8622D01*
X3302D01*
X3285Y8627D01*
X3273Y8639D01*
X3467Y8729D02*
X3455Y8741D01*
X3438Y8746D01*
X3414D01*
X3396Y8741D01*
X3384Y8729D01*
Y8717D01*
X3390Y8705D01*
X3396Y8699D01*
X3408Y8693D01*
X3444Y8681D01*
X3455Y8675D01*
X3461Y8669D01*
X3467Y8657D01*
Y8639D01*
X3455Y8627D01*
X3438Y8622D01*
X3414D01*
X3396Y8627D01*
X3384Y8639D01*
X3507Y8627D02*
X3501Y8622D01*
X3495Y8627D01*
X3501Y8633D01*
X3507Y8627D01*
Y8616D01*
X3501Y8604D01*
X3495Y8598D01*
X3633Y8746D02*
Y8622D01*
Y8746D02*
X3710D01*
X3633Y8687D02*
X3680D01*
X3724Y8746D02*
Y8622D01*
Y8746D02*
X3778D01*
X3796Y8741D01*
X3802Y8735D01*
X3808Y8723D01*
Y8711D01*
X3802Y8699D01*
X3796Y8693D01*
X3778Y8687D01*
X3724D01*
X3766D02*
X3808Y8622D01*
X3895Y8746D02*
X3836Y8663D01*
X3925D01*
X3895Y8746D02*
Y8622D01*
X3959Y8627D02*
X3953Y8622D01*
X3947Y8627D01*
X3953Y8633D01*
X3959Y8627D01*
Y8616D01*
X3953Y8604D01*
X3947Y8598D01*
X4084Y8681D02*
X4138D01*
X4156Y8687D01*
X4162Y8693D01*
X4168Y8705D01*
Y8723D01*
X4162Y8735D01*
X4156Y8741D01*
X4138Y8746D01*
X4084D01*
Y8622D01*
X4273Y8746D02*
X4196D01*
Y8622D01*
X4273D01*
X4196Y8687D02*
X4243D01*
X4294Y8746D02*
Y8622D01*
Y8746D02*
X4348D01*
X4365Y8741D01*
X4371Y8735D01*
X4377Y8723D01*
Y8711D01*
X4371Y8699D01*
X4365Y8693D01*
X4348Y8687D01*
X4294D01*
X4336D02*
X4377Y8622D01*
X4503Y8746D02*
Y8622D01*
X4530Y8681D02*
X4583D01*
X4601Y8687D01*
X4607Y8693D01*
X4613Y8705D01*
Y8723D01*
X4607Y8735D01*
X4601Y8741D01*
X4583Y8746D01*
X4530D01*
Y8622D01*
X4730Y8717D02*
X4724Y8729D01*
X4712Y8741D01*
X4700Y8746D01*
X4677D01*
X4665Y8741D01*
X4653Y8729D01*
X4647Y8717D01*
X4641Y8699D01*
Y8669D01*
X4647Y8651D01*
X4653Y8639D01*
X4665Y8627D01*
X4677Y8622D01*
X4700D01*
X4712Y8627D01*
X4724Y8639D01*
X4730Y8651D01*
X4765Y8675D02*
X4872D01*
X4969Y8746D02*
X4909Y8663D01*
X4999D01*
X4969Y8746D02*
Y8622D01*
X5021Y8723D02*
X5032Y8729D01*
X5050Y8746D01*
Y8622D01*
X5148Y8746D02*
X5130Y8741D01*
X5118Y8723D01*
X5112Y8693D01*
Y8675D01*
X5118Y8645D01*
X5130Y8627D01*
X5148Y8622D01*
X5160D01*
X5178Y8627D01*
X5190Y8645D01*
X5196Y8675D01*
Y8693D01*
X5190Y8723D01*
X5178Y8741D01*
X5160Y8746D01*
X5148D01*
X5224Y8723D02*
X5235Y8729D01*
X5253Y8746D01*
Y8622D01*
X5410D02*
X5363Y8746D01*
X5315Y8622D01*
X5333Y8663D02*
X5393D01*
X5440Y8604D02*
X5523Y8746D01*
X5537Y8717D02*
Y8723D01*
X5543Y8735D01*
X5549Y8741D01*
X5561Y8746D01*
X5585D01*
X5597Y8741D01*
X5603Y8735D01*
X5609Y8723D01*
Y8711D01*
X5603Y8699D01*
X5591Y8681D01*
X5531Y8622D01*
X5614D01*
X5714Y8729D02*
X5708Y8741D01*
X5690Y8746D01*
X5678D01*
X5660Y8741D01*
X5648Y8723D01*
X5642Y8693D01*
Y8663D01*
X5648Y8639D01*
X5660Y8627D01*
X5678Y8622D01*
X5684D01*
X5702Y8627D01*
X5714Y8639D01*
X5720Y8657D01*
Y8663D01*
X5714Y8681D01*
X5702Y8693D01*
X5684Y8699D01*
X5678D01*
X5660Y8693D01*
X5648Y8681D01*
X5642Y8663D01*
X5753Y8633D02*
X5747Y8627D01*
X5753Y8622D01*
X5759Y8627D01*
X5753Y8633D01*
X563Y8981D02*
X616D01*
X634Y8987D01*
X640Y8993D01*
X646Y9005D01*
Y9023D01*
X640Y9035D01*
X634Y9041D01*
X616Y9046D01*
X563D01*
Y8922D01*
X674Y9046D02*
Y8957D01*
X680Y8939D01*
X692Y8927D01*
X710Y8922D01*
X721D01*
X739Y8927D01*
X751Y8939D01*
X757Y8957D01*
Y9046D01*
X792D02*
Y8922D01*
Y9046D02*
X845D01*
X863Y9041D01*
X869Y9035D01*
X875Y9023D01*
Y9011D01*
X869Y8999D01*
X863Y8993D01*
X845Y8987D01*
X792D01*
X833D02*
X875Y8922D01*
X992Y9017D02*
X986Y9029D01*
X974Y9041D01*
X963Y9046D01*
X939D01*
X927Y9041D01*
X915Y9029D01*
X909Y9017D01*
X903Y8999D01*
Y8969D01*
X909Y8951D01*
X915Y8939D01*
X927Y8927D01*
X939Y8922D01*
X963D01*
X974Y8927D01*
X986Y8939D01*
X992Y8951D01*
X1027Y9046D02*
Y8922D01*
X1111Y9046D02*
Y8922D01*
X1027Y8987D02*
X1111D01*
X1240Y8922D02*
X1193Y9046D01*
X1145Y8922D01*
X1163Y8963D02*
X1223D01*
X1353Y9029D02*
X1341Y9041D01*
X1323Y9046D01*
X1299D01*
X1281Y9041D01*
X1270Y9029D01*
Y9017D01*
X1276Y9005D01*
X1281Y8999D01*
X1293Y8993D01*
X1329Y8981D01*
X1341Y8975D01*
X1347Y8969D01*
X1353Y8957D01*
Y8939D01*
X1341Y8927D01*
X1323Y8922D01*
X1299D01*
X1281Y8927D01*
X1270Y8939D01*
X1458Y9046D02*
X1381D01*
Y8922D01*
X1458D01*
X1381Y8987D02*
X1428D01*
X1613Y9046D02*
X1601Y9041D01*
X1589Y9029D01*
X1583Y9017D01*
X1577Y8999D01*
Y8969D01*
X1583Y8951D01*
X1589Y8939D01*
X1601Y8927D01*
X1613Y8922D01*
X1637D01*
X1649Y8927D01*
X1661Y8939D01*
X1667Y8951D01*
X1672Y8969D01*
Y8999D01*
X1667Y9017D01*
X1661Y9029D01*
X1649Y9041D01*
X1637Y9046D01*
X1613D01*
X1702D02*
Y8922D01*
Y9046D02*
X1755D01*
X1773Y9041D01*
X1779Y9035D01*
X1785Y9023D01*
Y9011D01*
X1779Y8999D01*
X1773Y8993D01*
X1755Y8987D01*
X1702D01*
X1743D02*
X1785Y8922D01*
X1813Y9046D02*
Y8922D01*
Y9046D02*
X1855D01*
X1872Y9041D01*
X1884Y9029D01*
X1890Y9017D01*
X1896Y8999D01*
Y8969D01*
X1890Y8951D01*
X1884Y8939D01*
X1872Y8927D01*
X1855Y8922D01*
X1813D01*
X2002Y9046D02*
X1924D01*
Y8922D01*
X2002D01*
X1924Y8987D02*
X1972D01*
X2022Y9046D02*
Y8922D01*
Y9046D02*
X2076D01*
X2094Y9041D01*
X2100Y9035D01*
X2106Y9023D01*
Y9011D01*
X2100Y8999D01*
X2094Y8993D01*
X2076Y8987D01*
X2022D01*
X2064D02*
X2106Y8922D01*
X2140Y8933D02*
X2134Y8927D01*
X2140Y8922D01*
X2146Y8927D01*
X2140Y8933D01*
X598Y9246D02*
X586Y9241D01*
X575Y9229D01*
X569Y9217D01*
X563Y9199D01*
Y9169D01*
X569Y9151D01*
X575Y9139D01*
X586Y9127D01*
X598Y9122D01*
X622D01*
X634Y9127D01*
X646Y9139D01*
X652Y9151D01*
X658Y9169D01*
Y9199D01*
X652Y9217D01*
X646Y9229D01*
X634Y9241D01*
X622Y9246D01*
X598D01*
X687D02*
Y9122D01*
Y9246D02*
X764D01*
X687Y9187D02*
X735D01*
X877Y9246D02*
Y9122D01*
X903Y9181D02*
X957D01*
X974Y9187D01*
X980Y9193D01*
X986Y9205D01*
Y9223D01*
X980Y9235D01*
X974Y9241D01*
X957Y9246D01*
X903D01*
Y9122D01*
X1104Y9217D02*
X1098Y9229D01*
X1086Y9241D01*
X1074Y9246D01*
X1050D01*
X1038Y9241D01*
X1026Y9229D01*
X1020Y9217D01*
X1014Y9199D01*
Y9169D01*
X1020Y9151D01*
X1026Y9139D01*
X1038Y9127D01*
X1050Y9122D01*
X1074D01*
X1086Y9127D01*
X1098Y9139D01*
X1104Y9151D01*
X1139Y9175D02*
X1246D01*
X1378Y9122D02*
X1330Y9246D01*
X1283Y9122D01*
X1301Y9163D02*
X1360D01*
X1407Y9175D02*
X1514D01*
X1622Y9229D02*
X1617Y9241D01*
X1599Y9246D01*
X1587D01*
X1569Y9241D01*
X1557Y9223D01*
X1551Y9193D01*
Y9163D01*
X1557Y9139D01*
X1569Y9127D01*
X1587Y9122D01*
X1593D01*
X1611Y9127D01*
X1622Y9139D01*
X1628Y9157D01*
Y9163D01*
X1622Y9181D01*
X1611Y9193D01*
X1593Y9199D01*
X1587D01*
X1569Y9193D01*
X1557Y9181D01*
X1551Y9163D01*
X1692Y9246D02*
X1674Y9241D01*
X1662Y9223D01*
X1656Y9193D01*
Y9175D01*
X1662Y9145D01*
X1674Y9127D01*
X1692Y9122D01*
X1703D01*
X1721Y9127D01*
X1733Y9145D01*
X1739Y9175D01*
Y9193D01*
X1733Y9223D01*
X1721Y9241D01*
X1703Y9246D01*
X1692D01*
X1803D02*
X1785Y9241D01*
X1773Y9223D01*
X1767Y9193D01*
Y9175D01*
X1773Y9145D01*
X1785Y9127D01*
X1803Y9122D01*
X1815D01*
X1833Y9127D01*
X1844Y9145D01*
X1850Y9175D01*
Y9193D01*
X1844Y9223D01*
X1833Y9241D01*
X1815Y9246D01*
X1803D01*
X1968Y9217D02*
X1962Y9229D01*
X1950Y9241D01*
X1938Y9246D01*
X1914D01*
X1902Y9241D01*
X1890Y9229D01*
X1884Y9217D01*
X1878Y9199D01*
Y9169D01*
X1884Y9151D01*
X1890Y9139D01*
X1902Y9127D01*
X1914Y9122D01*
X1938D01*
X1950Y9127D01*
X1962Y9139D01*
X1968Y9151D01*
Y9169D01*
X1938D02*
X1968D01*
X2184Y9217D02*
X2178Y9229D01*
X2166Y9241D01*
X2154Y9246D01*
X2130D01*
X2118Y9241D01*
X2106Y9229D01*
X2100Y9217D01*
X2094Y9199D01*
Y9169D01*
X2100Y9151D01*
X2106Y9139D01*
X2118Y9127D01*
X2130Y9122D01*
X2154D01*
X2166Y9127D01*
X2178Y9139D01*
X2184Y9151D01*
X2219Y9246D02*
Y9122D01*
X2290D01*
X2399D02*
X2352Y9246D01*
X2304Y9122D01*
X2322Y9163D02*
X2381D01*
X2512Y9229D02*
X2500Y9241D01*
X2482Y9246D01*
X2458D01*
X2440Y9241D01*
X2428Y9229D01*
Y9217D01*
X2434Y9205D01*
X2440Y9199D01*
X2452Y9193D01*
X2488Y9181D01*
X2500Y9175D01*
X2506Y9169D01*
X2512Y9157D01*
Y9139D01*
X2500Y9127D01*
X2482Y9122D01*
X2458D01*
X2440Y9127D01*
X2428Y9139D01*
X2623Y9229D02*
X2611Y9241D01*
X2593Y9246D01*
X2569D01*
X2551Y9241D01*
X2540Y9229D01*
Y9217D01*
X2546Y9205D01*
X2551Y9199D01*
X2563Y9193D01*
X2599Y9181D01*
X2611Y9175D01*
X2617Y9169D01*
X2623Y9157D01*
Y9139D01*
X2611Y9127D01*
X2593Y9122D01*
X2569D01*
X2551Y9127D01*
X2540Y9139D01*
X2755Y9217D02*
Y9223D01*
X2761Y9235D01*
X2767Y9241D01*
X2779Y9246D01*
X2803D01*
X2814Y9241D01*
X2820Y9235D01*
X2826Y9223D01*
Y9211D01*
X2820Y9199D01*
X2809Y9181D01*
X2749Y9122D01*
X2832D01*
X2959Y9246D02*
Y9157D01*
X2964Y9139D01*
X2976Y9127D01*
X2994Y9122D01*
X3006D01*
X3024Y9127D01*
X3036Y9139D01*
X3042Y9157D01*
Y9246D01*
X3076D02*
Y9122D01*
Y9246D02*
X3160Y9122D01*
Y9246D02*
Y9122D01*
X3194Y9246D02*
Y9122D01*
X3266D01*
X3357Y9246D02*
X3279D01*
Y9122D01*
X3357D01*
X3279Y9187D02*
X3327D01*
X3461Y9229D02*
X3449Y9241D01*
X3431Y9246D01*
X3407D01*
X3389Y9241D01*
X3377Y9229D01*
Y9217D01*
X3383Y9205D01*
X3389Y9199D01*
X3401Y9193D01*
X3437Y9181D01*
X3449Y9175D01*
X3455Y9169D01*
X3461Y9157D01*
Y9139D01*
X3449Y9127D01*
X3431Y9122D01*
X3407D01*
X3389Y9127D01*
X3377Y9139D01*
X3572Y9229D02*
X3560Y9241D01*
X3542Y9246D01*
X3519D01*
X3501Y9241D01*
X3489Y9229D01*
Y9217D01*
X3495Y9205D01*
X3501Y9199D01*
X3513Y9193D01*
X3548Y9181D01*
X3560Y9175D01*
X3566Y9169D01*
X3572Y9157D01*
Y9139D01*
X3560Y9127D01*
X3542Y9122D01*
X3519D01*
X3501Y9127D01*
X3489Y9139D01*
X3734Y9246D02*
X3722Y9241D01*
X3710Y9229D01*
X3704Y9217D01*
X3698Y9199D01*
Y9169D01*
X3704Y9151D01*
X3710Y9139D01*
X3722Y9127D01*
X3734Y9122D01*
X3758D01*
X3770Y9127D01*
X3782Y9139D01*
X3788Y9151D01*
X3793Y9169D01*
Y9199D01*
X3788Y9217D01*
X3782Y9229D01*
X3770Y9241D01*
X3758Y9246D01*
X3734D01*
X3864D02*
Y9122D01*
X3823Y9246D02*
X3906D01*
X3921D02*
Y9122D01*
X4004Y9246D02*
Y9122D01*
X3921Y9187D02*
X4004D01*
X4116Y9246D02*
X4039D01*
Y9122D01*
X4116D01*
X4039Y9187D02*
X4086D01*
X4137Y9246D02*
Y9122D01*
Y9246D02*
X4190D01*
X4208Y9241D01*
X4214Y9235D01*
X4220Y9223D01*
Y9211D01*
X4214Y9199D01*
X4208Y9193D01*
X4190Y9187D01*
X4137D01*
X4178D02*
X4220Y9122D01*
X4248Y9246D02*
X4278Y9122D01*
X4308Y9246D02*
X4278Y9122D01*
X4308Y9246D02*
X4337Y9122D01*
X4367Y9246D02*
X4337Y9122D01*
X4392Y9246D02*
Y9122D01*
X4502Y9229D02*
X4490Y9241D01*
X4472Y9246D01*
X4448D01*
X4430Y9241D01*
X4418Y9229D01*
Y9217D01*
X4424Y9205D01*
X4430Y9199D01*
X4442Y9193D01*
X4478Y9181D01*
X4490Y9175D01*
X4496Y9169D01*
X4502Y9157D01*
Y9139D01*
X4490Y9127D01*
X4472Y9122D01*
X4448D01*
X4430Y9127D01*
X4418Y9139D01*
X4607Y9246D02*
X4530D01*
Y9122D01*
X4607D01*
X4530Y9187D02*
X4577D01*
X4809Y9229D02*
X4797Y9241D01*
X4780Y9246D01*
X4756D01*
X4738Y9241D01*
X4726Y9229D01*
Y9217D01*
X4732Y9205D01*
X4738Y9199D01*
X4750Y9193D01*
X4786Y9181D01*
X4797Y9175D01*
X4803Y9169D01*
X4809Y9157D01*
Y9139D01*
X4797Y9127D01*
X4780Y9122D01*
X4756D01*
X4738Y9127D01*
X4726Y9139D01*
X4837Y9181D02*
X4891D01*
X4909Y9187D01*
X4915Y9193D01*
X4921Y9205D01*
Y9223D01*
X4915Y9235D01*
X4909Y9241D01*
X4891Y9246D01*
X4837D01*
Y9122D01*
X5026Y9246D02*
X4949D01*
Y9122D01*
X5026D01*
X4949Y9187D02*
X4996D01*
X5136Y9217D02*
X5130Y9229D01*
X5118Y9241D01*
X5106Y9246D01*
X5082D01*
X5071Y9241D01*
X5059Y9229D01*
X5053Y9217D01*
X5047Y9199D01*
Y9169D01*
X5053Y9151D01*
X5059Y9139D01*
X5071Y9127D01*
X5082Y9122D01*
X5106D01*
X5118Y9127D01*
X5130Y9139D01*
X5136Y9151D01*
X5171Y9246D02*
Y9122D01*
X5197Y9246D02*
Y9122D01*
Y9246D02*
X5275D01*
X5197Y9187D02*
X5245D01*
X5289Y9246D02*
Y9122D01*
X5393Y9246D02*
X5315D01*
Y9122D01*
X5393D01*
X5315Y9187D02*
X5363D01*
X5413Y9246D02*
Y9122D01*
Y9246D02*
X5455D01*
X5473Y9241D01*
X5485Y9229D01*
X5491Y9217D01*
X5497Y9199D01*
Y9169D01*
X5491Y9151D01*
X5485Y9139D01*
X5473Y9127D01*
X5455Y9122D01*
X5413D01*
X5623Y9246D02*
Y9122D01*
Y9246D02*
X5676D01*
X5694Y9241D01*
X5700Y9235D01*
X5706Y9223D01*
Y9211D01*
X5700Y9199D01*
X5694Y9193D01*
X5676Y9187D01*
X5623D02*
X5676D01*
X5694Y9181D01*
X5700Y9175D01*
X5706Y9163D01*
Y9145D01*
X5700Y9133D01*
X5694Y9127D01*
X5676Y9122D01*
X5623D01*
X5734Y9246D02*
X5782Y9187D01*
Y9122D01*
X5829Y9246D02*
X5782Y9187D01*
X563Y9381D02*
X616D01*
X634Y9387D01*
X640Y9393D01*
X646Y9405D01*
Y9423D01*
X640Y9435D01*
X634Y9441D01*
X616Y9446D01*
X563D01*
Y9322D01*
X674Y9446D02*
Y9322D01*
Y9446D02*
X727D01*
X745Y9441D01*
X751Y9435D01*
X757Y9423D01*
Y9411D01*
X751Y9399D01*
X745Y9393D01*
X727Y9387D01*
X674D01*
X716D02*
X757Y9322D01*
X785Y9446D02*
Y9322D01*
X811Y9446D02*
Y9322D01*
Y9446D02*
X895Y9322D01*
Y9446D02*
Y9322D01*
X971Y9446D02*
Y9322D01*
X929Y9446D02*
X1013D01*
X1105D02*
X1027D01*
Y9322D01*
X1105D01*
X1027Y9387D02*
X1075D01*
X1126Y9446D02*
Y9322D01*
Y9446D02*
X1167D01*
X1185Y9441D01*
X1197Y9429D01*
X1203Y9417D01*
X1209Y9399D01*
Y9369D01*
X1203Y9351D01*
X1197Y9339D01*
X1185Y9327D01*
X1167Y9322D01*
X1126D01*
X1424Y9417D02*
X1418Y9429D01*
X1406Y9441D01*
X1395Y9446D01*
X1371D01*
X1359Y9441D01*
X1347Y9429D01*
X1341Y9417D01*
X1335Y9399D01*
Y9369D01*
X1341Y9351D01*
X1347Y9339D01*
X1359Y9327D01*
X1371Y9322D01*
X1395D01*
X1406Y9327D01*
X1418Y9339D01*
X1424Y9351D01*
X1459Y9446D02*
Y9322D01*
X1486Y9446D02*
Y9322D01*
Y9446D02*
X1539D01*
X1557Y9441D01*
X1563Y9435D01*
X1569Y9423D01*
Y9411D01*
X1563Y9399D01*
X1557Y9393D01*
X1539Y9387D01*
X1486D01*
X1527D02*
X1569Y9322D01*
X1686Y9417D02*
X1680Y9429D01*
X1668Y9441D01*
X1656Y9446D01*
X1633D01*
X1621Y9441D01*
X1609Y9429D01*
X1603Y9417D01*
X1597Y9399D01*
Y9369D01*
X1603Y9351D01*
X1609Y9339D01*
X1621Y9327D01*
X1633Y9322D01*
X1656D01*
X1668Y9327D01*
X1680Y9339D01*
X1686Y9351D01*
X1721Y9446D02*
Y9357D01*
X1727Y9339D01*
X1739Y9327D01*
X1757Y9322D01*
X1769D01*
X1787Y9327D01*
X1799Y9339D01*
X1805Y9357D01*
Y9446D01*
X1839D02*
Y9322D01*
X1907Y9446D02*
Y9322D01*
X1865Y9446D02*
X1949D01*
X2062D02*
Y9322D01*
Y9446D02*
X2115D01*
X2133Y9441D01*
X2139Y9435D01*
X2145Y9423D01*
Y9411D01*
X2139Y9399D01*
X2133Y9393D01*
X2115Y9387D01*
X2062D02*
X2115D01*
X2133Y9381D01*
X2139Y9375D01*
X2145Y9363D01*
Y9345D01*
X2139Y9333D01*
X2133Y9327D01*
X2115Y9322D01*
X2062D01*
X2209Y9446D02*
X2197Y9441D01*
X2185Y9429D01*
X2179Y9417D01*
X2173Y9399D01*
Y9369D01*
X2179Y9351D01*
X2185Y9339D01*
X2197Y9327D01*
X2209Y9322D01*
X2232D01*
X2244Y9327D01*
X2256Y9339D01*
X2262Y9351D01*
X2268Y9369D01*
Y9399D01*
X2262Y9417D01*
X2256Y9429D01*
X2244Y9441D01*
X2232Y9446D01*
X2209D01*
X2393Y9322D02*
X2345Y9446D01*
X2297Y9322D01*
X2315Y9363D02*
X2375D01*
X2422Y9446D02*
Y9322D01*
Y9446D02*
X2475D01*
X2493Y9441D01*
X2499Y9435D01*
X2505Y9423D01*
Y9411D01*
X2499Y9399D01*
X2493Y9393D01*
X2475Y9387D01*
X2422D01*
X2463D02*
X2505Y9322D01*
X2533Y9446D02*
Y9322D01*
Y9446D02*
X2575D01*
X2593Y9441D01*
X2604Y9429D01*
X2610Y9417D01*
X2616Y9399D01*
Y9369D01*
X2610Y9351D01*
X2604Y9339D01*
X2593Y9327D01*
X2575Y9322D01*
X2533D01*
X2784Y9446D02*
Y9322D01*
X2742Y9446D02*
X2826D01*
X2876D02*
X2864Y9441D01*
X2853Y9429D01*
X2847Y9417D01*
X2841Y9399D01*
Y9369D01*
X2847Y9351D01*
X2853Y9339D01*
X2864Y9327D01*
X2876Y9322D01*
X2900D01*
X2912Y9327D01*
X2924Y9339D01*
X2930Y9351D01*
X2936Y9369D01*
Y9399D01*
X2930Y9417D01*
X2924Y9429D01*
X2912Y9441D01*
X2900Y9446D01*
X2876D01*
X3063D02*
Y9322D01*
Y9446D02*
X3111Y9322D01*
X3158Y9446D02*
X3111Y9322D01*
X3158Y9446D02*
Y9322D01*
X3272Y9446D02*
X3194D01*
Y9322D01*
X3272D01*
X3194Y9387D02*
X3242D01*
X3370Y9446D02*
X3292D01*
Y9322D01*
X3370D01*
X3292Y9387D02*
X3340D01*
X3432Y9446D02*
Y9322D01*
X3391Y9446D02*
X3474D01*
X3629D02*
Y9322D01*
X3587Y9446D02*
X3670D01*
X3685D02*
Y9322D01*
X3768Y9446D02*
Y9322D01*
X3685Y9387D02*
X3768D01*
X3880Y9446D02*
X3803D01*
Y9322D01*
X3880D01*
X3803Y9387D02*
X3851D01*
X4095Y9322D02*
X4047Y9446D01*
X3999Y9322D01*
X4017Y9363D02*
X4077D01*
X4213Y9417D02*
X4207Y9429D01*
X4195Y9441D01*
X4183Y9446D01*
X4159D01*
X4148Y9441D01*
X4136Y9429D01*
X4130Y9417D01*
X4124Y9399D01*
Y9369D01*
X4130Y9351D01*
X4136Y9339D01*
X4148Y9327D01*
X4159Y9322D01*
X4183D01*
X4195Y9327D01*
X4207Y9339D01*
X4213Y9351D01*
X4337Y9417D02*
X4331Y9429D01*
X4320Y9441D01*
X4308Y9446D01*
X4284D01*
X4272Y9441D01*
X4260Y9429D01*
X4254Y9417D01*
X4248Y9399D01*
Y9369D01*
X4254Y9351D01*
X4260Y9339D01*
X4272Y9327D01*
X4284Y9322D01*
X4308D01*
X4320Y9327D01*
X4331Y9339D01*
X4337Y9351D01*
X4450Y9446D02*
X4372D01*
Y9322D01*
X4450D01*
X4372Y9387D02*
X4420D01*
X4471Y9381D02*
X4524D01*
X4542Y9387D01*
X4548Y9393D01*
X4554Y9405D01*
Y9423D01*
X4548Y9435D01*
X4542Y9441D01*
X4524Y9446D01*
X4471D01*
Y9322D01*
X4624Y9446D02*
Y9322D01*
X4582Y9446D02*
X4665D01*
X4775Y9322D02*
X4728Y9446D01*
X4680Y9322D01*
X4698Y9363D02*
X4758D01*
X4805Y9446D02*
Y9322D01*
Y9446D02*
X4888Y9322D01*
Y9446D02*
Y9322D01*
X5012Y9417D02*
X5006Y9429D01*
X4994Y9441D01*
X4982Y9446D01*
X4958D01*
X4946Y9441D01*
X4934Y9429D01*
X4928Y9417D01*
X4922Y9399D01*
Y9369D01*
X4928Y9351D01*
X4934Y9339D01*
X4946Y9327D01*
X4958Y9322D01*
X4982D01*
X4994Y9327D01*
X5006Y9339D01*
X5012Y9351D01*
X5124Y9446D02*
X5047D01*
Y9322D01*
X5124D01*
X5047Y9387D02*
X5094D01*
X5243Y9446D02*
Y9322D01*
Y9446D02*
X5297D01*
X5315Y9441D01*
X5321Y9435D01*
X5326Y9423D01*
Y9411D01*
X5321Y9399D01*
X5315Y9393D01*
X5297Y9387D01*
X5243D01*
X5285D02*
X5326Y9322D01*
X5432Y9446D02*
X5354D01*
Y9322D01*
X5432D01*
X5354Y9387D02*
X5402D01*
X5488Y9446D02*
X5476Y9441D01*
X5465Y9429D01*
X5459Y9417D01*
X5453Y9399D01*
Y9369D01*
X5459Y9351D01*
X5465Y9339D01*
X5476Y9327D01*
X5488Y9322D01*
X5512D01*
X5524Y9327D01*
X5536Y9339D01*
X5542Y9351D01*
X5548Y9369D01*
Y9399D01*
X5542Y9417D01*
X5536Y9429D01*
X5524Y9441D01*
X5512Y9446D01*
X5488D01*
X5506Y9345D02*
X5542Y9310D01*
X5577Y9446D02*
Y9357D01*
X5583Y9339D01*
X5595Y9327D01*
X5613Y9322D01*
X5625D01*
X5642Y9327D01*
X5654Y9339D01*
X5660Y9357D01*
Y9446D01*
X5695D02*
Y9322D01*
X5721Y9446D02*
Y9322D01*
Y9446D02*
X5775D01*
X5792Y9441D01*
X5798Y9435D01*
X5804Y9423D01*
Y9411D01*
X5798Y9399D01*
X5792Y9393D01*
X5775Y9387D01*
X5721D01*
X5763D02*
X5804Y9322D01*
X5910Y9446D02*
X5832D01*
Y9322D01*
X5910D01*
X5832Y9387D02*
X5880D01*
X5930Y9446D02*
Y9322D01*
Y9446D02*
X5978Y9322D01*
X6026Y9446D02*
X5978Y9322D01*
X6026Y9446D02*
Y9322D01*
X6139Y9446D02*
X6061D01*
Y9322D01*
X6139D01*
X6061Y9387D02*
X6109D01*
X6160Y9446D02*
Y9322D01*
Y9446D02*
X6243Y9322D01*
Y9446D02*
Y9322D01*
X6319Y9446D02*
Y9322D01*
X6277Y9446D02*
X6361D01*
X6459Y9429D02*
X6447Y9441D01*
X6429Y9446D01*
X6405D01*
X6388Y9441D01*
X6376Y9429D01*
Y9417D01*
X6382Y9405D01*
X6388Y9399D01*
X6399Y9393D01*
X6435Y9381D01*
X6447Y9375D01*
X6453Y9369D01*
X6459Y9357D01*
Y9339D01*
X6447Y9327D01*
X6429Y9322D01*
X6405D01*
X6388Y9327D01*
X6376Y9339D01*
X163Y9423D02*
X175Y9429D01*
X192Y9446D01*
Y9322D01*
X260Y9333D02*
X254Y9327D01*
X260Y9322D01*
X266Y9327D01*
X260Y9333D01*
X234Y6546D02*
X175D01*
X169Y6493D01*
X175Y6499D01*
X192Y6505D01*
X210D01*
X228Y6499D01*
X240Y6487D01*
X246Y6469D01*
Y6457D01*
X240Y6439D01*
X228Y6427D01*
X210Y6422D01*
X192D01*
X175Y6427D01*
X169Y6433D01*
X163Y6445D01*
X280Y6433D02*
X274Y6427D01*
X280Y6422D01*
X286Y6427D01*
X280Y6433D01*
X246Y5946D02*
X186Y5822D01*
X163Y5946D02*
X246D01*
X280Y5833D02*
X274Y5827D01*
X280Y5822D01*
X286Y5827D01*
X280Y5833D01*
X169Y8717D02*
Y8723D01*
X175Y8735D01*
X180Y8741D01*
X192Y8746D01*
X216D01*
X228Y8741D01*
X234Y8735D01*
X240Y8723D01*
Y8711D01*
X234Y8699D01*
X222Y8681D01*
X163Y8622D01*
X246D01*
X280Y8633D02*
X274Y8627D01*
X280Y8622D01*
X286Y8627D01*
X280Y8633D01*
X175Y7646D02*
X240D01*
X204Y7599D01*
X222D01*
X234Y7593D01*
X240Y7587D01*
X246Y7569D01*
Y7557D01*
X240Y7539D01*
X228Y7527D01*
X210Y7522D01*
X192D01*
X175Y7527D01*
X169Y7533D01*
X163Y7545D01*
X280Y7533D02*
X274Y7527D01*
X280Y7522D01*
X286Y7527D01*
X280Y7533D01*
X234Y6229D02*
X228Y6241D01*
X210Y6246D01*
X198D01*
X180Y6241D01*
X169Y6223D01*
X163Y6193D01*
Y6163D01*
X169Y6139D01*
X180Y6127D01*
X198Y6122D01*
X204D01*
X222Y6127D01*
X234Y6139D01*
X240Y6157D01*
Y6163D01*
X234Y6181D01*
X222Y6193D01*
X204Y6199D01*
X198D01*
X180Y6193D01*
X169Y6181D01*
X163Y6163D01*
X273Y6133D02*
X267Y6127D01*
X273Y6122D01*
X279Y6127D01*
X273Y6133D01*
X240Y4905D02*
X234Y4887D01*
X222Y4875D01*
X204Y4869D01*
X198D01*
X180Y4875D01*
X169Y4887D01*
X163Y4905D01*
Y4911D01*
X169Y4929D01*
X180Y4941D01*
X198Y4946D01*
X204D01*
X222Y4941D01*
X234Y4929D01*
X240Y4905D01*
Y4875D01*
X234Y4845D01*
X222Y4827D01*
X204Y4822D01*
X192D01*
X175Y4827D01*
X169Y4839D01*
X280Y4833D02*
X274Y4827D01*
X280Y4822D01*
X286Y4827D01*
X280Y4833D01*
X192Y5446D02*
X175Y5441D01*
X169Y5429D01*
Y5417D01*
X175Y5405D01*
X186Y5399D01*
X210Y5393D01*
X228Y5387D01*
X240Y5375D01*
X246Y5363D01*
Y5345D01*
X240Y5333D01*
X234Y5327D01*
X216Y5322D01*
X192D01*
X175Y5327D01*
X169Y5333D01*
X163Y5345D01*
Y5363D01*
X169Y5375D01*
X180Y5387D01*
X198Y5393D01*
X222Y5399D01*
X234Y5405D01*
X240Y5417D01*
Y5429D01*
X234Y5441D01*
X216Y5446D01*
X192D01*
X280Y5333D02*
X274Y5327D01*
X280Y5322D01*
X286Y5327D01*
X280Y5333D01*
X222Y7146D02*
X163Y7063D01*
X252D01*
X222Y7146D02*
Y7022D01*
X280Y7033D02*
X274Y7027D01*
X280Y7022D01*
X286Y7027D01*
X280Y7033D01*
X6746Y5790D02*
X6841D01*
X12432Y6209D02*
Y6085D01*
Y6209D02*
X12509D01*
X12432Y6150D02*
X12479D01*
X12523Y6209D02*
Y6085D01*
X12549Y6209D02*
Y6085D01*
Y6209D02*
X12633Y6085D01*
Y6209D02*
Y6085D01*
X12667Y6209D02*
Y6085D01*
X12777Y6192D02*
X12765Y6204D01*
X12747Y6209D01*
X12723D01*
X12705Y6204D01*
X12693Y6192D01*
Y6180D01*
X12699Y6168D01*
X12705Y6162D01*
X12717Y6156D01*
X12753Y6144D01*
X12765Y6138D01*
X12771Y6132D01*
X12777Y6120D01*
Y6102D01*
X12765Y6090D01*
X12747Y6085D01*
X12723D01*
X12705Y6090D01*
X12693Y6102D01*
X12805Y6209D02*
Y6085D01*
X12888Y6209D02*
Y6085D01*
X12805Y6150D02*
X12888D01*
X13000Y6209D02*
X12922D01*
Y6085D01*
X13000D01*
X12922Y6150D02*
X12970D01*
X13021Y6209D02*
Y6085D01*
Y6209D02*
X13062D01*
X13080Y6204D01*
X13092Y6192D01*
X13098Y6180D01*
X13104Y6162D01*
Y6132D01*
X13098Y6114D01*
X13092Y6102D01*
X13080Y6090D01*
X13062Y6085D01*
X13021D01*
X15717Y6423D02*
X15658Y6340D01*
X15747D01*
X15717Y6423D02*
Y6299D01*
X15353Y6399D02*
Y6405D01*
X15359Y6417D01*
X15365Y6423D01*
X15377Y6428D01*
X15401D01*
X15413Y6423D01*
X15419Y6417D01*
X15425Y6405D01*
Y6393D01*
X15419Y6381D01*
X15407Y6363D01*
X15348Y6304D01*
X15431D01*
X7535Y6415D02*
X7529Y6409D01*
X7535Y6403D01*
X7541Y6409D01*
X7535Y6415D01*
X7604Y6528D02*
X7586Y6522D01*
X7574Y6504D01*
X7568Y6474D01*
Y6457D01*
X7574Y6427D01*
X7586Y6409D01*
X7604Y6403D01*
X7616D01*
X7634Y6409D01*
X7646Y6427D01*
X7651Y6457D01*
Y6474D01*
X7646Y6504D01*
X7634Y6522D01*
X7616Y6528D01*
X7604D01*
X7751Y6510D02*
X7745Y6522D01*
X7727Y6528D01*
X7715D01*
X7697Y6522D01*
X7685Y6504D01*
X7679Y6474D01*
Y6445D01*
X7685Y6421D01*
X7697Y6409D01*
X7715Y6403D01*
X7721D01*
X7739Y6409D01*
X7751Y6421D01*
X7757Y6439D01*
Y6445D01*
X7751Y6463D01*
X7739Y6474D01*
X7721Y6480D01*
X7715D01*
X7697Y6474D01*
X7685Y6463D01*
X7679Y6445D01*
X7790Y6498D02*
Y6504D01*
X7796Y6516D01*
X7802Y6522D01*
X7814Y6528D01*
X7838D01*
X7850Y6522D01*
X7856Y6516D01*
X7862Y6504D01*
Y6492D01*
X7856Y6480D01*
X7844Y6463D01*
X7784Y6403D01*
X7868D01*
X7469Y6211D02*
X7564D01*
X12415Y7317D02*
Y7192D01*
X12487D01*
X12595D02*
X12548Y7317D01*
X12500Y7192D01*
X12518Y7234D02*
X12578D01*
X12625Y7317D02*
X12672Y7257D01*
Y7192D01*
X12720Y7317D02*
X12672Y7257D01*
X12813Y7317D02*
X12736D01*
Y7192D01*
X12813D01*
X12736Y7257D02*
X12783D01*
X12834Y7317D02*
Y7192D01*
Y7317D02*
X12888D01*
X12905Y7311D01*
X12911Y7305D01*
X12917Y7293D01*
Y7281D01*
X12911Y7269D01*
X12905Y7263D01*
X12888Y7257D01*
X12834D01*
X12876D02*
X12917Y7192D01*
X13044Y7293D02*
X13055Y7299D01*
X13073Y7317D01*
Y7192D01*
X13275Y7341D02*
X13263Y7329D01*
X13251Y7311D01*
X13239Y7287D01*
X13233Y7257D01*
Y7234D01*
X13239Y7204D01*
X13251Y7180D01*
X13263Y7162D01*
X13275Y7150D01*
X13263Y7329D02*
X13251Y7305D01*
X13245Y7287D01*
X13239Y7257D01*
Y7234D01*
X13245Y7204D01*
X13251Y7186D01*
X13263Y7162D01*
X13299Y7293D02*
X13311Y7299D01*
X13329Y7317D01*
Y7192D01*
X13524Y7317D02*
X13512Y7311D01*
X13501Y7299D01*
X13495Y7287D01*
X13489Y7269D01*
Y7240D01*
X13495Y7222D01*
X13501Y7210D01*
X13512Y7198D01*
X13524Y7192D01*
X13548D01*
X13560Y7198D01*
X13572Y7210D01*
X13578Y7222D01*
X13584Y7240D01*
Y7269D01*
X13578Y7287D01*
X13572Y7299D01*
X13560Y7311D01*
X13548Y7317D01*
X13524D01*
X13696D02*
X13613Y7192D01*
Y7317D02*
X13696D01*
X13613Y7192D02*
X13696D01*
X13730Y7204D02*
X13724Y7198D01*
X13730Y7192D01*
X13736Y7198D01*
X13730Y7204D01*
X13764Y7341D02*
X13776Y7329D01*
X13787Y7311D01*
X13799Y7287D01*
X13805Y7257D01*
Y7234D01*
X13799Y7204D01*
X13787Y7180D01*
X13776Y7162D01*
X13764Y7150D01*
X13776Y7329D02*
X13787Y7305D01*
X13793Y7287D01*
X13799Y7257D01*
Y7234D01*
X13793Y7204D01*
X13787Y7186D01*
X13776Y7162D01*
X14121Y7287D02*
X14115Y7299D01*
X14103Y7311D01*
X14092Y7317D01*
X14068D01*
X14056Y7311D01*
X14044Y7299D01*
X14038Y7287D01*
X14032Y7269D01*
Y7240D01*
X14038Y7222D01*
X14044Y7210D01*
X14056Y7198D01*
X14068Y7192D01*
X14092D01*
X14103Y7198D01*
X14115Y7210D01*
X14121Y7222D01*
X14192Y7317D02*
X14180Y7311D01*
X14168Y7299D01*
X14162Y7287D01*
X14156Y7269D01*
Y7240D01*
X14162Y7222D01*
X14168Y7210D01*
X14180Y7198D01*
X14192Y7192D01*
X14216D01*
X14228Y7198D01*
X14240Y7210D01*
X14246Y7222D01*
X14252Y7240D01*
Y7269D01*
X14246Y7287D01*
X14240Y7299D01*
X14228Y7311D01*
X14216Y7317D01*
X14192D01*
X14281D02*
Y7192D01*
Y7317D02*
X14328Y7192D01*
X14376Y7317D02*
X14328Y7192D01*
X14376Y7317D02*
Y7192D01*
X14412Y7252D02*
X14465D01*
X14483Y7257D01*
X14489Y7263D01*
X14495Y7275D01*
Y7293D01*
X14489Y7305D01*
X14483Y7311D01*
X14465Y7317D01*
X14412D01*
Y7192D01*
X14559Y7317D02*
X14547Y7311D01*
X14535Y7299D01*
X14529Y7287D01*
X14523Y7269D01*
Y7240D01*
X14529Y7222D01*
X14535Y7210D01*
X14547Y7198D01*
X14559Y7192D01*
X14582D01*
X14594Y7198D01*
X14606Y7210D01*
X14612Y7222D01*
X14618Y7240D01*
Y7269D01*
X14612Y7287D01*
X14606Y7299D01*
X14594Y7311D01*
X14582Y7317D01*
X14559D01*
X14647D02*
Y7192D01*
Y7317D02*
X14731Y7192D01*
Y7317D02*
Y7192D01*
X14843Y7317D02*
X14765D01*
Y7192D01*
X14843D01*
X14765Y7257D02*
X14813D01*
X14863Y7317D02*
Y7192D01*
Y7317D02*
X14947Y7192D01*
Y7317D02*
Y7192D01*
X15023Y7317D02*
Y7192D01*
X14981Y7317D02*
X15065D01*
X15261Y7299D02*
X15249Y7311D01*
X15231Y7317D01*
X15207D01*
X15190Y7311D01*
X15178Y7299D01*
Y7287D01*
X15184Y7275D01*
X15190Y7269D01*
X15201Y7263D01*
X15237Y7252D01*
X15249Y7246D01*
X15255Y7240D01*
X15261Y7228D01*
Y7210D01*
X15249Y7198D01*
X15231Y7192D01*
X15207D01*
X15190Y7198D01*
X15178Y7210D01*
X15289Y7317D02*
Y7192D01*
X15315Y7317D02*
Y7192D01*
Y7317D02*
X15357D01*
X15375Y7311D01*
X15386Y7299D01*
X15392Y7287D01*
X15398Y7269D01*
Y7240D01*
X15392Y7222D01*
X15386Y7210D01*
X15375Y7198D01*
X15357Y7192D01*
X15315D01*
X15504Y7317D02*
X15426D01*
Y7192D01*
X15504D01*
X15426Y7257D02*
X15474D01*
X12412Y7092D02*
Y6967D01*
Y7092D02*
X12489D01*
X12412Y7032D02*
X12460D01*
X12504Y7092D02*
Y6967D01*
X12530Y7092D02*
Y6967D01*
Y7092D02*
X12613Y6967D01*
Y7092D02*
Y6967D01*
X12648Y7092D02*
Y6967D01*
X12757Y7074D02*
X12745Y7086D01*
X12728Y7092D01*
X12704D01*
X12686Y7086D01*
X12674Y7074D01*
Y7062D01*
X12680Y7050D01*
X12686Y7044D01*
X12698Y7038D01*
X12733Y7027D01*
X12745Y7021D01*
X12751Y7015D01*
X12757Y7003D01*
Y6985D01*
X12745Y6973D01*
X12728Y6967D01*
X12704D01*
X12686Y6973D01*
X12674Y6985D01*
X12785Y7092D02*
Y6967D01*
X12869Y7092D02*
Y6967D01*
X12785Y7032D02*
X12869D01*
X12980Y7092D02*
X12903D01*
Y6967D01*
X12980D01*
X12903Y7032D02*
X12951D01*
X13001Y7092D02*
Y6967D01*
Y7092D02*
X13043D01*
X13061Y7086D01*
X13073Y7074D01*
X13079Y7062D01*
X13085Y7044D01*
Y7015D01*
X13079Y6997D01*
X13073Y6985D01*
X13061Y6973D01*
X13043Y6967D01*
X13001D01*
X16083Y7311D02*
X16023Y7228D01*
X16112D01*
X16083Y7311D02*
Y7186D01*
X15719Y7286D02*
Y7292D01*
X15725Y7304D01*
X15731Y7310D01*
X15743Y7316D01*
X15767D01*
X15779Y7310D01*
X15785Y7304D01*
X15790Y7292D01*
Y7280D01*
X15785Y7268D01*
X15773Y7251D01*
X15713Y7191D01*
X15796D01*
X16087Y7311D02*
X16027Y7228D01*
X16116D01*
X16087Y7311D02*
Y7186D01*
X15723Y7286D02*
Y7292D01*
X15729Y7304D01*
X15735Y7310D01*
X15747Y7316D01*
X15771D01*
X15783Y7310D01*
X15789Y7304D01*
X15794Y7292D01*
Y7280D01*
X15789Y7268D01*
X15777Y7251D01*
X15717Y7191D01*
X15800D01*
X7515Y6335D02*
Y6228D01*
X7462Y6282D02*
X7569D01*
X7612Y6240D02*
X7606Y6234D01*
X7612Y6228D01*
X7618Y6234D01*
X7612Y6240D01*
X7681Y6353D02*
X7663Y6347D01*
X7651Y6329D01*
X7645Y6299D01*
Y6282D01*
X7651Y6252D01*
X7663Y6234D01*
X7681Y6228D01*
X7693D01*
X7711Y6234D01*
X7723Y6252D01*
X7728Y6282D01*
Y6299D01*
X7723Y6329D01*
X7711Y6347D01*
X7693Y6353D01*
X7681D01*
X7792D02*
X7774Y6347D01*
X7762Y6329D01*
X7756Y6299D01*
Y6282D01*
X7762Y6252D01*
X7774Y6234D01*
X7792Y6228D01*
X7804D01*
X7822Y6234D01*
X7834Y6252D01*
X7840Y6282D01*
Y6299D01*
X7834Y6329D01*
X7822Y6347D01*
X7804Y6353D01*
X7792D01*
X7951D02*
X7892Y6228D01*
X7868Y6353D02*
X7951D01*
X163Y4423D02*
X175Y4429D01*
X192Y4446D01*
Y4322D01*
X290Y4446D02*
X272Y4441D01*
X260Y4423D01*
X254Y4393D01*
Y4375D01*
X260Y4345D01*
X272Y4327D01*
X290Y4322D01*
X302D01*
X320Y4327D01*
X332Y4345D01*
X338Y4375D01*
Y4393D01*
X332Y4423D01*
X320Y4441D01*
X302Y4446D01*
X290D01*
X371Y4333D02*
X366Y4327D01*
X371Y4322D01*
X377Y4327D01*
X371Y4333D01*
X138Y3948D02*
X150Y3954D01*
X167Y3971D01*
Y3847D01*
X229Y3948D02*
X241Y3954D01*
X259Y3971D01*
Y3847D01*
X327Y3858D02*
X321Y3852D01*
X327Y3847D01*
X333Y3852D01*
X327Y3858D01*
X538Y3971D02*
Y3847D01*
Y3971D02*
X591D01*
X609Y3966D01*
X615Y3960D01*
X621Y3948D01*
Y3936D01*
X615Y3924D01*
X609Y3918D01*
X591Y3912D01*
X538D02*
X591D01*
X609Y3906D01*
X615Y3900D01*
X621Y3888D01*
Y3870D01*
X615Y3858D01*
X609Y3852D01*
X591Y3847D01*
X538D01*
X685Y3971D02*
X673Y3966D01*
X661Y3954D01*
X655Y3942D01*
X649Y3924D01*
Y3894D01*
X655Y3876D01*
X661Y3864D01*
X673Y3852D01*
X685Y3847D01*
X708D01*
X720Y3852D01*
X732Y3864D01*
X738Y3876D01*
X744Y3894D01*
Y3924D01*
X738Y3942D01*
X732Y3954D01*
X720Y3966D01*
X708Y3971D01*
X685D01*
X868Y3847D02*
X821Y3971D01*
X773Y3847D01*
X791Y3888D02*
X851D01*
X898Y3971D02*
Y3847D01*
Y3971D02*
X951D01*
X969Y3966D01*
X975Y3960D01*
X981Y3948D01*
Y3936D01*
X975Y3924D01*
X969Y3918D01*
X951Y3912D01*
X898D01*
X939D02*
X981Y3847D01*
X1009Y3971D02*
Y3847D01*
Y3971D02*
X1051D01*
X1068Y3966D01*
X1080Y3954D01*
X1086Y3942D01*
X1092Y3924D01*
Y3894D01*
X1086Y3876D01*
X1080Y3864D01*
X1068Y3852D01*
X1051Y3847D01*
X1009D01*
X1204Y3954D02*
X1192Y3966D01*
X1174Y3971D01*
X1150D01*
X1132Y3966D01*
X1120Y3954D01*
Y3942D01*
X1126Y3930D01*
X1132Y3924D01*
X1144Y3918D01*
X1180Y3906D01*
X1192Y3900D01*
X1198Y3894D01*
X1204Y3882D01*
Y3864D01*
X1192Y3852D01*
X1174Y3847D01*
X1150D01*
X1132Y3852D01*
X1120Y3864D01*
X1371Y3971D02*
Y3847D01*
X1330Y3971D02*
X1413D01*
X1464D02*
X1452Y3966D01*
X1440Y3954D01*
X1434Y3942D01*
X1428Y3924D01*
Y3894D01*
X1434Y3876D01*
X1440Y3864D01*
X1452Y3852D01*
X1464Y3847D01*
X1487D01*
X1499Y3852D01*
X1511Y3864D01*
X1517Y3876D01*
X1523Y3894D01*
Y3924D01*
X1517Y3942D01*
X1511Y3954D01*
X1499Y3966D01*
X1487Y3971D01*
X1464D01*
X1650D02*
Y3847D01*
Y3971D02*
X1704D01*
X1722Y3966D01*
X1728Y3960D01*
X1734Y3948D01*
Y3936D01*
X1728Y3924D01*
X1722Y3918D01*
X1704Y3912D01*
X1650D02*
X1704D01*
X1722Y3906D01*
X1728Y3900D01*
X1734Y3888D01*
Y3870D01*
X1728Y3858D01*
X1722Y3852D01*
X1704Y3847D01*
X1650D01*
X1839Y3971D02*
X1762D01*
Y3847D01*
X1839D01*
X1762Y3912D02*
X1809D01*
X1958Y3906D02*
X2012D01*
X2030Y3912D01*
X2035Y3918D01*
X2041Y3930D01*
Y3948D01*
X2035Y3960D01*
X2030Y3966D01*
X2012Y3971D01*
X1958D01*
Y3847D01*
X2165D02*
X2117Y3971D01*
X2069Y3847D01*
X2087Y3888D02*
X2147D01*
X2194Y3971D02*
Y3847D01*
Y3971D02*
X2277Y3847D01*
Y3971D02*
Y3847D01*
X2389Y3971D02*
X2312D01*
Y3847D01*
X2389D01*
X2312Y3912D02*
X2359D01*
X2410Y3971D02*
Y3847D01*
X2481D01*
X2495Y3971D02*
Y3847D01*
X2604Y3971D02*
X2521Y3847D01*
Y3971D02*
X2604D01*
X2521Y3847D02*
X2604D01*
X2710Y3971D02*
X2632D01*
Y3847D01*
X2710D01*
X2632Y3912D02*
X2680D01*
X2731Y3971D02*
Y3847D01*
Y3971D02*
X2772D01*
X2790Y3966D01*
X2802Y3954D01*
X2808Y3942D01*
X2814Y3924D01*
Y3894D01*
X2808Y3876D01*
X2802Y3864D01*
X2790Y3852D01*
X2772Y3847D01*
X2731D01*
X3035D02*
X2988Y3971D01*
X2940Y3847D01*
X2958Y3888D02*
X3017D01*
X3148Y3954D02*
X3136Y3966D01*
X3118Y3971D01*
X3094D01*
X3076Y3966D01*
X3064Y3954D01*
Y3942D01*
X3070Y3930D01*
X3076Y3924D01*
X3088Y3918D01*
X3124Y3906D01*
X3136Y3900D01*
X3142Y3894D01*
X3148Y3882D01*
Y3864D01*
X3136Y3852D01*
X3118Y3847D01*
X3094D01*
X3076Y3852D01*
X3064Y3864D01*
X3345Y3971D02*
X3286D01*
X3280Y3918D01*
X3286Y3924D01*
X3304Y3930D01*
X3322D01*
X3339Y3924D01*
X3351Y3912D01*
X3357Y3894D01*
Y3882D01*
X3351Y3864D01*
X3339Y3852D01*
X3322Y3847D01*
X3304D01*
X3286Y3852D01*
X3280Y3858D01*
X3274Y3870D01*
X3385Y3930D02*
X3451Y3847D01*
Y3930D02*
X3385Y3847D01*
X3483Y3942D02*
Y3948D01*
X3489Y3960D01*
X3495Y3966D01*
X3507Y3971D01*
X3530D01*
X3542Y3966D01*
X3548Y3960D01*
X3554Y3948D01*
Y3936D01*
X3548Y3924D01*
X3536Y3906D01*
X3477Y3847D01*
X3560D01*
X3600Y3852D02*
X3594Y3847D01*
X3588Y3852D01*
X3594Y3858D01*
X3600Y3852D01*
Y3841D01*
X3594Y3829D01*
X3588Y3823D01*
X3726Y3971D02*
X3755Y3847D01*
X3785Y3971D02*
X3755Y3847D01*
X3785Y3971D02*
X3815Y3847D01*
X3845Y3971D02*
X3815Y3847D01*
X3870Y3971D02*
Y3847D01*
X3937Y3971D02*
Y3847D01*
X3896Y3971D02*
X3979D01*
X3994D02*
Y3847D01*
X4077Y3971D02*
Y3847D01*
X3994Y3912D02*
X4077D01*
X4210Y3971D02*
X4258Y3847D01*
X4305Y3971D02*
X4258Y3847D01*
X4321Y3900D02*
X4428D01*
X4555Y3942D02*
X4549Y3954D01*
X4537Y3966D01*
X4525Y3971D01*
X4501D01*
X4489Y3966D01*
X4477Y3954D01*
X4471Y3942D01*
X4465Y3924D01*
Y3894D01*
X4471Y3876D01*
X4477Y3864D01*
X4489Y3852D01*
X4501Y3847D01*
X4525D01*
X4537Y3852D01*
X4549Y3864D01*
X4555Y3876D01*
Y3894D01*
X4525D02*
X4555D01*
X4583Y3971D02*
Y3847D01*
Y3971D02*
X4637D01*
X4655Y3966D01*
X4661Y3960D01*
X4666Y3948D01*
Y3936D01*
X4661Y3924D01*
X4655Y3918D01*
X4637Y3912D01*
X4583D01*
X4625D02*
X4666Y3847D01*
X4730Y3971D02*
X4718Y3966D01*
X4706Y3954D01*
X4700Y3942D01*
X4694Y3924D01*
Y3894D01*
X4700Y3876D01*
X4706Y3864D01*
X4718Y3852D01*
X4730Y3847D01*
X4754D01*
X4766Y3852D01*
X4778Y3864D01*
X4784Y3876D01*
X4790Y3894D01*
Y3924D01*
X4784Y3942D01*
X4778Y3954D01*
X4766Y3966D01*
X4754Y3971D01*
X4730D01*
X4855D02*
X4843Y3966D01*
X4831Y3954D01*
X4825Y3942D01*
X4819Y3924D01*
Y3894D01*
X4825Y3876D01*
X4831Y3864D01*
X4843Y3852D01*
X4855Y3847D01*
X4878D01*
X4890Y3852D01*
X4902Y3864D01*
X4908Y3876D01*
X4914Y3894D01*
Y3924D01*
X4908Y3942D01*
X4902Y3954D01*
X4890Y3966D01*
X4878Y3971D01*
X4855D01*
X4943D02*
X4991Y3847D01*
X5038Y3971D02*
X4991Y3847D01*
X5132Y3971D02*
X5054D01*
Y3847D01*
X5132D01*
X5054Y3912D02*
X5102D01*
X5334Y3954D02*
X5322Y3966D01*
X5304Y3971D01*
X5281D01*
X5263Y3966D01*
X5251Y3954D01*
Y3942D01*
X5257Y3930D01*
X5263Y3924D01*
X5275Y3918D01*
X5310Y3906D01*
X5322Y3900D01*
X5328Y3894D01*
X5334Y3882D01*
Y3864D01*
X5322Y3852D01*
X5304Y3847D01*
X5281D01*
X5263Y3852D01*
X5251Y3864D01*
X5440Y3971D02*
X5362D01*
Y3847D01*
X5440D01*
X5362Y3912D02*
X5410D01*
X5460Y3906D02*
X5514D01*
X5532Y3912D01*
X5538Y3918D01*
X5544Y3930D01*
Y3948D01*
X5538Y3960D01*
X5532Y3966D01*
X5514Y3971D01*
X5460D01*
Y3847D01*
X5667D02*
X5619Y3971D01*
X5572Y3847D01*
X5589Y3888D02*
X5649D01*
X5696Y3971D02*
Y3847D01*
Y3971D02*
X5750D01*
X5767Y3966D01*
X5773Y3960D01*
X5779Y3948D01*
Y3936D01*
X5773Y3924D01*
X5767Y3918D01*
X5750Y3912D01*
X5696D01*
X5738D02*
X5779Y3847D01*
X5903D02*
X5855Y3971D01*
X5807Y3847D01*
X5825Y3888D02*
X5885D01*
X5973Y3971D02*
Y3847D01*
X5932Y3971D02*
X6015D01*
X6030D02*
Y3847D01*
X6092Y3971D02*
X6080Y3966D01*
X6068Y3954D01*
X6062Y3942D01*
X6056Y3924D01*
Y3894D01*
X6062Y3876D01*
X6068Y3864D01*
X6080Y3852D01*
X6092Y3847D01*
X6116D01*
X6127Y3852D01*
X6139Y3864D01*
X6145Y3876D01*
X6151Y3894D01*
Y3924D01*
X6145Y3942D01*
X6139Y3954D01*
X6127Y3966D01*
X6116Y3971D01*
X6092D01*
X6180D02*
Y3847D01*
Y3971D02*
X6264Y3847D01*
Y3971D02*
Y3847D01*
X6310Y3852D02*
X6304Y3847D01*
X6298Y3852D01*
X6304Y3858D01*
X6310Y3852D01*
Y3841D01*
X6304Y3829D01*
X6298Y3823D01*
X6531Y3847D02*
X6483Y3971D01*
X6436Y3847D01*
X6454Y3888D02*
X6513D01*
X6560Y3971D02*
Y3847D01*
Y3971D02*
X6643Y3847D01*
Y3971D02*
Y3847D01*
X6678Y3971D02*
Y3847D01*
Y3971D02*
X6720D01*
X6737Y3966D01*
X6749Y3954D01*
X6755Y3942D01*
X6761Y3924D01*
Y3894D01*
X6755Y3876D01*
X6749Y3864D01*
X6737Y3852D01*
X6720Y3847D01*
X6678D01*
X573Y3771D02*
X555Y3766D01*
X544Y3748D01*
X538Y3718D01*
Y3700D01*
X544Y3670D01*
X555Y3652D01*
X573Y3647D01*
X585D01*
X603Y3652D01*
X615Y3670D01*
X621Y3700D01*
Y3718D01*
X615Y3748D01*
X603Y3766D01*
X585Y3771D01*
X573D01*
X655Y3658D02*
X649Y3652D01*
X655Y3647D01*
X661Y3652D01*
X655Y3658D01*
X694Y3742D02*
Y3748D01*
X700Y3760D01*
X706Y3766D01*
X718Y3771D01*
X742D01*
X754Y3766D01*
X760Y3760D01*
X766Y3748D01*
Y3736D01*
X760Y3724D01*
X748Y3706D01*
X688Y3647D01*
X771D01*
X871Y3771D02*
X811D01*
X805Y3718D01*
X811Y3724D01*
X829Y3730D01*
X847D01*
X865Y3724D01*
X877Y3712D01*
X883Y3694D01*
Y3682D01*
X877Y3664D01*
X865Y3652D01*
X847Y3647D01*
X829D01*
X811Y3652D01*
X805Y3658D01*
X799Y3670D01*
X946Y3771D02*
X929Y3766D01*
X917Y3748D01*
X911Y3718D01*
Y3700D01*
X917Y3670D01*
X929Y3652D01*
X946Y3647D01*
X958D01*
X976Y3652D01*
X988Y3670D01*
X994Y3700D01*
Y3718D01*
X988Y3748D01*
X976Y3766D01*
X958Y3771D01*
X946D01*
X1120D02*
Y3647D01*
X1146Y3771D02*
Y3647D01*
Y3771D02*
X1230Y3647D01*
Y3771D02*
Y3647D01*
X1353Y3742D02*
X1348Y3754D01*
X1336Y3766D01*
X1324Y3771D01*
X1300D01*
X1288Y3766D01*
X1276Y3754D01*
X1270Y3742D01*
X1264Y3724D01*
Y3694D01*
X1270Y3676D01*
X1276Y3664D01*
X1288Y3652D01*
X1300Y3647D01*
X1324D01*
X1336Y3652D01*
X1348Y3664D01*
X1353Y3676D01*
X1389Y3771D02*
Y3647D01*
X1472Y3771D02*
Y3647D01*
X1389Y3712D02*
X1472D01*
X1605Y3771D02*
X1634Y3647D01*
X1664Y3771D02*
X1634Y3647D01*
X1664Y3771D02*
X1694Y3647D01*
X1724Y3771D02*
X1694Y3647D01*
X1749Y3771D02*
Y3647D01*
X1775Y3771D02*
Y3647D01*
Y3771D02*
X1816D01*
X1834Y3766D01*
X1846Y3754D01*
X1852Y3742D01*
X1858Y3724D01*
Y3694D01*
X1852Y3676D01*
X1846Y3664D01*
X1834Y3652D01*
X1816Y3647D01*
X1775D01*
X1963Y3771D02*
X1886D01*
Y3647D01*
X1963D01*
X1886Y3712D02*
X1934D01*
X2083Y3771D02*
Y3647D01*
Y3771D02*
X2136D01*
X2154Y3766D01*
X2160Y3760D01*
X2166Y3748D01*
Y3736D01*
X2160Y3724D01*
X2154Y3718D01*
X2136Y3712D01*
X2083D02*
X2136D01*
X2154Y3706D01*
X2160Y3700D01*
X2166Y3688D01*
Y3670D01*
X2160Y3658D01*
X2154Y3652D01*
X2136Y3647D01*
X2083D01*
X2229Y3771D02*
X2218Y3766D01*
X2206Y3754D01*
X2200Y3742D01*
X2194Y3724D01*
Y3694D01*
X2200Y3676D01*
X2206Y3664D01*
X2218Y3652D01*
X2229Y3647D01*
X2253D01*
X2265Y3652D01*
X2277Y3664D01*
X2283Y3676D01*
X2289Y3694D01*
Y3724D01*
X2283Y3742D01*
X2277Y3754D01*
X2265Y3766D01*
X2253Y3771D01*
X2229D01*
X2318D02*
Y3647D01*
Y3771D02*
X2372D01*
X2390Y3766D01*
X2396Y3760D01*
X2401Y3748D01*
Y3736D01*
X2396Y3724D01*
X2390Y3718D01*
X2372Y3712D01*
X2318D01*
X2360D02*
X2401Y3647D01*
X2429Y3771D02*
Y3647D01*
Y3771D02*
X2471D01*
X2489Y3766D01*
X2501Y3754D01*
X2507Y3742D01*
X2513Y3724D01*
Y3694D01*
X2507Y3676D01*
X2501Y3664D01*
X2489Y3652D01*
X2471Y3647D01*
X2429D01*
X2618Y3771D02*
X2541D01*
Y3647D01*
X2618D01*
X2541Y3712D02*
X2588D01*
X2639Y3771D02*
Y3647D01*
Y3771D02*
X2692D01*
X2710Y3766D01*
X2716Y3760D01*
X2722Y3748D01*
Y3736D01*
X2716Y3724D01*
X2710Y3718D01*
X2692Y3712D01*
X2639D01*
X2681D02*
X2722Y3647D01*
X2834Y3754D02*
X2822Y3766D01*
X2804Y3771D01*
X2780D01*
X2762Y3766D01*
X2750Y3754D01*
Y3742D01*
X2756Y3730D01*
X2762Y3724D01*
X2774Y3718D01*
X2810Y3706D01*
X2822Y3700D01*
X2828Y3694D01*
X2834Y3682D01*
Y3664D01*
X2822Y3652D01*
X2804Y3647D01*
X2780D01*
X2762Y3652D01*
X2750Y3664D01*
X2995Y3771D02*
X2984Y3766D01*
X2972Y3754D01*
X2966Y3742D01*
X2960Y3724D01*
Y3694D01*
X2966Y3676D01*
X2972Y3664D01*
X2984Y3652D01*
X2995Y3647D01*
X3019D01*
X3031Y3652D01*
X3043Y3664D01*
X3049Y3676D01*
X3055Y3694D01*
Y3724D01*
X3049Y3742D01*
X3043Y3754D01*
X3031Y3766D01*
X3019Y3771D01*
X2995D01*
X3084D02*
Y3647D01*
Y3771D02*
X3167Y3647D01*
Y3771D02*
Y3647D01*
X3342Y3771D02*
Y3647D01*
X3300Y3771D02*
X3383D01*
X3398D02*
X3428Y3647D01*
X3458Y3771D02*
X3428Y3647D01*
X3458Y3771D02*
X3488Y3647D01*
X3517Y3771D02*
X3488Y3647D01*
X3578Y3771D02*
X3566Y3766D01*
X3554Y3754D01*
X3548Y3742D01*
X3542Y3724D01*
Y3694D01*
X3548Y3676D01*
X3554Y3664D01*
X3566Y3652D01*
X3578Y3647D01*
X3602D01*
X3614Y3652D01*
X3626Y3664D01*
X3632Y3676D01*
X3638Y3694D01*
Y3724D01*
X3632Y3742D01*
X3626Y3754D01*
X3614Y3766D01*
X3602Y3771D01*
X3578D01*
X3801D02*
X3789Y3766D01*
X3777Y3754D01*
X3771Y3742D01*
X3765Y3724D01*
Y3694D01*
X3771Y3676D01*
X3777Y3664D01*
X3789Y3652D01*
X3801Y3647D01*
X3824D01*
X3836Y3652D01*
X3848Y3664D01*
X3854Y3676D01*
X3860Y3694D01*
Y3724D01*
X3854Y3742D01*
X3848Y3754D01*
X3836Y3766D01*
X3824Y3771D01*
X3801D01*
X3889Y3706D02*
X3943D01*
X3961Y3712D01*
X3967Y3718D01*
X3973Y3730D01*
Y3748D01*
X3967Y3760D01*
X3961Y3766D01*
X3943Y3771D01*
X3889D01*
Y3647D01*
X4001Y3706D02*
X4054D01*
X4072Y3712D01*
X4078Y3718D01*
X4084Y3730D01*
Y3748D01*
X4078Y3760D01*
X4072Y3766D01*
X4054Y3771D01*
X4001D01*
Y3647D01*
X4148Y3771D02*
X4136Y3766D01*
X4124Y3754D01*
X4118Y3742D01*
X4112Y3724D01*
Y3694D01*
X4118Y3676D01*
X4124Y3664D01*
X4136Y3652D01*
X4148Y3647D01*
X4171D01*
X4183Y3652D01*
X4195Y3664D01*
X4201Y3676D01*
X4207Y3694D01*
Y3724D01*
X4201Y3742D01*
X4195Y3754D01*
X4183Y3766D01*
X4171Y3771D01*
X4148D01*
X4320Y3754D02*
X4308Y3766D01*
X4290Y3771D01*
X4266D01*
X4248Y3766D01*
X4236Y3754D01*
Y3742D01*
X4242Y3730D01*
X4248Y3724D01*
X4260Y3718D01*
X4296Y3706D01*
X4308Y3700D01*
X4314Y3694D01*
X4320Y3682D01*
Y3664D01*
X4308Y3652D01*
X4290Y3647D01*
X4266D01*
X4248Y3652D01*
X4236Y3664D01*
X4347Y3771D02*
Y3647D01*
X4374Y3771D02*
Y3647D01*
Y3771D02*
X4457Y3647D01*
Y3771D02*
Y3647D01*
X4581Y3742D02*
X4575Y3754D01*
X4563Y3766D01*
X4551Y3771D01*
X4527D01*
X4515Y3766D01*
X4503Y3754D01*
X4497Y3742D01*
X4492Y3724D01*
Y3694D01*
X4497Y3676D01*
X4503Y3664D01*
X4515Y3652D01*
X4527Y3647D01*
X4551D01*
X4563Y3652D01*
X4575Y3664D01*
X4581Y3676D01*
Y3694D01*
X4551D02*
X4581D01*
X4791Y3754D02*
X4779Y3766D01*
X4761Y3771D01*
X4737D01*
X4719Y3766D01*
X4708Y3754D01*
Y3742D01*
X4713Y3730D01*
X4719Y3724D01*
X4731Y3718D01*
X4767Y3706D01*
X4779Y3700D01*
X4785Y3694D01*
X4791Y3682D01*
Y3664D01*
X4779Y3652D01*
X4761Y3647D01*
X4737D01*
X4719Y3652D01*
X4708Y3664D01*
X4819Y3771D02*
Y3647D01*
X4845Y3771D02*
Y3647D01*
Y3771D02*
X4887D01*
X4905Y3766D01*
X4916Y3754D01*
X4922Y3742D01*
X4928Y3724D01*
Y3694D01*
X4922Y3676D01*
X4916Y3664D01*
X4905Y3652D01*
X4887Y3647D01*
X4845D01*
X5034Y3771D02*
X4956D01*
Y3647D01*
X5034D01*
X4956Y3712D02*
X5004D01*
X5138Y3754D02*
X5126Y3766D01*
X5108Y3771D01*
X5084D01*
X5066Y3766D01*
X5054Y3754D01*
Y3742D01*
X5060Y3730D01*
X5066Y3724D01*
X5078Y3718D01*
X5114Y3706D01*
X5126Y3700D01*
X5132Y3694D01*
X5138Y3682D01*
Y3664D01*
X5126Y3652D01*
X5108Y3647D01*
X5084D01*
X5066Y3652D01*
X5054Y3664D01*
X5300Y3771D02*
X5288Y3766D01*
X5276Y3754D01*
X5270Y3742D01*
X5264Y3724D01*
Y3694D01*
X5270Y3676D01*
X5276Y3664D01*
X5288Y3652D01*
X5300Y3647D01*
X5323D01*
X5335Y3652D01*
X5347Y3664D01*
X5353Y3676D01*
X5359Y3694D01*
Y3724D01*
X5353Y3742D01*
X5347Y3754D01*
X5335Y3766D01*
X5323Y3771D01*
X5300D01*
X5388D02*
Y3647D01*
Y3771D02*
X5466D01*
X5388Y3712D02*
X5436D01*
X5578Y3706D02*
X5632D01*
X5650Y3712D01*
X5656Y3718D01*
X5662Y3730D01*
Y3748D01*
X5656Y3760D01*
X5650Y3766D01*
X5632Y3771D01*
X5578D01*
Y3647D01*
X5785D02*
X5737Y3771D01*
X5689Y3647D01*
X5707Y3688D02*
X5767D01*
X5814Y3771D02*
Y3647D01*
Y3771D02*
X5897Y3647D01*
Y3771D02*
Y3647D01*
X6009Y3771D02*
X5932D01*
Y3647D01*
X6009D01*
X5932Y3712D02*
X5979D01*
X6030Y3771D02*
Y3647D01*
X6101D01*
X6121Y3658D02*
X6115Y3652D01*
X6121Y3647D01*
X6127Y3652D01*
X6121Y3658D01*
X6252Y3771D02*
Y3647D01*
Y3771D02*
X6306D01*
X6324Y3766D01*
X6330Y3760D01*
X6336Y3748D01*
Y3736D01*
X6330Y3724D01*
X6324Y3718D01*
X6306Y3712D01*
X6252D02*
X6306D01*
X6324Y3706D01*
X6330Y3700D01*
X6336Y3688D01*
Y3670D01*
X6330Y3658D01*
X6324Y3652D01*
X6306Y3647D01*
X6252D01*
X6399Y3771D02*
X6388Y3766D01*
X6376Y3754D01*
X6370Y3742D01*
X6364Y3724D01*
Y3694D01*
X6370Y3676D01*
X6376Y3664D01*
X6388Y3652D01*
X6399Y3647D01*
X6423D01*
X6435Y3652D01*
X6447Y3664D01*
X6453Y3676D01*
X6459Y3694D01*
Y3724D01*
X6453Y3742D01*
X6447Y3754D01*
X6435Y3766D01*
X6423Y3771D01*
X6399D01*
X6488D02*
Y3647D01*
Y3771D02*
X6542D01*
X6560Y3766D01*
X6565Y3760D01*
X6571Y3748D01*
Y3736D01*
X6565Y3724D01*
X6560Y3718D01*
X6542Y3712D01*
X6488D01*
X6530D02*
X6571Y3647D01*
X6599Y3771D02*
Y3647D01*
Y3771D02*
X6641D01*
X6659Y3766D01*
X6671Y3754D01*
X6677Y3742D01*
X6683Y3724D01*
Y3694D01*
X6677Y3676D01*
X6671Y3664D01*
X6659Y3652D01*
X6641Y3647D01*
X6599D01*
X6788Y3771D02*
X6711D01*
Y3647D01*
X6788D01*
X6711Y3712D02*
X6758D01*
X6809Y3771D02*
Y3647D01*
Y3771D02*
X6862D01*
X6880Y3766D01*
X6886Y3760D01*
X6892Y3748D01*
Y3736D01*
X6886Y3724D01*
X6880Y3718D01*
X6862Y3712D01*
X6809D01*
X6851D02*
X6892Y3647D01*
X7003Y3754D02*
X6992Y3766D01*
X6974Y3771D01*
X6950D01*
X6932Y3766D01*
X6920Y3754D01*
Y3742D01*
X6926Y3730D01*
X6932Y3724D01*
X6944Y3718D01*
X6980Y3706D01*
X6992Y3700D01*
X6998Y3694D01*
X7003Y3682D01*
Y3664D01*
X6992Y3652D01*
X6974Y3647D01*
X6950D01*
X6932Y3652D01*
X6920Y3664D01*
X579Y3596D02*
Y3472D01*
X538Y3596D02*
X621D01*
X672D02*
X660Y3591D01*
X648Y3579D01*
X642Y3567D01*
X636Y3549D01*
Y3519D01*
X642Y3501D01*
X648Y3489D01*
X660Y3477D01*
X672Y3472D01*
X695D01*
X707Y3477D01*
X719Y3489D01*
X725Y3501D01*
X731Y3519D01*
Y3549D01*
X725Y3567D01*
X719Y3579D01*
X707Y3591D01*
X695Y3596D01*
X672D01*
X948Y3567D02*
X942Y3579D01*
X930Y3591D01*
X918Y3596D01*
X894D01*
X882Y3591D01*
X870Y3579D01*
X864Y3567D01*
X858Y3549D01*
Y3519D01*
X864Y3501D01*
X870Y3489D01*
X882Y3477D01*
X894Y3472D01*
X918D01*
X930Y3477D01*
X942Y3489D01*
X948Y3501D01*
X1018Y3596D02*
X1007Y3591D01*
X995Y3579D01*
X989Y3567D01*
X983Y3549D01*
Y3519D01*
X989Y3501D01*
X995Y3489D01*
X1007Y3477D01*
X1018Y3472D01*
X1042D01*
X1054Y3477D01*
X1066Y3489D01*
X1072Y3501D01*
X1078Y3519D01*
Y3549D01*
X1072Y3567D01*
X1066Y3579D01*
X1054Y3591D01*
X1042Y3596D01*
X1018D01*
X1107D02*
Y3472D01*
Y3596D02*
X1190Y3472D01*
Y3596D02*
Y3472D01*
X1267Y3596D02*
Y3472D01*
X1225Y3596D02*
X1308D01*
X1418Y3472D02*
X1371Y3596D01*
X1323Y3472D01*
X1341Y3513D02*
X1401D01*
X1448Y3596D02*
Y3472D01*
X1474Y3596D02*
Y3472D01*
Y3596D02*
X1557Y3472D01*
Y3596D02*
Y3472D01*
X1731Y3596D02*
Y3472D01*
X1690Y3596D02*
X1773D01*
X1788D02*
X1818Y3472D01*
X1847Y3596D02*
X1818Y3472D01*
X1847Y3596D02*
X1877Y3472D01*
X1907Y3596D02*
X1877Y3472D01*
X1968Y3596D02*
X1956Y3591D01*
X1944Y3579D01*
X1938Y3567D01*
X1932Y3549D01*
Y3519D01*
X1938Y3501D01*
X1944Y3489D01*
X1956Y3477D01*
X1968Y3472D01*
X1991D01*
X2003Y3477D01*
X2015Y3489D01*
X2021Y3501D01*
X2027Y3519D01*
Y3549D01*
X2021Y3567D01*
X2015Y3579D01*
X2003Y3591D01*
X1991Y3596D01*
X1968D01*
X2190D02*
X2172Y3591D01*
X2160Y3573D01*
X2155Y3543D01*
Y3525D01*
X2160Y3495D01*
X2172Y3477D01*
X2190Y3472D01*
X2202D01*
X2220Y3477D01*
X2232Y3495D01*
X2238Y3525D01*
Y3543D01*
X2232Y3573D01*
X2220Y3591D01*
X2202Y3596D01*
X2190D01*
X2272Y3483D02*
X2266Y3477D01*
X2272Y3472D01*
X2278Y3477D01*
X2272Y3483D01*
X2305Y3573D02*
X2317Y3579D01*
X2335Y3596D01*
Y3472D01*
X2403Y3567D02*
Y3573D01*
X2409Y3585D01*
X2415Y3591D01*
X2426Y3596D01*
X2450D01*
X2462Y3591D01*
X2468Y3585D01*
X2474Y3573D01*
Y3561D01*
X2468Y3549D01*
X2456Y3531D01*
X2397Y3472D01*
X2480D01*
X2579Y3596D02*
X2520D01*
X2514Y3543D01*
X2520Y3549D01*
X2538Y3555D01*
X2556D01*
X2573Y3549D01*
X2585Y3537D01*
X2591Y3519D01*
Y3507D01*
X2585Y3489D01*
X2573Y3477D01*
X2556Y3472D01*
X2538D01*
X2520Y3477D01*
X2514Y3483D01*
X2508Y3495D01*
X2717Y3596D02*
Y3472D01*
X2744Y3596D02*
Y3472D01*
Y3596D02*
X2827Y3472D01*
Y3596D02*
Y3472D01*
X2951Y3567D02*
X2945Y3579D01*
X2933Y3591D01*
X2921Y3596D01*
X2897D01*
X2885Y3591D01*
X2873Y3579D01*
X2867Y3567D01*
X2862Y3549D01*
Y3519D01*
X2867Y3501D01*
X2873Y3489D01*
X2885Y3477D01*
X2897Y3472D01*
X2921D01*
X2933Y3477D01*
X2945Y3489D01*
X2951Y3501D01*
X2986Y3596D02*
Y3472D01*
X3069Y3596D02*
Y3472D01*
X2986Y3537D02*
X3069D01*
X3202Y3596D02*
Y3507D01*
X3208Y3489D01*
X3220Y3477D01*
X3238Y3472D01*
X3250D01*
X3267Y3477D01*
X3279Y3489D01*
X3285Y3507D01*
Y3596D01*
X3320D02*
Y3472D01*
Y3596D02*
X3403Y3472D01*
Y3596D02*
Y3472D01*
X3438Y3531D02*
X3491D01*
X3509Y3537D01*
X3515Y3543D01*
X3521Y3555D01*
Y3573D01*
X3515Y3585D01*
X3509Y3591D01*
X3491Y3596D01*
X3438D01*
Y3472D01*
X3549Y3596D02*
Y3472D01*
X3620D01*
X3729D02*
X3682Y3596D01*
X3634Y3472D01*
X3652Y3513D02*
X3711D01*
X3800Y3596D02*
Y3472D01*
X3758Y3596D02*
X3842D01*
X3934D02*
X3857D01*
Y3472D01*
X3934D01*
X3857Y3537D02*
X3904D01*
X3955Y3596D02*
Y3472D01*
Y3596D02*
X3996D01*
X4014Y3591D01*
X4026Y3579D01*
X4032Y3567D01*
X4038Y3549D01*
Y3519D01*
X4032Y3501D01*
X4026Y3489D01*
X4014Y3477D01*
X3996Y3472D01*
X3955D01*
X4206Y3596D02*
Y3472D01*
X4164Y3596D02*
X4248D01*
X4298D02*
X4286Y3591D01*
X4274Y3579D01*
X4268Y3567D01*
X4262Y3549D01*
Y3519D01*
X4268Y3501D01*
X4274Y3489D01*
X4286Y3477D01*
X4298Y3472D01*
X4322D01*
X4334Y3477D01*
X4346Y3489D01*
X4352Y3501D01*
X4358Y3519D01*
Y3549D01*
X4352Y3567D01*
X4346Y3579D01*
X4334Y3591D01*
X4322Y3596D01*
X4298D01*
X4422D02*
X4411Y3591D01*
X4399Y3579D01*
X4393Y3567D01*
X4387Y3549D01*
Y3519D01*
X4393Y3501D01*
X4399Y3489D01*
X4411Y3477D01*
X4422Y3472D01*
X4446D01*
X4458Y3477D01*
X4470Y3489D01*
X4476Y3501D01*
X4482Y3519D01*
Y3549D01*
X4476Y3567D01*
X4470Y3579D01*
X4458Y3591D01*
X4446Y3596D01*
X4422D01*
X4511D02*
Y3472D01*
X4583D01*
X4596Y3596D02*
Y3472D01*
X4622Y3596D02*
Y3472D01*
Y3596D02*
X4706Y3472D01*
Y3596D02*
Y3472D01*
X4830Y3567D02*
X4824Y3579D01*
X4812Y3591D01*
X4800Y3596D01*
X4776D01*
X4764Y3591D01*
X4752Y3579D01*
X4746Y3567D01*
X4740Y3549D01*
Y3519D01*
X4746Y3501D01*
X4752Y3489D01*
X4764Y3477D01*
X4776Y3472D01*
X4800D01*
X4812Y3477D01*
X4824Y3489D01*
X4830Y3501D01*
Y3519D01*
X4800D02*
X4830D01*
X4956Y3596D02*
Y3472D01*
X5040Y3596D02*
Y3472D01*
X4956Y3537D02*
X5040D01*
X5110Y3596D02*
X5098Y3591D01*
X5086Y3579D01*
X5080Y3567D01*
X5074Y3549D01*
Y3519D01*
X5080Y3501D01*
X5086Y3489D01*
X5098Y3477D01*
X5110Y3472D01*
X5134D01*
X5146Y3477D01*
X5157Y3489D01*
X5163Y3501D01*
X5169Y3519D01*
Y3549D01*
X5163Y3567D01*
X5157Y3579D01*
X5146Y3591D01*
X5134Y3596D01*
X5110D01*
X5199D02*
Y3472D01*
X5270D01*
X5361Y3596D02*
X5284D01*
Y3472D01*
X5361D01*
X5284Y3537D02*
X5331D01*
X5465Y3579D02*
X5453Y3591D01*
X5435Y3596D01*
X5412D01*
X5394Y3591D01*
X5382Y3579D01*
Y3567D01*
X5388Y3555D01*
X5394Y3549D01*
X5406Y3543D01*
X5441Y3531D01*
X5453Y3525D01*
X5459Y3519D01*
X5465Y3507D01*
Y3489D01*
X5453Y3477D01*
X5435Y3472D01*
X5412D01*
X5394Y3477D01*
X5382Y3489D01*
X5669Y3596D02*
X5591D01*
Y3472D01*
X5669D01*
X5591Y3537D02*
X5639D01*
X5785Y3472D02*
X5737Y3596D01*
X5689Y3472D01*
X5707Y3513D02*
X5767D01*
X5903Y3567D02*
X5897Y3579D01*
X5885Y3591D01*
X5873Y3596D01*
X5850D01*
X5838Y3591D01*
X5826Y3579D01*
X5820Y3567D01*
X5814Y3549D01*
Y3519D01*
X5820Y3501D01*
X5826Y3489D01*
X5838Y3477D01*
X5850Y3472D01*
X5873D01*
X5885Y3477D01*
X5897Y3489D01*
X5903Y3501D01*
X5938Y3596D02*
Y3472D01*
X6022Y3596D02*
Y3472D01*
X5938Y3537D02*
X6022D01*
X6238Y3579D02*
X6226Y3591D01*
X6208Y3596D01*
X6184D01*
X6166Y3591D01*
X6154Y3579D01*
Y3567D01*
X6160Y3555D01*
X6166Y3549D01*
X6178Y3543D01*
X6214Y3531D01*
X6226Y3525D01*
X6232Y3519D01*
X6238Y3507D01*
Y3489D01*
X6226Y3477D01*
X6208Y3472D01*
X6184D01*
X6166Y3477D01*
X6154Y3489D01*
X6266Y3596D02*
Y3472D01*
X6292Y3596D02*
Y3472D01*
Y3596D02*
X6333D01*
X6351Y3591D01*
X6363Y3579D01*
X6369Y3567D01*
X6375Y3549D01*
Y3519D01*
X6369Y3501D01*
X6363Y3489D01*
X6351Y3477D01*
X6333Y3472D01*
X6292D01*
X6480Y3596D02*
X6403D01*
Y3472D01*
X6480D01*
X6403Y3537D02*
X6451D01*
X6507Y3483D02*
X6501Y3477D01*
X6507Y3472D01*
X6513Y3477D01*
X6507Y3483D01*
D64*
X12276Y6381D02*
X12401D01*
X11410Y5881D02*
X12276Y6381D01*
X7635Y5827D02*
X9200D01*
X7714Y5825D02*
X7714Y6157D01*
X12280Y6381D02*
X12405D01*
X11414Y5881D02*
X12280Y6381D01*
X7620Y6806D02*
X9235D01*
X12259Y7256D02*
X12384D01*
X11393Y6756D02*
X12259Y7256D01*
X7720Y6800D02*
X7720Y6610D01*
X7624Y6806D02*
X9239D01*
X12263Y7256D02*
X12388D01*
X11397Y6756D02*
X12263Y7256D01*
D65*
X11426Y5890D02*
X11558Y5999D01*
X11426Y5890D02*
X11586Y5950D01*
X11442Y5900D02*
X11559Y5996D01*
X11442Y5900D02*
X11584Y5953D01*
X11458Y5909D02*
X11561Y5994D01*
X11458Y5909D02*
X11583Y5956D01*
X11475Y5919D02*
X11563Y5991D01*
X11475Y5919D02*
X11581Y5959D01*
X11491Y5928D02*
X11564Y5988D01*
X11491Y5928D02*
X11580Y5961D01*
X11507Y5937D02*
X11566Y5986D01*
X11507Y5937D02*
X11578Y5964D01*
X11523Y5947D02*
X11567Y5983D01*
X11523Y5947D02*
X11577Y5967D01*
X11540Y5956D02*
X11569Y5980D01*
X11540Y5956D02*
X11575Y5969D01*
X11556Y5965D02*
X11570Y5978D01*
X11556Y5965D02*
X11574Y5972D01*
X11556Y6002D02*
X11588Y5948D01*
X11410Y5881D02*
X11556Y6002D01*
X11410Y5881D02*
X11588Y5948D01*
X7686Y6014D02*
X7714Y5845D01*
X7743Y6014D01*
X7689D02*
X7714Y5864D01*
X7739Y6014D01*
X7693D02*
X7714Y5883D01*
X7736Y6014D01*
X7696D02*
X7714Y5902D01*
X7733Y6014D01*
X7699D02*
X7714Y5920D01*
X7730Y6014D01*
X7702D02*
X7714Y5939D01*
X7727Y6014D01*
X7705D02*
X7714Y5958D01*
X7724Y6014D01*
X7708D02*
X7714Y5977D01*
X7721Y6014D01*
X7683D02*
X7714Y5827D01*
X7746Y6014D01*
X11430Y5890D02*
X11562Y5999D01*
X11430Y5890D02*
X11590Y5950D01*
X11446Y5900D02*
X11563Y5996D01*
X11446Y5900D02*
X11588Y5953D01*
X11462Y5909D02*
X11565Y5994D01*
X11462Y5909D02*
X11587Y5956D01*
X11479Y5919D02*
X11567Y5991D01*
X11479Y5919D02*
X11585Y5959D01*
X11495Y5928D02*
X11568Y5988D01*
X11495Y5928D02*
X11584Y5961D01*
X11511Y5937D02*
X11570Y5986D01*
X11409Y6765D02*
X11541Y6874D01*
X11409Y6765D02*
X11570Y6825D01*
X11426Y6775D02*
X11543Y6871D01*
X11426Y6775D02*
X11568Y6828D01*
X11442Y6784D02*
X11545Y6869D01*
X11442Y6784D02*
X11566Y6831D01*
X11458Y6794D02*
X11546Y6866D01*
X11458Y6794D02*
X11565Y6834D01*
X11474Y6803D02*
X11548Y6863D01*
X11474Y6803D02*
X11563Y6836D01*
X11491Y6812D02*
X11549Y6861D01*
X11491Y6812D02*
X11562Y6839D01*
X11507Y6822D02*
X11551Y6858D01*
X11507Y6822D02*
X11560Y6842D01*
X11523Y6831D02*
X11552Y6855D01*
X11523Y6831D02*
X11559Y6844D01*
X11539Y6840D02*
X11554Y6853D01*
X11539Y6840D02*
X11557Y6847D01*
X11540Y6877D02*
X11571Y6823D01*
X11393Y6756D02*
X11540Y6877D01*
X11393Y6756D02*
X11571Y6823D01*
X7720Y6787D02*
X7748Y6619D01*
X7692D02*
X7720Y6787D01*
Y6769D02*
X7745Y6619D01*
X7695D02*
X7720Y6769D01*
Y6750D02*
X7742Y6619D01*
X7698Y6619D02*
X7720Y6750D01*
Y6731D02*
X7739Y6619D01*
X7701D02*
X7720Y6731D01*
Y6712D02*
X7736Y6619D01*
X7705D02*
X7720Y6712D01*
Y6694D02*
X7733Y6619D01*
X7708D02*
X7720Y6694D01*
Y6675D02*
X7729Y6619D01*
X7711D02*
X7720Y6675D01*
Y6656D02*
X7726Y6619D01*
X7714Y6619D02*
X7720Y6656D01*
Y6637D02*
X7723Y6619D01*
X7717D02*
X7720Y6637D01*
X7689Y6619D02*
X7751D01*
X7720Y6806D02*
X7751Y6619D01*
X7689D02*
X7720Y6806D01*
X11413Y6765D02*
X11545Y6874D01*
X11413Y6765D02*
X11574Y6825D01*
X11430Y6775D02*
X11547Y6871D01*
X11430Y6775D02*
X11572Y6828D01*
X11446Y6784D02*
X11549Y6869D01*
X11446Y6784D02*
X11570Y6831D01*
X11462Y6794D02*
X11550Y6866D01*
X11462Y6794D02*
X11569Y6834D01*
X11478Y6803D02*
X11552Y6863D01*
X11478Y6803D02*
X11567Y6836D01*
X11495Y6812D02*
X11553Y6861D01*
X11495Y6812D02*
X11566Y6839D01*
X11511Y6822D02*
X11555Y6858D01*
X11511Y6822D02*
X11564Y6842D01*
X11527Y6831D02*
X11556Y6855D01*
X11527Y6831D02*
X11563Y6844D01*
X11543Y6840D02*
X11558Y6853D01*
X11543Y6840D02*
X11561Y6847D01*
X11544Y6877D02*
X11575Y6823D01*
X11397Y6756D02*
X11544Y6877D01*
X11397Y6756D02*
X11575Y6823D01*
D66*
X563Y6746D02*
Y6622D01*
X589Y6746D02*
Y6622D01*
Y6746D02*
X636Y6622D01*
X684Y6746D02*
X636Y6622D01*
X684Y6746D02*
Y6622D01*
X720Y6746D02*
Y6622D01*
Y6746D02*
X767Y6622D01*
X815Y6746D02*
X767Y6622D01*
X815Y6746D02*
Y6622D01*
X928Y6746D02*
X851D01*
Y6622D01*
X928D01*
X851Y6687D02*
X898D01*
X949Y6746D02*
Y6622D01*
Y6746D02*
X1002D01*
X1020Y6741D01*
X1026Y6735D01*
X1032Y6723D01*
Y6711D01*
X1026Y6699D01*
X1020Y6693D01*
X1002Y6687D01*
X949D01*
X990D02*
X1032Y6622D01*
X1143Y6729D02*
X1132Y6741D01*
X1114Y6746D01*
X1090D01*
X1072Y6741D01*
X1060Y6729D01*
Y6717D01*
X1066Y6705D01*
X1072Y6699D01*
X1084Y6693D01*
X1120Y6681D01*
X1132Y6675D01*
X1137Y6669D01*
X1143Y6657D01*
Y6639D01*
X1132Y6627D01*
X1114Y6622D01*
X1090D01*
X1072Y6627D01*
X1060Y6639D01*
X1171Y6746D02*
Y6622D01*
X1233Y6746D02*
X1221Y6741D01*
X1209Y6729D01*
X1204Y6717D01*
X1198Y6699D01*
Y6669D01*
X1204Y6651D01*
X1209Y6639D01*
X1221Y6627D01*
X1233Y6622D01*
X1257D01*
X1269Y6627D01*
X1281Y6639D01*
X1287Y6651D01*
X1293Y6669D01*
Y6699D01*
X1287Y6717D01*
X1281Y6729D01*
X1269Y6741D01*
X1257Y6746D01*
X1233D01*
X1322D02*
Y6622D01*
Y6746D02*
X1405Y6622D01*
Y6746D02*
Y6622D01*
X1621Y6729D02*
X1609Y6741D01*
X1592Y6746D01*
X1568D01*
X1550Y6741D01*
X1538Y6729D01*
Y6717D01*
X1544Y6705D01*
X1550Y6699D01*
X1562Y6693D01*
X1597Y6681D01*
X1609Y6675D01*
X1615Y6669D01*
X1621Y6657D01*
Y6639D01*
X1609Y6627D01*
X1592Y6622D01*
X1568D01*
X1550Y6627D01*
X1538Y6639D01*
X1649Y6746D02*
Y6622D01*
X1675Y6746D02*
Y6622D01*
X1747D01*
X1761Y6746D02*
X1808Y6622D01*
X1856Y6746D02*
X1808Y6622D01*
X1949Y6746D02*
X1872D01*
Y6622D01*
X1949D01*
X1872Y6687D02*
X1919D01*
X1970Y6746D02*
Y6622D01*
Y6746D02*
X2024D01*
X2041Y6741D01*
X2047Y6735D01*
X2053Y6723D01*
Y6711D01*
X2047Y6699D01*
X2041Y6693D01*
X2024Y6687D01*
X1970D01*
X2012D02*
X2053Y6622D01*
X2191Y6746D02*
X2257D01*
X2221Y6699D01*
X2239D01*
X2251Y6693D01*
X2257Y6687D01*
X2263Y6669D01*
Y6657D01*
X2257Y6639D01*
X2245Y6627D01*
X2227Y6622D01*
X2209D01*
X2191Y6627D01*
X2185Y6633D01*
X2180Y6645D01*
X2389Y6675D02*
X2496D01*
X2637Y6717D02*
Y6723D01*
X2643Y6735D01*
X2649Y6741D01*
X2661Y6746D01*
X2685D01*
X2697Y6741D01*
X2703Y6735D01*
X2709Y6723D01*
Y6711D01*
X2703Y6699D01*
X2691Y6681D01*
X2631Y6622D01*
X2715D01*
X2814Y6746D02*
X2754D01*
X2748Y6693D01*
X2754Y6699D01*
X2772Y6705D01*
X2790D01*
X2808Y6699D01*
X2820Y6687D01*
X2826Y6669D01*
Y6657D01*
X2820Y6639D01*
X2808Y6627D01*
X2790Y6622D01*
X2772D01*
X2754Y6627D01*
X2748Y6633D01*
X2742Y6645D01*
X2952Y6746D02*
Y6622D01*
Y6746D02*
X3000Y6622D01*
X3047Y6746D02*
X3000Y6622D01*
X3047Y6746D02*
Y6622D01*
X3083Y6746D02*
Y6622D01*
X3198Y6717D02*
X3192Y6729D01*
X3180Y6741D01*
X3169Y6746D01*
X3145D01*
X3133Y6741D01*
X3121Y6729D01*
X3115Y6717D01*
X3109Y6699D01*
Y6669D01*
X3115Y6651D01*
X3121Y6639D01*
X3133Y6627D01*
X3145Y6622D01*
X3169D01*
X3180Y6627D01*
X3192Y6639D01*
X3198Y6651D01*
X3233Y6746D02*
Y6622D01*
Y6746D02*
X3287D01*
X3305Y6741D01*
X3311Y6735D01*
X3317Y6723D01*
Y6711D01*
X3311Y6699D01*
X3305Y6693D01*
X3287Y6687D01*
X3233D01*
X3275D02*
X3317Y6622D01*
X3380Y6746D02*
X3369Y6741D01*
X3357Y6729D01*
X3351Y6717D01*
X3345Y6699D01*
Y6669D01*
X3351Y6651D01*
X3357Y6639D01*
X3369Y6627D01*
X3380Y6622D01*
X3404D01*
X3416Y6627D01*
X3428Y6639D01*
X3434Y6651D01*
X3440Y6669D01*
Y6699D01*
X3434Y6717D01*
X3428Y6729D01*
X3416Y6741D01*
X3404Y6746D01*
X3380D01*
X3469D02*
Y6622D01*
X3495Y6746D02*
Y6622D01*
Y6746D02*
X3579Y6622D01*
Y6746D02*
Y6622D01*
X3702Y6717D02*
X3696Y6729D01*
X3685Y6741D01*
X3673Y6746D01*
X3649D01*
X3637Y6741D01*
X3625Y6729D01*
X3619Y6717D01*
X3613Y6699D01*
Y6669D01*
X3619Y6651D01*
X3625Y6639D01*
X3637Y6627D01*
X3649Y6622D01*
X3673D01*
X3685Y6627D01*
X3696Y6639D01*
X3702Y6651D01*
X3738Y6746D02*
Y6622D01*
X3821Y6746D02*
Y6622D01*
X3738Y6687D02*
X3821D01*
X3933Y6746D02*
X3855D01*
Y6622D01*
X3933D01*
X3855Y6687D02*
X3903D01*
X4037Y6729D02*
X4025Y6741D01*
X4007Y6746D01*
X3983D01*
X3965Y6741D01*
X3954Y6729D01*
Y6717D01*
X3959Y6705D01*
X3965Y6699D01*
X3977Y6693D01*
X4013Y6681D01*
X4025Y6675D01*
X4031Y6669D01*
X4037Y6657D01*
Y6639D01*
X4025Y6627D01*
X4007Y6622D01*
X3983D01*
X3965Y6627D01*
X3954Y6639D01*
X4205Y6746D02*
Y6622D01*
X4163Y6746D02*
X4246D01*
X4261D02*
Y6622D01*
X4345Y6746D02*
Y6622D01*
X4261Y6687D02*
X4345D01*
X4379Y6746D02*
Y6622D01*
X4494Y6717D02*
X4489Y6729D01*
X4477Y6741D01*
X4465Y6746D01*
X4441D01*
X4429Y6741D01*
X4417Y6729D01*
X4411Y6717D01*
X4405Y6699D01*
Y6669D01*
X4411Y6651D01*
X4417Y6639D01*
X4429Y6627D01*
X4441Y6622D01*
X4465D01*
X4477Y6627D01*
X4489Y6639D01*
X4494Y6651D01*
X4530Y6746D02*
Y6622D01*
X4613Y6746D02*
X4530Y6663D01*
X4559Y6693D02*
X4613Y6622D01*
X4739Y6681D02*
X4793D01*
X4810Y6687D01*
X4816Y6693D01*
X4822Y6705D01*
Y6723D01*
X4816Y6735D01*
X4810Y6741D01*
X4793Y6746D01*
X4739D01*
Y6622D01*
X4928Y6746D02*
X4850D01*
Y6622D01*
X4928D01*
X4850Y6687D02*
X4898D01*
X4949Y6746D02*
Y6622D01*
Y6746D02*
X5002D01*
X5020Y6741D01*
X5026Y6735D01*
X5032Y6723D01*
Y6711D01*
X5026Y6699D01*
X5020Y6693D01*
X5002Y6687D01*
X4949D01*
X4990D02*
X5032Y6622D01*
X5158Y6746D02*
Y6622D01*
X5184Y6681D02*
X5238D01*
X5256Y6687D01*
X5262Y6693D01*
X5268Y6705D01*
Y6723D01*
X5262Y6735D01*
X5256Y6741D01*
X5238Y6746D01*
X5184D01*
Y6622D01*
X5385Y6717D02*
X5379Y6729D01*
X5367Y6741D01*
X5355Y6746D01*
X5331D01*
X5319Y6741D01*
X5307Y6729D01*
X5301Y6717D01*
X5296Y6699D01*
Y6669D01*
X5301Y6651D01*
X5307Y6639D01*
X5319Y6627D01*
X5331Y6622D01*
X5355D01*
X5367Y6627D01*
X5379Y6639D01*
X5385Y6651D01*
X5420Y6675D02*
X5527D01*
X5623Y6746D02*
X5564Y6663D01*
X5653D01*
X5623Y6746D02*
Y6622D01*
X5747Y6746D02*
X5687D01*
X5681Y6693D01*
X5687Y6699D01*
X5705Y6705D01*
X5723D01*
X5741Y6699D01*
X5753Y6687D01*
X5759Y6669D01*
Y6657D01*
X5753Y6639D01*
X5741Y6627D01*
X5723Y6622D01*
X5705D01*
X5687Y6627D01*
X5681Y6633D01*
X5675Y6645D01*
X5858Y6746D02*
X5798D01*
X5792Y6693D01*
X5798Y6699D01*
X5816Y6705D01*
X5834D01*
X5852Y6699D01*
X5864Y6687D01*
X5870Y6669D01*
Y6657D01*
X5864Y6639D01*
X5852Y6627D01*
X5834Y6622D01*
X5816D01*
X5798Y6627D01*
X5792Y6633D01*
X5786Y6645D01*
X5910Y6746D02*
X5975D01*
X5939Y6699D01*
X5957D01*
X5969Y6693D01*
X5975Y6687D01*
X5981Y6669D01*
Y6657D01*
X5975Y6639D01*
X5963Y6627D01*
X5945Y6622D01*
X5928D01*
X5910Y6627D01*
X5904Y6633D01*
X5898Y6645D01*
X6015Y6633D02*
X6009Y6627D01*
X6015Y6622D01*
X6021Y6627D01*
X6015Y6633D01*
X12432Y6434D02*
Y6310D01*
X12503D01*
X12612D02*
X12564Y6434D01*
X12517Y6310D01*
X12534Y6351D02*
X12594D01*
X12641Y6434D02*
X12689Y6375D01*
Y6310D01*
X12736Y6434D02*
X12689Y6375D01*
X12830Y6434D02*
X12752D01*
Y6310D01*
X12830D01*
X12752Y6375D02*
X12800D01*
X12850Y6434D02*
Y6310D01*
Y6434D02*
X12904D01*
X12922Y6429D01*
X12928Y6423D01*
X12934Y6411D01*
Y6399D01*
X12928Y6387D01*
X12922Y6381D01*
X12904Y6375D01*
X12850D01*
X12892D02*
X12934Y6310D01*
X13066Y6405D02*
Y6411D01*
X13072Y6423D01*
X13078Y6429D01*
X13090Y6434D01*
X13114D01*
X13125Y6429D01*
X13131Y6423D01*
X13137Y6411D01*
Y6399D01*
X13131Y6387D01*
X13119Y6369D01*
X13060Y6310D01*
X13143D01*
X13311Y6458D02*
X13299Y6446D01*
X13287Y6429D01*
X13275Y6405D01*
X13269Y6375D01*
Y6351D01*
X13275Y6321D01*
X13287Y6298D01*
X13299Y6280D01*
X13311Y6268D01*
X13299Y6446D02*
X13287Y6423D01*
X13281Y6405D01*
X13275Y6375D01*
Y6351D01*
X13281Y6321D01*
X13287Y6304D01*
X13299Y6280D01*
X13335Y6411D02*
X13347Y6417D01*
X13365Y6434D01*
Y6310D01*
X13560Y6434D02*
X13549Y6429D01*
X13537Y6417D01*
X13531Y6405D01*
X13525Y6387D01*
Y6357D01*
X13531Y6339D01*
X13537Y6327D01*
X13549Y6315D01*
X13560Y6310D01*
X13584D01*
X13596Y6315D01*
X13608Y6327D01*
X13614Y6339D01*
X13620Y6357D01*
Y6387D01*
X13614Y6405D01*
X13608Y6417D01*
X13596Y6429D01*
X13584Y6434D01*
X13560D01*
X13732D02*
X13649Y6310D01*
Y6434D02*
X13732D01*
X13649Y6310D02*
X13732D01*
X13766Y6321D02*
X13760Y6315D01*
X13766Y6310D01*
X13772Y6315D01*
X13766Y6321D01*
X13800Y6458D02*
X13812Y6446D01*
X13823Y6429D01*
X13835Y6405D01*
X13841Y6375D01*
Y6351D01*
X13835Y6321D01*
X13823Y6298D01*
X13812Y6280D01*
X13800Y6268D01*
X13812Y6446D02*
X13823Y6423D01*
X13829Y6405D01*
X13835Y6375D01*
Y6351D01*
X13829Y6321D01*
X13823Y6304D01*
X13812Y6280D01*
X14157Y6405D02*
X14151Y6417D01*
X14139Y6429D01*
X14128Y6434D01*
X14104D01*
X14092Y6429D01*
X14080Y6417D01*
X14074Y6405D01*
X14068Y6387D01*
Y6357D01*
X14074Y6339D01*
X14080Y6327D01*
X14092Y6315D01*
X14104Y6310D01*
X14128D01*
X14139Y6315D01*
X14151Y6327D01*
X14157Y6339D01*
X14192Y6434D02*
Y6310D01*
X14219Y6434D02*
Y6310D01*
Y6434D02*
X14272D01*
X14290Y6429D01*
X14296Y6423D01*
X14302Y6411D01*
Y6399D01*
X14296Y6387D01*
X14290Y6381D01*
X14272Y6375D01*
X14219D01*
X14260D02*
X14302Y6310D01*
X14419Y6405D02*
X14413Y6417D01*
X14401Y6429D01*
X14389Y6434D01*
X14366D01*
X14354Y6429D01*
X14342Y6417D01*
X14336Y6405D01*
X14330Y6387D01*
Y6357D01*
X14336Y6339D01*
X14342Y6327D01*
X14354Y6315D01*
X14366Y6310D01*
X14389D01*
X14401Y6315D01*
X14413Y6327D01*
X14419Y6339D01*
X14454Y6434D02*
Y6345D01*
X14460Y6327D01*
X14472Y6315D01*
X14490Y6310D01*
X14502D01*
X14520Y6315D01*
X14532Y6327D01*
X14538Y6345D01*
Y6434D01*
X14572D02*
Y6310D01*
X14640Y6434D02*
Y6310D01*
X14598Y6434D02*
X14682D01*
X14878Y6417D02*
X14866Y6429D01*
X14848Y6434D01*
X14824D01*
X14807Y6429D01*
X14795Y6417D01*
Y6405D01*
X14801Y6393D01*
X14807Y6387D01*
X14818Y6381D01*
X14854Y6369D01*
X14866Y6363D01*
X14872Y6357D01*
X14878Y6345D01*
Y6327D01*
X14866Y6315D01*
X14848Y6310D01*
X14824D01*
X14807Y6315D01*
X14795Y6327D01*
X14906Y6434D02*
Y6310D01*
X14932Y6434D02*
Y6310D01*
Y6434D02*
X14974D01*
X14992Y6429D01*
X15004Y6417D01*
X15010Y6405D01*
X15015Y6387D01*
Y6357D01*
X15010Y6339D01*
X15004Y6327D01*
X14992Y6315D01*
X14974Y6310D01*
X14932D01*
X15121Y6434D02*
X15043D01*
Y6310D01*
X15121D01*
X15043Y6375D02*
X15091D01*
M02*
