%FSLAX23Y23*%
%MOIN*%
G70*
G01*
G75*
G04 Layer_Color=16776960*
%ADD10C,0.016*%
%ADD11C,0.010*%
%ADD12C,0.020*%
%ADD13C,0.018*%
%ADD14C,0.015*%
%ADD15C,0.100*%
%ADD16C,0.145*%
%ADD17C,0.050*%
%ADD18C,0.070*%
%ADD19C,0.060*%
%ADD20O,0.060X0.061*%
%ADD21C,0.059*%
%ADD22C,0.059*%
%ADD23R,0.059X0.059*%
%ADD24C,0.025*%
%ADD25R,0.051X0.059*%
%ADD26R,0.058X0.039*%
%ADD27R,0.022X0.057*%
%ADD28R,0.022X0.057*%
%ADD29R,0.039X0.058*%
%ADD30R,0.035X0.037*%
%ADD31R,0.035X0.037*%
%ADD32C,0.020*%
%ADD33C,0.025*%
%ADD34C,0.004*%
%ADD35C,0.006*%
%ADD36C,0.005*%
%ADD37C,0.004*%
%ADD38C,0.010*%
%ADD39C,0.008*%
%ADD40C,0.008*%
%ADD41R,0.420X0.140*%
%ADD42R,0.250X0.130*%
%ADD43R,0.170X0.050*%
%ADD44R,0.080X0.080*%
%ADD45R,0.021X0.068*%
D11*
X242Y454D02*
X287D01*
Y476D01*
X279Y484D01*
X264D01*
X257Y476D01*
Y454D01*
Y469D02*
X242Y484D01*
X287Y499D02*
Y529D01*
X279D01*
X249Y499D01*
X242D01*
X1675Y625D02*
Y670D01*
X1653D01*
X1645Y662D01*
Y647D01*
X1653Y640D01*
X1675D01*
X1660D02*
X1645Y625D01*
X1600Y670D02*
X1615Y662D01*
X1630Y647D01*
Y632D01*
X1623Y625D01*
X1608D01*
X1600Y632D01*
Y640D01*
X1608Y647D01*
X1630D01*
X21Y459D02*
X66D01*
Y481D01*
X58Y489D01*
X43D01*
X36Y481D01*
Y459D01*
Y474D02*
X21Y489D01*
X66Y534D02*
Y504D01*
X43D01*
X51Y519D01*
Y526D01*
X43Y534D01*
X28D01*
X21Y526D01*
Y511D01*
X28Y504D01*
X43Y369D02*
X73D01*
X81Y361D01*
Y346D01*
X73Y339D01*
X43D01*
X36Y346D01*
Y361D01*
X51Y354D02*
X36Y369D01*
Y361D02*
X43Y369D01*
X36Y414D02*
Y384D01*
X66Y414D01*
X73D01*
X81Y406D01*
Y391D01*
X73Y384D01*
X261Y362D02*
X291D01*
X299Y354D01*
Y339D01*
X291Y332D01*
X261D01*
X254Y339D01*
Y354D01*
X269Y347D02*
X254Y362D01*
Y354D02*
X261Y362D01*
X254Y399D02*
X299D01*
X276Y377D01*
Y407D01*
X1732Y355D02*
X1762D01*
X1770Y347D01*
Y332D01*
X1762Y325D01*
X1732D01*
X1725Y332D01*
Y347D01*
X1740Y340D02*
X1725Y355D01*
Y347D02*
X1732Y355D01*
X1762Y370D02*
X1770Y377D01*
Y392D01*
X1762Y400D01*
X1755D01*
X1747Y392D01*
Y385D01*
Y392D01*
X1740Y400D01*
X1732D01*
X1725Y392D01*
Y377D01*
X1732Y370D01*
X1932Y355D02*
X1962D01*
X1970Y347D01*
Y332D01*
X1962Y325D01*
X1932D01*
X1925Y332D01*
Y347D01*
X1940Y340D02*
X1925Y355D01*
Y347D02*
X1932Y355D01*
X1925Y370D02*
Y385D01*
Y377D01*
X1970D01*
X1962Y370D01*
X837Y430D02*
X845Y422D01*
Y407D01*
X837Y400D01*
X807D01*
X800Y407D01*
Y422D01*
X807Y430D01*
X800Y475D02*
Y445D01*
X830Y475D01*
X837D01*
X845Y467D01*
Y452D01*
X837Y445D01*
X800Y520D02*
Y490D01*
X830Y520D01*
X837D01*
X845Y512D01*
Y497D01*
X837Y490D01*
X1374Y687D02*
X1382Y679D01*
Y664D01*
X1374Y657D01*
X1344D01*
X1337Y664D01*
Y679D01*
X1344Y687D01*
X1337Y732D02*
Y702D01*
X1367Y732D01*
X1374D01*
X1382Y724D01*
Y709D01*
X1374Y702D01*
Y747D02*
X1382Y754D01*
Y769D01*
X1374Y777D01*
X1344D01*
X1337Y769D01*
Y754D01*
X1344Y747D01*
X1374D01*
X1270Y837D02*
X1278Y845D01*
X1293D01*
X1300Y837D01*
Y807D01*
X1293Y800D01*
X1278D01*
X1270Y807D01*
X1255Y800D02*
X1240D01*
X1248D01*
Y845D01*
X1255Y837D01*
X1218Y807D02*
X1210Y800D01*
X1195D01*
X1188Y807D01*
Y837D01*
X1195Y845D01*
X1210D01*
X1218Y837D01*
Y830D01*
X1210Y822D01*
X1188D01*
X720Y797D02*
X728Y805D01*
X743D01*
X750Y797D01*
Y767D01*
X743Y760D01*
X728D01*
X720Y767D01*
X705Y760D02*
X690D01*
X698D01*
Y805D01*
X705Y797D01*
X668D02*
X660Y805D01*
X645D01*
X638Y797D01*
Y790D01*
X645Y782D01*
X638Y775D01*
Y767D01*
X645Y760D01*
X660D01*
X668Y767D01*
Y775D01*
X660Y782D01*
X668Y790D01*
Y797D01*
X660Y782D02*
X645D01*
X892Y1012D02*
X900Y1020D01*
X915D01*
X922Y1012D01*
Y982D01*
X915Y975D01*
X900D01*
X892Y982D01*
X877Y975D02*
X862D01*
X870D01*
Y1020D01*
X877Y1012D01*
X840Y1020D02*
X810D01*
Y1012D01*
X840Y982D01*
Y975D01*
X1142Y1012D02*
X1150Y1020D01*
X1165D01*
X1172Y1012D01*
Y982D01*
X1165Y975D01*
X1150D01*
X1142Y982D01*
X1127Y975D02*
X1112D01*
X1120D01*
Y1020D01*
X1127Y1012D01*
X1060Y1020D02*
X1075Y1012D01*
X1090Y997D01*
Y982D01*
X1082Y975D01*
X1067D01*
X1060Y982D01*
Y990D01*
X1067Y997D01*
X1090D01*
X700Y717D02*
X708Y725D01*
X723D01*
X730Y717D01*
Y687D01*
X723Y680D01*
X708D01*
X700Y687D01*
X685Y725D02*
X655D01*
Y717D01*
X685Y687D01*
Y680D01*
X847Y577D02*
X855Y585D01*
X870D01*
X877Y577D01*
Y547D01*
X870Y540D01*
X855D01*
X847Y547D01*
X832Y540D02*
X817D01*
X825D01*
Y585D01*
X832Y577D01*
X572Y670D02*
Y632D01*
X565Y625D01*
X550D01*
X542Y632D01*
Y670D01*
X497Y625D02*
X527D01*
X497Y655D01*
Y662D01*
X505Y670D01*
X520D01*
X527Y662D01*
X1520Y435D02*
Y480D01*
X1498D01*
X1490Y472D01*
Y457D01*
X1498Y450D01*
X1520D01*
X1505D02*
X1490Y435D01*
X1475Y472D02*
X1468Y480D01*
X1453D01*
X1445Y472D01*
Y465D01*
X1453Y457D01*
X1445Y450D01*
Y442D01*
X1453Y435D01*
X1468D01*
X1475Y442D01*
Y450D01*
X1468Y457D01*
X1475Y465D01*
Y472D01*
X1468Y457D02*
X1453D01*
X1925Y625D02*
Y670D01*
X1903D01*
X1895Y662D01*
Y647D01*
X1903Y640D01*
X1925D01*
X1910D02*
X1895Y625D01*
X1880D02*
X1865D01*
X1873D01*
Y670D01*
X1880Y662D01*
X1813Y670D02*
X1843D01*
Y647D01*
X1828Y655D01*
X1820D01*
X1813Y647D01*
Y632D01*
X1820Y625D01*
X1835D01*
X1843Y632D01*
X1106Y415D02*
X1114Y423D01*
X1129D01*
X1136Y415D01*
Y385D01*
X1129Y378D01*
X1114D01*
X1106Y385D01*
X1061Y378D02*
X1091D01*
X1061Y408D01*
Y415D01*
X1069Y423D01*
X1084D01*
X1091Y415D01*
X667Y362D02*
X675Y370D01*
X690D01*
X697Y362D01*
Y332D01*
X690Y325D01*
X675D01*
X667Y332D01*
X622Y370D02*
X652D01*
Y347D01*
X637Y355D01*
X630D01*
X622Y347D01*
Y332D01*
X630Y325D01*
X645D01*
X652Y332D01*
X895Y325D02*
Y370D01*
X873D01*
X865Y362D01*
Y347D01*
X873Y340D01*
X895D01*
X880D02*
X865Y325D01*
X850D02*
X835D01*
X843D01*
Y370D01*
X850Y362D01*
X1356Y432D02*
Y477D01*
X1334D01*
X1326Y469D01*
Y454D01*
X1334Y447D01*
X1356D01*
X1341D02*
X1326Y432D01*
X1281D02*
X1311D01*
X1281Y462D01*
Y469D01*
X1289Y477D01*
X1304D01*
X1311Y469D01*
X1225Y350D02*
Y395D01*
X1203D01*
X1195Y387D01*
Y372D01*
X1203Y365D01*
X1225D01*
X1210D02*
X1195Y350D01*
X1180Y387D02*
X1173Y395D01*
X1158D01*
X1150Y387D01*
Y380D01*
X1158Y372D01*
X1165D01*
X1158D01*
X1150Y365D01*
Y357D01*
X1158Y350D01*
X1173D01*
X1180Y357D01*
X1059Y269D02*
Y314D01*
X1037D01*
X1029Y306D01*
Y291D01*
X1037Y284D01*
X1059D01*
X1044D02*
X1029Y269D01*
X992D02*
Y314D01*
X1014Y291D01*
X984D01*
X1279Y577D02*
X1287Y585D01*
X1302D01*
X1309Y577D01*
Y547D01*
X1302Y540D01*
X1287D01*
X1279Y547D01*
X1264Y577D02*
X1257Y585D01*
X1242D01*
X1234Y577D01*
Y570D01*
X1242Y562D01*
X1249D01*
X1242D01*
X1234Y555D01*
Y547D01*
X1242Y540D01*
X1257D01*
X1264Y547D01*
X1870Y170D02*
X1885D01*
X1878D01*
Y132D01*
X1885Y125D01*
X1893D01*
X1900Y132D01*
X1855Y125D02*
X1840D01*
X1848D01*
Y170D01*
X1855Y162D01*
X1500Y600D02*
Y645D01*
X1478D01*
X1470Y637D01*
Y622D01*
X1478Y615D01*
X1500D01*
X1485D02*
X1470Y600D01*
X1455D02*
X1440D01*
X1448D01*
Y645D01*
X1455Y637D01*
X1418D02*
X1410Y645D01*
X1395D01*
X1388Y637D01*
Y607D01*
X1395Y600D01*
X1410D01*
X1418Y607D01*
Y637D01*
X1521Y510D02*
Y555D01*
X1499D01*
X1491Y547D01*
Y532D01*
X1499Y525D01*
X1521D01*
X1506D02*
X1491Y510D01*
X1476D02*
X1461D01*
X1469D01*
Y555D01*
X1476Y547D01*
X1439Y510D02*
X1424D01*
X1431D01*
Y555D01*
X1439Y547D01*
D14*
X2275Y150D02*
Y50D01*
Y150D02*
X2318D01*
X2332Y145D01*
X2337Y140D01*
X2342Y131D01*
Y121D01*
X2337Y112D01*
X2332Y107D01*
X2318Y102D01*
X2275D02*
X2318D01*
X2332Y98D01*
X2337Y93D01*
X2342Y83D01*
Y69D01*
X2337Y60D01*
X2332Y55D01*
X2318Y50D01*
X2275D01*
X2388Y117D02*
X2378Y112D01*
X2369Y102D01*
X2364Y88D01*
Y79D01*
X2369Y64D01*
X2378Y55D01*
X2388Y50D01*
X2402D01*
X2412Y55D01*
X2421Y64D01*
X2426Y79D01*
Y88D01*
X2421Y102D01*
X2412Y112D01*
X2402Y117D01*
X2388D01*
X2462Y150D02*
Y69D01*
X2467Y55D01*
X2476Y50D01*
X2486D01*
X2448Y117D02*
X2481D01*
X2514Y150D02*
Y69D01*
X2519Y55D01*
X2529Y50D01*
X2538D01*
X2500Y117D02*
X2534D01*
X2576D02*
X2567Y112D01*
X2557Y102D01*
X2553Y88D01*
Y79D01*
X2557Y64D01*
X2567Y55D01*
X2576Y50D01*
X2591D01*
X2600Y55D01*
X2610Y64D01*
X2614Y79D01*
Y88D01*
X2610Y102D01*
X2600Y112D01*
X2591Y117D01*
X2576D01*
X2636D02*
Y50D01*
Y98D02*
X2651Y112D01*
X2660Y117D01*
X2674D01*
X2684Y112D01*
X2689Y98D01*
Y50D01*
Y98D02*
X2703Y112D01*
X2713Y117D01*
X2727D01*
X2736Y112D01*
X2741Y98D01*
Y50D01*
X2880Y150D02*
X2870Y145D01*
X2861Y136D01*
X2856Y126D01*
X2851Y112D01*
Y88D01*
X2856Y74D01*
X2861Y64D01*
X2870Y55D01*
X2880Y50D01*
X2899D01*
X2908Y55D01*
X2918Y64D01*
X2922Y74D01*
X2927Y88D01*
Y112D01*
X2922Y126D01*
X2918Y136D01*
X2908Y145D01*
X2899Y150D01*
X2880D01*
X2951Y117D02*
X2979Y50D01*
X3008Y117D02*
X2979Y50D01*
X3024Y88D02*
X3081D01*
Y98D01*
X3076Y107D01*
X3071Y112D01*
X3062Y117D01*
X3048D01*
X3038Y112D01*
X3029Y102D01*
X3024Y88D01*
Y79D01*
X3029Y64D01*
X3038Y55D01*
X3048Y50D01*
X3062D01*
X3071Y55D01*
X3081Y64D01*
X3102Y117D02*
Y50D01*
Y88D02*
X3107Y102D01*
X3117Y112D01*
X3126Y117D01*
X3141D01*
X3150Y150D02*
Y50D01*
X3228Y117D02*
Y50D01*
Y102D02*
X3218Y112D01*
X3209Y117D01*
X3194D01*
X3185Y112D01*
X3175Y102D01*
X3171Y88D01*
Y79D01*
X3175Y64D01*
X3185Y55D01*
X3194Y50D01*
X3209D01*
X3218Y55D01*
X3228Y64D01*
X3259Y117D02*
X3288Y50D01*
X3316Y117D02*
X3288Y50D01*
X3278Y31D01*
X3269Y21D01*
X3259Y17D01*
X3254D01*
D35*
X843Y293D02*
X842D01*
X838Y292D01*
X837Y290D01*
X835Y287D01*
Y280D01*
X837Y277D01*
X838Y275D01*
X842Y273D01*
X845D01*
X848Y275D01*
X853Y278D01*
X870Y295D01*
Y272D01*
X835Y254D02*
X837Y259D01*
X842Y262D01*
X850Y264D01*
X855D01*
X863Y262D01*
X868Y259D01*
X870Y254D01*
Y251D01*
X868Y246D01*
X863Y242D01*
X855Y241D01*
X850D01*
X842Y242D01*
X837Y246D01*
X835Y251D01*
Y254D01*
X235Y292D02*
Y273D01*
X248Y283D01*
Y278D01*
X250Y275D01*
X251Y273D01*
X256Y272D01*
X260D01*
X265Y273D01*
X268Y277D01*
X270Y282D01*
Y287D01*
X268Y292D01*
X266Y293D01*
X263Y295D01*
X243Y262D02*
X241D01*
X238Y261D01*
X236Y259D01*
X235Y256D01*
Y249D01*
X236Y246D01*
X238Y244D01*
X241Y242D01*
X245D01*
X248Y244D01*
X253Y247D01*
X270Y264D01*
Y241D01*
X184Y53D02*
X165D01*
X175Y40D01*
X170D01*
X167Y38D01*
X165Y36D01*
X164Y31D01*
Y28D01*
X165Y23D01*
X169Y20D01*
X174Y18D01*
X179D01*
X184Y20D01*
X185Y21D01*
X187Y25D01*
X156Y46D02*
X153Y48D01*
X148Y53D01*
Y18D01*
X1735Y252D02*
X1770Y268D01*
X1735Y275D02*
Y252D01*
X1825Y78D02*
X1822Y80D01*
X1817Y85D01*
Y50D01*
D36*
X1068Y525D02*
Y595D01*
Y525D02*
X1207D01*
Y595D01*
X1068D02*
X1207D01*
X745Y455D02*
Y640D01*
X675Y455D02*
X745D01*
X675D02*
Y640D01*
X745D01*
X675Y580D02*
X745D01*
X599Y305D02*
Y375D01*
X460D02*
X599D01*
X460Y305D02*
Y375D01*
Y305D02*
X599D01*
X1070Y505D02*
X1255D01*
Y435D02*
Y505D01*
X1070Y435D02*
X1255D01*
X1070D02*
Y505D01*
X1130Y435D02*
Y505D01*
X1042Y525D02*
Y595D01*
X903D02*
X1042D01*
X903Y525D02*
Y595D01*
Y525D02*
X1042D01*
X1178Y625D02*
Y695D01*
Y625D02*
X1317D01*
Y695D01*
X1178D02*
X1317D01*
X912Y745D02*
Y815D01*
X773D02*
X912D01*
X773Y745D02*
Y815D01*
Y745D02*
X912D01*
X939Y875D02*
Y945D01*
X800D02*
X939D01*
X800Y875D02*
Y945D01*
Y875D02*
X939D01*
X1178Y715D02*
Y785D01*
Y715D02*
X1317D01*
Y785D01*
X1178D02*
X1317D01*
X1035Y875D02*
Y945D01*
Y875D02*
X1174D01*
Y945D01*
X1035D02*
X1174D01*
X855Y435D02*
X1040D01*
X855D02*
Y505D01*
X1040D01*
Y435D02*
Y505D01*
X980Y435D02*
Y505D01*
X661Y670D02*
Y633D01*
X643Y652D02*
X680D01*
X1070Y519D02*
X1033D01*
X1052Y537D02*
Y500D01*
D37*
X590Y463D02*
G03*
X590Y463I-2J0D01*
G01*
D38*
X229Y271D02*
G03*
X229Y271I-5J0D01*
G01*
X449D02*
G03*
X449Y271I-5J0D01*
G01*
X1939Y261D02*
G03*
X1939Y261I-5J0D01*
G01*
X1709Y271D02*
G03*
X1709Y271I-5J0D01*
G01*
D39*
X200Y25D02*
Y225D01*
Y225D02*
X1800D01*
Y25D02*
Y225D01*
X200Y25D02*
X1800D01*
X200D02*
Y225D01*
X467Y478D02*
Y549D01*
X589Y478D02*
Y549D01*
X587D02*
X589D01*
X587Y478D02*
X589D01*
X467Y549D02*
X469D01*
X467Y478D02*
X469D01*
X201Y308D02*
Y366D01*
X99Y308D02*
Y366D01*
X183D02*
X201D01*
X99D02*
X116D01*
X421Y308D02*
Y366D01*
X319Y308D02*
Y366D01*
X403D02*
X421D01*
X319D02*
X336D01*
X1809Y356D02*
X1826D01*
X1893D02*
X1911D01*
X1809Y298D02*
Y356D01*
X1911Y298D02*
Y356D01*
X1579Y366D02*
X1596D01*
X1663D02*
X1681D01*
X1579Y308D02*
Y366D01*
X1681Y308D02*
Y366D01*
D40*
X10Y157D02*
X45D01*
Y174D01*
X39Y180D01*
X27D01*
X22Y174D01*
Y157D01*
Y169D02*
X10Y180D01*
X16Y192D02*
X10Y198D01*
Y209D01*
X16Y215D01*
X39D01*
X45Y209D01*
Y198D01*
X39Y192D01*
X33D01*
X27Y198D01*
Y215D01*
X115Y17D02*
Y52D01*
X98D01*
X92Y46D01*
Y34D01*
X98Y29D01*
X115D01*
X103D02*
X92Y17D01*
X80D02*
X68D01*
X74D01*
Y52D01*
X80Y46D01*
X28Y17D02*
X51D01*
X28Y40D01*
Y46D01*
X33Y52D01*
X45D01*
X51Y46D01*
D41*
X960Y670D02*
D03*
D42*
X1045Y805D02*
D03*
D43*
X835Y845D02*
D03*
D44*
X990Y910D02*
D03*
D45*
X842Y780D02*
D03*
X869Y911D02*
D03*
X1105Y910D02*
D03*
M02*
