M48
;GenerationSoftware,Autodesk,EAGLE,9.3.1*%
;CreationDate,2019-03-22T02:20:58Z*%
FMAT,2
ICI,OFF
METRIC,TZ,000.000
T3C0.813
T2C0.914
T1C3.175
%
G90
M71
T1
X17060Y52880
X54060Y52880
T2
X12573Y31115
X12573Y28575
T3
X35560Y13843
X35560Y16383
X35560Y8382
X35560Y10922
X19422Y20491
X21218Y22287
X15522Y16665
X17318Y18461
X12700Y36703
X15240Y36703
X7112Y36703
X9652Y36703
X22052Y55090
X23848Y53294
X18332Y59191
X20128Y57395
X35560Y59563
X35560Y57023
X35560Y65024
X35560Y62484
X31369Y8636
X31369Y16256
X12710Y20181
X18098Y25569
X8001Y41148
X15621Y41148
X21526Y61532
X26914Y56144
X39370Y64770
X39370Y57150
X52624Y59355
X50828Y57559
X49121Y55037
X47325Y53241
X49535Y61294
X44147Y55906
X64008Y36703
X61468Y36703
X58293Y36703
X55753Y36703
X62992Y40386
X55372Y40386
X55635Y16681
X53839Y18477
X51698Y20565
X49902Y22361
X58537Y19918
X53149Y25306
M30