G04 EAGLE Gerber RS-274X export*
G75*
%MOMM*%
%FSLAX34Y34*%
%LPD*%
%INBottom Copper*%
%IPPOS*%
%AMOC8*
5,1,8,0,0,1.08239X$1,22.5*%
G01*
%ADD10P,1.319650X8X112.500000*%
%ADD11P,1.319650X8X67.500000*%
%ADD12P,1.319650X8X22.500000*%
%ADD13P,1.319650X8X337.500000*%
%ADD14P,1.319650X8X292.500000*%
%ADD15C,1.371600*%
%ADD16P,1.319650X8X247.500000*%
%ADD17P,1.319650X8X202.500000*%
%ADD18P,1.319650X8X157.500000*%

G36*
X364189Y53690D02*
X364189Y53690D01*
X364313Y53692D01*
X398617Y56535D01*
X398631Y56538D01*
X398755Y56554D01*
X432538Y63153D01*
X432552Y63158D01*
X432673Y63187D01*
X465525Y73462D01*
X465539Y73469D01*
X465656Y73511D01*
X497178Y87338D01*
X497191Y87346D01*
X497303Y87401D01*
X527112Y104612D01*
X527124Y104621D01*
X527229Y104688D01*
X554965Y125074D01*
X554975Y125084D01*
X555072Y125163D01*
X580397Y148475D01*
X580406Y148486D01*
X580494Y148576D01*
X603100Y174533D01*
X603109Y174545D01*
X603186Y174643D01*
X622800Y202929D01*
X622806Y202942D01*
X622873Y203049D01*
X639256Y233321D01*
X639261Y233335D01*
X639315Y233447D01*
X652268Y265338D01*
X652272Y265352D01*
X652314Y265471D01*
X661680Y298593D01*
X661682Y298608D01*
X661710Y298729D01*
X667376Y332681D01*
X667376Y332696D01*
X667391Y332820D01*
X669287Y367189D01*
X669286Y367203D01*
X669287Y367328D01*
X667391Y401697D01*
X667388Y401712D01*
X667376Y401836D01*
X661710Y435788D01*
X661706Y435802D01*
X661680Y435924D01*
X652314Y469047D01*
X652308Y469060D01*
X652268Y469179D01*
X639315Y501070D01*
X639308Y501082D01*
X639256Y501196D01*
X622873Y531469D01*
X622864Y531481D01*
X622800Y531588D01*
X603186Y559874D01*
X603177Y559885D01*
X603100Y559985D01*
X580494Y585942D01*
X580483Y585952D01*
X580397Y586042D01*
X555072Y609355D01*
X555061Y609363D01*
X554965Y609444D01*
X527229Y629829D01*
X527216Y629836D01*
X527112Y629905D01*
X497303Y647116D01*
X497289Y647122D01*
X497178Y647179D01*
X465656Y661006D01*
X465642Y661010D01*
X465525Y661055D01*
X432673Y671330D01*
X432659Y671333D01*
X432538Y671364D01*
X398755Y677963D01*
X398740Y677964D01*
X398617Y677982D01*
X364313Y680825D01*
X364299Y680824D01*
X364174Y680829D01*
X329766Y679880D01*
X329751Y679878D01*
X329626Y679869D01*
X295531Y675141D01*
X295517Y675137D01*
X295394Y675114D01*
X282200Y671773D01*
X267163Y667965D01*
X262026Y666664D01*
X262013Y666659D01*
X261893Y666622D01*
X229657Y654553D01*
X229644Y654546D01*
X229529Y654497D01*
X198817Y638955D01*
X198805Y638946D01*
X198696Y638885D01*
X169880Y620058D01*
X169868Y620049D01*
X169767Y619975D01*
X143197Y598093D01*
X143186Y598082D01*
X143094Y597998D01*
X119092Y573326D01*
X119083Y573314D01*
X119000Y573221D01*
X97859Y546058D01*
X97851Y546045D01*
X97779Y545943D01*
X79753Y516619D01*
X79747Y516605D01*
X79687Y516496D01*
X64997Y485367D01*
X64992Y485353D01*
X64944Y485237D01*
X53768Y452681D01*
X53765Y452667D01*
X53730Y452547D01*
X46202Y418959D01*
X46201Y418944D01*
X46179Y418821D01*
X42393Y384609D01*
X42393Y384594D01*
X42385Y384469D01*
X42385Y350048D01*
X42387Y350033D01*
X42393Y349908D01*
X46179Y315696D01*
X46183Y315682D01*
X46202Y315558D01*
X53730Y281970D01*
X53735Y281957D01*
X53768Y281836D01*
X64944Y249280D01*
X64951Y249267D01*
X64997Y249150D01*
X79687Y218021D01*
X79695Y218009D01*
X79753Y217898D01*
X97779Y188574D01*
X97788Y188563D01*
X97859Y188460D01*
X119000Y161297D01*
X119011Y161286D01*
X119092Y161191D01*
X143094Y136519D01*
X143105Y136510D01*
X143197Y136424D01*
X169767Y114542D01*
X169779Y114534D01*
X169880Y114459D01*
X198696Y95632D01*
X198709Y95626D01*
X198817Y95562D01*
X229529Y80020D01*
X229543Y80015D01*
X229657Y79964D01*
X261893Y67895D01*
X261907Y67891D01*
X262026Y67853D01*
X295394Y59403D01*
X295409Y59401D01*
X295531Y59376D01*
X329626Y54648D01*
X329641Y54648D01*
X329766Y54637D01*
X364174Y53688D01*
X364189Y53690D01*
G37*
%LPC*%
G36*
X342693Y195024D02*
X342693Y195024D01*
X317167Y198872D01*
X292499Y206481D01*
X269241Y217681D01*
X247912Y232223D01*
X228989Y249781D01*
X212894Y269964D01*
X199987Y292319D01*
X190556Y316349D01*
X184812Y341517D01*
X182883Y367259D01*
X184812Y393001D01*
X190556Y418168D01*
X199987Y442198D01*
X212894Y464554D01*
X228989Y484736D01*
X247912Y502294D01*
X269241Y516836D01*
X292499Y528036D01*
X317167Y535645D01*
X342693Y539493D01*
X368507Y539493D01*
X394033Y535645D01*
X418701Y528036D01*
X441958Y516836D01*
X463287Y502294D01*
X482211Y484736D01*
X498306Y464553D01*
X511213Y442198D01*
X520644Y418168D01*
X526388Y393001D01*
X528317Y367259D01*
X526388Y341517D01*
X520644Y316349D01*
X511213Y292319D01*
X498306Y269964D01*
X482211Y249781D01*
X463288Y232223D01*
X441959Y217681D01*
X418701Y206481D01*
X394033Y198872D01*
X368507Y195024D01*
X342693Y195024D01*
G37*
%LPD*%
%LPC*%
G36*
X166936Y510387D02*
X166936Y510387D01*
X160167Y513190D01*
X154987Y518371D01*
X152183Y525139D01*
X152183Y532466D01*
X154987Y539234D01*
X160167Y544415D01*
X166936Y547218D01*
X174262Y547218D01*
X181031Y544415D01*
X186211Y539234D01*
X189015Y532466D01*
X189015Y525139D01*
X186211Y518371D01*
X181031Y513190D01*
X174262Y510387D01*
X166936Y510387D01*
G37*
%LPD*%
%LPC*%
G36*
X536938Y510387D02*
X536938Y510387D01*
X530169Y513190D01*
X524989Y518371D01*
X522185Y525139D01*
X522185Y532466D01*
X524989Y539234D01*
X530169Y544415D01*
X536938Y547218D01*
X544264Y547218D01*
X551033Y544415D01*
X556213Y539234D01*
X559017Y532466D01*
X559017Y525139D01*
X556213Y518371D01*
X551033Y513190D01*
X544264Y510387D01*
X536938Y510387D01*
G37*
%LPD*%
%LPC*%
G36*
X117255Y277621D02*
X117255Y277621D01*
X114267Y278859D01*
X111981Y281145D01*
X110743Y284133D01*
X110743Y287367D01*
X111981Y290355D01*
X114267Y292641D01*
X117255Y293879D01*
X134205Y293879D01*
X137193Y292641D01*
X139479Y290355D01*
X140717Y287367D01*
X140717Y284133D01*
X139479Y281145D01*
X137193Y278859D01*
X134205Y277621D01*
X117255Y277621D01*
G37*
%LPD*%
%LPC*%
G36*
X352549Y642873D02*
X352549Y642873D01*
X348233Y647189D01*
X348233Y653291D01*
X352549Y657607D01*
X358651Y657607D01*
X362967Y653291D01*
X362967Y647189D01*
X358651Y642873D01*
X352549Y642873D01*
G37*
%LPD*%
%LPC*%
G36*
X153159Y404113D02*
X153159Y404113D01*
X148843Y408429D01*
X148843Y414531D01*
X153159Y418847D01*
X159261Y418847D01*
X163577Y414531D01*
X163577Y408429D01*
X159261Y404113D01*
X153159Y404113D01*
G37*
%LPD*%
%LPC*%
G36*
X149349Y359663D02*
X149349Y359663D01*
X145033Y363979D01*
X145033Y370081D01*
X149349Y374397D01*
X155451Y374397D01*
X159767Y370081D01*
X159767Y363979D01*
X155451Y359663D01*
X149349Y359663D01*
G37*
%LPD*%
%LPC*%
G36*
X554479Y359663D02*
X554479Y359663D01*
X550163Y363979D01*
X550163Y370081D01*
X554479Y374397D01*
X560581Y374397D01*
X564897Y370081D01*
X564897Y363979D01*
X560581Y359663D01*
X554479Y359663D01*
G37*
%LPD*%
%LPC*%
G36*
X390649Y564133D02*
X390649Y564133D01*
X386333Y568449D01*
X386333Y574551D01*
X390649Y578867D01*
X396751Y578867D01*
X401067Y574551D01*
X401067Y568449D01*
X396751Y564133D01*
X390649Y564133D01*
G37*
%LPD*%
%LPC*%
G36*
X352549Y617473D02*
X352549Y617473D01*
X348233Y621789D01*
X348233Y627891D01*
X352549Y632207D01*
X358651Y632207D01*
X362967Y627891D01*
X362967Y621789D01*
X358651Y617473D01*
X352549Y617473D01*
G37*
%LPD*%
%LPC*%
G36*
X550669Y396493D02*
X550669Y396493D01*
X546353Y400809D01*
X546353Y406911D01*
X550669Y411227D01*
X556771Y411227D01*
X561087Y406911D01*
X561087Y400809D01*
X556771Y396493D01*
X550669Y396493D01*
G37*
%LPD*%
%LPC*%
G36*
X579879Y359663D02*
X579879Y359663D01*
X575563Y363979D01*
X575563Y370081D01*
X579879Y374397D01*
X585981Y374397D01*
X590297Y370081D01*
X590297Y363979D01*
X585981Y359663D01*
X579879Y359663D01*
G37*
%LPD*%
%LPC*%
G36*
X611629Y359663D02*
X611629Y359663D01*
X607313Y363979D01*
X607313Y370081D01*
X611629Y374397D01*
X617731Y374397D01*
X622047Y370081D01*
X622047Y363979D01*
X617731Y359663D01*
X611629Y359663D01*
G37*
%LPD*%
%LPC*%
G36*
X352549Y156463D02*
X352549Y156463D01*
X348233Y160779D01*
X348233Y166881D01*
X352549Y171197D01*
X358651Y171197D01*
X362967Y166881D01*
X362967Y160779D01*
X358651Y156463D01*
X352549Y156463D01*
G37*
%LPD*%
%LPC*%
G36*
X310639Y155193D02*
X310639Y155193D01*
X306323Y159509D01*
X306323Y165611D01*
X310639Y169927D01*
X316741Y169927D01*
X321057Y165611D01*
X321057Y159509D01*
X316741Y155193D01*
X310639Y155193D01*
G37*
%LPD*%
%LPC*%
G36*
X352549Y131063D02*
X352549Y131063D01*
X348233Y135379D01*
X348233Y141481D01*
X352549Y145797D01*
X358651Y145797D01*
X362967Y141481D01*
X362967Y135379D01*
X358651Y131063D01*
X352549Y131063D01*
G37*
%LPD*%
%LPC*%
G36*
X352549Y101853D02*
X352549Y101853D01*
X348233Y106169D01*
X348233Y112271D01*
X352549Y116587D01*
X358651Y116587D01*
X362967Y112271D01*
X362967Y106169D01*
X358651Y101853D01*
X352549Y101853D01*
G37*
%LPD*%
%LPC*%
G36*
X352549Y588263D02*
X352549Y588263D01*
X348233Y592579D01*
X348233Y598681D01*
X352549Y602997D01*
X358651Y602997D01*
X362967Y598681D01*
X362967Y592579D01*
X358651Y588263D01*
X352549Y588263D01*
G37*
%LPD*%
%LPC*%
G36*
X352549Y76453D02*
X352549Y76453D01*
X348233Y80769D01*
X348233Y86871D01*
X352549Y91187D01*
X358651Y91187D01*
X362967Y86871D01*
X362967Y80769D01*
X358651Y76453D01*
X352549Y76453D01*
G37*
%LPD*%
%LPC*%
G36*
X68069Y359663D02*
X68069Y359663D01*
X63753Y363979D01*
X63753Y370081D01*
X68069Y374397D01*
X74171Y374397D01*
X78487Y370081D01*
X78487Y363979D01*
X74171Y359663D01*
X68069Y359663D01*
G37*
%LPD*%
%LPC*%
G36*
X352549Y562863D02*
X352549Y562863D01*
X348233Y567179D01*
X348233Y573281D01*
X352549Y577597D01*
X358651Y577597D01*
X362967Y573281D01*
X362967Y567179D01*
X358651Y562863D01*
X352549Y562863D01*
G37*
%LPD*%
%LPC*%
G36*
X637029Y359663D02*
X637029Y359663D01*
X632713Y363979D01*
X632713Y370081D01*
X637029Y374397D01*
X643131Y374397D01*
X647447Y370081D01*
X647447Y363979D01*
X643131Y359663D01*
X637029Y359663D01*
G37*
%LPD*%
%LPC*%
G36*
X93469Y359663D02*
X93469Y359663D01*
X89153Y363979D01*
X89153Y370081D01*
X93469Y374397D01*
X99571Y374397D01*
X103887Y370081D01*
X103887Y363979D01*
X99571Y359663D01*
X93469Y359663D01*
G37*
%LPD*%
%LPC*%
G36*
X123949Y359663D02*
X123949Y359663D01*
X119633Y363979D01*
X119633Y370081D01*
X123949Y374397D01*
X130051Y374397D01*
X134367Y370081D01*
X134367Y363979D01*
X130051Y359663D01*
X123949Y359663D01*
G37*
%LPD*%
%LPC*%
G36*
X152170Y159285D02*
X152170Y159285D01*
X147855Y163600D01*
X147855Y169703D01*
X152170Y174018D01*
X158273Y174018D01*
X162588Y169703D01*
X162588Y163600D01*
X158273Y159285D01*
X152170Y159285D01*
G37*
%LPD*%
%LPC*%
G36*
X170131Y177246D02*
X170131Y177246D01*
X165816Y181561D01*
X165816Y187664D01*
X170131Y191979D01*
X176234Y191979D01*
X180549Y187664D01*
X180549Y181561D01*
X176234Y177246D01*
X170131Y177246D01*
G37*
%LPD*%
%LPC*%
G36*
X535338Y177400D02*
X535338Y177400D01*
X531023Y181715D01*
X531023Y187818D01*
X535338Y192133D01*
X541441Y192133D01*
X545756Y187818D01*
X545756Y181715D01*
X541441Y177400D01*
X535338Y177400D01*
G37*
%LPD*%
%LPC*%
G36*
X191168Y197539D02*
X191168Y197539D01*
X186853Y201854D01*
X186853Y207957D01*
X191168Y212272D01*
X197271Y212272D01*
X201586Y207957D01*
X201586Y201854D01*
X197271Y197539D01*
X191168Y197539D01*
G37*
%LPD*%
%LPC*%
G36*
X513929Y198283D02*
X513929Y198283D01*
X509614Y202598D01*
X509614Y208701D01*
X513929Y213016D01*
X520032Y213016D01*
X524347Y208701D01*
X524347Y202598D01*
X520032Y198283D01*
X513929Y198283D01*
G37*
%LPD*%
%LPC*%
G36*
X209129Y215500D02*
X209129Y215500D01*
X204814Y219815D01*
X204814Y225918D01*
X209129Y230233D01*
X215232Y230233D01*
X219547Y225918D01*
X219547Y219815D01*
X215232Y215500D01*
X209129Y215500D01*
G37*
%LPD*%
%LPC*%
G36*
X553299Y159439D02*
X553299Y159439D01*
X548984Y163754D01*
X548984Y169857D01*
X553299Y174172D01*
X559402Y174172D01*
X563717Y169857D01*
X563717Y163754D01*
X559402Y159439D01*
X553299Y159439D01*
G37*
%LPD*%
%LPC*%
G36*
X495968Y216244D02*
X495968Y216244D01*
X491653Y220559D01*
X491653Y226662D01*
X495968Y230977D01*
X502071Y230977D01*
X506386Y226662D01*
X506386Y220559D01*
X502071Y216244D01*
X495968Y216244D01*
G37*
%LPD*%
%LPC*%
G36*
X528436Y245698D02*
X528436Y245698D01*
X524121Y250013D01*
X524121Y256116D01*
X528436Y260431D01*
X534539Y260431D01*
X538854Y256116D01*
X538854Y250013D01*
X534539Y245698D01*
X528436Y245698D01*
G37*
%LPD*%
%LPC*%
G36*
X177931Y248328D02*
X177931Y248328D01*
X173616Y252643D01*
X173616Y258746D01*
X177931Y263062D01*
X184034Y263062D01*
X188349Y258746D01*
X188349Y252643D01*
X184034Y248328D01*
X177931Y248328D01*
G37*
%LPD*%
%LPC*%
G36*
X523191Y586186D02*
X523191Y586186D01*
X518876Y590501D01*
X518876Y596604D01*
X523191Y600919D01*
X529294Y600919D01*
X533609Y596604D01*
X533609Y590501D01*
X529294Y586186D01*
X523191Y586186D01*
G37*
%LPD*%
%LPC*%
G36*
X235427Y525571D02*
X235427Y525571D01*
X231112Y529886D01*
X231112Y535989D01*
X235427Y540304D01*
X241530Y540304D01*
X245845Y535989D01*
X245845Y529886D01*
X241530Y525571D01*
X235427Y525571D01*
G37*
%LPD*%
%LPC*%
G36*
X470196Y525045D02*
X470196Y525045D01*
X465881Y529360D01*
X465881Y535463D01*
X470196Y539778D01*
X476299Y539778D01*
X480614Y535463D01*
X480614Y529360D01*
X476299Y525045D01*
X470196Y525045D01*
G37*
%LPD*%
%LPC*%
G36*
X505230Y568225D02*
X505230Y568225D01*
X500915Y572540D01*
X500915Y578643D01*
X505230Y582958D01*
X511333Y582958D01*
X515648Y578643D01*
X515648Y572540D01*
X511333Y568225D01*
X505230Y568225D01*
G37*
%LPD*%
%LPC*%
G36*
X180264Y584544D02*
X180264Y584544D01*
X175949Y588859D01*
X175949Y594962D01*
X180264Y599277D01*
X186367Y599277D01*
X190682Y594962D01*
X190682Y588859D01*
X186367Y584544D01*
X180264Y584544D01*
G37*
%LPD*%
%LPC*%
G36*
X438420Y551689D02*
X438420Y551689D01*
X434105Y556004D01*
X434105Y562107D01*
X438420Y566422D01*
X444523Y566422D01*
X448838Y562107D01*
X448838Y556004D01*
X444523Y551689D01*
X438420Y551689D01*
G37*
%LPD*%
%LPC*%
G36*
X217466Y543532D02*
X217466Y543532D01*
X213151Y547847D01*
X213151Y553950D01*
X217466Y558265D01*
X223569Y558265D01*
X227884Y553950D01*
X227884Y547847D01*
X223569Y543532D01*
X217466Y543532D01*
G37*
%LPD*%
%LPC*%
G36*
X488157Y543006D02*
X488157Y543006D01*
X483842Y547321D01*
X483842Y553424D01*
X488157Y557739D01*
X494260Y557739D01*
X498575Y553424D01*
X498575Y547321D01*
X494260Y543006D01*
X488157Y543006D01*
G37*
%LPD*%
%LPC*%
G36*
X198225Y566583D02*
X198225Y566583D01*
X193910Y570898D01*
X193910Y577001D01*
X198225Y581316D01*
X204328Y581316D01*
X208643Y577001D01*
X208643Y570898D01*
X204328Y566583D01*
X198225Y566583D01*
G37*
%LPD*%
%LPC*%
G36*
X266087Y554075D02*
X266087Y554075D01*
X261772Y558390D01*
X261772Y564493D01*
X266087Y568808D01*
X272190Y568808D01*
X276505Y564493D01*
X276505Y558390D01*
X272190Y554075D01*
X266087Y554075D01*
G37*
%LPD*%
%LPC*%
G36*
X128015Y313435D02*
X128015Y313435D01*
X128015Y320549D01*
X133328Y320549D01*
X134789Y320317D01*
X136196Y319860D01*
X137514Y319188D01*
X138711Y318319D01*
X139757Y317273D01*
X140626Y316076D01*
X141298Y314758D01*
X141728Y313435D01*
X128015Y313435D01*
G37*
%LPD*%
%LPC*%
G36*
X109732Y313435D02*
X109732Y313435D01*
X110162Y314758D01*
X110834Y316076D01*
X111703Y317273D01*
X112749Y318319D01*
X113946Y319188D01*
X115264Y319860D01*
X116671Y320317D01*
X118132Y320549D01*
X123445Y320549D01*
X123445Y313435D01*
X109732Y313435D01*
G37*
%LPD*%
%LPC*%
G36*
X128015Y301751D02*
X128015Y301751D01*
X128015Y308865D01*
X141728Y308865D01*
X141298Y307542D01*
X140626Y306224D01*
X139757Y305027D01*
X138711Y303981D01*
X137514Y303112D01*
X136196Y302440D01*
X134789Y301983D01*
X133328Y301751D01*
X128015Y301751D01*
G37*
%LPD*%
%LPC*%
G36*
X118132Y301751D02*
X118132Y301751D01*
X116671Y301983D01*
X115264Y302440D01*
X113946Y303112D01*
X112749Y303981D01*
X111703Y305027D01*
X110834Y306224D01*
X110162Y307542D01*
X109732Y308865D01*
X123445Y308865D01*
X123445Y301751D01*
X118132Y301751D01*
G37*
%LPD*%
%LPC*%
G36*
X580698Y206726D02*
X580698Y206726D01*
X581791Y207820D01*
X588946Y207820D01*
X590040Y206726D01*
X585369Y202056D01*
X580698Y206726D01*
G37*
%LPD*%
%LPC*%
G36*
X218130Y615323D02*
X218130Y615323D01*
X222801Y619994D01*
X223894Y618900D01*
X223894Y611745D01*
X222801Y610652D01*
X218130Y615323D01*
G37*
%LPD*%
%LPC*%
G36*
X210586Y622866D02*
X210586Y622866D01*
X211680Y623959D01*
X218835Y623959D01*
X219928Y622866D01*
X215257Y618195D01*
X210586Y622866D01*
G37*
%LPD*%
%LPC*%
G36*
X588241Y199183D02*
X588241Y199183D01*
X592912Y203854D01*
X594005Y202761D01*
X594005Y195606D01*
X592912Y194512D01*
X588241Y199183D01*
G37*
%LPD*%
%LPC*%
G36*
X82041Y413511D02*
X82041Y413511D01*
X82041Y420117D01*
X83587Y420117D01*
X88647Y415057D01*
X88647Y413511D01*
X82041Y413511D01*
G37*
%LPD*%
%LPC*%
G36*
X395731Y649731D02*
X395731Y649731D01*
X395731Y656337D01*
X397277Y656337D01*
X402337Y651277D01*
X402337Y649731D01*
X395731Y649731D01*
G37*
%LPD*%
%LPC*%
G36*
X315721Y88391D02*
X315721Y88391D01*
X315721Y94997D01*
X317267Y94997D01*
X322327Y89937D01*
X322327Y88391D01*
X315721Y88391D01*
G37*
%LPD*%
%LPC*%
G36*
X631951Y405891D02*
X631951Y405891D01*
X631951Y412497D01*
X633497Y412497D01*
X638557Y407437D01*
X638557Y405891D01*
X631951Y405891D01*
G37*
%LPD*%
%LPC*%
G36*
X129974Y201813D02*
X129974Y201813D01*
X134645Y206484D01*
X135738Y205391D01*
X135738Y198236D01*
X134645Y197143D01*
X129974Y201813D01*
G37*
%LPD*%
%LPC*%
G36*
X498226Y612937D02*
X498226Y612937D01*
X502896Y617608D01*
X503990Y616514D01*
X503990Y609359D01*
X502896Y608266D01*
X498226Y612937D01*
G37*
%LPD*%
%LPC*%
G36*
X490682Y620480D02*
X490682Y620480D01*
X491775Y621574D01*
X498930Y621574D01*
X500024Y620480D01*
X495353Y615809D01*
X490682Y620480D01*
G37*
%LPD*%
%LPC*%
G36*
X122430Y209357D02*
X122430Y209357D01*
X123524Y210450D01*
X130679Y210450D01*
X131772Y209357D01*
X127101Y204686D01*
X122430Y209357D01*
G37*
%LPD*%
%LPC*%
G36*
X71373Y413511D02*
X71373Y413511D01*
X71373Y415057D01*
X76433Y420117D01*
X77979Y420117D01*
X77979Y413511D01*
X71373Y413511D01*
G37*
%LPD*%
%LPC*%
G36*
X621283Y405891D02*
X621283Y405891D01*
X621283Y407437D01*
X626343Y412497D01*
X627889Y412497D01*
X627889Y405891D01*
X621283Y405891D01*
G37*
%LPD*%
%LPC*%
G36*
X395731Y639063D02*
X395731Y639063D01*
X395731Y645669D01*
X402337Y645669D01*
X402337Y644123D01*
X397277Y639063D01*
X395731Y639063D01*
G37*
%LPD*%
%LPC*%
G36*
X385063Y649731D02*
X385063Y649731D01*
X385063Y651277D01*
X390123Y656337D01*
X391669Y656337D01*
X391669Y649731D01*
X385063Y649731D01*
G37*
%LPD*%
%LPC*%
G36*
X631951Y395223D02*
X631951Y395223D01*
X631951Y401829D01*
X638557Y401829D01*
X638557Y400283D01*
X633497Y395223D01*
X631951Y395223D01*
G37*
%LPD*%
%LPC*%
G36*
X82041Y402843D02*
X82041Y402843D01*
X82041Y409449D01*
X88647Y409449D01*
X88647Y407903D01*
X83587Y402843D01*
X82041Y402843D01*
G37*
%LPD*%
%LPC*%
G36*
X305053Y88391D02*
X305053Y88391D01*
X305053Y89937D01*
X310113Y94997D01*
X311659Y94997D01*
X311659Y88391D01*
X305053Y88391D01*
G37*
%LPD*%
%LPC*%
G36*
X315721Y77723D02*
X315721Y77723D01*
X315721Y84329D01*
X322327Y84329D01*
X322327Y82783D01*
X317267Y77723D01*
X315721Y77723D01*
G37*
%LPD*%
%LPC*%
G36*
X206621Y611745D02*
X206621Y611745D01*
X206621Y618900D01*
X207714Y619993D01*
X212385Y615323D01*
X207714Y610652D01*
X206621Y611745D01*
G37*
%LPD*%
%LPC*%
G36*
X576732Y195606D02*
X576732Y195606D01*
X576732Y202761D01*
X577825Y203854D01*
X582496Y199183D01*
X577825Y194512D01*
X576732Y195606D01*
G37*
%LPD*%
%LPC*%
G36*
X211680Y606686D02*
X211680Y606686D01*
X210586Y607779D01*
X215257Y612450D01*
X219928Y607779D01*
X218835Y606686D01*
X211680Y606686D01*
G37*
%LPD*%
%LPC*%
G36*
X581791Y190546D02*
X581791Y190546D01*
X580698Y191640D01*
X585369Y196310D01*
X590040Y191640D01*
X588946Y190546D01*
X581791Y190546D01*
G37*
%LPD*%
%LPC*%
G36*
X491775Y604300D02*
X491775Y604300D01*
X490682Y605393D01*
X495353Y610064D01*
X500024Y605393D01*
X498930Y604300D01*
X491775Y604300D01*
G37*
%LPD*%
%LPC*%
G36*
X486716Y609359D02*
X486716Y609359D01*
X486716Y616514D01*
X487809Y617608D01*
X492480Y612937D01*
X487809Y608266D01*
X486716Y609359D01*
G37*
%LPD*%
%LPC*%
G36*
X118464Y198236D02*
X118464Y198236D01*
X118464Y205391D01*
X119558Y206484D01*
X124229Y201813D01*
X119558Y197143D01*
X118464Y198236D01*
G37*
%LPD*%
%LPC*%
G36*
X123524Y193177D02*
X123524Y193177D01*
X122430Y194270D01*
X127101Y198941D01*
X131772Y194270D01*
X130679Y193177D01*
X123524Y193177D01*
G37*
%LPD*%
%LPC*%
G36*
X390123Y639063D02*
X390123Y639063D01*
X385063Y644123D01*
X385063Y645669D01*
X391669Y645669D01*
X391669Y639063D01*
X390123Y639063D01*
G37*
%LPD*%
%LPC*%
G36*
X310113Y77723D02*
X310113Y77723D01*
X305053Y82783D01*
X305053Y84329D01*
X311659Y84329D01*
X311659Y77723D01*
X310113Y77723D01*
G37*
%LPD*%
%LPC*%
G36*
X626343Y395223D02*
X626343Y395223D01*
X621283Y400283D01*
X621283Y401829D01*
X627889Y401829D01*
X627889Y395223D01*
X626343Y395223D01*
G37*
%LPD*%
%LPC*%
G36*
X76433Y402843D02*
X76433Y402843D01*
X71373Y407903D01*
X71373Y409449D01*
X77979Y409449D01*
X77979Y402843D01*
X76433Y402843D01*
G37*
%LPD*%
D10*
X355600Y138430D03*
X355600Y163830D03*
X355600Y83820D03*
X355600Y109220D03*
D11*
X194220Y204906D03*
X212180Y222866D03*
X155222Y166652D03*
X173182Y184612D03*
D12*
X127000Y367030D03*
X152400Y367030D03*
X71120Y367030D03*
X96520Y367030D03*
D13*
X220518Y550898D03*
X238478Y532938D03*
X183316Y591910D03*
X201276Y573950D03*
D14*
X355600Y595630D03*
X355600Y570230D03*
X355600Y650240D03*
X355600Y624840D03*
D15*
X132588Y311150D02*
X118872Y311150D01*
X118872Y285750D02*
X132588Y285750D01*
D10*
X313690Y86360D03*
X313690Y162560D03*
D11*
X127101Y201813D03*
X180983Y255695D03*
D12*
X80010Y411480D03*
X156210Y411480D03*
D13*
X215257Y615323D03*
X269139Y561441D03*
D14*
X393700Y647700D03*
X393700Y571500D03*
D16*
X526242Y593552D03*
X508282Y575592D03*
X491208Y550372D03*
X473248Y532412D03*
X495353Y612937D03*
X441471Y559055D03*
D17*
X640080Y367030D03*
X614680Y367030D03*
X582930Y367030D03*
X557530Y367030D03*
X629920Y403860D03*
X553720Y403860D03*
D18*
X556350Y166806D03*
X538390Y184766D03*
X516980Y205650D03*
X499020Y223610D03*
X585369Y199183D03*
X531487Y253065D03*
M02*
