G04 EAGLE Gerber RS-274X export*
G75*
%MOMM*%
%FSLAX34Y34*%
%LPD*%
%IN*%
%IPPOS*%
%AMOC8*
5,1,8,0,0,1.08239X$1,22.5*%
G01*
%ADD10C,0.000000*%
%ADD11C,0.254000*%


D10*
X154724Y528803D02*
X154729Y529193D01*
X154743Y529582D01*
X154767Y529971D01*
X154800Y530359D01*
X154843Y530746D01*
X154896Y531132D01*
X154958Y531517D01*
X155029Y531900D01*
X155110Y532281D01*
X155200Y532660D01*
X155299Y533037D01*
X155408Y533411D01*
X155525Y533783D01*
X155652Y534151D01*
X155788Y534516D01*
X155932Y534878D01*
X156086Y535236D01*
X156248Y535590D01*
X156419Y535941D01*
X156598Y536286D01*
X156786Y536628D01*
X156983Y536964D01*
X157187Y537296D01*
X157399Y537623D01*
X157620Y537944D01*
X157848Y538260D01*
X158084Y538570D01*
X158327Y538874D01*
X158578Y539172D01*
X158836Y539464D01*
X159102Y539749D01*
X159374Y540028D01*
X159653Y540300D01*
X159938Y540566D01*
X160230Y540824D01*
X160528Y541075D01*
X160832Y541318D01*
X161142Y541554D01*
X161458Y541782D01*
X161779Y542003D01*
X162106Y542215D01*
X162438Y542419D01*
X162774Y542616D01*
X163116Y542804D01*
X163461Y542983D01*
X163812Y543154D01*
X164166Y543316D01*
X164524Y543470D01*
X164886Y543614D01*
X165251Y543750D01*
X165619Y543877D01*
X165991Y543994D01*
X166365Y544103D01*
X166742Y544202D01*
X167121Y544292D01*
X167502Y544373D01*
X167885Y544444D01*
X168270Y544506D01*
X168656Y544559D01*
X169043Y544602D01*
X169431Y544635D01*
X169820Y544659D01*
X170209Y544673D01*
X170599Y544678D01*
X170989Y544673D01*
X171378Y544659D01*
X171767Y544635D01*
X172155Y544602D01*
X172542Y544559D01*
X172928Y544506D01*
X173313Y544444D01*
X173696Y544373D01*
X174077Y544292D01*
X174456Y544202D01*
X174833Y544103D01*
X175207Y543994D01*
X175579Y543877D01*
X175947Y543750D01*
X176312Y543614D01*
X176674Y543470D01*
X177032Y543316D01*
X177386Y543154D01*
X177737Y542983D01*
X178082Y542804D01*
X178424Y542616D01*
X178760Y542419D01*
X179092Y542215D01*
X179419Y542003D01*
X179740Y541782D01*
X180056Y541554D01*
X180366Y541318D01*
X180670Y541075D01*
X180968Y540824D01*
X181260Y540566D01*
X181545Y540300D01*
X181824Y540028D01*
X182096Y539749D01*
X182362Y539464D01*
X182620Y539172D01*
X182871Y538874D01*
X183114Y538570D01*
X183350Y538260D01*
X183578Y537944D01*
X183799Y537623D01*
X184011Y537296D01*
X184215Y536964D01*
X184412Y536628D01*
X184600Y536286D01*
X184779Y535941D01*
X184950Y535590D01*
X185112Y535236D01*
X185266Y534878D01*
X185410Y534516D01*
X185546Y534151D01*
X185673Y533783D01*
X185790Y533411D01*
X185899Y533037D01*
X185998Y532660D01*
X186088Y532281D01*
X186169Y531900D01*
X186240Y531517D01*
X186302Y531132D01*
X186355Y530746D01*
X186398Y530359D01*
X186431Y529971D01*
X186455Y529582D01*
X186469Y529193D01*
X186474Y528803D01*
X186469Y528413D01*
X186455Y528024D01*
X186431Y527635D01*
X186398Y527247D01*
X186355Y526860D01*
X186302Y526474D01*
X186240Y526089D01*
X186169Y525706D01*
X186088Y525325D01*
X185998Y524946D01*
X185899Y524569D01*
X185790Y524195D01*
X185673Y523823D01*
X185546Y523455D01*
X185410Y523090D01*
X185266Y522728D01*
X185112Y522370D01*
X184950Y522016D01*
X184779Y521665D01*
X184600Y521320D01*
X184412Y520978D01*
X184215Y520642D01*
X184011Y520310D01*
X183799Y519983D01*
X183578Y519662D01*
X183350Y519346D01*
X183114Y519036D01*
X182871Y518732D01*
X182620Y518434D01*
X182362Y518142D01*
X182096Y517857D01*
X181824Y517578D01*
X181545Y517306D01*
X181260Y517040D01*
X180968Y516782D01*
X180670Y516531D01*
X180366Y516288D01*
X180056Y516052D01*
X179740Y515824D01*
X179419Y515603D01*
X179092Y515391D01*
X178760Y515187D01*
X178424Y514990D01*
X178082Y514802D01*
X177737Y514623D01*
X177386Y514452D01*
X177032Y514290D01*
X176674Y514136D01*
X176312Y513992D01*
X175947Y513856D01*
X175579Y513729D01*
X175207Y513612D01*
X174833Y513503D01*
X174456Y513404D01*
X174077Y513314D01*
X173696Y513233D01*
X173313Y513162D01*
X172928Y513100D01*
X172542Y513047D01*
X172155Y513004D01*
X171767Y512971D01*
X171378Y512947D01*
X170989Y512933D01*
X170599Y512928D01*
X170209Y512933D01*
X169820Y512947D01*
X169431Y512971D01*
X169043Y513004D01*
X168656Y513047D01*
X168270Y513100D01*
X167885Y513162D01*
X167502Y513233D01*
X167121Y513314D01*
X166742Y513404D01*
X166365Y513503D01*
X165991Y513612D01*
X165619Y513729D01*
X165251Y513856D01*
X164886Y513992D01*
X164524Y514136D01*
X164166Y514290D01*
X163812Y514452D01*
X163461Y514623D01*
X163116Y514802D01*
X162774Y514990D01*
X162438Y515187D01*
X162106Y515391D01*
X161779Y515603D01*
X161458Y515824D01*
X161142Y516052D01*
X160832Y516288D01*
X160528Y516531D01*
X160230Y516782D01*
X159938Y517040D01*
X159653Y517306D01*
X159374Y517578D01*
X159102Y517857D01*
X158836Y518142D01*
X158578Y518434D01*
X158327Y518732D01*
X158084Y519036D01*
X157848Y519346D01*
X157620Y519662D01*
X157399Y519983D01*
X157187Y520310D01*
X156983Y520642D01*
X156786Y520978D01*
X156598Y521320D01*
X156419Y521665D01*
X156248Y522016D01*
X156086Y522370D01*
X155932Y522728D01*
X155788Y523090D01*
X155652Y523455D01*
X155525Y523823D01*
X155408Y524195D01*
X155299Y524569D01*
X155200Y524946D01*
X155110Y525325D01*
X155029Y525706D01*
X154958Y526089D01*
X154896Y526474D01*
X154843Y526860D01*
X154800Y527247D01*
X154767Y527635D01*
X154743Y528024D01*
X154729Y528413D01*
X154724Y528803D01*
X524726Y528803D02*
X524731Y529193D01*
X524745Y529582D01*
X524769Y529971D01*
X524802Y530359D01*
X524845Y530746D01*
X524898Y531132D01*
X524960Y531517D01*
X525031Y531900D01*
X525112Y532281D01*
X525202Y532660D01*
X525301Y533037D01*
X525410Y533411D01*
X525527Y533783D01*
X525654Y534151D01*
X525790Y534516D01*
X525934Y534878D01*
X526088Y535236D01*
X526250Y535590D01*
X526421Y535941D01*
X526600Y536286D01*
X526788Y536628D01*
X526985Y536964D01*
X527189Y537296D01*
X527401Y537623D01*
X527622Y537944D01*
X527850Y538260D01*
X528086Y538570D01*
X528329Y538874D01*
X528580Y539172D01*
X528838Y539464D01*
X529104Y539749D01*
X529376Y540028D01*
X529655Y540300D01*
X529940Y540566D01*
X530232Y540824D01*
X530530Y541075D01*
X530834Y541318D01*
X531144Y541554D01*
X531460Y541782D01*
X531781Y542003D01*
X532108Y542215D01*
X532440Y542419D01*
X532776Y542616D01*
X533118Y542804D01*
X533463Y542983D01*
X533814Y543154D01*
X534168Y543316D01*
X534526Y543470D01*
X534888Y543614D01*
X535253Y543750D01*
X535621Y543877D01*
X535993Y543994D01*
X536367Y544103D01*
X536744Y544202D01*
X537123Y544292D01*
X537504Y544373D01*
X537887Y544444D01*
X538272Y544506D01*
X538658Y544559D01*
X539045Y544602D01*
X539433Y544635D01*
X539822Y544659D01*
X540211Y544673D01*
X540601Y544678D01*
X540991Y544673D01*
X541380Y544659D01*
X541769Y544635D01*
X542157Y544602D01*
X542544Y544559D01*
X542930Y544506D01*
X543315Y544444D01*
X543698Y544373D01*
X544079Y544292D01*
X544458Y544202D01*
X544835Y544103D01*
X545209Y543994D01*
X545581Y543877D01*
X545949Y543750D01*
X546314Y543614D01*
X546676Y543470D01*
X547034Y543316D01*
X547388Y543154D01*
X547739Y542983D01*
X548084Y542804D01*
X548426Y542616D01*
X548762Y542419D01*
X549094Y542215D01*
X549421Y542003D01*
X549742Y541782D01*
X550058Y541554D01*
X550368Y541318D01*
X550672Y541075D01*
X550970Y540824D01*
X551262Y540566D01*
X551547Y540300D01*
X551826Y540028D01*
X552098Y539749D01*
X552364Y539464D01*
X552622Y539172D01*
X552873Y538874D01*
X553116Y538570D01*
X553352Y538260D01*
X553580Y537944D01*
X553801Y537623D01*
X554013Y537296D01*
X554217Y536964D01*
X554414Y536628D01*
X554602Y536286D01*
X554781Y535941D01*
X554952Y535590D01*
X555114Y535236D01*
X555268Y534878D01*
X555412Y534516D01*
X555548Y534151D01*
X555675Y533783D01*
X555792Y533411D01*
X555901Y533037D01*
X556000Y532660D01*
X556090Y532281D01*
X556171Y531900D01*
X556242Y531517D01*
X556304Y531132D01*
X556357Y530746D01*
X556400Y530359D01*
X556433Y529971D01*
X556457Y529582D01*
X556471Y529193D01*
X556476Y528803D01*
X556471Y528413D01*
X556457Y528024D01*
X556433Y527635D01*
X556400Y527247D01*
X556357Y526860D01*
X556304Y526474D01*
X556242Y526089D01*
X556171Y525706D01*
X556090Y525325D01*
X556000Y524946D01*
X555901Y524569D01*
X555792Y524195D01*
X555675Y523823D01*
X555548Y523455D01*
X555412Y523090D01*
X555268Y522728D01*
X555114Y522370D01*
X554952Y522016D01*
X554781Y521665D01*
X554602Y521320D01*
X554414Y520978D01*
X554217Y520642D01*
X554013Y520310D01*
X553801Y519983D01*
X553580Y519662D01*
X553352Y519346D01*
X553116Y519036D01*
X552873Y518732D01*
X552622Y518434D01*
X552364Y518142D01*
X552098Y517857D01*
X551826Y517578D01*
X551547Y517306D01*
X551262Y517040D01*
X550970Y516782D01*
X550672Y516531D01*
X550368Y516288D01*
X550058Y516052D01*
X549742Y515824D01*
X549421Y515603D01*
X549094Y515391D01*
X548762Y515187D01*
X548426Y514990D01*
X548084Y514802D01*
X547739Y514623D01*
X547388Y514452D01*
X547034Y514290D01*
X546676Y514136D01*
X546314Y513992D01*
X545949Y513856D01*
X545581Y513729D01*
X545209Y513612D01*
X544835Y513503D01*
X544458Y513404D01*
X544079Y513314D01*
X543698Y513233D01*
X543315Y513162D01*
X542930Y513100D01*
X542544Y513047D01*
X542157Y513004D01*
X541769Y512971D01*
X541380Y512947D01*
X540991Y512933D01*
X540601Y512928D01*
X540211Y512933D01*
X539822Y512947D01*
X539433Y512971D01*
X539045Y513004D01*
X538658Y513047D01*
X538272Y513100D01*
X537887Y513162D01*
X537504Y513233D01*
X537123Y513314D01*
X536744Y513404D01*
X536367Y513503D01*
X535993Y513612D01*
X535621Y513729D01*
X535253Y513856D01*
X534888Y513992D01*
X534526Y514136D01*
X534168Y514290D01*
X533814Y514452D01*
X533463Y514623D01*
X533118Y514802D01*
X532776Y514990D01*
X532440Y515187D01*
X532108Y515391D01*
X531781Y515603D01*
X531460Y515824D01*
X531144Y516052D01*
X530834Y516288D01*
X530530Y516531D01*
X530232Y516782D01*
X529940Y517040D01*
X529655Y517306D01*
X529376Y517578D01*
X529104Y517857D01*
X528838Y518142D01*
X528580Y518434D01*
X528329Y518732D01*
X528086Y519036D01*
X527850Y519346D01*
X527622Y519662D01*
X527401Y519983D01*
X527189Y520310D01*
X526985Y520642D01*
X526788Y520978D01*
X526600Y521320D01*
X526421Y521665D01*
X526250Y522016D01*
X526088Y522370D01*
X525934Y522728D01*
X525790Y523090D01*
X525654Y523455D01*
X525527Y523823D01*
X525410Y524195D01*
X525301Y524569D01*
X525202Y524946D01*
X525112Y525325D01*
X525031Y525706D01*
X524960Y526089D01*
X524898Y526474D01*
X524845Y526860D01*
X524802Y527247D01*
X524769Y527635D01*
X524745Y528024D01*
X524731Y528413D01*
X524726Y528803D01*
D11*
X186690Y367259D02*
X186741Y371404D01*
X186893Y375547D01*
X187148Y379685D01*
X187503Y383815D01*
X187960Y387935D01*
X188518Y392043D01*
X189177Y396136D01*
X189936Y400212D01*
X190794Y404267D01*
X191752Y408301D01*
X192809Y412309D01*
X193963Y416291D01*
X195215Y420243D01*
X196564Y424163D01*
X198008Y428049D01*
X199548Y431898D01*
X201181Y435708D01*
X202907Y439477D01*
X204725Y443203D01*
X206635Y446883D01*
X208634Y450514D01*
X210721Y454096D01*
X212896Y457625D01*
X215156Y461100D01*
X217502Y464519D01*
X219930Y467879D01*
X222440Y471178D01*
X225031Y474414D01*
X227700Y477586D01*
X230446Y480692D01*
X233267Y483729D01*
X236163Y486696D01*
X239130Y489592D01*
X242167Y492413D01*
X245273Y495159D01*
X248445Y497828D01*
X251681Y500419D01*
X254980Y502929D01*
X258340Y505357D01*
X261759Y507703D01*
X265234Y509963D01*
X268763Y512138D01*
X272345Y514225D01*
X275976Y516224D01*
X279656Y518134D01*
X283382Y519952D01*
X287151Y521678D01*
X290961Y523311D01*
X294810Y524851D01*
X298696Y526295D01*
X302616Y527644D01*
X306568Y528896D01*
X310550Y530050D01*
X314558Y531107D01*
X318592Y532065D01*
X322647Y532923D01*
X326723Y533682D01*
X330816Y534341D01*
X334924Y534899D01*
X339044Y535356D01*
X343174Y535711D01*
X347312Y535966D01*
X351455Y536118D01*
X355600Y536169D01*
X359745Y536118D01*
X363888Y535966D01*
X368026Y535711D01*
X372156Y535356D01*
X376276Y534899D01*
X380384Y534341D01*
X384477Y533682D01*
X388553Y532923D01*
X392608Y532065D01*
X396642Y531107D01*
X400650Y530050D01*
X404632Y528896D01*
X408584Y527644D01*
X412504Y526295D01*
X416390Y524851D01*
X420239Y523311D01*
X424049Y521678D01*
X427818Y519952D01*
X431544Y518134D01*
X435224Y516224D01*
X438855Y514225D01*
X442437Y512138D01*
X445966Y509963D01*
X449441Y507703D01*
X452860Y505357D01*
X456220Y502929D01*
X459519Y500419D01*
X462755Y497828D01*
X465927Y495159D01*
X469033Y492413D01*
X472070Y489592D01*
X475037Y486696D01*
X477933Y483729D01*
X480754Y480692D01*
X483500Y477586D01*
X486169Y474414D01*
X488760Y471178D01*
X491270Y467879D01*
X493698Y464519D01*
X496044Y461100D01*
X498304Y457625D01*
X500479Y454096D01*
X502566Y450514D01*
X504565Y446883D01*
X506475Y443203D01*
X508293Y439477D01*
X510019Y435708D01*
X511652Y431898D01*
X513192Y428049D01*
X514636Y424163D01*
X515985Y420243D01*
X517237Y416291D01*
X518391Y412309D01*
X519448Y408301D01*
X520406Y404267D01*
X521264Y400212D01*
X522023Y396136D01*
X522682Y392043D01*
X523240Y387935D01*
X523697Y383815D01*
X524052Y379685D01*
X524307Y375547D01*
X524459Y371404D01*
X524510Y367259D01*
X524459Y363114D01*
X524307Y358971D01*
X524052Y354833D01*
X523697Y350703D01*
X523240Y346583D01*
X522682Y342475D01*
X522023Y338382D01*
X521264Y334306D01*
X520406Y330251D01*
X519448Y326217D01*
X518391Y322209D01*
X517237Y318227D01*
X515985Y314275D01*
X514636Y310355D01*
X513192Y306469D01*
X511652Y302620D01*
X510019Y298810D01*
X508293Y295041D01*
X506475Y291315D01*
X504565Y287635D01*
X502566Y284004D01*
X500479Y280422D01*
X498304Y276893D01*
X496044Y273418D01*
X493698Y269999D01*
X491270Y266639D01*
X488760Y263340D01*
X486169Y260104D01*
X483500Y256932D01*
X480754Y253826D01*
X477933Y250789D01*
X475037Y247822D01*
X472070Y244926D01*
X469033Y242105D01*
X465927Y239359D01*
X462755Y236690D01*
X459519Y234099D01*
X456220Y231589D01*
X452860Y229161D01*
X449441Y226815D01*
X445966Y224555D01*
X442437Y222380D01*
X438855Y220293D01*
X435224Y218294D01*
X431544Y216384D01*
X427818Y214566D01*
X424049Y212840D01*
X420239Y211207D01*
X416390Y209667D01*
X412504Y208223D01*
X408584Y206874D01*
X404632Y205622D01*
X400650Y204468D01*
X396642Y203411D01*
X392608Y202453D01*
X388553Y201595D01*
X384477Y200836D01*
X380384Y200177D01*
X376276Y199619D01*
X372156Y199162D01*
X368026Y198807D01*
X363888Y198552D01*
X359745Y198400D01*
X355600Y198349D01*
X351455Y198400D01*
X347312Y198552D01*
X343174Y198807D01*
X339044Y199162D01*
X334924Y199619D01*
X330816Y200177D01*
X326723Y200836D01*
X322647Y201595D01*
X318592Y202453D01*
X314558Y203411D01*
X310550Y204468D01*
X306568Y205622D01*
X302616Y206874D01*
X298696Y208223D01*
X294810Y209667D01*
X290961Y211207D01*
X287151Y212840D01*
X283382Y214566D01*
X279656Y216384D01*
X275976Y218294D01*
X272345Y220293D01*
X268763Y222380D01*
X265234Y224555D01*
X261759Y226815D01*
X258340Y229161D01*
X254980Y231589D01*
X251681Y234099D01*
X248445Y236690D01*
X245273Y239359D01*
X242167Y242105D01*
X239130Y244926D01*
X236163Y247822D01*
X233267Y250789D01*
X230446Y253826D01*
X227700Y256932D01*
X225031Y260104D01*
X222440Y263340D01*
X219930Y266639D01*
X217502Y269999D01*
X215156Y273418D01*
X212896Y276893D01*
X210721Y280422D01*
X208634Y284004D01*
X206635Y287635D01*
X204725Y291315D01*
X202907Y295041D01*
X201181Y298810D01*
X199548Y302620D01*
X198008Y306469D01*
X196564Y310355D01*
X195215Y314275D01*
X193963Y318227D01*
X192809Y322209D01*
X191752Y326217D01*
X190794Y330251D01*
X189936Y334306D01*
X189177Y338382D01*
X188518Y342475D01*
X187960Y346583D01*
X187503Y350703D01*
X187148Y354833D01*
X186893Y358971D01*
X186741Y363114D01*
X186690Y367259D01*
X38100Y367259D02*
X38196Y375051D01*
X38482Y382838D01*
X38960Y390616D01*
X39629Y398379D01*
X40488Y406124D01*
X41536Y413846D01*
X42774Y421539D01*
X44201Y429200D01*
X45815Y436824D01*
X47615Y444405D01*
X49601Y451940D01*
X51771Y459424D01*
X54125Y466853D01*
X56660Y474222D01*
X59375Y481526D01*
X62268Y488761D01*
X65338Y495923D01*
X68583Y503008D01*
X72001Y510011D01*
X75590Y516927D01*
X79347Y523754D01*
X83271Y530487D01*
X87359Y537121D01*
X91608Y543653D01*
X96017Y550078D01*
X100582Y556394D01*
X105300Y562595D01*
X110169Y568679D01*
X115186Y574641D01*
X120348Y580479D01*
X125652Y586188D01*
X131094Y591765D01*
X136671Y597207D01*
X142380Y602511D01*
X148218Y607673D01*
X154180Y612690D01*
X160264Y617559D01*
X166465Y622277D01*
X172781Y626842D01*
X179206Y631251D01*
X185738Y635500D01*
X192372Y639588D01*
X199105Y643512D01*
X205932Y647269D01*
X212848Y650858D01*
X219851Y654276D01*
X226936Y657521D01*
X234098Y660591D01*
X241333Y663484D01*
X248637Y666199D01*
X256006Y668734D01*
X263435Y671088D01*
X270919Y673258D01*
X278454Y675244D01*
X286035Y677044D01*
X293659Y678658D01*
X301320Y680085D01*
X309013Y681323D01*
X316735Y682371D01*
X324480Y683230D01*
X332243Y683899D01*
X340021Y684377D01*
X347808Y684663D01*
X355600Y684759D01*
X363392Y684663D01*
X371179Y684377D01*
X378957Y683899D01*
X386720Y683230D01*
X394465Y682371D01*
X402187Y681323D01*
X409880Y680085D01*
X417541Y678658D01*
X425165Y677044D01*
X432746Y675244D01*
X440281Y673258D01*
X447765Y671088D01*
X455194Y668734D01*
X462563Y666199D01*
X469867Y663484D01*
X477102Y660591D01*
X484264Y657521D01*
X491349Y654276D01*
X498352Y650858D01*
X505268Y647269D01*
X512095Y643512D01*
X518828Y639588D01*
X525462Y635500D01*
X531994Y631251D01*
X538419Y626842D01*
X544735Y622277D01*
X550936Y617559D01*
X557020Y612690D01*
X562982Y607673D01*
X568820Y602511D01*
X574529Y597207D01*
X580106Y591765D01*
X585548Y586188D01*
X590852Y580479D01*
X596014Y574641D01*
X601031Y568679D01*
X605900Y562595D01*
X610618Y556394D01*
X615183Y550078D01*
X619592Y543653D01*
X623841Y537121D01*
X627929Y530487D01*
X631853Y523754D01*
X635610Y516927D01*
X639199Y510011D01*
X642617Y503008D01*
X645862Y495923D01*
X648932Y488761D01*
X651825Y481526D01*
X654540Y474222D01*
X657075Y466853D01*
X659429Y459424D01*
X661599Y451940D01*
X663585Y444405D01*
X665385Y436824D01*
X666999Y429200D01*
X668426Y421539D01*
X669664Y413846D01*
X670712Y406124D01*
X671571Y398379D01*
X672240Y390616D01*
X672718Y382838D01*
X673004Y375051D01*
X673100Y367259D01*
X673004Y359467D01*
X672718Y351680D01*
X672240Y343902D01*
X671571Y336139D01*
X670712Y328394D01*
X669664Y320672D01*
X668426Y312979D01*
X666999Y305318D01*
X665385Y297694D01*
X663585Y290113D01*
X661599Y282578D01*
X659429Y275094D01*
X657075Y267665D01*
X654540Y260296D01*
X651825Y252992D01*
X648932Y245757D01*
X645862Y238595D01*
X642617Y231510D01*
X639199Y224507D01*
X635610Y217591D01*
X631853Y210764D01*
X627929Y204031D01*
X623841Y197397D01*
X619592Y190865D01*
X615183Y184440D01*
X610618Y178124D01*
X605900Y171923D01*
X601031Y165839D01*
X596014Y159877D01*
X590852Y154039D01*
X585548Y148330D01*
X580106Y142753D01*
X574529Y137311D01*
X568820Y132007D01*
X562982Y126845D01*
X557020Y121828D01*
X550936Y116959D01*
X544735Y112241D01*
X538419Y107676D01*
X531994Y103267D01*
X525462Y99018D01*
X518828Y94930D01*
X512095Y91006D01*
X505268Y87249D01*
X498352Y83660D01*
X491349Y80242D01*
X484264Y76997D01*
X477102Y73927D01*
X469867Y71034D01*
X462563Y68319D01*
X455194Y65784D01*
X447765Y63430D01*
X440281Y61260D01*
X432746Y59274D01*
X425165Y57474D01*
X417541Y55860D01*
X409880Y54433D01*
X402187Y53195D01*
X394465Y52147D01*
X386720Y51288D01*
X378957Y50619D01*
X371179Y50141D01*
X363392Y49855D01*
X355600Y49759D01*
X347808Y49855D01*
X340021Y50141D01*
X332243Y50619D01*
X324480Y51288D01*
X316735Y52147D01*
X309013Y53195D01*
X301320Y54433D01*
X293659Y55860D01*
X286035Y57474D01*
X278454Y59274D01*
X270919Y61260D01*
X263435Y63430D01*
X256006Y65784D01*
X248637Y68319D01*
X241333Y71034D01*
X234098Y73927D01*
X226936Y76997D01*
X219851Y80242D01*
X212848Y83660D01*
X205932Y87249D01*
X199105Y91006D01*
X192372Y94930D01*
X185738Y99018D01*
X179206Y103267D01*
X172781Y107676D01*
X166465Y112241D01*
X160264Y116959D01*
X154180Y121828D01*
X148218Y126845D01*
X142380Y132007D01*
X136671Y137311D01*
X131094Y142753D01*
X125652Y148330D01*
X120348Y154039D01*
X115186Y159877D01*
X110169Y165839D01*
X105300Y171923D01*
X100582Y178124D01*
X96017Y184440D01*
X91608Y190865D01*
X87359Y197397D01*
X83271Y204031D01*
X79347Y210764D01*
X75590Y217591D01*
X72001Y224507D01*
X68583Y231510D01*
X65338Y238595D01*
X62268Y245757D01*
X59375Y252992D01*
X56660Y260296D01*
X54125Y267665D01*
X51771Y275094D01*
X49601Y282578D01*
X47615Y290113D01*
X45815Y297694D01*
X44201Y305318D01*
X42774Y312979D01*
X41536Y320672D01*
X40488Y328394D01*
X39629Y336139D01*
X38960Y343902D01*
X38482Y351680D01*
X38196Y359467D01*
X38100Y367259D01*
M02*
