G04 EAGLE Gerber RS-274X export*
G75*
%MOMM*%
%FSLAX34Y34*%
%LPD*%
%INSoldermask Top*%
%IPPOS*%
%AMOC8*
5,1,8,0,0,1.08239X$1,22.5*%
G01*
%ADD10C,3.276600*%
%ADD11P,1.429621X8X112.500000*%
%ADD12P,1.429621X8X67.500000*%
%ADD13P,1.429621X8X22.500000*%
%ADD14P,1.429621X8X337.500000*%
%ADD15P,1.429621X8X292.500000*%
%ADD16C,1.473200*%
%ADD17P,1.429621X8X247.500000*%
%ADD18P,1.429621X8X202.500000*%
%ADD19P,1.429621X8X157.500000*%


D10*
X170599Y528803D03*
X540601Y528803D03*
D11*
X355600Y138430D03*
X355600Y163830D03*
X355600Y83820D03*
X355600Y109220D03*
D12*
X194220Y204906D03*
X212180Y222866D03*
X155222Y166652D03*
X173182Y184612D03*
D13*
X127000Y367030D03*
X152400Y367030D03*
X71120Y367030D03*
X96520Y367030D03*
D14*
X220518Y550898D03*
X238478Y532938D03*
X183316Y591910D03*
X201276Y573950D03*
D15*
X355600Y595630D03*
X355600Y570230D03*
X355600Y650240D03*
X355600Y624840D03*
D16*
X132588Y311150D02*
X118872Y311150D01*
X118872Y285750D02*
X132588Y285750D01*
D11*
X313690Y86360D03*
X313690Y162560D03*
D12*
X127101Y201813D03*
X180983Y255695D03*
D13*
X80010Y411480D03*
X156210Y411480D03*
D14*
X215257Y615323D03*
X269139Y561441D03*
D15*
X393700Y647700D03*
X393700Y571500D03*
D17*
X526242Y593552D03*
X508282Y575592D03*
X491208Y550372D03*
X473248Y532412D03*
X495353Y612937D03*
X441471Y559055D03*
D18*
X640080Y367030D03*
X614680Y367030D03*
X582930Y367030D03*
X557530Y367030D03*
X629920Y403860D03*
X553720Y403860D03*
D19*
X556350Y166806D03*
X538390Y184766D03*
X516980Y205650D03*
X499020Y223610D03*
X585369Y199183D03*
X531487Y253065D03*
M02*
